<?xml version="1.0" standalone="no"?>
<!DOCTYPE svg PUBLIC "-//W3C//DTD SVG 1.1//EN" "http://www.w3.org/Graphics/SVG/1.1/DTD/svg11.dtd" >
<svg xmlns="http://www.w3.org/2000/svg" xmlns:xlink="http://www.w3.org/1999/xlink" version="1.1">
<metadata></metadata>
<defs>
<font id="tf_uthongbold_italic" horiz-adv-x="864" >
<font-face units-per-em="2048" ascent="1638" descent="-410" />
<missing-glyph horiz-adv-x="518" />
<glyph unicode="ffj" horiz-adv-x="1449" d="M35 0l14 70h55q39 0 50.5 22.5t19.5 59.5l92 434h-123l19 86h123q12 53 38.5 117.5t73.5 121t116 94t165 37.5q33 0 65.5 -10t57 -29.5t38 -48t5.5 -67.5q-10 -47 -47 -81t-88 -34q-39 0 -67 27.5t-17 68.5q6 25 15 40.5t19.5 24.5t18.5 15t10 13q2 10 -8 11t-18 1 q-33 0 -55.5 -20.5t-38 -48t-24.5 -58.5t-14 -51l-26 -123h293q12 53 38.5 117.5t73.5 121t116 94t165 37.5q33 0 65.5 -10t57 -29.5t38 -48t5.5 -67.5q-10 -47 -47 -81t-88 -34q-39 0 -67 27.5t-17 68.5q6 25 15 40.5t19.5 24.5t18.5 15t10 13q2 10 -8 11t-18 1 q-33 0 -55.5 -20.5t-38 -48t-24.5 -58.5t-14 -51l-26 -123h178l-18 -86h-179l-96 -453q-6 -33 -1 -48t52 -15h74l-14 -70h-465l14 70h55q39 0 50.5 22.5t19.5 59.5l92 434h-293l-96 -453q-6 -33 -1 -48t52 -15h74l-14 -70h-465zM549 0l14 70h55q39 0 50.5 22.5t19.5 59.5 l92 434h-123l19 86h123q12 53 38.5 117.5t73.5 121t116 94t165 37.5q33 0 65.5 -10t57 -29.5t38 -48t5.5 -67.5q-10 -47 -47 -81t-88 -34q-39 0 -67 27.5t-17 68.5q6 25 15 40.5t19.5 24.5t18.5 15t10 13q2 10 -8 11t-18 1q-33 0 -55.5 -20.5t-38 -48t-24.5 -58.5t-14 -51 l-26 -123h518h-2h12l-112 -533q-10 -43 -20.5 -86t-31.5 -84q-25 -59 -50 -100t-79 -84q-43 -35 -99 -54.5t-103 -19.5q-33 0 -67 7.5t-60.5 24.5t-40 44t-4.5 66q10 45 48 74.5t81 29.5q41 0 62.5 -26.5t10.5 -67.5q-4 -16 -13 -29.5t-19 -26.5q-6 -8 -17.5 -12t-1.5 -12 q10 -6 21.5 -7t23.5 1q23 6 41 20q16 20 24.5 38t16.5 40q8 29 14.5 59.5t12.5 59.5l102 487q4 16 8 36t4 36q-4 12 -5 18.5t-13 10.5q-14 4 -30.5 4h-33.5h-217l-96 -453q-6 -33 -1 -48t52 -15h74l-14 -70h-465z" />
<glyph unicode="fj" horiz-adv-x="929" d="M35 0l14 70h55q39 0 50.5 22.5t19.5 59.5l92 434h-123l19 86h123q12 53 38.5 117.5t73.5 121t116 94t165 37.5q33 0 65.5 -10t57 -29.5t38 -48t5.5 -67.5q-10 -47 -47 -81t-88 -34q-39 0 -67 27.5t-17 68.5q6 25 15 40.5t19.5 24.5t18.5 15t10 13q2 10 -8 11t-18 1 q-33 0 -55.5 -20.5t-38 -48t-24.5 -58.5t-14 -51l-26 -123h518h-2h12l-112 -533q-10 -43 -20.5 -86t-31.5 -84q-25 -59 -50 -100t-79 -84q-43 -35 -99 -54.5t-103 -19.5q-33 0 -67 7.5t-60.5 24.5t-40 44t-4.5 66q10 45 48 74.5t81 29.5q41 0 62.5 -26.5t10.5 -67.5 q-4 -16 -13 -29.5t-19 -26.5q-6 -8 -17.5 -12t-1.5 -12q10 -6 21.5 -7t23.5 1q23 6 41 20q16 20 24.5 38t16.5 40q8 29 14.5 59.5t12.5 59.5l102 487q4 16 8 36t4 36q-4 12 -5 18.5t-13 10.5q-14 4 -30.5 4h-33.5h-217l-96 -453q-6 -33 -1 -48t52 -15h74l-14 -70h-465z" />
<glyph unicode="&#xe24;&#xe32;" horiz-adv-x="1214" d="M176 201l45 213q12 55 51 94q27 25 52.5 32t29.5 7l-168 6q6 12 26.5 56t65 92.5t118 85t186.5 36.5q100 0 158.5 -24.5t88 -62.5t33.5 -84t-4 -89l-166 -780l-104 -90h-84l190 901q6 29 3 55.5t-20.5 48t-51 33.5t-88.5 12q-61 0 -102.5 -19t-67 -42t-37 -41t-11.5 -20 l209 -15l-10 -51l-24 -4q-10 -4 -21.5 -7t-21.5 -14q-41 -35 -52 -81l-37 -173q2 0 31 3.5t66 -15.5q43 -23 49 -62.5t-8 -82.5q-20 -59 -72.5 -92t-114.5 -29q-82 4 -120.5 50t-16.5 153zM296 139.5q-5 -24.5 7 -45t45 -20.5t54.5 20.5t26.5 45t-7 45t-45 20.5t-54.5 -20.5 t-26.5 -45zM702 600l5 121q27 29 67 51q35 18 89.5 33.5t131.5 15.5q98 0 149.5 -28.5t72 -68.5t18.5 -83t-8 -76l-166 -782l-105 -90h-84l193 909q14 68 -22.5 103.5t-124.5 31.5q-55 -2 -96.5 -23.5t-67 -46t-38.5 -45.5z" />
<glyph unicode="&#xe26;&#xe32;" horiz-adv-x="1263" d="M80 119q4 39 24.5 75.5t61.5 61.5q35 20 59.5 21.5t28.5 1.5l27 135q12 55 51 94q27 25 52.5 32t29.5 7l-168 6q6 12 26.5 56t64.5 92.5t117.5 85t186.5 36.5q100 0 158.5 -24.5t88.5 -62.5t34 -84t-4 -89l-166 -780l-105 -90h-84l191 901q6 29 3 55.5t-20.5 48 t-51.5 33.5t-89 12q-61 0 -102 -19t-67 -42t-37 -41t-11 -20l209 -15l-10 -51q-12 -2 -25 -4q-10 -4 -21.5 -7t-21.5 -14q-41 -35 -51 -81l-58 -285q-16 -72 -68 -118t-130 -48q-55 -2 -92 31.5t-31 89.5zM165 141.5q-5 -24.5 7 -45t45 -20.5t54.5 20.5t26.5 45t-7 45 t-45 20.5t-54.5 -20.5t-26.5 -45zM754 600l4 121q27 29 67 51q35 18 89.5 33.5t129.5 15.5q98 0 149.5 -28.5t72 -68.5t18.5 -83t-8 -76l-166 -782l-104 -90h-84l192 909q14 68 -21.5 103.5t-125.5 31.5q-55 -2 -95.5 -23.5t-67 -46t-38.5 -45.5z" />
<glyph unicode="ff" horiz-adv-x="1083" d="M35 0l14 70h55q39 0 50.5 22.5t19.5 59.5l92 434h-123l19 86h123q12 53 38.5 117.5t73.5 121t116 94t165 37.5q33 0 65.5 -10t57 -29.5t38 -48t5.5 -67.5q-10 -47 -47 -81t-88 -34q-39 0 -67 27.5t-17 68.5q6 25 15 40.5t19.5 24.5t18.5 15t10 13q2 10 -8 11t-18 1 q-33 0 -55.5 -20.5t-38 -48t-24.5 -58.5t-14 -51l-26 -123h293q12 53 38.5 117.5t73.5 121t116 94t165 37.5q33 0 65.5 -10t57 -29.5t38 -48t5.5 -67.5q-10 -47 -47 -81t-88 -34q-39 0 -67 27.5t-17 68.5q6 25 15 40.5t19.5 24.5t18.5 15t10 13q2 10 -8 11t-18 1 q-33 0 -55.5 -20.5t-38 -48t-24.5 -58.5t-14 -51l-26 -123h178l-18 -86h-179l-96 -453q-6 -33 -1 -48t52 -15h74l-14 -70h-465l14 70h55q39 0 50.5 22.5t19.5 59.5l92 434h-293l-96 -453q-6 -33 -1 -48t52 -15h74l-14 -70h-465z" />
<glyph unicode="fi" horiz-adv-x="1011" d="M35 0l14 70h55q39 0 50.5 22.5t19.5 59.5l92 434h-123l19 86h123q12 53 38.5 117.5t73.5 121t116 94t165 37.5q33 0 65.5 -10t57 -29.5t38 -48t5.5 -67.5q-10 -47 -47 -81t-88 -34q-39 0 -67 27.5t-17 68.5q6 25 15 40.5t19.5 24.5t18.5 15t10 13q2 10 -8 11t-18 1 q-33 0 -55.5 -20.5t-38 -48t-24.5 -58.5t-14 -51l-26 -123h504h-2h14l-113 -529q-2 -10 -5 -32.5t3 -30.5q8 -10 25.5 -10h32.5h34l-14 -70h-434l14 70h58q14 0 29.5 4t23.5 20q8 23 14 53l66 312q6 29 13 59.5t-1 52.5q-12 10 -18.5 11.5t-22.5 3.5h-240l-96 -453 q-6 -33 -1 -48t52 -15h74l-14 -70h-465z" />
<glyph unicode="fl" horiz-adv-x="1005" d="M35 0l14 70h55q39 0 50.5 22.5t19.5 59.5l92 434h-123l19 86h123q12 53 38.5 117.5t73.5 121t116 94t165 37.5q39 0 82 -16l325 16l-186 -878q-4 -16 -7 -33.5t-7 -34.5q-2 -12 7 -17t21.5 -7t25.5 -2h22h26l-14 -70h-436l14 70h31q16 2 34.5 2t34.5 8q14 14 19.5 40.5 t9.5 43.5q35 162 63 299q12 57 24.5 116.5t23 109.5t18.5 90.5t12 58.5q8 41 -1 67.5t-32.5 42t-56.5 20.5t-69 5q-33 0 -55.5 -20.5t-38 -48t-24.5 -58.5t-14 -51l-26 -123h178l-18 -86h-179l-96 -453q-6 -33 -1 -48t52 -15h74l-14 -70h-465z" />
<glyph unicode="ffi" horiz-adv-x="1515" d="M35 0l14 70h55q39 0 50.5 22.5t19.5 59.5l92 434h-123l19 86h123q12 53 38.5 117.5t73.5 121t116 94t165 37.5q33 0 65.5 -10t57 -29.5t38 -48t5.5 -67.5q-10 -47 -47 -81t-88 -34q-39 0 -67 27.5t-17 68.5q6 25 15 40.5t19.5 24.5t18.5 15t10 13q2 10 -8 11t-18 1 q-33 0 -55.5 -20.5t-38 -48t-24.5 -58.5t-14 -51l-26 -123h293q12 53 38.5 117.5t73.5 121t116 94t165 37.5q33 0 65.5 -10t57 -29.5t38 -48t5.5 -67.5q-10 -47 -47 -81t-88 -34q-39 0 -67 27.5t-17 68.5q6 25 15 40.5t19.5 24.5t18.5 15t10 13q2 10 -8 11t-18 1 q-33 0 -55.5 -20.5t-38 -48t-24.5 -58.5t-14 -51l-26 -123h178l-18 -86h-179l-96 -453q-6 -33 -1 -48t52 -15h74l-14 -70h-465l14 70h55q39 0 50.5 22.5t19.5 59.5l92 434h-293l-96 -453q-6 -33 -1 -48t52 -15h74l-14 -70h-465zM549 0l14 70h55q39 0 50.5 22.5t19.5 59.5 l92 434h-123l19 86h123q12 53 38.5 117.5t73.5 121t116 94t165 37.5q33 0 65.5 -10t57 -29.5t38 -48t5.5 -67.5q-10 -47 -47 -81t-88 -34q-39 0 -67 27.5t-17 68.5q6 25 15 40.5t19.5 24.5t18.5 15t10 13q2 10 -8 11t-18 1q-33 0 -55.5 -20.5t-38 -48t-24.5 -58.5t-14 -51 l-26 -123h504h-2h14l-113 -529q-2 -10 -5 -32.5t3 -30.5q8 -10 25.5 -10h32.5h34l-14 -70h-434l14 70h58q14 0 29.5 4t23.5 20q8 23 14 53l66 312q6 29 13 59.5t-1 52.5q-12 10 -18.5 11.5t-22.5 3.5h-240l-96 -453q-6 -33 -1 -48t52 -15h74l-14 -70h-465z" />
<glyph unicode="ffl" horiz-adv-x="1005" d="M35 0l14 70h55q39 0 50.5 22.5t19.5 59.5l92 434h-123l19 86h123q12 53 38.5 117.5t73.5 121t116 94t165 37.5q33 0 65.5 -10t57 -29.5t38 -48t5.5 -67.5q-10 -47 -47 -81t-88 -34q-39 0 -67 27.5t-17 68.5q6 25 15 40.5t19.5 24.5t18.5 15t10 13q2 10 -8 11t-18 1 q-33 0 -55.5 -20.5t-38 -48t-24.5 -58.5t-14 -51l-26 -123h504h-2h14l-113 -529q-2 -10 -5 -32.5t3 -30.5q8 -10 25.5 -10h32.5h34l-14 -70h-434l14 70h58q14 0 29.5 4t23.5 20q8 23 14 53l66 312q6 29 13 59.5t-1 52.5q-12 10 -18.5 11.5t-22.5 3.5h-240l-96 -453 q-6 -33 -1 -48t52 -15h74l-14 -70h-465zM547 0l14 70h55q39 0 50.5 22.5t19.5 59.5l92 434h-123l19 86h123q12 53 38.5 117.5t73.5 121t116 94t165 37.5q39 0 82 -16l325 16l-186 -878q-4 -16 -7 -33.5t-7 -34.5q-2 -12 7 -17t21.5 -7t25.5 -2h22h26l-14 -70h-436l14 70h31 q16 2 34.5 2t34.5 8q14 14 19.5 40.5t9.5 43.5q35 162 63 299q12 57 24.5 116.5t23 109.5t18.5 90.5t12 58.5q8 41 -1 67.5t-32.5 42t-56.5 20.5t-69 5q-33 0 -55.5 -20.5t-38 -48t-24.5 -58.5t-14 -51l-26 -123h178l-18 -86h-179l-96 -453q-6 -33 -1 -48t52 -15h74l-14 -70 h-465z" />
<glyph unicode="[TEMPLATENCH]" horiz-adv-x="2344" d="M270 991l4 19h222l-4 -19h-101l-53 -254h-21l54 254h-101zM518 821q10 43 40 68.5t65 25.5q27 0 39 -10t16 -24.5t2 -29.5t-4 -26h-139q-8 -37 9 -54t46 -17q16 0 32.5 4t28.5 8l-2 -16q-29 -12 -65 -13q-39 0 -57.5 23.5t-10.5 60.5zM543 842h119q4 12 -2.5 34.5 t-43.5 22.5q-31 0 -49 -19.5t-24 -37.5zM807 745l27 125q2 10 4 21.5t2 21.5h18l-4 -30q23 33 66 32q18 0 29.5 -10t15.5 -26q23 37 69 36q6 0 15.5 -2t17.5 -10t11 -23.5t-3 -41.5l-12 -58q-2 -4 -1 -11t1 -11q0 -8 2 -13h2l-20 -8q-2 4 -3 13q-4 12 0 30l13 58q8 29 -2 45 q-8 16 -31 16q-18 0 -37.5 -15.5t-23.5 -31.5l-23 -107h-18l20 101q12 53 -31 53q-18 0 -33.5 -11t-25.5 -26q-2 -4 -6 -16l-21 -101h-18zM1198 670q2 0 8 11t11 26l30 147q4 14 6 27.5t4 27.5h19l-6 -32q16 16 34.5 26t43.5 10q39 0 55 -25.5t8 -60.5q-10 -45 -40 -68.5 t-64 -23.5q-45 0 -60 31l-12 -59q-2 -8 -5 -14.5t-7 -12.5q-4 -8 -9 -14zM1255 795q2 -16 17.5 -29.5t38.5 -13.5q66 -1 82 75q6 29 -6.5 49.5t-43.5 20.5q-23 0 -43 -11.5t-30 -33.5q-4 -4 -5 -7t-3 -7l-7 -31v-12zM1564 768q-5 29 3 66l39 178h20l-37 -170 q-6 -29 -6 -57.5t37 -28.5l-6 -19q-45 2 -50 31zM1747 782q6 29 35.5 46.5t87.5 17.5h2v2q2 4 3 12t-2 16.5t-10.5 14.5t-23.5 6q-23 0 -38 -5l-21 -7l2 18q10 4 28.5 7t30.5 3q23 0 34 -7t16 -18t4 -23.5t-3 -22.5l-14 -62v-26q-2 -4 -2 -15l-18 -4v29q-10 -10 -28 -19.5 t-40 -9.5h-8h-2q-16 2 -23 10q-18 14 -10 37zM1767 784q-4 -16 5.5 -24t23.5 -8q25 0 39 11t25 21q0 4 1 6.5t1 4.5l6 32q-31 2 -62.5 -6t-38.5 -37zM2050 942l8 21h41l10 41l27 8l-12 -49h69l-10 -21h-63l-29 -139q-4 -18 0 -31.5t23 -13.5q16 0 32 4l-4 -21q-4 -2 -13 -4 t-22 -2q-31 0 -36 19q-6 10 -7.5 23.5t2.5 29.5l29 135h-45zM2279 821q10 43 40 68.5t65 25.5q27 0 39 -10t16 -24.5t2 -29.5t-4 -26h-139q-8 -37 9 -54t46 -17q16 0 32.5 4t29.5 8l-2 -16q-29 -12 -66 -13q-39 0 -57.5 23.5t-10.5 60.5zM2304 842h119q4 12 -2 34.5 t-43 22.5q-31 0 -49.5 -19.5t-24.5 -37.5z" />
<glyph unicode="&#xd;" horiz-adv-x="452" />
<glyph unicode=" "  horiz-adv-x="518" />
<glyph unicode="&#x09;" horiz-adv-x="518" />
<glyph unicode="&#xa0;" horiz-adv-x="518" />
<glyph unicode="!" horiz-adv-x="544" d="M210 109q9 43 45 77.5t91 34.5t76.5 -34.5t12.5 -77.5t-45 -78t-91 -35t-76.5 35t-12.5 78zM322 307l67 649q4 41 43 77t94 36t76 -35t8 -76l-207 -651h-81z" />
<glyph unicode="&#x22;" horiz-adv-x="757" d="M297 993q8 45 48 81t97 36t81 -36t16 -81q-10 -41 -69.5 -155.5t-111.5 -239.5h-49q2 125 -10 239.5t-2 155.5zM641 993q8 45 47 81t98 36q55 0 79 -36t16 -81q-10 -41 -68.5 -155.5t-110.5 -239.5h-51q2 125 -9 239.5t-1 155.5z" />
<glyph unicode="#" horiz-adv-x="1071" d="M170 305l29 64h209l90 190h-205l37 66h198l125 249h105l-127 -249h168l123 241h106l-123 -241h225l-32 -64h-226l-96 -186h240l-35 -68h-231l-150 -307h-104l151 305h-170l-147 -305h-103l146 305h-203zM508 371h170l94 190h-172z" />
<glyph unicode="$" horiz-adv-x="970" d="M191.5 211q5.5 39 26.5 70t56 41q39 10 66 0.5t31 -37.5q4 -29 -4.5 -53.5t-32.5 -41.5q-14 -8 -35 -12q-10 -2 -23 -2q0 -14 5 -26q4 -10 11 -22.5t23 -23.5q31 -20 56.5 -25t25.5 -3l74 344q-14 2 -31 10q-14 6 -32.5 15.5t-38.5 25.5q-31 20 -49.5 55t-18.5 74 t22.5 80t73.5 76q33 23 61.5 35t50 18t33.5 7l13 1l23 101h69l-20 -95h96l20 95h70l-22 -103q51 -6 92 -27q35 -16 65.5 -49.5t34.5 -89.5q2 -35 -20.5 -73.5t-69.5 -45.5q-43 -4 -67.5 22t-8.5 64q8 16 17.5 27.5t19.5 20.5q10 8 23 12q0 2 -7.5 20.5t-29.5 28.5 q-10 4 -20.5 7t-20.5 7t-23 6l-59 -280l14 -6t37 -16.5t49.5 -27t48.5 -40.5q31 -31 41.5 -72t2 -82t-34 -81t-66.5 -70q-27 -20 -59.5 -32.5t-62.5 -20t-49.5 -10.5t-19.5 -5l-24 -111h-70l25 109h-96l-25 -109h-70l25 109q0 2 -12.5 5t-33 10.5t-45 18.5t-48.5 32 q-33 27 -45.5 66.5t-7 78.5zM434 594.5q8 -21.5 21.5 -33.5t28 -16t14.5 -2l43 202l-13 -5q-14 -5 -30.5 -17t-34 -30.5t-25.5 -43.5q-12 -33 -4 -54.5zM465 63h96l66 306l-90 34zM561 518l90 -29l58 267q-4 0 -13 2q-16 4 -30 4q-20 0 -37 -2t-17 -4zM633 70q29 6 55 22 q23 14 45.5 40t32.5 67q10 39 -1 65.5t-28 42.5q-20 20 -47 33z" />
<glyph unicode="%" horiz-adv-x="1312" d="M208 380q-9 44 5 90t45 93t68 90q37 39 80 72t87 49.5t88 15.5t83 -26q41 -27 53 -67t1 -87t-40 -97t-72 -95q-35 -37 -77 -73t-88 -56.5t-92 -20.5t-89 35q-43 33 -52 77zM274 -94l811 987h127l-806 -987h-132zM313 417.5q0 -24.5 21 -40.5q20 -16 44.5 -11t50.5 21 t51.5 42t45.5 50q20 25 41 52.5t33 54t12 49t-20 39.5q-20 14 -44 10t-49.5 -20.5t-50.5 -39.5t-45 -46q-20 -25 -41.5 -52.5t-35 -55.5t-13.5 -52.5zM777 126q-9 44 4.5 90t44 93t69.5 90q37 39 79 72t87 49.5t88 15.5t82 -26q41 -27 53 -67t2 -87t-39.5 -97t-70.5 -95 q-35 -37 -78 -73t-89 -56.5t-92.5 -20.5t-87.5 35q-43 33 -52 77zM882 163.5q-1 -24.5 19 -40.5t46 -11t51.5 21.5t51 42t46.5 49.5q18 25 38.5 52.5t34 54t13.5 49t-21 39.5q-20 14 -44.5 10t-50.5 -20.5t-49.5 -39.5t-43.5 -46q-23 -25 -43.5 -52.5t-33.5 -55.5t-14 -52.5 z" />
<glyph unicode="&#x26;" horiz-adv-x="925" d="M166 201q8 66 44 112.5t76 76.5t71.5 44.5t33.5 14.5q-2 0 -14 16t-24.5 43t-17.5 64.5t7 80.5q27 82 102.5 125t169.5 45q49 2 85 -10t57.5 -32.5t32 -47t8.5 -57.5q-4 -59 -38 -104.5t-74 -74t-73 -43.5l-32 -14q4 -10 12 -20q4 -10 11 -21.5t15 -25.5t16.5 -27.5 t16.5 -23.5q8 -12 19 -25q2 2 10 15.5t22 41.5q4 10 8.5 20.5t6.5 18.5t4 19l115 -17q-2 -12 -9 -26q-4 -12 -12 -32t-20 -42q-23 -47 -44.5 -68.5l-25.5 -25.5q0 -2 19.5 -37t41.5 -70q31 -49 50.5 -71.5t21.5 -22.5h-178q-2 0 -11.5 13.5t-21.5 31.5q-8 10 -11 18.5 t-7 12.5q-4 6 -4 10q-23 -23 -54 -43q-27 -16 -65.5 -31.5t-89.5 -17.5q-135 -4 -198.5 52t-51.5 155zM297 209q-12 -72 26.5 -104.5t94.5 -30.5q35 2 61.5 14t44.5 29q23 18 39 39q-14 18 -28 41q-12 18 -25.5 38.5t-24.5 38.5q-23 35 -38 65t-15 32q-35 -18 -61 -41 q-25 -20 -46.5 -50t-27.5 -71zM475 647q-4 -27 6.5 -51.5t20.5 -44.5q12 -23 30 -45q35 14 64 37q25 18 48.5 48t29.5 71q2 14 2 30.5t-6 30.5t-21.5 23.5t-44.5 9.5q-66 0 -95.5 -37t-33.5 -72z" />
<glyph unicode="'" horiz-adv-x="399" d="M291 993q8 45 47 81t98 36q55 0 78.5 -36t15.5 -81q-10 -41 -68.5 -155.5t-109.5 -239.5h-51q2 125 -9 239.5t-1 155.5z" />
<glyph unicode="(" horiz-adv-x="731" d="M194.5 194.5q-12.5 96.5 12.5 215.5q27 121 79 218t116.5 171.5t133 129t124 88.5t92.5 49l36 15l21 -30q-96 -55 -180 -144q-37 -39 -74 -88t-70.5 -111.5t-62.5 -137t-47 -164.5q-25 -115 -22 -207.5t22.5 -163t48.5 -122.5t55.5 -85t46.5 -48l19 -16l-39 -26l-30 16 q-30 17 -70.5 52.5t-87 89t-79 128t-45 171z" />
<glyph unicode=")" horiz-adv-x="731" d="M63 -236l26 16q26 15 67 48t92 85t100 122.5t92 163t68 207.5q37 180 17.5 301.5t-60.5 199.5q-47 88 -117 144l33 30l29 -15q30 -15 71 -49t86 -88.5t78 -129t44 -172t-13 -217.5q-25 -119 -78 -215.5t-117.5 -171t-134.5 -128t-126 -89t-93 -52.5l-37 -16z" />
<glyph unicode="*" horiz-adv-x="669" d="M256 633l217 90l-180 88l53 68l150 -125l24 215h78l-63 -215l202 125l25 -68l-217 -88l176 -90l-53 -66l-150 123l-24 -215h-78l65 213l-200 -121z" />
<glyph unicode="+" horiz-adv-x="761" d="M195 326l24 114h211l45 211h115l-45 -211h211l-25 -114h-211l-45 -211h-115l46 211h-211z" />
<glyph unicode="," horiz-adv-x="485" d="M70 -225q0 2 11 8t28.5 18.5t39 32t41.5 47.5q35 47 43.5 87t4.5 40q0 2 -4.5 -2t-15.5 -7t-27.5 -3t-38.5 6q-41 12 -48.5 58t29.5 87q25 29 54.5 40.5t56 10.5t48 -14.5t32.5 -31.5q23 -37 18.5 -94.5t-37.5 -123.5q-25 -49 -61.5 -85.5t-71.5 -61.5t-60 -37l-24 -12z " />
<glyph unicode="-" horiz-adv-x="761" d="M188 348l25 123h567l-24 -123h-568z" />
<glyph unicode="." horiz-adv-x="370" d="M107.5 104.5q7.5 38.5 40 71.5t85.5 33q51 0 71 -33t12.5 -71.5t-41.5 -71.5t-85 -33q-53 0 -71.5 33t-11 71.5z" />
<glyph unicode="/" horiz-adv-x="782" d="M-10 -135l856 1081h127l-856 -1081h-127z" />
<glyph unicode="0" horiz-adv-x="837" d="M162 259q-4 75 12 153t51 150.5t87.5 130t123 93t158.5 37.5t144.5 -32.5t85 -92t31.5 -132t-13 -152.5t-51 -154t-89.5 -134t-125 -94t-158.5 -36q-86 0 -141.5 36t-83 94t-31.5 133zM323.5 298.5q-6.5 -58.5 1 -108t33 -81t78.5 -31.5q51 0 90 30.5t67 80t46 108.5 t31 113q12 53 18 112.5t-2 107.5t-33.5 79.5t-77.5 29.5q-51 -2 -90 -33.5t-66.5 -78.5t-46 -105.5t-30.5 -111.5t-18.5 -111.5z" />
<glyph unicode="1" horiz-adv-x="837" d="M180 0l17 78h98q25 0 45 10q14 8 18 27l117 540h-180l12 62q8 0 58.5 12t101.5 31q25 8 47.5 21.5t38.5 23.5q20 12 39 26h90l-154 -716q-4 -16 11 -27q10 -8 19 -9t24 -1h100l-16 -78h-486z" />
<glyph unicode="2" horiz-adv-x="837" d="M135 0l17 86l51 51t141 119q51 39 102.5 78t94.5 74.5t75.5 68.5t47.5 60q27 47 30.5 100t-43.5 88q-18 14 -52 20.5t-73 2t-75.5 -18.5t-61.5 -41t-33 -50.5t-8 -27.5l7 3t18.5 4t24 -2t24.5 -15q10 -10 12 -29.5t-5 -39t-24.5 -37t-44.5 -25.5q-49 -12 -74.5 6.5 t-35.5 44.5q-8 29 -3 62.5t23.5 68.5t49 67t73.5 56q43 25 104.5 37t123 8t113.5 -23.5t79 -58.5t30 -82t-11.5 -86t-45 -81.5t-71.5 -67.5q-25 -16 -47.5 -32.5t-49 -34t-59.5 -39t-76 -48.5q-51 -33 -83.5 -57.5t-51 -40.5t-27 -24.5l-10.5 -10.5h277q31 0 59.5 12.5 t46.5 36.5q12 16 19 35q4 10 6 23h57l-61 -240h-580z" />
<glyph unicode="3" horiz-adv-x="837" d="M158 190q10 35 38.5 66t82.5 31q49 0 63 -40t-12 -77q-16 -20 -31.5 -29.5t-17.5 -9.5q2 -4 12 -17.5t41 -25.5q14 -6 39.5 -11t54.5 -3t60.5 11t58.5 32t43 52.5t22 62t1 62.5t-23 52q-18 20 -43 33.5t-49.5 20t-46 7.5t-33.5 -1l14 69q8 -4 30.5 -3t50.5 6t59.5 16.5 t58.5 29.5q47 31 62.5 82t-5.5 92q-10 20 -33.5 32.5t-52.5 16t-60.5 1t-58.5 -8.5q-35 -10 -48 -24.5t-17 -18.5l11 -11t5 -36q-2 -33 -27.5 -53.5t-58.5 -22.5q-43 -2 -57.5 29t2.5 70q33 78 116 113.5t189 37.5q47 0 92 -9t80 -30.5t54.5 -55.5t17.5 -81 q-4 -45 -26.5 -82t-56.5 -63.5t-75 -42t-82 -15.5q33 -2 70 -13t63.5 -35.5t39.5 -63.5t1 -94q-12 -61 -46 -106.5t-81 -76t-105.5 -46t-119.5 -15.5q-66 0 -120 11t-91 34.5t-53.5 61.5t-1.5 89z" />
<glyph unicode="4" horiz-adv-x="837" d="M145 246l17 80l487 493h117l-107 -493h154l-16 -80h-154l-29 -133q-2 -8 -1 -11.5t5 -13.5q6 -16 27 -16h111l-15 -72h-475l15 72h116q23 0 33 14q10 10 14 27l29 133h-328zM262 326h227l62 290z" />
<glyph unicode="5" horiz-adv-x="837" d="M152 123q-4 20 0 47t16 52.5t33.5 45t52.5 25.5q61 12 86 -19.5t4 -78.5q-12 -29 -42 -38.5t-36 -9.5q4 -8 8.5 -19t20.5 -26q31 -25 92.5 -26.5t110.5 20.5q57 27 83.5 75t41.5 128q10 72 -15.5 125t-107.5 55q-41 0 -70 -6t-47 -14t-26.5 -16.5t-10.5 -8.5h-127 q6 16 21.5 56t46.5 128t45 142.5t18 68.5l29 -3t68.5 -7t83.5 -8t75 -4q63 -4 114.5 0t88.5 9t57.5 10t22.5 5l-6 -16q-6 -16 -24.5 -36.5t-51.5 -42t-86 -31.5q-41 -8 -89 -9.5t-90 -0.5t-72 3l-30 2q0 -2 -9 -32.5t-17 -55.5q-10 -27 -22.5 -58.5t-14.5 -33.5q18 14 41 23 q20 8 49 14t68 8q137 4 203.5 -61.5t43.5 -198.5q-25 -147 -123 -228t-264 -83q-88 0 -157.5 30.5t-85.5 98.5z" />
<glyph unicode="6" horiz-adv-x="837" d="M176 269q2 93 37 202q41 119 97.5 184.5t111.5 102.5q43 29 98 47t112.5 21t109 -10t85.5 -48q16 -16 22.5 -37.5t3.5 -44t-16.5 -42t-35.5 -28.5q-33 -14 -62.5 -2.5t-33.5 41.5q-4 31 12 48.5t18 19.5q-8 6 -18 14q-10 6 -25 11.5t-33 5.5q-57 0 -109 -23.5t-97 -83.5 q-31 -41 -48.5 -80t-27.5 -70.5t-14.5 -52t-4.5 -22.5q4 4 29 39t88 61q33 14 76 18.5t85 -3t80 -28t60 -56.5q20 -33 26.5 -84.5t-8 -106.5t-48 -109.5t-89.5 -93.5q-47 -31 -111.5 -47t-128 -13t-118.5 28.5t-84 76.5q-41 72 -39 165zM343 194.5q3 -32.5 17.5 -58t40 -41 t66.5 -15.5q37 0 66.5 16.5t52 44t38 60t21.5 67.5q8 35 6 67t-14 56.5t-35.5 38.5t-60.5 14q-80 -2 -129.5 -55t-63.5 -127q-8 -35 -5 -67.5z" />
<glyph unicode="7" horiz-adv-x="837" d="M217 555l100 272q45 -4 93 -6q41 -2 86 -3t84 -1q41 0 96 1t106 3q59 2 121 4q0 -2 -9 -43t-63 -112q-86 -117 -146 -221.5t-112 -208.5q-16 -37 -27 -66t-18.5 -55.5t-13.5 -55t-12 -63.5h-176q0 4 5 28.5t19.5 64.5t42 94.5t72.5 119.5q51 72 101 139.5t91 119.5t67 84 t28 36h-330q-6 0 -36 -4t-48 -20q-23 -20 -33 -41t-14 -29l-19 -37h-55z" />
<glyph unicode="8" horiz-adv-x="837" d="M158 211q10 59 40.5 101t69.5 70t80 41t72 15q-35 4 -65.5 19.5t-51 41t-27 61.5t6.5 79q31 100 121 142t217 42q109 0 165 -44t52 -117q-4 -43 -25.5 -79t-52.5 -62.5t-68 -41t-67 -16.5l31 -9q32 -10 66 -34.5t58.5 -67.5t12.5 -108q-23 -125 -124.5 -187.5 t-248.5 -60.5q-147 4 -213 60.5t-49 154.5zM297 207q-6 -57 26.5 -91t118.5 -34q66 0 119 37t70 108q10 49 -12.5 83t-54.5 55.5t-60 32.5l-29 10q-29 -4 -58.5 -19.5t-55 -42.5t-43 -61.5t-21.5 -77.5zM420 635q-10 -43 11.5 -70.5t51 -43t55.5 -20.5l27 -5q4 0 24.5 9 t43 28.5t44.5 47t30 64.5q10 41 -14.5 74t-90.5 33q-66 2 -116 -25t-66 -92z" />
<glyph unicode="9" horiz-adv-x="837" d="M171 134q9 48 50 71q31 16 62.5 7t35.5 -46q0 -31 -15 -48.5t-15 -19.5q8 -8 18 -16q21 -14 58 -14q57 0 108 23.5t98 82.5q31 39 48.5 79t26.5 71.5t13.5 52t4.5 22.5q-2 -4 -28 -38.5t-87 -61.5q-33 -14 -76 -19.5t-86 1t-81 27t-62 57.5q-20 33 -25.5 82t9 104 t48 110.5t91.5 96.5q49 35 113.5 53t128 15t117.5 -28.5t83 -78.5q41 -76 35 -167t-39 -200q-35 -111 -87 -178.5t-122 -114.5q-39 -25 -94.5 -42t-112.5 -20t-109.5 9t-84.5 47q-33 33 -24 81zM377 553q-16 -70 8.5 -121t97.5 -55q35 -2 67 12t56.5 40t43 59.5t26.5 70.5 q6 35 4 69t-16.5 59.5t-40 39.5t-66.5 12q-37 -2 -66.5 -18t-53 -43t-39 -59.5t-21.5 -65.5z" />
<glyph unicode=":" horiz-adv-x="493" d="M174 109q8 41 42 74.5t89 33.5t74.5 -33.5t11.5 -74.5t-42 -75t-89 -34t-74.5 34t-11.5 75zM299 698q8 41 42 75t89 34t74.5 -34t11.5 -75t-42 -74.5t-89 -33.5t-74.5 33.5t-11.5 74.5z" />
<glyph unicode=";" horiz-adv-x="493" d="M129 -225q0 2 11.5 8t28.5 18.5t38.5 32t42.5 47.5q35 47 43 87t4 40q0 2 -4 -2t-15.5 -7t-28 -3t-38.5 6q-41 12 -48 58t30 87q25 29 54 40.5t56 10.5t48.5 -14.5t31.5 -31.5q23 -37 18.5 -94.5t-36.5 -123.5q-25 -49 -62 -85.5t-71.5 -61.5t-59.5 -37l-25 -12zM305 719 q8 37 40 68.5t81 31.5t67.5 -31.5t10.5 -68.5t-40 -69t-81 -32t-67.5 32t-10.5 69z" />
<glyph unicode="&#x3c;" horiz-adv-x="796" d="M213 410l621 335l-25 -110l-436 -225l346 -222l-23 -110z" />
<glyph unicode="=" horiz-adv-x="798" d="M162 229l24 113h602l-24 -113h-602zM215 479l25 113h602l-25 -113h-602z" />
<glyph unicode="&#x3e;" horiz-adv-x="796" d="M172 78l23 110l440 222l-344 225l24 110l480 -335z" />
<glyph unicode="?" horiz-adv-x="868" d="M314 819q3 47 25.5 94.5t59.5 83.5q55 53 129 79t145.5 27t135 -21.5t98.5 -61.5q31 -35 39 -80t-5 -95t-49 -102.5t-93 -99.5q-47 -37 -73 -60.5t-42 -40t-26.5 -29.5t-26.5 -32q-16 -18 -26.5 -44.5t-17.5 -52.5t-11.5 -43t-6.5 -17h-86q8 27 12.5 60.5t17.5 74.5 t42 88t84 98q33 29 56.5 52.5t42 47t30.5 48t23 57.5q8 27 5 53.5t-16.5 48t-40 35.5t-65.5 17q-70 4 -119 -13.5t-86 -62.5q-18 -20 -26.5 -39t-10.5 -32t0 -21.5t4 -8.5q0 -4 4 2.5t13.5 13.5t25 13t37.5 4q35 -4 51.5 -21.5t18.5 -41t-7.5 -49t-25.5 -43.5 q-31 -35 -80 -44.5t-90 11.5q-41 20 -56.5 60t-12.5 87zM375 99q8 40 39.5 74t85.5 34q51 0 71.5 -32t13.5 -70.5t-40 -71.5t-84 -35q-53 -2 -73.5 29.5t-12.5 71.5z" />
<glyph unicode="@" horiz-adv-x="1054" d="M138.5 304q-19.5 95 2.5 204q25 113 85.5 210t146.5 170t189.5 113.5t211.5 40.5q88 0 165 -32.5t130 -91t75.5 -138.5t2.5 -176q-16 -74 -54 -142.5t-96 -121.5q-53 -53 -125.5 -91t-140.5 -38q-35 0 -63.5 17.5t-38.5 47.5q-47 -31 -86 -50t-90 -19q-41 0 -71 18.5 t-47.5 47t-22.5 66.5t3 79q14 63 51 133t91.5 127t119 94t134.5 37q37 0 72.5 -17.5t52.5 -52.5l24 45h141l-237 -448q0 -4 -1 -7t-1 -7q-6 -33 26 -33q14 0 35 9t40.5 21.5t37 26.5t29.5 25q49 43 77.5 100t43.5 119q16 82 -0.5 147.5t-59.5 110.5t-105.5 69.5t-137.5 24.5 q-90 0 -173 -31.5t-152 -88t-117 -134.5t-68 -170q-20 -94 -5 -175t60 -139.5t115.5 -92t162.5 -33.5q106 0 213 48t185 140h96q-49 -68 -109.5 -121t-128 -90t-141.5 -56t-147 -19q-106 0 -190.5 41.5t-137.5 114.5t-72.5 168zM440 354q-6 -33 4.5 -57.5t49.5 -24.5 q27 0 51 15.5t45.5 38t40 49t31.5 51.5l98 184q16 27 22 54q8 31 -5 54t-46 23q-49 0 -97 -45t-88 -108.5t-68.5 -129t-37.5 -104.5z" />
<glyph unicode="A" horiz-adv-x="1073" d="M-25 0l17 76q43 4 77.5 25.5t64.5 52t55.5 66.5t48.5 71l477 751h106l176 -862q6 -31 12.5 -50t17.5 -31.5t31.5 -17.5t55.5 -5l-14 -76h-496l14 76q10 0 24.5 -1t30 0t29 4t21.5 11q16 16 15 30.5t-5 31.5l-26 159h-361q-18 -33 -40.5 -67.5t-31.5 -71.5 q-6 -31 2.5 -49.5t27 -29.5t43 -14t48.5 -3l-14 -76h-406zM403 399h285l-65 351z" />
<glyph unicode="B" horiz-adv-x="1099" d="M25 0l14 76h34.5t46 2t43 8t25.5 20q6 16 7.5 19.5t5.5 21.5l153 730q4 10 6 19t-2 17q0 8 -6 15q-6 6 -18 10q-27 6 -54.5 6t-54.5 2l15 74h598q72 0 148.5 -16.5t123.5 -61.5q31 -29 44 -73q7 -25 8 -51q0 -20 -5 -42q-14 -66 -49 -108.5t-82 -68.5t-103.5 -40 t-113.5 -22v-5q55 -6 111.5 -21t100.5 -46q43 -31 67 -79q15 -30 15 -68q0 -23 -5 -48q-14 -59 -50 -112.5t-94 -87.5q-51 -35 -104 -45.5t-107 -18.5q-16 0 -33.5 -2t-33.5 -2q-39 0 -77 -1t-77 -1h-497zM447.5 127.5q-3.5 -18.5 5.5 -33.5q8 -14 33.5 -16t37.5 -2 q49 0 102.5 5t100.5 36q43 29 67.5 71.5t34.5 87.5q6 29 6 58q0 16 -2 34q-6 46 -34 76q-25 29 -71 35t-87 6h-117l-69 -323q-4 -16 -7.5 -34.5zM541 559q35 3 74 3q19 0 39 -1h8q55 0 104 25q59 29 90 76t43 106q6 27 6 56q0 11 -1 22q-3 41 -32 63q-25 23 -58.5 30 t-68.5 7h-28.5t-33.5 -2t-32.5 -8t-23.5 -18q-16 -20 -21.5 -46t-9.5 -49z" />
<glyph unicode="C" horiz-adv-x="1099" d="M150 300q-4 32 -3 64q0 66 15 136q23 111 82 212t155 179q90 74 191.5 112.5t206.5 38.5q76 0 130 -14t109 -55q6 -6 15 -10l96 75h59l-71 -405l-74 -6q-4 57 -16.5 117.5t-40 110.5t-73.5 82t-116 32q-61 0 -111.5 -19.5t-97.5 -68.5q-47 -51 -68.5 -95.5t-45.5 -103.5 q-16 -41 -27.5 -88t-22.5 -88q-12 -55 -17 -108.5t-5 -108.5q2 -51 12 -88t41 -74q31 -35 70 -48t92 -13q68 0 127 24.5t107.5 66.5t85 97t61.5 117l80 -19q-82 -193 -212 -282.5t-327 -89.5q-113 0 -193.5 35.5t-142.5 115.5q-59 74 -71 169z" />
<glyph unicode="D" horiz-adv-x="1177" d="M27 0l14 76h58.5t58.5 4q12 4 18 10q8 6 17 21q6 10 8 23t6 26l155 733q4 16 1 27.5t-19 17.5q-18 8 -39.5 8h-42.5h-35l15 74h481l133 -2q53 -2 99 -7t94 -28q37 -18 72.5 -44t60.5 -60q53 -78 62 -167q3 -26 3 -53q0 -66 -16 -137q-16 -68 -42 -135.5t-67 -126.5 q-49 -76 -123.5 -135t-158.5 -90q-72 -27 -155 -31t-155 -4h-503zM455 138q-6 -25 4 -44q16 -14 39.5 -16t40.5 -2q86 0 147.5 22.5t104.5 64.5t72.5 102.5t56.5 137.5q10 25 16 50.5t12 52.5q10 41 14.5 82t8.5 82q1 15 1 29q0 117 -45 179q-50 70 -196 70q-16 0 -46 -4 t-52 -20q-12 -10 -16.5 -28.5t-8.5 -31.5l-143 -678q-4 -23 -10 -48z" />
<glyph unicode="E" horiz-adv-x="1073" d="M23 0l14 76q14 2 37.5 0t46 0t42 9t27.5 28q8 10 9.5 22t5.5 27l153 721q2 8 4.5 16t-2.5 14q-2 10 -5 16.5t-15 8.5q-29 6 -58.5 7t-58.5 1l15 74h950l-68 -367h-69q-6 78 -21.5 133.5t-47.5 91t-86 52t-140 16.5q-25 0 -51.5 -2t-53.5 -12q-16 -12 -28 -29 q-10 -16 -14.5 -35.5t-8.5 -36.5l-57 -268q13 -1 26 -1q85 0 141 48q64 56 99 154h72l-99 -492h-75q4 27 4 51q0 67 -32 111q-41 55 -137 55h-16l-65 -309q-8 -36 -8 -58q0 -6 1 -12q3 -24 52 -30q20 -2 37.5 -3t38.5 -1q84 0 146.5 18.5t111.5 57t89 95t79 134.5l69 -6 l-94 -375h-960z" />
<glyph unicode="F" horiz-adv-x="1019" d="M31 0l14 76h86h20.5t22.5 4q4 4 7 5t7 5q2 4 4.5 7t4.5 7q12 31 18 66l150 698q4 20 5 41t-20 27q-18 8 -39.5 8t-40.5 2h-37l15 74h932l-68 -371h-70q-4 70 -18 125t-46 93t-83 57.5t-129 19.5q-29 0 -60.5 -1t-62.5 -19q-16 -12 -21.5 -33t-9.5 -37l-61 -291h17 q44 1 79 9q41 10 71 34.5t52.5 62.5t44.5 91h72l-103 -490h-71q4 25 4 51.5t-8 51.5q-16 66 -52 90t-108 24h-14l-66 -313q-8 -38 -8 -58q0 -10 2 -16q6 -18 65 -20l88 -4l-14 -76h-571z" />
<glyph unicode="G" horiz-adv-x="1177" d="M148 301q-3 31 -3 62q0 64 15 131q29 129 99.5 240.5t189.5 189.5q68 45 125 68.5t128 37.5q29 4 57.5 8t57.5 4t53.5 -3t53.5 -7q39 -8 70.5 -20.5t62.5 -34.5q16 -12 18 -12t19 12l80 59h61l-74 -401l-69 -4q-8 55 -17.5 106t-29 96.5t-54.5 78t-94 51.5q-35 10 -66 10 q-68 0 -120 -22.5t-90.5 -61.5t-68.5 -91.5t-54 -109.5q-23 -49 -36 -100t-24 -103q-14 -68 -21 -149q-3 -33 -3 -63q0 -43 6 -80q29 -143 180 -144q31 0 64.5 8.5t60.5 24.5q39 20 55.5 40.5t38.5 55.5q6 12 13.5 29.5t13.5 38t11 40t7 31.5q4 16 7 33t-5 31 q-8 12 -21.5 13t-29.5 1h-80l15 76h503l-14 -76h-44t-44 -4q-4 -2 -9 -2t-12 -4q-16 -6 -23 -25.5t-11 -35.5l-74 -344h-70l-41 139q-80 -72 -170 -105.5t-184 -33.5q-111 0 -200 34.5t-146 118.5q-51 76 -63 168z" />
<glyph unicode="H" horiz-adv-x="1228" d="M29 0l14 76h92q16 0 32.5 5t20.5 23q6 18 11.5 37t11.5 37l145 682q4 20 8.5 45t-22.5 33t-56.5 6t-56.5 2l15 74h542l-14 -74h-26.5t-39 -1t-40 -4t-31.5 -9q-12 -16 -17.5 -35.5t-9.5 -38.5l-61 -289h379l59 281q4 14 6 27.5t2 25.5v13.5t-4 11.5q-6 8 -23.5 12t-38 5 t-39 1h-26.5l15 74h536l-14 -74l-111 -4q-33 -8 -41 -39t-12 -53l-139 -651q-10 -43 -13 -82q-4 -16 2.5 -23.5t18.5 -11.5q29 -4 55.5 -6t54.5 0l-14 -76h-538l14 76h19.5t29.5 1t32.5 2t26.5 3q18 2 28.5 14.5t17 29.5t9.5 34.5t5 29.5l61 289h-379l-65 -313 q-6 -29 -7 -55.5t31 -30.5q8 0 22.5 -1t30 -2t29 -1h19.5l-15 -76h-542z" />
<glyph unicode="I" horiz-adv-x="626" d="M39 0l14 76h90q51 4 61.5 28.5t18.5 65.5l148 688q2 10 4 22.5t0 24.5t-2 20.5t-15 12.5q-16 6 -36.5 6t-36.5 2h-45l14 74h551l-14 -74h-46q-23 0 -48 -1t-48 -17q-6 -6 -9 -13.5t-7 -13.5q-4 -10 -6 -23.5t-6 -23.5l-150 -707q-4 -16 -5 -36.5t17 -28.5q6 -2 21 -2 q14 -4 31.5 -4h33.5h35l-14 -76h-551z" />
<glyph unicode="J" horiz-adv-x="915" d="M61 264q8 37 26.5 73t46.5 64.5t62.5 46t75.5 17.5q29 0 55.5 -10.5t43.5 -32.5q12 -16 17 -42t1 -50q-10 -51 -46 -97.5t-95 -46.5q-4 0 -18.5 1t-14.5 3t-5 3.5t-12.5 2.5t-13.5 1t-8 -2q-10 -6 -15 -11.5t-7 -15.5q-6 -27 7 -47.5t34 -32.5q18 -16 43.5 -22.5 t54.5 -6.5q63 0 124.5 28t100.5 89q35 59 48.5 120.5t25.5 123.5l100 471q4 20 2 28.5t-16 20.5q-10 2 -20.5 2h-20.5l-84 4l16 74h549l-14 -74h-92q-6 0 -14.5 -1t-12.5 -5q-27 -6 -37 -35q-6 -18 -9 -37.5t-7 -38.5l-96 -452q-10 -41 -22.5 -86t-35.5 -84 q-23 -37 -52.5 -72t-66.5 -59q-74 -55 -157.5 -75.5t-165.5 -20.5q-61 0 -123.5 14t-101.5 55q-57 64 -57 152q0 30 7 63z" />
<glyph unicode="K" horiz-adv-x="1150" d="M20 0l15 76q29 0 57.5 2t57.5 4q10 2 22 11t16 20q4 14 7.5 27.5t7.5 27.5l147 696q4 23 7 45.5t-21 32.5q-29 4 -57.5 4h-57.5l15 74h540l-14 -74q-25 -2 -46.5 -1t-45.5 -3q-6 -2 -23 -6q-23 -6 -32 -29.5t-13 -42.5l-82 -385l367 316q10 10 26.5 24.5t29.5 29.5 t23.5 30.5t8.5 29.5q0 12 -10 19q-23 10 -46.5 12t-48.5 4l-24 2l14 74h473l-14 -74q-72 -4 -139.5 -40t-128.5 -83l-62 -47l-139 -121l203 -481q10 -25 16 -41t15.5 -27.5t25.5 -17.5t45 -10l14 -2l-14 -76h-512l14 76q18 -2 38 0t38 4q10 0 31 4q4 4 7 6t7 4q10 16 7 27.5 t-7 23.5l-133 336l-151 -129l-35 -168q-4 -16 -8.5 -33.5t-4.5 -33.5q0 -14 3 -23l6 -6t6 -4q4 -4 16 -4q14 -4 30.5 -4h33.5h34l-14 -76h-541z" />
<glyph unicode="L" horiz-adv-x="1019" d="M27 0l14 76q29 -4 57.5 -1t57.5 5q27 4 36 27.5t13 44.5l143 669q8 45 13.5 69.5t-2 36t-30 14.5t-65.5 5h-37l15 74h557l-15 -74h-90q-47 0 -61.5 -16.5t-22.5 -61.5l-149 -698q-6 -41 -5 -63.5t48 -26.5q23 -4 45 -4h45q156 0 249 80t154 225h74l-98 -381h-946z" />
<glyph unicode="M" horiz-adv-x="1386" d="M12 0l15 76q49 0 80.5 12t53 34.5t35 55.5t23.5 76l127 598q2 18 7 44t-9 36t-44 11t-46 3h-37l14 74h459l88 -619h2l340 619h457l-14 -74h-43q-23 0 -50.5 -1t-48.5 -23q-12 -27 -18 -52.5t-10 -50.5l-146 -680q2 -8 0 -14t0 -12q0 -16 10.5 -23.5t24.5 -10.5t30.5 -3 h28.5h37l-14 -76h-537l15 76h82q8 4 17 4t17 4q20 6 27 27q6 10 9 21t7 24l164 772h-4l-508 -928h-71l-131 913h2h-2l-136 -634q-10 -43 -13 -82q-1 -9 -1 -17q0 -28 8 -50q10 -28 38 -42q24 -12 68 -12h13l-14 -76h-402z" />
<glyph unicode="N" horiz-adv-x="1177" d="M23 0l14 76q49 2 82 10t53.5 26.5t32.5 49.5t22 78l135 628q-39 78 -135 78l15 74h358l412 -649l86 409q8 36 8 64q0 38 -14 61q-24 39 -115 41l14 74h402l-15 -74q-55 -8 -98 -24.5t-68 -75.5q-12 -31 -19 -61.5t-13 -61.5l-158 -735h-88l-498 794l-112 -526 q-8 -42 -8 -73q0 -37 11 -61q21 -44 117 -46l-14 -76h-407z" />
<glyph unicode="O" horiz-adv-x="1177" d="M158 308q-9 45 -8 90q0 54 12 108q23 111 83 210t156 177q86 72 195 110.5t209 38.5q115 0 202 -36.5t150 -118.5q57 -75 75 -173q8 -45 9 -91q0 -55 -12 -113q-23 -104 -89.5 -209.5t-158.5 -177.5q-100 -78 -199.5 -110.5t-212.5 -32.5q-106 0 -194 38.5t-144 116.5 q-53 75 -73 173zM419 342q-1 -23 -1 -44q0 -59 10 -108q31 -143 188 -143q63 0 109.5 28.5t80.5 73t57.5 97.5t41.5 102q14 39 24.5 80t18.5 80q8 41 16 91q9 49 11 101v23q0 39 -5 77q-7 48 -26.5 86t-55.5 60.5t-91 22.5q-90 0 -151.5 -49.5t-102.5 -121t-64.5 -152.5 t-38.5 -146q-16 -72 -21 -158z" />
<glyph unicode="P" horiz-adv-x="1073" d="M35 0l14 76h86q47 2 58.5 24.5t19.5 57.5l160 749q0 14 -6 21q-4 4 -6.5 6t-8.5 4q-27 8 -57.5 7t-58.5 1l14 74h584q16 0 30.5 -1t28.5 -1q72 -4 132 -15.5t112 -56.5q47 -41 59 -95q5 -23 5 -49q0 -35 -9 -75q-20 -94 -76.5 -152.5t-131.5 -88.5q-75 -32 -158 -42 q-70 -9 -132 -8h-24l-146 2l-61 -284q-2 -10 -5 -30t3 -30t16 -12q6 -2 21 -2q14 -4 28.5 -4h30.5h45l-14 -76h-553zM541 512h14h63q63 0 114.5 9t88.5 34t62.5 69t42.5 115q11 48 11 84q-1 54 -25 80q-40 43 -158 43h-53t-54 -16q-18 -16 -24.5 -34.5t-10.5 -39.5z" />
<glyph unicode="Q" horiz-adv-x="1177" d="M156 308q-9 44 -9 88q0 55 13 110q23 111 82 209t157 176q86 70 194.5 110.5t209.5 40.5q106 0 197.5 -39.5t150.5 -117.5q55 -74 77 -168q10 -46 10 -96t-11 -103q-14 -68 -44 -133.5t-74 -125.5t-99.5 -110.5t-120.5 -87.5q6 -51 17.5 -102t41.5 -90q6 -4 27 -8 q18 2 30.5 12t22.5 24.5t16.5 32t12.5 31.5l4 10h76l-7 -18q-29 -104 -108.5 -161.5t-177.5 -57.5q-119 0 -163 68q-25 40 -25 95q0 41 14 91q-23 -6 -47.5 -7t-47.5 -1q-115 0 -201.5 37.5t-146.5 121.5q-53 72 -71 169zM416 248h2q27 74 96.5 114.5t140.5 40.5 q84 0 136.5 -43.5t60.5 -123.5q18 27 26.5 53t18.5 55q14 41 26.5 80t22.5 80q10 47 18.5 100t9.5 106v13q0 45 -6 87q-7 48 -30 87q-20 37 -58 52.5t-83 15.5q-86 0 -146.5 -44t-101.5 -110t-65.5 -142.5t-39.5 -142.5q-4 -27 -9 -51t-9 -51q-4 -23 -4 -46.5t-4 -45.5 q-4 -23 -1 -42.5t-1 -41.5zM461 124.5q8 -24.5 26.5 -40.5t46 -24.5t58.5 -8.5q20 0 48 3t46 14q2 2 6 11t7 19.5t5.5 19.5t2.5 13q6 27 10 70q1 12 1 23q0 26 -7 42q-10 29 -29.5 46.5t-54.5 17.5q-68 0 -111 -41t-55 -105q-8 -35 0 -59.5z" />
<glyph unicode="R" horiz-adv-x="1150" d="M29 0l14 76h78q51 2 64.5 21.5t23.5 62.5l139 653q2 8 6 25.5t7.5 35t4.5 33t-4 21.5q-16 16 -40.5 16t-47.5 2h-45l15 74h557l106 -2q63 -2 117.5 -12.5t101.5 -44.5q40 -31 58 -85q10 -32 11 -64q0 -23 -5 -46q-14 -66 -50 -113t-85 -76.5t-107.5 -45t-116.5 -19.5 l-2 -4q86 -18 126 -68.5t42 -142.5l4 -90q0 -23 1.5 -46.5t9.5 -43.5q0 -10 8 -19q25 -10 43 2.5t31.5 36t22.5 50t13 42.5h72q-6 -43 -24 -82q-37 -92 -114 -129.5t-163 -37.5q-47 0 -84 14t-63 49q-23 31 -25 70q-1 13 -1 26q0 26 3 54l12 83q7 45 11 83q1 12 1 23 q-1 24 -7 43q-10 28 -35 44t-74 20h-64h-45l-67 -323q-4 -12 -6 -24.5t-2 -24.5q0 -23 7 -30t30 -7q16 -4 34.5 -4h36.5h35l-14 -76h-555zM547 565q29 -2 56.5 0t55.5 2q106 4 173 46t90 157q8 35 8 62q0 53 -30 78q-44 38 -140 38h-51.5t-53.5 -10q-23 -10 -32 -33.5 t-13 -46.5z" />
<glyph unicode="S" horiz-adv-x="942" d="M80 -12l72 397h69q8 -59 31.5 -118.5t61.5 -106.5t92.5 -77t125.5 -30q37 0 76 9.5t72 28t57.5 49t34.5 73.5q4 20 4 36q0 45 -28 69q-38 32 -97 44l-98 19q-76 16 -139.5 36.5t-118.5 67.5q-47 41 -67 103q-11 36 -11 74q0 28 6 57q18 82 61.5 142.5t104 100t132 60 t147.5 20.5q131 0 231 -77l90 67h62l-62 -368h-71q-6 55 -27 110t-56.5 98t-86 70t-115.5 27q-33 0 -69 -8.5t-67.5 -27t-55 -46t-31.5 -66.5q-4 -17 -4 -32q0 -19 6 -33q10 -26 31.5 -42t50 -25t57.5 -15l88 -17q72 -16 138.5 -37.5t113.5 -60.5t67 -99q10 -30 11 -68 q0 -38 -11 -85q-16 -72 -60 -137.5t-112 -112.5q-63 -45 -135.5 -61t-140.5 -16q-78 0 -144.5 23.5t-115.5 70.5l-109 -86h-61z" />
<glyph unicode="T" horiz-adv-x="1019" d="M156 637l102 383h934l-57 -383h-72q1 16 1 33q0 34 -3 72q-4 56 -23.5 101.5t-56.5 76t-96 30.5q-12 0 -30.5 -5t-25.5 -21q-4 -14 -6 -29.5t-6 -30.5l-151 -717q-8 -37 -5 -51t44 -18q25 -4 51 -3t53 1l-14 -76h-570l15 76q31 0 62.5 2t62.5 6q10 0 21 9t13 20 q10 12 12.5 25.5t6.5 27.5l147 698l13 62q4 16 -13.5 21t-29.5 5q-59 0 -108.5 -31.5t-88.5 -78.5t-67.5 -102.5t-45.5 -102.5h-69z" />
<glyph unicode="U" horiz-adv-x="1177" d="M221 946l15 74h542l-14 -74q-23 -3 -48 -3q-12 0 -25 1h-6q-34 0 -62 -20q-12 -10 -16.5 -32t-6.5 -34l-100 -469q-10 -41 -20 -94q-5 -29 -5 -53q0 -21 4 -39q8 -37 23.5 -56.5t50.5 -35.5q31 -14 60.5 -20.5t66.5 -6.5q59 0 119.5 21.5t107.5 70.5q47 51 64.5 107.5 t29.5 115.5l78 367q6 27 10.5 53.5t1 49t-15.5 41t-41 26.5q-16 8 -35.5 8t-35.5 2l14 74h403l-14 -74q-51 -2 -84 -16.5t-54.5 -39t-34.5 -59t-24 -77.5l-86 -402q-8 -37 -18 -69.5t-29 -67.5q-33 -63 -87 -114.5t-118 -80.5q-57 -25 -124.5 -32.5t-122.5 -7.5q-35 0 -75 3 t-79 11t-73.5 22.5t-59.5 34.5q-59 49 -71 115q-4 26 -4 55q0 45 11 98l121 576q4 14 2 24.5t-16 16.5q-10 4 -27.5 6t-35 3t-34 1h-22.5z" />
<glyph unicode="V" horiz-adv-x="1073" d="M176 946l14 74h510l-14 -74q-22 -3 -51 -3h-15h-3q-36 0 -56 -21q-6 -16 -5 -29.5t5 -28.5l107 -583l317 524q8 14 12 24.5t9 24.5q6 27 -4.5 44t-29 28.5t-42 15.5t-43.5 4l14 74h414l-15 -74q-41 -4 -75.5 -21.5t-64.5 -45t-55.5 -61.5t-45.5 -66l-481 -772h-117 l-162 856q-8 37 -18.5 66.5t-51.5 39.5q-14 0 -27.5 1t-25.5 3z" />
<glyph unicode="W" horiz-adv-x="1386" d="M209 946l14 74h434l-14 -74q-16 -2 -32.5 -2t-35.5 -6q-10 -4 -12 -5t-8 -9q-6 -4 -7 -12.5t-1 -16.5l4 -31l57 -520h4l193 365l-17 147q-2 23 -4 36t-12 36q-6 10 -20.5 11t-26.5 3l-14 4l14 74h418l-15 -74q-16 -2 -32.5 -2t-32.5 -8q-6 -2 -11 -5t-10 -7 q-10 -12 -8 -26.5t2 -29.5l43 -516h4l193 379q16 35 33.5 66.5t23.5 66.5q6 25 -4 40.5t-26.5 24.5t-39 13t-40.5 4l14 74h352l-14 -74q-16 -4 -23 -4q-59 -18 -95 -66.5t-64 -99.5l-420 -796h-101l-53 587h-2l-313 -587h-103l-102 866q-2 16 -3 31.5t-5 29.5 q-8 29 -25.5 32t-44.5 7h-12z" />
<glyph unicode="X" horiz-adv-x="1019" d="M-16 0l16 76q106 6 186 86l306 297l-211 430q-16 35 -35 44t-62 13l15 74h497l-14 -74q-23 -4 -47.5 -3t-46.5 -11q-12 -8 -15 -19q-2 -10 4.5 -23t10.5 -22l102 -215q16 18 48 47t64 61t57.5 62.5t29.5 48.5q6 25 -6.5 39.5t-32 22.5t-43 10t-41.5 2l14 74h437l-15 -74 q-39 -4 -68.5 -13t-56 -25.5t-51.5 -39t-51 -49.5l-250 -241l201 -410q23 -47 45 -69.5t82 -22.5l-15 -76h-508l15 76h63q8 4 13.5 4t11.5 4q23 10 18 33q0 12 -4 21t-10 20l-111 225q-43 -43 -87 -86t-85 -90q-27 -31 -32 -60q-4 -16 2 -32.5t20 -22.5q6 -6 15.5 -8 t19.5 -4q18 -4 38.5 -4h43.5l-15 -76h-462z" />
<glyph unicode="Y" horiz-adv-x="1019" d="M184 946l15 74h506l-15 -74q-23 -4 -46 -2t-46 -8q-10 -6 -14 -10t-6 -15q-2 -8 2 -20t8 -19l125 -319l188 248q14 16 26.5 31.5t16.5 37.5q4 12 1 20.5t-7 18.5q-18 29 -50 32t-63 5l15 74h413l-14 -74q-43 -6 -76 -19.5t-59.5 -34t-51 -47t-51.5 -57.5 q-45 -51 -87 -104t-85 -106q-47 -66 -98 -129l-63 -302q-6 -25 -2 -53q4 -4 7 -6t7 -4q33 -6 65.5 -7t65.5 -1l-14 -76h-568l15 76h67.5t65.5 8q25 10 31 31.5t10 42.5l57 274l-172 426q-10 25 -18.5 41t-20.5 27.5t-30.5 15.5t-49.5 4z" />
<glyph unicode="Z" horiz-adv-x="942" d="M35 0l14 74l754 870q-29 0 -54.5 1t-54.5 1q-70 0 -136 -12t-128 -66q-47 -41 -86 -96t-68 -108h-67l92 356h809l-14 -74l-754 -866q29 -4 59.5 -4h59.5q66 0 135.5 8t128.5 55q57 45 102 106.5t74 125.5q2 4 3 8t3 8h70l-103 -387h-839z" />
<glyph unicode="[" horiz-adv-x="548" d="M84 -160l250 1180l360 -6l-12 -53h-190l-226 -1059h191l-13 -60z" />
<glyph unicode="\" horiz-adv-x="856" d="M291 1042h188l305 -1042h-186z" />
<glyph unicode="]" horiz-adv-x="548" d="M8 -158l12 60h193l225 1059h-192l12 55l360 4l-249 -1180z" />
<glyph unicode="^" horiz-adv-x="856" d="M170 455l389 565h168l152 -565h-179l-100 360l-250 -360h-180z" />
<glyph unicode="_" horiz-adv-x="706" d="M-43 -209l27 127h704l-26 -127h-705z" />
<glyph unicode="`" horiz-adv-x="741" d="M381 1059q6 27 38 45t68 18q43 0 65.5 -13t47.5 -62q16 -35 45 -92.5t66 -129.5l-35 -26q-106 72 -159.5 104.5t-92.5 61.5q-29 23 -39 41t-4 53z" />
<glyph unicode="a" d="M82 66q-5 16 -5 36t5 45q14 74 76.5 119t142.5 73t161 41t136 26q2 14 8 40.5t9 54t2 51t-9 34.5q-16 16 -38.5 22t-49.5 6t-55.5 -6t-54.5 -22q-14 -10 -8 -22.5t10 -20.5q12 -27 8 -49q-10 -47 -53 -70t-84 -23q-47 0 -73 30q-18 21 -18 51q0 12 3 26q12 55 59 92 t100 53q53 18 102.5 25.5t100.5 7.5q59 0 125 -12t106 -47q46 -41 46 -93q0 -47 -15 -108l-51 -233q-2 -14 -3 -27.5t-5 -26.5q-4 -20 2 -33.5t29 -13.5q8 0 18 5l18 9q18 14 33 0q4 -6 0 -18t-11 -24.5t-17.5 -22.5t-16.5 -14q-27 -23 -61.5 -35t-65.5 -12q-45 0 -82 18 q-41 25 -51 78q-61 -49 -141 -72.5t-154 -23.5q-43 0 -80 8t-62.5 27t-35.5 51zM317 170q-4 -15 -4 -28q1 -26 13 -44q18 -28 65 -28q23 0 47.5 10t46.5 26q23 16 32 32t22 38q10 18 17 48t11 48q4 16 6.5 31t6.5 33q-41 -10 -82 -19.5t-78 -25t-64.5 -44t-38.5 -77.5z" />
<glyph unicode="b" horiz-adv-x="915" d="M92 -20q4 10 8 22t6 23l29 86l31 122l135 635q4 14 4 27.5t2 26.5q0 14 -8 21t-20.5 9t-25.5 2h-24h-26l14 74l340 14l-100 -471h2q41 55 109.5 85t131.5 30q74 0 126.5 -27.5t81.5 -74.5q28 -48 35 -110q2 -21 3 -42q0 -43 -10 -90q-16 -80 -58 -146.5t-100.5 -114.5 t-131.5 -74.5t-152 -26.5q-72 0 -129.5 28.5t-88.5 87.5l-120 -116h-64zM386 218q-2 -18 -2 -36q0 -24 4 -46q7 -38 30.5 -63.5t73.5 -25.5q45 0 79.5 31t58 75t39 91t21.5 82q6 33 14 78q4 26 4 51q0 17 -2 35q-6 42 -26.5 71t-65.5 29q-51 0 -88 -32t-62.5 -77t-40.5 -95 t-24 -87q-8 -37 -13 -81z" />
<glyph unicode="c" horiz-adv-x="786" d="M106 190q-5 25 -5 54q0 38 10 82q18 82 65 149.5t111.5 113.5t142.5 71.5t158 25.5q45 0 93 -9t86 -31q39 -21 59 -58q13 -23 12 -53q0 -17 -4 -37q-12 -57 -53.5 -89t-96.5 -32q-29 0 -51.5 11t-34.5 29.5t-12 43t16 51.5q6 14 16 25q4 4 8.5 8t8.5 8l14 14 q10 14 5 24.5t-17 16.5t-27.5 8t-25.5 2q-51 0 -89 -26.5t-65 -67.5t-44 -88t-26 -86q-10 -45 -13 -94q-1 -10 -1 -20q0 -38 10 -70q12 -41 42 -67.5t87 -26.5q84 0 143.5 50t100.5 122l62 -23q-59 -115 -151.5 -178t-215.5 -63q-35 0 -78 6t-72 16q-70 20 -110 76 q-46 52 -58 112z" />
<glyph unicode="d" horiz-adv-x="942" d="M112 200q-1 16 -2 33q0 44 11 89q14 70 51 135t90 116.5t120 82t142 30.5q49 0 84 -13.5t70 -43.5q12 -12 18 -21.5t8.5 -13.5t3.5 -2t3 14l57 271q8 33 5 49t-16.5 22t-40 6h-65.5l15 74l358 14l-186 -870q-4 -18 -6.5 -35.5t2.5 -34.5q10 -10 21 -11t26 -3l59 -2 l-14 -72l-330 -14l22 106h-2q-53 -68 -121.5 -97t-146.5 -29q-61 0 -119.5 30.5t-93.5 95.5q-17 34 -23 94zM351 239q-1 -15 -1 -29q0 -28 4 -52q6 -35 32 -58.5t65 -23.5q43 0 77.5 26.5t61 64.5t43 81t22.5 78q7 37 13 84q2 18 3 36q1 27 -5 51q-8 40 -32 67.5t-73 27.5 q-47 0 -81 -30t-57.5 -70.5t-38.5 -88t-22 -79.5q-8 -39 -11 -85z" />
<glyph unicode="e" horiz-adv-x="811" d="M110 188q-5 29 -5 59q0 40 10 81q16 74 62 146.5t114 119.5q66 49 135.5 70.5t142.5 21.5q86 0 143.5 -26.5t90.5 -75.5t40 -116q2 -18 2 -37q0 -51 -14 -109h-475q-12 -51 -12 -97.5t16.5 -82.5t52.5 -56t93 -20q76 0 136 49t106 110l57 -26q-76 -117 -169 -168 t-222 -51q-72 0 -136.5 23.5t-109.5 70.5q-46 46 -58 114zM371 393h184q12 0 23.5 1t23.5 1q18 2 24.5 16.5t10.5 28.5q6 29 8 60.5t-5 57.5t-27.5 42t-57.5 16q-41 0 -71.5 -23.5t-54 -57t-38 -72.5t-20.5 -70z" />
<glyph unicode="f" horiz-adv-x="548" d="M35 0l14 70h55q39 0 50.5 22.5t19.5 59.5l92 434h-123l19 86h123q12 53 38.5 117.5t73.5 121t116 94t165 37.5q33 0 65.5 -10t57 -29.5t37.5 -48.5q9 -17 9 -39q0 -13 -3 -28q-10 -47 -47 -81t-88 -34q-39 0 -67 28q-20 19 -20 46q0 10 3 22q6 25 15 40.5t19.5 24.5 t18.5 15t10 13q2 10 -8 11t-18 1q-33 0 -55.5 -20.5t-38 -48t-24.5 -58.5t-14 -51l-26 -123h178l-18 -86h-179l-96 -453q-6 -33 -1 -48t52 -15h74l-14 -70h-465z" />
<glyph unicode="g" d="M10 -154q6 33 27.5 57.5t49.5 40t59.5 22.5t58.5 5h4l-4 2q-2 -2 -5 0t-7 2q-8 4 -12.5 5.5l-10.5 3.5q-43 14 -68 46q-17 22 -17 55q0 13 3 28q6 27 23.5 48t41 37.5t51 27t52.5 14.5q8 0 18.5 2t20.5 2v2q-10 2 -17.5 4t-17.5 6q-57 25 -84 73q-16 30 -16 67q0 23 6 48 q14 66 56 112t97.5 74.5t117 42t116.5 13.5q43 0 93 -10t85 -33q43 43 95.5 79t111.5 36q41 0 68 -24q19 -18 19 -46q0 -10 -3 -22q-10 -41 -39 -64.5t-70 -23.5q-25 0 -42 18t-17 49q2 6 0 12q-16 -2 -31.5 -13t-27.5 -21q-8 -8 -13 -11q58 -48 58 -121q0 -20 -4 -42 q-12 -59 -55.5 -110.5t-102.5 -76.5q-72 -29 -127 -34t-123 -5q-29 0 -51.5 -1t-50.5 -21q-14 -12 -16.5 -29.5t7.5 -28.5q12 -12 32 -12h36h69t90 -2t87 -5t59 -9q27 -10 49.5 -25.5t34.5 -40.5q10 -20 11 -49t-3 -53q-16 -76 -66 -122t-115.5 -71.5t-137.5 -34t-129 -8.5 q-68 0 -135 6q-29 2 -64 9.5t-65.5 21.5t-49 38t-10.5 60zM196 -158q11 -30 44 -45q33 -10 64.5 -12t66.5 -2q23 0 56.5 2t67 11t60.5 27.5t33 49.5q6 23 -5.5 38t-33.5 19q-16 6 -36.5 6.5t-41.5 0.5h-213q-27 -10 -41 -31q-24 -26 -24 -49q0 -8 3 -15zM386 398.5 q-1 -29.5 5 -55.5t23.5 -42t50.5 -16t57.5 15t43 38.5t28.5 52.5t16 55q6 25 9.5 55.5t-3 56.5t-22.5 43t-51 17q-37 0 -61.5 -15t-42 -38.5t-29 -53.5t-17.5 -58q-6 -25 -7 -54.5z" />
<glyph unicode="h" horiz-adv-x="968" d="M29 0l14 70h37h36.5t35.5 14q10 14 13 29.5t7 29.5l154 721q6 31 7 48.5t-6.5 26.5t-22.5 11t-44 4h-35l15 74l344 14l-105 -485h2q57 59 121 94t141 35q55 0 104.5 -19.5t74.5 -68.5q14 -34 14 -70q0 -14 -2 -30q-8 -54 -21 -109l-53 -250q-6 -23 -6 -45q2 -10 14 -18 q14 -4 28.5 -4t31.5 -2h28l-14 -70h-426l14 70l27 2h25.5t25.5 4q8 2 12.5 7t8.5 11q8 23 14 53l53 248q6 29 11.5 57.5t-2.5 55.5q-6 25 -27 38t-49 13q-41 0 -79 -23.5t-65 -58.5q-23 -35 -33 -66.5t-18 -66.5l-43 -205q-4 -14 -7 -28.5t-1 -26.5q6 -4 6 -8q10 -4 23.5 -5 t25.5 -1h35l-14 -70h-430z" />
<glyph unicode="i" horiz-adv-x="522" d="M47 0l14 70h58q14 0 29.5 4t23.5 20q6 14 9 26.5t7 26.5l66 312q6 29 13 59.5t-3 52.5q-12 10 -18 11.5t-23 3.5h-61l16 71l340 15l-112 -529q-2 -10 -5.5 -32.5t2.5 -30.5q8 -10 25.5 -10h32.5h35l-15 -70h-434zM332 915q10 53 54 90t97 37q55 0 81 -37q19 -27 19 -62 q0 -13 -3 -28q-10 -49 -55.5 -83.5t-94.5 -34.5q-48 1 -78 35q-23 26 -22 60q0 11 2 23z" />
<glyph unicode="j" horiz-adv-x="497" d="M-147 -147q10 45 48 74.5t81 29.5q39 0 60 -27q14 -17 14 -42q0 -12 -3 -25q-4 -16 -13 -29.5t-20 -26.5q-6 -8 -16 -12t-2 -12q10 -6 21.5 -7t23.5 1q23 6 41 20q16 20 24.5 38t16.5 40q8 29 14.5 59.5t12.5 59.5l102 487q4 16 8 36t4 36q-4 12 -5 18.5t-13 10.5 q-14 4 -30.5 4h-33.5h-43l17 71l356 15l-112 -533q-10 -43 -20.5 -86t-31.5 -84q-25 -59 -50 -100t-79 -84q-43 -35 -99 -54.5t-103 -19.5q-31 0 -65 7.5t-60.5 24.5t-39.5 44q-9 16 -9 37q0 13 4 29zM338 918q10 53 52 87.5t95 34.5q49 0 79 -34q22 -25 22 -58 q0 -12 -2 -24q-10 -53 -52.5 -91t-97.5 -38q-51 0 -80 35q-20 24 -20 58q0 14 4 30z" />
<glyph unicode="k" horiz-adv-x="942" d="M29 0l14 70h35h23.5t23.5 2q18 6 29 22q8 20 12 42l8 44l141 660q4 25 9.5 51.5t-5.5 48.5q-4 2 -6 4t-6 4q-10 6 -24.5 6h-28.5h-35l14 74l345 14l-150 -702l223 168q16 10 25.5 20.5t13.5 28.5q4 10 0 16.5t-8 12.5q-14 10 -32.5 12t-37.5 2h-16l14 72h414l-14 -72 l-45 -4q-47 -4 -78 -16.5t-72 -42.5l-135 -95l180 -307l23 -33l22 -26q10 -2 27 -6h14l-14 -70h-426l14 70l23 2l24 2q10 2 12.5 3t10.5 9q6 10 8 16.5t-2 16.5t-8 18t-8 19l-91 147l-81 -61q-6 -23 -10.5 -44.5t-10.5 -43.5q-4 -16 -5 -30.5t-5 -29.5q-2 -12 6 -17t16 -7 h64l-14 -70h-420z" />
<glyph unicode="l" horiz-adv-x="497" d="M31 0l14 70h31q16 2 34.5 2t34.5 8q14 14 19.5 40.5t9.5 43.5l143 676q4 23 11.5 52.5t-4.5 47.5q-2 4 -11.5 9t-13.5 5q-18 0 -36.5 1t-37.5 -1l15 72l340 16l-187 -878q-4 -16 -7 -33.5t-7 -34.5q-2 -12 7 -17t21.5 -7t25.5 -2h22h26l-14 -70h-436z" />
<glyph unicode="m" horiz-adv-x="1359" d="M29 0l14 70h45q18 0 43 1t31 25q10 25 12 47l68 316q6 29 13 59.5t-3 52.5q-10 10 -16.5 11.5t-22.5 3.5h-61l16 71l324 15l-23 -109h2q51 57 113.5 90t134.5 33t119 -28.5t61 -94.5q53 53 116.5 88t135.5 35q53 0 107.5 -26.5t70.5 -96.5q0 -10 -1 -47t-11 -84l-60 -285 q-6 -31 -7 -47t5.5 -22t22.5 -7t43 -1h25l-15 -70h-403l14 70h27.5t29.5 4q4 2 8.5 4t8.5 4q10 14 13 28.5t7 30.5l66 312q7 30 7 54q0 11 -2 21q-5 30 -58 31q-41 0 -71 -16.5t-51.5 -44t-34.5 -62.5t-20 -69l-55 -261q-2 -4 -3 -12t3 -12q6 -6 10 -8q10 -4 32 -4h32 l-14 -70h-383l14 70h32.5t24.5 4q14 2 29 20q4 10 6 22.5t6 22.5l58 273q6 25 10 51t1 47.5t-17.5 35t-45.5 13.5q-33 0 -68.5 -20.5t-56.5 -53.5q-23 -35 -32 -64.5t-17 -64.5l-53 -256v-10t4 -10q10 -10 29.5 -8t40.5 -2l-15 -70h-415z" />
<glyph unicode="n" horiz-adv-x="968" d="M35 0l14 70q23 2 44.5 3t43.5 5q23 4 28 25.5t9 37.5l68 318q6 29 13 59.5t-3 52.5q-10 10 -17.5 11.5t-23.5 3.5h-59l16 71l332 15l-27 -129h2q53 63 123 103t152 40q55 0 104 -19.5t74 -68.5q14 -34 14 -70q0 -14 -2 -30q-8 -54 -20 -109l-60 -283q-4 -14 4 -26 q16 -8 51 -9t43 -1l-14 -70h-424l15 70q23 4 45 2t45 12q4 4 5 6l3 6q6 10 8 20.5t6 20.5l62 293q4 29 6 52.5t-15 43.5q-10 14 -26.5 23.5t-38.5 9.5q-41 0 -80 -23.5t-66 -60.5q-25 -35 -36 -70.5t-19 -74.5l-49 -232q0 -29 33 -28h59l-14 -70h-428z" />
<glyph unicode="o" d="M114 190q-8 32 -9 67q0 38 10 81q16 74 63 141.5t113 114.5q137 92 291 92q76 0 140 -25.5t107 -72.5q43 -46 59 -112q8 -33 9 -71q0 -36 -8 -75q-16 -80 -62.5 -144.5t-109 -110.5t-138 -70.5t-151.5 -24.5q-80 0 -145.5 25.5t-108 72t-60.5 112.5zM340 148 q6 -42 31.5 -70.5t81.5 -28.5q47 0 79.5 32t56 77t37 93t19.5 81q9 37 15 86q3 24 3 48q1 23 -3 45q-6 44 -30 73.5t-75 29.5q-49 0 -83 -31.5t-57.5 -75.5t-38 -93t-20.5 -84q-10 -40 -16 -90q-3 -25 -3 -48t3 -44z" />
<glyph unicode="p" horiz-adv-x="942" d="M-25 -289l15 70h41.5t44.5 4q4 2 7 4t7 4q2 4 4 6t4 6q4 10 6 19.5t5 19.5l139 652q6 31 6 48t-7 26.5t-24.5 11.5t-46.5 4h-29l17 71l336 15l-21 -103h2q98 117 246 117q76 0 128 -29.5t89 -87.5q23 -39 29 -99q2 -18 2 -37q0 -44 -10 -93q-16 -68 -55.5 -138.5 t-96.5 -121.5t-124.5 -75.5t-135.5 -24.5q-23 0 -44.5 6t-43.5 12q-18 6 -32.5 17.5t-26.5 23.5q-10 8 -15.5 17.5t-8.5 14.5t-5 3t-4 -17l-41 -192q-6 -33 -8 -50.5t5 -24.5t23.5 -8t44.5 -1h45l-14 -70h-453zM413 238q-1 -11 -1 -21q0 -31 7 -59q9 -37 32.5 -61.5 t70.5 -24.5t81 28.5t57.5 69.5t38 86t20.5 80q8 33 15 77q4 28 4 54q0 15 -1 29q-4 39 -24.5 65.5t-65.5 26.5q-53 0 -91 -28t-64.5 -68.5t-43 -89t-24.5 -87.5q-8 -35 -11 -77z" />
<glyph unicode="q" horiz-adv-x="915" d="M109 202q-2 23 -2 45q0 40 8 79q16 76 58 142.5t100.5 114.5t130 75.5t149.5 27.5q72 0 133.5 -28.5t89.5 -88.5l117 117h65l-79 -278l-123 -578q-4 -14 -5 -26.5t13 -20.5q23 -2 46.5 -1t47.5 -1l-14 -70h-459l14 70l80 2q10 0 17.5 1t19.5 7q4 4 7 8t7 8q4 10 5.5 21.5 t5.5 21.5l49 236h-2q-47 -53 -111.5 -79.5t-130.5 -26.5t-120 28.5t-83 81.5q-27 49 -34 112zM347 248q-2 -20 -2 -38q0 -23 3 -45q6 -40 27.5 -66.5t66.5 -26.5q47 0 83 29.5t61.5 72.5t42 90t22.5 82q8 39 15 85q3 23 3 45t-3 42q-7 41 -31.5 68.5t-75.5 27.5 q-49 0 -84 -31.5t-58.5 -77.5t-36.5 -95.5t-22 -83.5q-6 -35 -11 -78z" />
<glyph unicode="r" horiz-adv-x="733" d="M33 0l14 70h55q10 0 23.5 1t21.5 9t11 12q6 14 9 26.5t7 26.5l66 314q4 23 10 50.5t2 49.5q-6 23 -30.5 25t-45.5 2h-29l17 71l317 15l-41 -193h4q20 39 49 76t63 66.5t74 47t87 17.5q67 0 105 -37q28 -27 28 -71q0 -16 -4 -35q-10 -47 -50 -82t-89 -35t-74 28 q-18 20 -18 53q0 13 3 28q4 18 16.5 36.5t29.5 28.5l-2 2q-59 -14 -104.5 -63.5t-77 -114t-51 -132t-30.5 -116.5q-4 -16 -7 -35.5t-7 -38.5q-4 -25 15.5 -26.5t37.5 -1.5l80 -4l-14 -70h-471z" />
<glyph unicode="s" horiz-adv-x="706" d="M61 0l43 242h64q10 -39 26.5 -74t41 -61.5t60.5 -43t83 -16.5q31 0 64.5 9.5t60.5 37.5q20 33 20 55.5t-15 37t-40 21.5t-49 13l-86 19q-45 10 -79 23t-65 48q-28 31 -34 67q-2 13 -2 27q0 26 6 56q12 57 45 99t78 69.5t97 42t105 14.5q41 0 85 -12t75 -35l60 33h57 l-41 -221h-64q-2 4 -2 8t-4 8q-23 59 -65.5 103t-116.5 44q-41 0 -86 -18t-55 -68q-4 -23 6 -35t26.5 -20t36 -12t33.5 -8l66 -17q35 -10 73.5 -20t69.5 -31q43 -25 59 -70q10 -28 11 -59q0 -19 -4 -39q-8 -39 -30 -79t-57 -70q-18 -16 -34.5 -27.5t-32.5 -20t-34.5 -14.5 t-43.5 -12q-23 -6 -54.5 -10t-53.5 -4q-43 0 -99.5 12t-89.5 35l-59 -27h-56z" />
<glyph unicode="t" horiz-adv-x="602" d="M156 586l16 76q63 8 110.5 34.5t81 65.5t58 88t47.5 104h86l-61 -282h186l-18 -86h-187l-84 -393q-4 -16 -6 -31t-2 -31q0 -41 43 -41q29 0 51.5 19.5t37.5 46t24.5 55.5t13.5 49h72l-1 -12q-25 -115 -97 -191.5t-197 -76.5q-45 0 -84 11t-64 46q-17 25 -17 57v10 q3 38 7 74q4 35 12.5 70t14.5 69l57 269h-100z" />
<glyph unicode="u" horiz-adv-x="968" d="M152 586l16 71l328 15l-90 -422q-4 -25 -8.5 -52.5t5.5 -50.5q10 -25 26.5 -34t43.5 -9q45 0 88 27t68 68q20 35 31.5 74.5t19.5 76.5l22 109q6 29 13.5 59.5t-2.5 52.5q-10 10 -17.5 11.5t-23.5 3.5h-60l17 71l338 15l-99 -461q-4 -27 -11 -57.5t3 -55.5q6 -12 39 -12 h59l-14 -72l-328 -14l25 117h-4q-57 -66 -128 -101.5t-151 -35.5q-53 0 -84.5 11t-51 30.5t-29 44t-15.5 51.5q0 53 2 82.5t8 58.5l43 201q6 27 16.5 61.5t-3.5 50.5q-10 10 -16.5 11.5t-20.5 3.5h-55z" />
<glyph unicode="v" d="M143 600l15 72h399l-14 -72l-29 -2q-18 -4 -34.5 -8t-20.5 -27q-2 -8 0 -18t4 -19l86 -327l172 274q10 20 24.5 42t8.5 44q-4 23 -29 29t-47 8l-25 4l15 72h319l-14 -72q-33 -6 -54.5 -14t-38 -22.5t-29.5 -33t-32 -43.5q-12 -16 -22.5 -32.5t-22.5 -32.5l-282 -434h-119 l-146 522l-8 29q-4 16 -12 34.5t-29 22.5q-20 4 -35 4z" />
<glyph unicode="w" horiz-adv-x="1255" d="M154 600l14 72h385l-14 -72h-23q-18 -2 -33.5 -8t-19.5 -29q-2 -10 2 -31l61 -311l156 238l-6 35l-10 47q-8 35 -20.5 46t-47.5 13h-10l14 72h391l-14 -72h-18q-10 0 -31 -2t-31 -12q-8 -8 -10 -15q-4 -10 -2 -20t4 -21l63 -311l150 234q10 16 21.5 34.5t15.5 34.5 q4 20 3 36.5t-20 27.5q-8 6 -30 10q-8 4 -35 4h-8l14 72h313l-14 -72q-59 -4 -88 -34.5t-62 -76.5l-333 -501h-109l-70 372l-243 -372h-109l-108 501q-4 20 -8.5 41t-12.5 36.5t-23.5 24.5t-43.5 9z" />
<glyph unicode="x" d="M18 0l15 70q4 0 8 2t8 2q10 4 21.5 5t21.5 5t19.5 9t19.5 9q14 10 26.5 18.5t24.5 18.5l203 160l-149 236l-25 32q-16 20 -26.5 24.5t-39.5 8.5l15 72h418l-15 -72h-14q-10 0 -19.5 -2t-19.5 -4q-4 -4 -9 -7t-7 -9q-4 -16 6 -33t18 -27l47 -74l70 56q16 10 28.5 21 t22.5 28q4 4 7 11t3 11q0 10 -7 16.5t-17 9.5t-21.5 3h-19.5h-17l15 72h344l-15 -72q-47 -2 -84.5 -17.5t-78.5 -45.5l-193 -152l160 -256q16 -29 32.5 -40t51.5 -17q4 -2 14 -2l-14 -70h-443l15 70l18 2q10 0 20.5 1t20.5 7q12 8 15 22q4 14 -2.5 24.5t-10.5 20.5l-59 93 l-78 -64l-33 -31q-18 -12 -22 -32q-4 -14 6 -25.5t24 -13.5q10 -2 17.5 -2t17.5 -2h10l-14 -70h-330z" />
<glyph unicode="y" d="M-18 -156q10 45 51 79t86 34t73 -25q20 -17 20 -48q0 -10 -3 -23q-4 -12 -6 -20.5t-10 -20.5q-4 -8 -6.5 -9t1.5 -10q29 -2 58.5 16.5t56.5 46t48.5 58.5t37.5 53l-172 572q-6 27 -12 37t-35 16h-25l15 72h399l-14 -72h-25q-14 -2 -28.5 -3t-24.5 -15q-10 -16 -7 -31.5 t7 -32.5l84 -303l164 248q10 18 20 34.5t15 39.5q4 20 -0.5 31.5t-15.5 17.5t-25.5 9t-28.5 5h-27l15 72h319l-14 -72q-18 -4 -34.5 -6t-33.5 -12q-25 -16 -45 -40t-37 -50l-362 -537q-39 -55 -80 -104.5t-88 -84t-103 -50.5q-33 -9 -71 -9q-25 0 -51 4q-47 12 -72 46 q-17 24 -17 56q0 15 3 31z" />
<glyph unicode="z" horiz-adv-x="759" d="M49 0l12 63l504 537h-133q-47 -2 -76.5 -17.5t-51 -40t-38 -56t-37.5 -68.5h-67l67 254h613l-15 -68l-501 -534h112q47 0 82 7t72 48q29 33 55.5 68.5t42.5 74.5h66l-70 -268h-637z" />
<glyph unicode="{" horiz-adv-x="548" d="M209 432l2 4q35 8 58.5 19.5t39 30t24.5 43t17 59.5l47 227q10 41 24.5 84t49.5 74q47 41 106.5 46t124.5 3l-2 -4q-53 -14 -80.5 -52t-41.5 -102l-52 -241q-8 -37 -18 -68t-27.5 -54.5t-44 -40t-65.5 -24.5v-2q72 -16 82 -64t-7 -122l-51 -242q-14 -63 -1.5 -101 t59.5 -52v-5q-68 -6 -115 -5t-84 32q-35 27 -35 66t10 84l56 256q6 33 8 56t-12 50q-14 18 -32 30.5t-40 14.5z" />
<glyph unicode="|" horiz-adv-x="856" d="M344 0l221 1042h168l-221 -1042h-168z" />
<glyph unicode="}" horiz-adv-x="548" d="M10 -147q53 14 81 52t42 101l51 242q16 74 46 122t112 64v2q-74 16 -84 64.5t6 122.5l51 241q14 63 2 101.5t-59 52.5l2 4q63 2 120.5 -4t86.5 -45q23 -31 20.5 -74t-12.5 -84l-47 -227q-16 -70 -4 -103.5t78 -48.5l-2 -4q-23 -2 -45.5 -14t-42.5 -31q-27 -27 -35 -50.5 t-15 -55.5l-55 -256q-10 -45 -26.5 -84t-59.5 -66q-53 -31 -99 -32t-112 5v5z" />
<glyph unicode="~" horiz-adv-x="856" d="M135 303q23 31 50.5 62.5t58 56t65.5 41t74 16.5t77 -14t73.5 -32.5t68.5 -33t57 -14.5q23 0 41.5 10.5t36 26.5t31.5 33.5t29 33.5l69 -102q-25 -29 -50 -58.5t-55 -53t-62.5 -39t-71.5 -15.5q-35 0 -65 11.5t-58 23.5l-49 25q-23 10 -49.5 22t-55.5 12q-49 0 -84 -39.5 t-63 -76.5z" />
<glyph unicode="&#xa1;" horiz-adv-x="559" d="M160 115q8 35 29.5 82t48.5 110q31 66 69.5 155t89.5 230h56q-6 -111 -6.5 -207t-0.5 -178q2 -80 3.5 -118.5t-7.5 -73.5q-12 -57 -61 -96t-109 -39q-57 0 -91 38.5t-21 96.5zM334 915q10 55 60 94.5t108 39.5q55 0 88.5 -39.5t23.5 -94.5q-12 -55 -63 -96t-107 -41 q-57 0 -89.5 41t-20.5 96z" />
<glyph unicode="&#xa2;" horiz-adv-x="899" d="M170 360q16 76 59 141.5t107 116.5q61 53 145 86t181 35l40 187h72l-41 -187q61 -6 101 -23.5t63 -39.5q23 -23 31 -47.5t4 -46.5q-10 -47 -44 -78t-100 -31q-33 0 -60.5 19.5t-31.5 70.5l-100 -475q80 0 139.5 36t108.5 103l49 -37q-59 -84 -142 -137t-178 -67l-43 -203 h-71l43 203q-201 2 -285 102t-47 272zM430 371q-23 -104 6 -175t90 -96l123 580q-31 -4 -62.5 -23.5t-60.5 -56.5q-29 -35 -54.5 -94.5t-41.5 -134.5z" />
<glyph unicode="&#xa3;" horiz-adv-x="1024" d="M90 0l29 135q72 25 111.5 53.5t62.5 67.5q23 41 34 87t25 112h-141l16 84h142q4 29 11 85t13 89q33 150 159 248t298 98q123 0 201.5 -59.5t60.5 -145.5q-10 -53 -49 -88t-96 -35t-87 31t-20 82q8 39 30.5 78t33.5 59q-20 6 -42 8t-42 2q-14 0 -36 -5t-50 -28 q-27 -20 -51.5 -62t-38.5 -108q-10 -47 -21.5 -120.5t-24.5 -128.5h281l-16 -84h-281q-41 -102 -88 -153.5t-137 -96.5l-2 -8h604l-41 -197h-848z" />
<glyph unicode="&#xa4;" horiz-adv-x="1044" d="M162 115l205 168q-12 29 -15.5 63.5t2.5 67.5q8 33 25.5 66.5t42.5 66.5l-131 172l96 78l135 -168q31 16 69 27.5t71 11.5q35 0 66.5 -10.5t55.5 -28.5l205 168l66 -78l-205 -172q10 -29 14 -63.5t-4 -69.5q-6 -31 -24.5 -68t-40.5 -63l131 -170l-95 -80l-135 168 q-39 -18 -71.5 -28.5t-71.5 -10.5q-33 0 -64.5 11t-58.5 28l-207 -170zM459 414q-12 -59 22.5 -104.5t93.5 -45.5q61 0 114 44.5t65 105.5q14 61 -20 105t-95 44q-59 0 -112.5 -44t-67.5 -105z" />
<glyph unicode="&#xa5;" horiz-adv-x="1087" d="M178 340l17 84h313l4 12q-31 90 -78 213t-76 197q-18 39 -36.5 63.5t-40.5 38.5q-20 10 -44 16.5t-44 8.5l12 55h567l-12 -55q-72 -2 -102.5 -11.5t-32.5 -25.5q-2 -8 0 -23.5t16 -64.5q12 -39 42 -119t71 -186q201 240 247 298t50 77q4 25 -19.5 38t-89.5 17l12 55h367 l-12 -55q-25 -4 -43.5 -9.5t-44.5 -19.5q-35 -16 -65 -44t-58 -60q-66 -70 -161 -183.5t-177 -210.5l-6 -22h315l-16 -84h-314l-39 -182q-6 -27 -0.5 -46.5t31.5 -31.5q10 -4 48 -13.5t57 -9.5l-11 -57h-565l10 57q20 0 60.5 5.5t56.5 9.5q29 12 43 31.5t21 46.5l41 190 h-314z" />
<glyph unicode="&#xa6;" horiz-adv-x="575" d="M160 -307l125 588h125l-125 -588h-125zM336 524l123 580h125l-123 -580h-125z" />
<glyph unicode="&#xa7;" horiz-adv-x="837" d="M102 -23q8 39 38 66t75 27q33 0 51.5 -16.5t28.5 -45.5q10 -25 15 -53.5t7 -60.5q4 0 11.5 -1.5t9.5 -1.5q68 0 119 26t63 83q6 37 -3 60.5t-34 41.5q-23 20 -64.5 40t-82.5 36q-98 45 -138 101.5t-22 140.5q14 70 66.5 122t165.5 91q-72 33 -98.5 84t-12.5 117 q20 94 127.5 157.5t257.5 63.5q72 0 121 -14.5t76 -36.5q25 -20 32 -46t2 -51q-8 -37 -36.5 -63.5t-75.5 -26.5q-33 0 -51.5 16.5t-30.5 43.5q-8 23 -13.5 57.5t-9.5 58.5q-4 0 -10 1t-8 1q-70 0 -120 -27.5t-62 -82.5q-8 -37 3 -59.5t38 -43.5q27 -18 66.5 -37.5 t82.5 -37.5q98 -43 139 -98.5t23 -141.5q-16 -78 -78.5 -132t-155.5 -81q68 -31 94.5 -82t14.5 -113q-23 -98 -127 -162.5t-262 -64.5q-76 0 -123 14.5t-72 34.5q-27 23 -34 48.5t-3 47.5zM371 469q-8 -41 4 -67.5t39 -47.5q29 -20 67.5 -38.5t77.5 -39.5q43 31 63.5 67 t28.5 75t-3 65.5t-36 46.5t-70.5 42t-78.5 36q-33 -23 -58.5 -63.5t-33.5 -75.5z" />
<glyph unicode="&#xa8;" horiz-adv-x="741" d="M283 979q10 47 52 84t89 37t73.5 -37t16.5 -84q-10 -49 -53 -86t-90 -37t-73 37t-15 86zM641 979q10 47 53 84t90 37t72.5 -37t15.5 -84q-10 -49 -52 -86t-89 -37t-73.5 37t-16.5 86z" />
<glyph unicode="&#xa9;" horiz-adv-x="1398" d="M152 436q55 266 282.5 453.5t493.5 187.5q264 0 412.5 -187.5t93.5 -453.5q-57 -266 -285.5 -453.5t-493.5 -187.5q-266 0 -413.5 187.5t-89.5 453.5zM221 436q-51 -240 79 -408.5t370 -168.5q238 0 439.5 168.5t252.5 408.5t-79 409t-368 169q-240 0 -441.5 -169 t-252.5 -409zM432 282.5q-14 63.5 4 145.5q35 162 164 264.5t293 102.5q57 0 99 -14.5t69 -30.5l33 36h47l-54 -268h-51q-12 113 -45 166t-104 53q-86 0 -147.5 -77.5t-90.5 -213.5q-29 -135 4 -208.5t129 -73.5q72 0 130.5 34.5t113.5 102.5l41 -25q-25 -41 -59.5 -75.5 t-79.5 -63.5q-47 -25 -94.5 -39t-108.5 -14q-74 0 -135.5 22.5t-100.5 67.5q-43 45 -57 108.5z" />
<glyph unicode="&#xaa;" horiz-adv-x="819" d="M219 588q10 57 50 97t118 67q51 16 134 38.5t122 38.5l10 52q4 16 6.5 38.5t-2.5 41.5q-4 18 -18 30.5t-45 12.5t-47.5 -5.5t-26.5 -11.5q0 -16 3 -34.5t-3 -47.5q-6 -31 -36.5 -52.5t-84.5 -21.5q-45 0 -68.5 21.5t-13.5 65.5q6 33 36 57t75 45q45 16 95 26.5t91 10.5 q59 0 106.5 -7.5t82.5 -27.5q31 -23 45 -59.5t0 -102.5q-14 -70 -35.5 -154.5t-28.5 -115.5q-6 -27 -1 -42.5t20 -23.5q10 -4 31.5 -5t39.5 -1l-10 -47q-27 -10 -68.5 -20.5t-76.5 -10.5q-72 0 -103.5 20.5t-33.5 61.5h-4q-20 -14 -42 -30.5t-51 -26.5q-31 -12 -58.5 -18.5 t-74.5 -6.5q-70 0 -109.5 40t-23.5 108zM434 618q-10 -47 6.5 -64t46.5 -17q33 0 57.5 13t43.5 32l41 188q-35 -10 -70 -24.5t-59 -26.5q-25 -16 -42.5 -42t-23.5 -59z" />
<glyph unicode="&#xab;" horiz-adv-x="905" d="M190 335.5q-8 24.5 0 61.5q6 33 24.5 56.5t49.5 46.5q59 41 149.5 96t200.5 125l33 -31l-287 -297l162 -293l-45 -30q-76 63 -148.5 124.5t-107.5 96.5q-23 20 -31 44.5zM510 397q6 33 23.5 56.5t48.5 46.5q59 41 149 96t203 125l31 -31l-287 -297l162 -293l-43 -30 q-78 63 -151 124.5t-107 96.5q-20 20 -28.5 44.5t-0.5 61.5z" />
<glyph unicode="&#xac;" horiz-adv-x="1044" d="M199 379l24 119h799l-98 -461h-123l73 342h-675z" />
<glyph unicode="&#xad;" horiz-adv-x="761" d="M188 348l25 123h567l-24 -123h-568z" />
<glyph unicode="&#xae;" horiz-adv-x="1398" d="M152 436q55 266 282.5 453.5t493.5 187.5q264 0 412.5 -187.5t93.5 -453.5q-57 -266 -285.5 -453.5t-493.5 -187.5q-266 0 -413.5 187.5t-89.5 453.5zM221 436q-51 -240 79 -408.5t370 -168.5q238 0 439.5 168.5t252.5 408.5t-79 409t-368 169q-240 0 -441.5 -169 t-252.5 -409zM391 104l10 43q14 2 35 5.5t31 7.5q20 8 28.5 19t12.5 30l98 461q4 18 2 28.5t-22 20.5q-12 6 -29.5 11t-30.5 7l9 41h374q125 0 183.5 -39t42.5 -118q-16 -76 -69.5 -118t-133.5 -65q18 -35 47 -86t72 -123q12 -18 32.5 -40.5t38.5 -30.5q6 -4 24.5 -7.5 t24.5 -3.5l-10 -43h-262q-45 109 -76.5 169.5t-79.5 134.5h-22l-41 -195q-4 -18 -2 -30.5t20 -20.5q8 -2 24.5 -8.5t29.5 -6.5l-11 -43h-350zM731 457h33q72 0 117 35.5t61 113.5q14 68 -17.5 95.5t-101.5 27.5h-35z" />
<glyph unicode="&#xaf;" horiz-adv-x="1044" d="M242 1161l18 90h1053l-19 -90h-1052z" />
<glyph unicode="&#xb0;" horiz-adv-x="622" d="M236 819q20 102 106 171t193 69q111 0 164.5 -70t33.5 -170q-23 -102 -105.5 -170.5t-193.5 -68.5t-166 69.5t-32 169.5zM367 821q-18 -84 3 -131t79 -47q49 0 93 45t60 125q18 88 -4.5 134t-77.5 46t-96 -48t-57 -124z" />
<glyph unicode="&#xb1;" horiz-adv-x="1044" d="M119 0l24 119h344l62 287h-344l24 116h344l72 344h119l-72 -344h342l-24 -116h-342l-62 -287h342l-24 -119h-805z" />
<glyph unicode="&#xb2;" horiz-adv-x="819" d="M201 354l22 103q37 31 115 81t131 83q33 20 71 49.5t58 54.5q27 33 43 59.5t27 75.5q12 63 -12.5 101t-80.5 38q-16 0 -31.5 -2t-33.5 -8q2 -20 6 -47t-4 -57q-8 -39 -41 -61.5t-76 -22.5q-41 0 -60.5 27.5t-10.5 66.5q14 68 103 115t200 47q133 0 200.5 -53.5 t46.5 -149.5q-12 -61 -45.5 -104t-74.5 -72q-41 -31 -90.5 -52.5t-85.5 -33.5q-53 -20 -100.5 -38.5t-104.5 -41.5l-2 -10h460l-32 -148h-598z" />
<glyph unicode="&#xb3;" horiz-adv-x="819" d="M207 487q8 41 38.5 69t73.5 28t66 -22.5t14 -61.5q-6 -29 -19 -56.5t-26 -46.5q14 -6 33 -10t35 -4q31 0 64.5 9t58.5 26q27 18 46 47t30 78q14 68 -8.5 100.5t-92.5 32.5h-65l14 67h45q66 0 102.5 35t53.5 113q10 49 -13.5 78.5t-68.5 29.5q-18 0 -37 -2t-37 -8 q4 -20 7 -47t-5 -57q-8 -39 -37.5 -60.5t-75.5 -21.5q-39 0 -58 27.5t-11 66.5q14 68 103 114t200 46q76 0 125 -16.5t74 -45.5q23 -25 27.5 -53.5t0.5 -48.5q-4 -25 -17 -50.5t-38 -45.5q-23 -23 -63.5 -43.5t-92.5 -28.5l-2 -8q33 -2 69.5 -12.5t61.5 -28.5 q27 -20 39.5 -52t1.5 -81q-20 -92 -124.5 -153.5t-247.5 -61.5q-113 0 -185.5 47t-58.5 112z" />
<glyph unicode="&#xb4;" horiz-adv-x="741" d="M379 825q82 86 128 136.5t77 85.5q41 45 72.5 60t72.5 15q35 0 59.5 -18t18.5 -45q-6 -33 -25.5 -53.5t-56.5 -40.5q-41 -23 -127 -66t-197 -100z" />
<glyph unicode="&#xb5;" horiz-adv-x="991" d="M33 -207q10 45 32.5 93t34.5 81q14 41 25.5 75t19.5 64l129 613h238l-102 -479q-16 -78 6 -112t78 -34q45 0 87 21.5t70 56.5l117 547h238l-119 -563q-6 -29 0 -48.5t24 -29.5q14 -6 39 -8t39 -2l-12 -54q-35 -14 -81 -25.5t-93 -11.5q-84 0 -121 31t-39 90h-4 q-51 -61 -109.5 -91t-109.5 -30q-49 0 -82 11.5t-53 34.5h-9l-4 -23q-6 -29 0.5 -104.5t-2.5 -108.5q-10 -51 -55 -80t-92 -29q-49 0 -74.5 33t-15.5 82z" />
<glyph unicode="&#xb6;" horiz-adv-x="815" d="M217 739q27 121 126 205t243 84h409l-12 -59h-80l-239 -1127h-89l240 1127h-121l-239 -1127h-88l131 613q-145 0 -227.5 71.5t-53.5 212.5z" />
<glyph unicode="&#xb7;" horiz-adv-x="501" d="M193 395q10 57 61 100.5t111 43.5q57 0 89.5 -43.5t22.5 -100.5q-12 -57 -63.5 -99t-108.5 -42q-59 0 -92 42t-20 99z" />
<glyph unicode="&#xb8;" horiz-adv-x="741" d="M135 -322l12 58h72t60 4q25 6 40 17.5t21 35.5q6 29 -18.5 37t-69.5 8l37 174h61l-18 -82q80 0 124.5 -27.5t32.5 -84.5q-10 -41 -37.5 -70t-68.5 -43q-45 -14 -103.5 -20.5t-144.5 -6.5z" />
<glyph unicode="&#xb9;" horiz-adv-x="819" d="M276 354l13 54q14 0 52 4t50 10q20 4 31.5 16.5t17.5 34.5l88 422h-141l14 61h29q45 0 83 10.5t67 24.5q25 14 44 29.5t33 30.5h97q-8 -29 -19.5 -76t-19.5 -88l-88 -408q-4 -18 2 -31.5t20 -21.5q10 -6 43 -12t49 -6l-12 -54h-453z" />
<glyph unicode="&#xba;" horiz-adv-x="819" d="M223 748q29 137 138.5 223t271.5 86t234.5 -86t45.5 -219q-31 -135 -140 -224.5t-277 -89.5q-158 0 -229.5 89t-43.5 221zM426 651.5q-4 -41.5 2 -80.5q6 -35 26.5 -55t59.5 -20q37 0 65.5 19t51.5 54q20 39 35.5 82t27.5 103q8 43 13.5 90t-0.5 80q-6 35 -27 55t-59 20 q-41 0 -70 -21.5t-51 -55.5q-18 -35 -32.5 -80t-23.5 -86q-14 -63 -18 -104.5z" />
<glyph unicode="&#xbb;" horiz-adv-x="905" d="M106 100l285 293l-160 297l45 31q82 -68 150 -125t106 -96q23 -20 31 -45t2 -58q-8 -35 -26.5 -60.5t-49.5 -45.5q-53 -37 -146 -95.5t-204 -125.5zM426 100l285 293l-160 297l43 31q82 -68 150.5 -125t105.5 -96q23 -20 31 -45t2 -58q-8 -35 -25.5 -60.5t-50.5 -45.5 q-53 -37 -145.5 -95.5t-204.5 -125.5z" />
<glyph unicode="&#xbc;" horiz-adv-x="1574" d="M182 354l13 54q14 0 51 4t53 10q35 8 47 51l88 422h-141l14 61h29q45 0 83 10.5t66 24.5q23 14 43.5 29.5t34.5 30.5h96q-8 -29 -19 -76t-19 -88l-89 -408q-6 -39 23 -53q10 -6 43 -12t49 -6l-12 -54h-453zM438 0l811 1036h115l-811 -1036h-115zM903 201h322l-23 -109 q-2 -10 -12 -20q-17 -13 -33 -13h-115l-12 -57h465l12 57h-108q-20 0 -27 15l-5 10t1 8l23 109h149l14 63h-149l84 400h-115l-456 -400zM1016 264l272 236l-49 -236h-223z" />
<glyph unicode="&#xbd;" horiz-adv-x="1589" d="M182 354l13 54q14 0 51 4t53 10q35 8 47 51l88 422h-141l14 61h29q45 0 83 10.5t66 24.5q23 14 43.5 29.5t34.5 30.5h96q-8 -29 -19 -76t-19 -88l-89 -408q-6 -39 23 -53q10 -6 43 -12t49 -6l-12 -54h-453zM438 0l811 1036h115l-811 -1036h-115zM930 2h571l55 201h-55 q-2 -10 -6 -19q-8 -20 -16 -28q-18 -23 -47 -32t-60 -9h-272q2 2 34.5 28.5t131.5 81.5q41 25 72.5 42.5t57 32.5t48 27.5t45.5 26.5q39 25 67.5 57.5t43 68.5t9.5 73t-32 70q-29 33 -81 49t-112.5 19t-120 -7t-102.5 -31q-41 -20 -70.5 -46.5t-46 -55.5t-21.5 -57.5 t5 -53.5q10 -23 37 -38t74 -5q27 6 43 20.5t22 32t3 33t-13 25.5q-12 10 -24.5 12t-22.5 1t-14 -2l-11 -3q0 4 7.5 23.5t29.5 42.5q25 23 60.5 35t72.5 15t71 -2t54 -18q47 -31 44 -74.5t-27 -84.5q-12 -23 -43 -49.5t-73 -57.5t-91 -63.5t-99 -65.5q-90 -59 -137 -100 t-47 -43z" />
<glyph unicode="&#xbe;" horiz-adv-x="1552" d="M164 526q8 29 34.5 54.5t80.5 25.5q47 0 63 -32.5t-10 -63.5q-14 -16 -29.5 -24.5t-17.5 -8.5l14 -14t39 -21q14 -6 38.5 -10t54.5 -3t59.5 9t54.5 27q51 37 62 95t-25 95q-18 18 -43 28.5t-49.5 16t-46 6.5t-33.5 -1l12 57q8 -2 29.5 -2t49 5t58.5 13t55 25 q45 27 59.5 67.5t-7.5 75.5q-10 18 -33 28.5t-52.5 13.5t-60.5 1t-57 -8q-35 -8 -46.5 -19.5l-15.5 -15.5q4 -4 11.5 -10t7.5 -29q0 -29 -25.5 -45t-56.5 -18q-43 -2 -58.5 23.5t1.5 58.5q29 63 108.5 93t183.5 32q47 0 91.5 -8.5t79 -26t54 -45t17.5 -66.5 q-2 -37 -22.5 -67.5t-52 -53t-71.5 -35t-79 -12.5q33 -2 68.5 -11t63.5 -29.5t41 -52.5t3 -79q-10 -49 -42 -87t-77 -63.5t-101.5 -37.5t-117.5 -12q-63 0 -116.5 9t-90.5 28.5t-53 50t-4 73.5zM438 0l811 1036h115l-811 -1036h-115zM903 199l15 63l456 400h115l-84 -400 h149l-14 -63h-149l-23 -109q-2 -6 -1 -8l5 -10q6 -14 25 -15h108l-10 -57h-465l10 57h115q18 0 35 13q10 10 12 20l23 109h-322zM1016 262h223l49 236z" />
<glyph unicode="&#xbf;" horiz-adv-x="813" d="M137 281q29 139 143.5 230t294.5 110l25 98h66l-60 -283q-102 -10 -176 -65.5t-94 -157.5q-18 -80 14.5 -127t102.5 -47q27 0 54.5 7t47.5 20l-5 57.5t3 69.5q12 51 52 78.5t97 27.5q55 0 79 -35t14 -86q-18 -84 -126 -141t-241 -57q-160 0 -239.5 82.5t-51.5 218.5z M535 920q12 55 62 94t103 39q57 0 91 -39t22 -94q-12 -57 -62.5 -97.5t-107.5 -40.5q-53 0 -87 40t-21 98z" />
<glyph unicode="&#xc0;" horiz-adv-x="1073" d="M-25 0l17 76q43 4 77.5 25.5t64.5 52t55.5 66.5t48.5 71l477 751h106l176 -862q6 -31 12.5 -50t17.5 -31.5t31.5 -17.5t55.5 -5l-14 -76h-496l14 76q10 0 24.5 -1t30 0t29 4t21.5 11q16 16 15 30.5t-5 31.5l-26 159h-361q-18 -33 -40.5 -67.5t-31.5 -71.5 q-6 -31 2.5 -49.5t27 -29.5t43 -14t48.5 -3l-14 -76h-406zM403 399h285l-65 351zM539 1428q6 27 38 45t68 18q43 0 65.5 -13t47.5 -62q16 -35 45 -92.5t66 -129.5l-35 -26q-106 72 -159.5 104.5t-92.5 61.5q-29 23 -39 41t-4 53z" />
<glyph unicode="&#xc1;" horiz-adv-x="1073" d="M-25 0l17 76q43 4 77.5 25.5t64.5 52t55.5 66.5t48.5 71l477 751h106l176 -862q6 -31 12.5 -50t17.5 -31.5t31.5 -17.5t55.5 -5l-14 -76h-496l14 76q10 0 24.5 -1t30 0t29 4t21.5 11q16 16 15 30.5t-5 31.5l-26 159h-361q-18 -33 -40.5 -67.5t-31.5 -71.5 q-6 -31 2.5 -49.5t27 -29.5t43 -14t48.5 -3l-14 -76h-406zM403 399h285l-65 351zM754 1159q82 86 128 136.5t77 85.5q41 45 72.5 60t72.5 15q35 0 59.5 -18t18.5 -45q-6 -33 -25.5 -53.5t-56.5 -40.5q-41 -23 -127 -66t-197 -100z" />
<glyph unicode="&#xc2;" horiz-adv-x="1073" d="M-25 0l17 76q43 4 77.5 25.5t64.5 52t55.5 66.5t48.5 71l477 751h106l176 -862q6 -31 12.5 -50t17.5 -31.5t31.5 -17.5t55.5 -5l-14 -76h-496l14 76q10 0 24.5 -1t30 0t29 4t21.5 11q16 16 15 30.5t-5 31.5l-26 159h-361q-18 -33 -40.5 -67.5t-31.5 -71.5 q-6 -31 2.5 -49.5t27 -29.5t43 -14t48.5 -3l-14 -76h-406zM403 399h285l-65 351zM503 1112q96 117 134.5 162t87.5 94q23 25 48 35t64 10t56.5 -10t31.5 -31q23 -41 49.5 -102.5t65.5 -157.5l-43 -20l-192 182l-269 -182z" />
<glyph unicode="&#xc3;" horiz-adv-x="1073" d="M-25 0l17 76q43 4 77.5 25.5t64.5 52t55.5 66.5t48.5 71l477 751h106l176 -862q6 -31 12.5 -50t17.5 -31.5t31.5 -17.5t55.5 -5l-14 -76h-496l14 76q10 0 24.5 -1t30 0t29 4t21.5 11q16 16 15 30.5t-5 31.5l-26 159h-361q-18 -33 -40.5 -67.5t-31.5 -71.5 q-6 -31 2.5 -49.5t27 -29.5t43 -14t48.5 -3l-14 -76h-406zM403 399h285l-65 351zM458 1161q16 29 42 64.5t63 70.5q31 33 74 56.5t79 23.5q49 0 83 -12.5t65 -28.5q29 -16 48 -27.5t50 -11.5q59 0 87 29.5t52 75.5l52 -19q-16 -31 -43 -68.5t-64 -70.5q-39 -37 -77 -57.5 t-83 -20.5q-51 0 -87 12.5t-62 28.5q-20 12 -47 26.5t-53 14.5q-35 0 -63 -25.5t-71 -83.5z" />
<glyph unicode="&#xc4;" horiz-adv-x="1073" d="M-25 0l17 76q43 4 77.5 25.5t64.5 52t55.5 66.5t48.5 71l477 751h106l176 -862q6 -31 12.5 -50t17.5 -31.5t31.5 -17.5t55.5 -5l-14 -76h-496l14 76q10 0 24.5 -1t30 0t29 4t21.5 11q16 16 15 30.5t-5 31.5l-26 159h-361q-18 -33 -40.5 -67.5t-31.5 -71.5 q-6 -31 2.5 -49.5t27 -29.5t43 -14t48.5 -3l-14 -76h-406zM403 399h285l-65 351zM506 1255q10 47 52 84t89 37t73.5 -37t16.5 -84q-10 -49 -53 -86t-90 -37t-73 37t-15 86zM864 1255q10 47 53 84t90 37t72.5 -37t15.5 -84q-10 -49 -52 -86t-89 -37t-73.5 37t-16.5 86z" />
<glyph unicode="&#xc5;" horiz-adv-x="1073" d="M-25 0l17 76q43 4 77.5 25.5t64.5 52t55.5 66.5t48.5 71l477 751h106l176 -862q6 -31 12.5 -50t17.5 -31.5t31.5 -17.5t55.5 -5l-14 -76h-496l14 76q10 0 24.5 -1t30 0t29 4t21.5 11q16 16 15 30.5t-5 31.5l-26 159h-361q-18 -33 -40.5 -67.5t-31.5 -71.5 q-6 -31 2.5 -49.5t27 -29.5t43 -14t48.5 -3l-14 -76h-406zM403 399h285l-65 351zM611 1303q16 76 83.5 122t151.5 46q88 0 136 -45t32 -123q-16 -76 -80.5 -122t-156.5 -46t-137.5 45t-28.5 123zM715 1303q-10 -53 8.5 -85t63.5 -32q47 0 78 31t43 86q10 51 -7.5 83.5 t-64.5 32.5q-45 0 -76.5 -31.5t-44.5 -84.5z" />
<glyph unicode="&#xc6;" horiz-adv-x="1587" d="M-68 0l13 57q18 0 51 7.5t51 17.5q35 16 64.5 42t56.5 60q143 180 296.5 370.5t319.5 399.5q-23 6 -62.5 11.5t-68.5 7.5l13 55h1032l-56 -262h-55q-8 59 -48 118.5t-87 71.5q-20 4 -58 6.5t-65 2.5h-135l-86 -400h92q41 0 76 10.5t67 36.5q20 16 45 58.5t39 72.5h56 l-92 -428h-56q2 29 -5 75t-19 65q-20 27 -51 36t-74 9h-92l-62 -295q-20 -96 3.5 -117.5t127.5 -21.5q102 0 150.5 10t70.5 26q43 35 102.5 109t80.5 108h53l-86 -319h-950l10 57q18 0 56 5.5t50 9.5q29 12 43.5 28.5t20.5 46.5l59 281h-358q-78 -98 -121 -153.5t-53 -71.5 q-41 -49 -47 -66.5t-8 -21.5q-2 -16 11 -26.5t32 -16.5q23 -6 45 -10.5t41 -4.5l-11 -57h-422zM518 500h320l100 465h-55z" />
<glyph unicode="&#xc7;" horiz-adv-x="1062" d="M151.5 284q-20.5 99 6.5 222q25 119 88 220t155 177q90 74 202 114t231 40q84 0 150.5 -20.5t109.5 -47.5l53 39h63l-73 -375h-64q-18 172 -76.5 252t-169.5 80q-135 0 -231 -120t-143 -337q-25 -121 -20 -208t32 -140q31 -55 83 -79.5t122 -24.5q100 0 192 54t180 167 l54 -39q-43 -63 -94.5 -113.5t-112.5 -87.5q-66 -41 -138.5 -62.5t-168.5 -21.5l-11 -43q80 0 125 -27.5t33 -84.5q-10 -41 -37.5 -70t-68.5 -43q-45 -14 -103.5 -20.5t-144.5 -6.5l12 58h72t59 4q25 6 41 17.5t23 35.5q6 29 -19.5 37t-70.5 8l28 139q-92 8 -166.5 44 t-122.5 96q-59 68 -79.5 167z" />
<glyph unicode="&#xc8;" horiz-adv-x="1073" d="M23 0l14 76q14 2 37.5 0t46 0t42 9t27.5 28q8 10 9.5 22t5.5 27l153 721q2 8 4.5 16t-2.5 14q-2 10 -5 16.5t-15 8.5q-29 6 -58.5 7t-58.5 1l15 74h950l-68 -367h-69q-6 78 -21.5 133.5t-47.5 91t-86 52t-140 16.5q-25 0 -51.5 -2t-53.5 -12q-16 -12 -28 -29 q-10 -16 -14.5 -35.5t-8.5 -36.5l-57 -268q104 -8 167.5 47.5t98.5 153.5h72l-99 -492h-75q16 102 -28 162t-153 55l-65 -309q-10 -47 -7 -70.5t52 -29.5q20 -2 37.5 -3t38.5 -1q84 0 146.5 18.5t111.5 57t89 95t79 134.5l69 -6l-94 -375h-960zM649 1428q6 27 38 45t68 18 q43 0 65.5 -13t47.5 -62q16 -35 45 -92.5t66 -129.5l-35 -26q-106 72 -159.5 104.5t-92.5 61.5q-29 23 -39 41t-4 53z" />
<glyph unicode="&#xc9;" horiz-adv-x="1073" d="M23 0l14 76q14 2 37.5 0t46 0t42 9t27.5 28q8 10 9.5 22t5.5 27l153 721q2 8 4.5 16t-2.5 14q-2 10 -5 16.5t-15 8.5q-29 6 -58.5 7t-58.5 1l15 74h950l-68 -367h-69q-6 78 -21.5 133.5t-47.5 91t-86 52t-140 16.5q-25 0 -51.5 -2t-53.5 -12q-16 -12 -28 -29 q-10 -16 -14.5 -35.5t-8.5 -36.5l-57 -268q104 -8 167.5 47.5t98.5 153.5h72l-99 -492h-75q16 102 -28 162t-153 55l-65 -309q-10 -47 -7 -70.5t52 -29.5q20 -2 37.5 -3t38.5 -1q84 0 146.5 18.5t111.5 57t89 95t79 134.5l69 -6l-94 -375h-960zM592 1159q82 86 128 136.5 t77 85.5q41 45 72.5 60t72.5 15q35 0 59.5 -18t18.5 -45q-6 -33 -25.5 -53.5t-56.5 -40.5q-41 -23 -127 -66t-197 -100z" />
<glyph unicode="&#xca;" horiz-adv-x="1073" d="M23 0l14 76q14 2 37.5 0t46 0t42 9t27.5 28q8 10 9.5 22t5.5 27l153 721q2 8 4.5 16t-2.5 14q-2 10 -5 16.5t-15 8.5q-29 6 -58.5 7t-58.5 1l15 74h950l-68 -367h-69q-6 78 -21.5 133.5t-47.5 91t-86 52t-140 16.5q-25 0 -51.5 -2t-53.5 -12q-16 -12 -28 -29 q-10 -16 -14.5 -35.5t-8.5 -36.5l-57 -268q104 -8 167.5 47.5t98.5 153.5h72l-99 -492h-75q16 102 -28 162t-153 55l-65 -309q-10 -47 -7 -70.5t52 -29.5q20 -2 37.5 -3t38.5 -1q84 0 146.5 18.5t111.5 57t89 95t79 134.5l69 -6l-94 -375h-960zM503 1112q96 117 134.5 162 t87.5 94q23 25 48 35t64 10t56.5 -10t31.5 -31q23 -41 49.5 -102.5t65.5 -157.5l-43 -20l-192 182l-269 -182z" />
<glyph unicode="&#xcb;" horiz-adv-x="1073" d="M23 0l14 76q14 2 37.5 0t46 0t42 9t27.5 28q8 10 9.5 22t5.5 27l153 721q2 8 4.5 16t-2.5 14q-2 10 -5 16.5t-15 8.5q-29 6 -58.5 7t-58.5 1l15 74h950l-68 -367h-69q-6 78 -21.5 133.5t-47.5 91t-86 52t-140 16.5q-25 0 -51.5 -2t-53.5 -12q-16 -12 -28 -29 q-10 -16 -14.5 -35.5t-8.5 -36.5l-57 -268q104 -8 167.5 47.5t98.5 153.5h72l-99 -492h-75q16 102 -28 162t-153 55l-65 -309q-10 -47 -7 -70.5t52 -29.5q20 -2 37.5 -3t38.5 -1q84 0 146.5 18.5t111.5 57t89 95t79 134.5l69 -6l-94 -375h-960zM506 1255q10 47 52 84t89 37 t73.5 -37t16.5 -84q-10 -49 -53 -86t-90 -37t-73 37t-15 86zM864 1255q10 47 53 84t90 37t72.5 -37t15.5 -84q-10 -49 -52 -86t-89 -37t-73.5 37t-16.5 86z" />
<glyph unicode="&#xcc;" horiz-adv-x="626" d="M39 0l14 76h90q51 4 61.5 28.5t18.5 65.5l148 688q2 10 4 22.5t0 24.5t-2 20.5t-15 12.5q-16 6 -36.5 6t-36.5 2h-45l14 74h551l-14 -74h-46q-23 0 -48 -1t-48 -17q-6 -6 -9 -13.5t-7 -13.5q-4 -10 -6 -23.5t-6 -23.5l-150 -707q-4 -16 -5 -36.5t17 -28.5q6 -2 21 -2 q14 -4 31.5 -4h33.5h35l-14 -76h-551zM268 1428q6 27 38 45t68 18q43 0 65.5 -13t47.5 -62q16 -35 45 -92.5t66 -129.5l-35 -26q-106 72 -159.5 104.5t-92.5 61.5q-29 23 -39 41t-4 53z" />
<glyph unicode="&#xcd;" horiz-adv-x="626" d="M39 0l14 76h90q51 4 61.5 28.5t18.5 65.5l148 688q2 10 4 22.5t0 24.5t-2 20.5t-15 12.5q-16 6 -36.5 6t-36.5 2h-45l14 74h551l-14 -74h-46q-23 0 -48 -1t-48 -17q-6 -6 -9 -13.5t-7 -13.5q-4 -10 -6 -23.5t-6 -23.5l-150 -707q-4 -16 -5 -36.5t17 -28.5q6 -2 21 -2 q14 -4 31.5 -4h33.5h35l-14 -76h-551zM539 1159q82 86 128 136.5t77 85.5q41 45 72.5 60t72.5 15q35 0 59.5 -18t18.5 -45q-6 -33 -25.5 -53.5t-56.5 -40.5q-41 -23 -127 -66t-197 -100z" />
<glyph unicode="&#xce;" horiz-adv-x="626" d="M39 0l14 76h90q51 4 61.5 28.5t18.5 65.5l148 688q2 10 4 22.5t0 24.5t-2 20.5t-15 12.5q-16 6 -36.5 6t-36.5 2h-45l14 74h551l-14 -74h-46q-23 0 -48 -1t-48 -17q-6 -6 -9 -13.5t-7 -13.5q-4 -10 -6 -23.5t-6 -23.5l-150 -707q-4 -16 -5 -36.5t17 -28.5q6 -2 21 -2 q14 -4 31.5 -4h33.5h35l-14 -76h-551zM278 1112q96 117 134.5 162t87.5 94q23 25 48 35t64 10t56.5 -10t31.5 -31q23 -41 49.5 -102.5t65.5 -157.5l-43 -20l-192 182l-269 -182z" />
<glyph unicode="&#xcf;" horiz-adv-x="626" d="M39 0l14 76h90q51 4 61.5 28.5t18.5 65.5l148 688q2 10 4 22.5t0 24.5t-2 20.5t-15 12.5q-16 6 -36.5 6t-36.5 2h-45l14 74h551l-14 -74h-46q-23 0 -48 -1t-48 -17q-6 -6 -9 -13.5t-7 -13.5q-4 -10 -6 -23.5t-6 -23.5l-150 -707q-4 -16 -5 -36.5t17 -28.5q6 -2 21 -2 q14 -4 31.5 -4h33.5h35l-14 -76h-551zM283 1255q10 47 52 84t89 37t73.5 -37t16.5 -84q-10 -49 -53 -86t-90 -37t-73 37t-15 86zM641 1255q10 47 53 84t90 37t72.5 -37t15.5 -84q-10 -49 -52 -86t-89 -37t-73.5 37t-16.5 86z" />
<glyph unicode="&#xd0;" horiz-adv-x="1236" d="M49 0l10 57q25 0 61 4.5t48 8.5q29 10 43 28.5t18 44.5l76 355h-141l16 75h142l63 299q6 25 1 45.5t-32 32.5q-25 12 -54.5 16.5t-45.5 6.5l12 55h547q88 0 184 -22.5t174 -81.5q82 -63 119 -166t4 -250q-27 -131 -100.5 -228.5t-171.5 -156.5q-98 -63 -216 -93t-239 -30 h-518zM491 133q3 -20 17 -35q14 -14 36.5 -23t61.5 -9q82 0 147.5 30.5t114.5 89.5q47 57 80 137.5t56 184.5q23 102 18.5 186t-35.5 144q-29 59 -85 92t-136 33q-25 0 -57.5 -1t-49.5 -1l-81 -388h223l-17 -75h-223l-67 -320q-6 -25 -3 -45z" />
<glyph unicode="&#xd1;" horiz-adv-x="1177" d="M23 0l14 76q49 2 82 10t53.5 26.5t32.5 49.5t22 78l135 628q-39 78 -135 78l15 74h358l412 -649l86 409q18 86 -6.5 125t-114.5 41l14 74h402l-15 -74q-55 -8 -98 -24.5t-68 -75.5q-12 -31 -19 -61.5t-13 -61.5l-158 -735h-88l-498 794l-112 -526q-18 -90 3 -134t117 -46 l-14 -76h-407zM506 1161q16 29 42 64.5t63 70.5q31 33 74 56.5t79 23.5q49 0 83 -12.5t65 -28.5q29 -16 48 -27.5t50 -11.5q59 0 87 29.5t52 75.5l52 -19q-16 -31 -43 -68.5t-64 -70.5q-39 -37 -77 -57.5t-83 -20.5q-51 0 -87 12.5t-62 28.5q-20 12 -47 26.5t-53 14.5 q-35 0 -63 -25.5t-71 -83.5z" />
<glyph unicode="&#xd2;" horiz-adv-x="1177" d="M158.5 307.5q-19.5 98.5 3.5 198.5q23 111 83 210t156 177q86 72 195 110.5t209 38.5q115 0 202 -36.5t150 -118.5q57 -76 75.5 -173.5t-3.5 -203.5q-23 -104 -89.5 -209.5t-158.5 -177.5q-100 -78 -199.5 -110.5t-212.5 -32.5q-106 0 -194 38.5t-144 116.5 q-53 74 -72.5 172.5zM419 342q-5 -86 9 -152q31 -143 188 -143q63 0 109.5 28.5t80.5 73t57.5 97.5t41.5 102q14 39 24.5 80t18.5 80q8 41 16.5 91t10.5 101.5t-5 99.5t-26.5 86t-55.5 60.5t-91 22.5q-90 0 -151.5 -49.5t-102.5 -121t-64.5 -152.5t-38.5 -146 q-16 -72 -21 -158zM557 1428q6 27 38 45t68 18q43 0 65.5 -13t47.5 -62q16 -35 45 -92.5t66 -129.5l-35 -26q-106 72 -159.5 104.5t-92.5 61.5q-29 23 -39 41t-4 53z" />
<glyph unicode="&#xd3;" horiz-adv-x="1177" d="M158.5 307.5q-19.5 98.5 3.5 198.5q23 111 83 210t156 177q86 72 195 110.5t209 38.5q115 0 202 -36.5t150 -118.5q57 -76 75.5 -173.5t-3.5 -203.5q-23 -104 -89.5 -209.5t-158.5 -177.5q-100 -78 -199.5 -110.5t-212.5 -32.5q-106 0 -194 38.5t-144 116.5 q-53 74 -72.5 172.5zM419 342q-5 -86 9 -152q31 -143 188 -143q63 0 109.5 28.5t80.5 73t57.5 97.5t41.5 102q14 39 24.5 80t18.5 80q8 41 16.5 91t10.5 101.5t-5 99.5t-26.5 86t-55.5 60.5t-91 22.5q-90 0 -151.5 -49.5t-102.5 -121t-64.5 -152.5t-38.5 -146 q-16 -72 -21 -158zM819 1159q82 86 128 136.5t77 85.5q41 45 72.5 60t72.5 15q35 0 59.5 -18t18.5 -45q-6 -33 -25.5 -53.5t-56.5 -40.5q-41 -23 -127 -66t-197 -100z" />
<glyph unicode="&#xd4;" horiz-adv-x="1177" d="M158.5 307.5q-19.5 98.5 3.5 198.5q23 111 83 210t156 177q86 72 195 110.5t209 38.5q115 0 202 -36.5t150 -118.5q57 -76 75.5 -173.5t-3.5 -203.5q-23 -104 -89.5 -209.5t-158.5 -177.5q-100 -78 -199.5 -110.5t-212.5 -32.5q-106 0 -194 38.5t-144 116.5 q-53 74 -72.5 172.5zM419 342q-5 -86 9 -152q31 -143 188 -143q63 0 109.5 28.5t80.5 73t57.5 97.5t41.5 102q14 39 24.5 80t18.5 80q8 41 16.5 91t10.5 101.5t-5 99.5t-26.5 86t-55.5 60.5t-91 22.5q-90 0 -151.5 -49.5t-102.5 -121t-64.5 -152.5t-38.5 -146 q-16 -72 -21 -158zM555 1112q96 117 134.5 162t87.5 94q23 25 48 35t64 10t56.5 -10t31.5 -31q23 -41 49.5 -102.5t65.5 -157.5l-43 -20l-192 182l-269 -182z" />
<glyph unicode="&#xd5;" horiz-adv-x="1177" d="M158.5 307.5q-19.5 98.5 3.5 198.5q23 111 83 210t156 177q86 72 195 110.5t209 38.5q115 0 202 -36.5t150 -118.5q57 -76 75.5 -173.5t-3.5 -203.5q-23 -104 -89.5 -209.5t-158.5 -177.5q-100 -78 -199.5 -110.5t-212.5 -32.5q-106 0 -194 38.5t-144 116.5 q-53 74 -72.5 172.5zM419 342q-5 -86 9 -152q31 -143 188 -143q63 0 109.5 28.5t80.5 73t57.5 97.5t41.5 102q14 39 24.5 80t18.5 80q8 41 16.5 91t10.5 101.5t-5 99.5t-26.5 86t-55.5 60.5t-91 22.5q-90 0 -151.5 -49.5t-102.5 -121t-64.5 -152.5t-38.5 -146 q-16 -72 -21 -158zM510 1161q16 29 42 64.5t63 70.5q31 33 74 56.5t79 23.5q49 0 83 -12.5t65 -28.5q29 -16 48 -27.5t50 -11.5q59 0 87 29.5t52 75.5l52 -19q-16 -31 -43 -68.5t-64 -70.5q-39 -37 -77 -57.5t-83 -20.5q-51 0 -87 12.5t-62 28.5q-20 12 -47 26.5t-53 14.5 q-35 0 -63 -25.5t-71 -83.5z" />
<glyph unicode="&#xd6;" horiz-adv-x="1177" d="M158.5 307.5q-19.5 98.5 3.5 198.5q23 111 83 210t156 177q86 72 195 110.5t209 38.5q115 0 202 -36.5t150 -118.5q57 -76 75.5 -173.5t-3.5 -203.5q-23 -104 -89.5 -209.5t-158.5 -177.5q-100 -78 -199.5 -110.5t-212.5 -32.5q-106 0 -194 38.5t-144 116.5 q-53 74 -72.5 172.5zM419 342q-5 -86 9 -152q31 -143 188 -143q63 0 109.5 28.5t80.5 73t57.5 97.5t41.5 102q14 39 24.5 80t18.5 80q8 41 16.5 91t10.5 101.5t-5 99.5t-26.5 86t-55.5 60.5t-91 22.5q-90 0 -151.5 -49.5t-102.5 -121t-64.5 -152.5t-38.5 -146 q-16 -72 -21 -158zM557 1255q10 47 52 84t89 37t73.5 -37t16.5 -84q-10 -49 -53 -86t-90 -37t-73 37t-15 86zM915 1255q10 47 53 84t90 37t72.5 -37t15.5 -84q-10 -49 -52 -86t-89 -37t-73.5 37t-16.5 86z" />
<glyph unicode="&#xd7;" horiz-adv-x="1044" d="M188 139l338 279l-219 276l101 84l217 -278l338 278l67 -84l-340 -276l221 -279l-102 -84l-219 279l-336 -279z" />
<glyph unicode="&#xd8;" horiz-adv-x="1177" d="M158.5 307.5q-19.5 98.5 3.5 198.5q23 111 83 210t156 177q86 72 195 110.5t209 38.5q115 0 202 -36.5t150 -118.5q57 -76 75.5 -173.5t-3.5 -203.5q-23 -104 -89.5 -209.5t-158.5 -177.5q-100 -78 -199.5 -110.5t-212.5 -32.5q-106 0 -194 38.5t-144 116.5 q-53 74 -72.5 172.5zM205 -26l856 1081h127l-856 -1081h-127zM419 342q-5 -86 9 -152q31 -143 188 -143q63 0 109.5 28.5t80.5 73t57.5 97.5t41.5 102q14 39 24.5 80t18.5 80q8 41 16.5 91t10.5 101.5t-5 99.5t-26.5 86t-55.5 60.5t-91 22.5q-90 0 -151.5 -49.5t-102.5 -121 t-64.5 -152.5t-38.5 -146q-16 -72 -21 -158z" />
<glyph unicode="&#xd9;" horiz-adv-x="1177" d="M221 946l15 74h542l-14 -74q-35 -4 -73 -2t-68 -20q-12 -10 -16.5 -32t-6.5 -34l-100 -469q-10 -41 -19.5 -94t-1.5 -92q8 -37 23.5 -56.5t50.5 -35.5q31 -14 60.5 -20.5t66.5 -6.5q59 0 119.5 21.5t107.5 70.5q47 51 64.5 107.5t29.5 115.5l78 367q6 27 10.5 53.5t1 49 t-15.5 41t-41 26.5q-16 8 -35.5 8t-35.5 2l14 74h403l-14 -74q-51 -2 -84 -16.5t-54.5 -39t-34.5 -59t-24 -77.5l-86 -402q-8 -37 -18 -69.5t-29 -67.5q-33 -63 -87 -114.5t-118 -80.5q-57 -25 -124.5 -32.5t-122.5 -7.5q-35 0 -75 3t-79 11t-73.5 22.5t-59.5 34.5 q-59 49 -70.5 115.5t6.5 152.5l121 576q4 14 2 24.5t-16 16.5q-10 4 -27.5 6t-35 3t-34 1h-22.5zM537 1428q6 27 38 45t68 18q43 0 65.5 -13t47.5 -62q16 -35 45 -92.5t66 -129.5l-35 -26q-106 72 -159.5 104.5t-92.5 61.5q-29 23 -39 41t-4 53z" />
<glyph unicode="&#xda;" horiz-adv-x="1177" d="M221 946l15 74h542l-14 -74q-35 -4 -73 -2t-68 -20q-12 -10 -16.5 -32t-6.5 -34l-100 -469q-10 -41 -19.5 -94t-1.5 -92q8 -37 23.5 -56.5t50.5 -35.5q31 -14 60.5 -20.5t66.5 -6.5q59 0 119.5 21.5t107.5 70.5q47 51 64.5 107.5t29.5 115.5l78 367q6 27 10.5 53.5t1 49 t-15.5 41t-41 26.5q-16 8 -35.5 8t-35.5 2l14 74h403l-14 -74q-51 -2 -84 -16.5t-54.5 -39t-34.5 -59t-24 -77.5l-86 -402q-8 -37 -18 -69.5t-29 -67.5q-33 -63 -87 -114.5t-118 -80.5q-57 -25 -124.5 -32.5t-122.5 -7.5q-35 0 -75 3t-79 11t-73.5 22.5t-59.5 34.5 q-59 49 -70.5 115.5t6.5 152.5l121 576q4 14 2 24.5t-16 16.5q-10 4 -27.5 6t-35 3t-34 1h-22.5zM848 1159q82 86 128 136.5t77 85.5q41 45 72.5 60t72.5 15q35 0 59.5 -18t18.5 -45q-6 -33 -25.5 -53.5t-56.5 -40.5q-41 -23 -127 -66t-197 -100z" />
<glyph unicode="&#xdb;" horiz-adv-x="1177" d="M221 946l15 74h542l-14 -74q-35 -4 -73 -2t-68 -20q-12 -10 -16.5 -32t-6.5 -34l-100 -469q-10 -41 -19.5 -94t-1.5 -92q8 -37 23.5 -56.5t50.5 -35.5q31 -14 60.5 -20.5t66.5 -6.5q59 0 119.5 21.5t107.5 70.5q47 51 64.5 107.5t29.5 115.5l78 367q6 27 10.5 53.5t1 49 t-15.5 41t-41 26.5q-16 8 -35.5 8t-35.5 2l14 74h403l-14 -74q-51 -2 -84 -16.5t-54.5 -39t-34.5 -59t-24 -77.5l-86 -402q-8 -37 -18 -69.5t-29 -67.5q-33 -63 -87 -114.5t-118 -80.5q-57 -25 -124.5 -32.5t-122.5 -7.5q-35 0 -75 3t-79 11t-73.5 22.5t-59.5 34.5 q-59 49 -70.5 115.5t6.5 152.5l121 576q4 14 2 24.5t-16 16.5q-10 4 -27.5 6t-35 3t-34 1h-22.5zM555 1112q96 117 134.5 162t87.5 94q23 25 48 35t64 10t56.5 -10t31.5 -31q23 -41 49.5 -102.5t65.5 -157.5l-43 -20l-192 182l-269 -182z" />
<glyph unicode="&#xdc;" horiz-adv-x="1177" d="M221 946l15 74h542l-14 -74q-35 -4 -73 -2t-68 -20q-12 -10 -16.5 -32t-6.5 -34l-100 -469q-10 -41 -19.5 -94t-1.5 -92q8 -37 23.5 -56.5t50.5 -35.5q31 -14 60.5 -20.5t66.5 -6.5q59 0 119.5 21.5t107.5 70.5q47 51 64.5 107.5t29.5 115.5l78 367q6 27 10.5 53.5t1 49 t-15.5 41t-41 26.5q-16 8 -35.5 8t-35.5 2l14 74h403l-14 -74q-51 -2 -84 -16.5t-54.5 -39t-34.5 -59t-24 -77.5l-86 -402q-8 -37 -18 -69.5t-29 -67.5q-33 -63 -87 -114.5t-118 -80.5q-57 -25 -124.5 -32.5t-122.5 -7.5q-35 0 -75 3t-79 11t-73.5 22.5t-59.5 34.5 q-59 49 -70.5 115.5t6.5 152.5l121 576q4 14 2 24.5t-16 16.5q-10 4 -27.5 6t-35 3t-34 1h-22.5zM557 1255q10 47 52 84t89 37t73.5 -37t16.5 -84q-10 -49 -53 -86t-90 -37t-73 37t-15 86zM915 1255q10 47 53 84t90 37t72.5 -37t15.5 -84q-10 -49 -52 -86t-89 -37t-73.5 37 t-16.5 86z" />
<glyph unicode="&#xdd;" horiz-adv-x="1019" d="M184 946l15 74h506l-15 -74q-23 -4 -46 -2t-46 -8q-10 -6 -14 -10t-6 -15q-2 -8 2 -20t8 -19l125 -319l188 248q14 16 26.5 31.5t16.5 37.5q4 12 1 20.5t-7 18.5q-18 29 -50 32t-63 5l15 74h413l-14 -74q-43 -6 -76 -19.5t-59.5 -34t-51 -47t-51.5 -57.5 q-45 -51 -87 -104t-85 -106q-47 -66 -98 -129l-63 -302q-6 -25 -2 -53q4 -4 7 -6t7 -4q33 -6 65.5 -7t65.5 -1l-14 -76h-568l15 76h67.5t65.5 8q25 10 31 31.5t10 42.5l57 274l-172 426q-10 25 -18.5 41t-20.5 27.5t-30.5 15.5t-49.5 4zM748 1159q82 86 128 136.5t77 85.5 q41 45 72.5 60t72.5 15q35 0 59.5 -18t18.5 -45q-6 -33 -25.5 -53.5t-56.5 -40.5q-41 -23 -127 -66t-197 -100z" />
<glyph unicode="&#xde;" horiz-adv-x="1050" d="M49 0l10 57q20 0 57.5 5.5t51.5 9.5q27 12 42 28.5t21 46.5l154 725q6 27 2 45.5t-33 28.5q-18 10 -48 17.5t-52 9.5l12 55h553l-12 -55q-18 -2 -52 -9.5t-48 -13.5q-29 -10 -43.5 -29.5t-20.5 -43.5l-8 -48h160q199 0 282.5 -67t50.5 -217q-16 -78 -65 -137.5 t-119 -96.5q-66 -37 -143.5 -56t-153.5 -19h-139l-19 -84q-6 -27 1.5 -45.5t31.5 -28.5q12 -6 41 -13.5t49 -7.5l-10 -57h-553zM522 303h37q119 0 189.5 58t95.5 171q25 117 -11 173.5t-157 56.5h-55z" />
<glyph unicode="&#xdf;" horiz-adv-x="976" d="M27 0l10 53q23 2 38 3t31 7q23 8 36.5 24.5t19.5 43.5l129 606q27 121 73 189.5t107 109.5q70 47 146.5 67.5t152.5 20.5q61 0 117.5 -13t97.5 -42q43 -27 61.5 -70t6.5 -102q-10 -47 -37 -86t-62 -63q-37 -29 -75.5 -45.5t-77.5 -22.5l-2 -6q41 -8 83.5 -29.5 t73.5 -60.5q33 -39 47.5 -92.5t-2.5 -131.5q-33 -158 -149.5 -263t-276.5 -105q-43 0 -81.5 4t-59.5 8l15 64q8 -2 21 -4.5t22 -2.5q88 0 154.5 81t94.5 223q29 127 -1.5 200.5t-121.5 73.5h-20l14 68h27q25 0 54.5 11t56.5 34q29 27 48 64.5t29 82.5q16 82 -5 124t-77 42 q-84 0 -129 -68.5t-73 -201.5l-168 -795h-348z" />
<glyph unicode="&#xe0;" d="M82 66.5q-10 31.5 0 80.5q14 74 76.5 119t142.5 73t161 41t136 26q2 14 8 40.5t9 54t2 51t-9 34.5q-16 16 -38.5 22t-49.5 6t-55.5 -6t-54.5 -22q-14 -10 -8 -22.5t10 -20.5q12 -27 8 -49q-10 -47 -53 -70t-84 -23q-47 0 -73 30t-15 77q12 55 59 92t100 53 q53 18 102.5 25.5t100.5 7.5q59 0 125 -12t106 -47q45 -41 45.5 -89.5t-14.5 -111.5l-51 -233q-2 -14 -3 -27.5t-5 -26.5q-4 -20 2 -33.5t29 -13.5q8 0 18 5l18 9q18 14 33 0q4 -6 0 -18t-11 -24.5t-17.5 -22.5t-16.5 -14q-27 -23 -61.5 -35t-65.5 -12q-45 0 -82 18 q-41 25 -51 78q-61 -49 -141 -72.5t-154 -23.5q-43 0 -80 8t-62.5 27.5t-35.5 51zM317 170q-10 -43 8.5 -71.5t65.5 -28.5q23 0 47.5 10t46.5 26q23 16 32 32t22 38q10 18 17 48t11 48q4 16 6.5 31t6.5 33q-41 -10 -82 -19.5t-78 -25t-64.5 -44t-38.5 -77.5zM361 1030 q6 27 38 45t68 18q43 0 65.5 -13t47.5 -62q16 -35 45 -92.5t66 -129.5l-35 -26q-106 72 -159.5 104.5t-92.5 61.5q-29 23 -39 41t-4 53z" />
<glyph unicode="&#xe1;" d="M82 66.5q-10 31.5 0 80.5q14 74 76.5 119t142.5 73t161 41t136 26q2 14 8 40.5t9 54t2 51t-9 34.5q-16 16 -38.5 22t-49.5 6t-55.5 -6t-54.5 -22q-14 -10 -8 -22.5t10 -20.5q12 -27 8 -49q-10 -47 -53 -70t-84 -23q-47 0 -73 30t-15 77q12 55 59 92t100 53 q53 18 102.5 25.5t100.5 7.5q59 0 125 -12t106 -47q45 -41 45.5 -89.5t-14.5 -111.5l-51 -233q-2 -14 -3 -27.5t-5 -26.5q-4 -20 2 -33.5t29 -13.5q8 0 18 5l18 9q18 14 33 0q4 -6 0 -18t-11 -24.5t-17.5 -22.5t-16.5 -14q-27 -23 -61.5 -35t-65.5 -12q-45 0 -82 18 q-41 25 -51 78q-61 -49 -141 -72.5t-154 -23.5q-43 0 -80 8t-62.5 27.5t-35.5 51zM317 170q-10 -43 8.5 -71.5t65.5 -28.5q23 0 47.5 10t46.5 26q23 16 32 32t22 38q10 18 17 48t11 48q4 16 6.5 31t6.5 33q-41 -10 -82 -19.5t-78 -25t-64.5 -44t-38.5 -77.5zM563 811 q82 86 128 136.5t77 85.5q41 45 72.5 60t72.5 15q35 0 59.5 -18t18.5 -45q-6 -33 -25.5 -53.5t-56.5 -40.5q-41 -23 -127 -66t-197 -100z" />
<glyph unicode="&#xe2;" d="M82 66.5q-10 31.5 0 80.5q14 74 76.5 119t142.5 73t161 41t136 26q2 14 8 40.5t9 54t2 51t-9 34.5q-16 16 -38.5 22t-49.5 6t-55.5 -6t-54.5 -22q-14 -10 -8 -22.5t10 -20.5q12 -27 8 -49q-10 -47 -53 -70t-84 -23q-47 0 -73 30t-15 77q12 55 59 92t100 53 q53 18 102.5 25.5t100.5 7.5q59 0 125 -12t106 -47q45 -41 45.5 -89.5t-14.5 -111.5l-51 -233q-2 -14 -3 -27.5t-5 -26.5q-4 -20 2 -33.5t29 -13.5q8 0 18 5l18 9q18 14 33 0q4 -6 0 -18t-11 -24.5t-17.5 -22.5t-16.5 -14q-27 -23 -61.5 -35t-65.5 -12q-45 0 -82 18 q-41 25 -51 78q-61 -49 -141 -72.5t-154 -23.5q-43 0 -80 8t-62.5 27.5t-35.5 51zM317 170q-10 -43 8.5 -71.5t65.5 -28.5q23 0 47.5 10t46.5 26q23 16 32 32t22 38q10 18 17 48t11 48q4 16 6.5 31t6.5 33q-41 -10 -82 -19.5t-78 -25t-64.5 -44t-38.5 -77.5zM331 798 q96 117 134.5 162t87.5 94q23 25 48 35t64 10t56.5 -10t31.5 -31q23 -41 49.5 -102.5t65.5 -157.5l-43 -20l-192 182l-269 -182z" />
<glyph unicode="&#xe3;" d="M82 66.5q-10 31.5 0 80.5q14 74 76.5 119t142.5 73t161 41t136 26q2 14 8 40.5t9 54t2 51t-9 34.5q-16 16 -38.5 22t-49.5 6t-55.5 -6t-54.5 -22q-14 -10 -8 -22.5t10 -20.5q12 -27 8 -49q-10 -47 -53 -70t-84 -23q-47 0 -73 30t-15 77q12 55 59 92t100 53 q53 18 102.5 25.5t100.5 7.5q59 0 125 -12t106 -47q45 -41 45.5 -89.5t-14.5 -111.5l-51 -233q-2 -14 -3 -27.5t-5 -26.5q-4 -20 2 -33.5t29 -13.5q8 0 18 5l18 9q18 14 33 0q4 -6 0 -18t-11 -24.5t-17.5 -22.5t-16.5 -14q-27 -23 -61.5 -35t-65.5 -12q-45 0 -82 18 q-41 25 -51 78q-61 -49 -141 -72.5t-154 -23.5q-43 0 -80 8t-62.5 27.5t-35.5 51zM272 778q16 29 42 64.5t63 70.5q31 33 74 56.5t79 23.5q49 0 83 -12.5t65 -28.5q29 -16 48 -27.5t50 -11.5q59 0 87 29.5t52 75.5l52 -19q-16 -31 -43 -68.5t-64 -70.5q-39 -37 -77 -57.5 t-83 -20.5q-51 0 -87 12.5t-62 28.5q-20 12 -47 26.5t-53 14.5q-35 0 -63 -25.5t-71 -83.5zM317 170q-10 -43 8.5 -71.5t65.5 -28.5q23 0 47.5 10t46.5 26q23 16 32 32t22 38q10 18 17 48t11 48q4 16 6.5 31t6.5 33q-41 -10 -82 -19.5t-78 -25t-64.5 -44t-38.5 -77.5z" />
<glyph unicode="&#xe4;" d="M82 66.5q-10 31.5 0 80.5q14 74 76.5 119t142.5 73t161 41t136 26q2 14 8 40.5t9 54t2 51t-9 34.5q-16 16 -38.5 22t-49.5 6t-55.5 -6t-54.5 -22q-14 -10 -8 -22.5t10 -20.5q12 -27 8 -49q-10 -47 -53 -70t-84 -23q-47 0 -73 30t-15 77q12 55 59 92t100 53 q53 18 102.5 25.5t100.5 7.5q59 0 125 -12t106 -47q45 -41 45.5 -89.5t-14.5 -111.5l-51 -233q-2 -14 -3 -27.5t-5 -26.5q-4 -20 2 -33.5t29 -13.5q8 0 18 5l18 9q18 14 33 0q4 -6 0 -18t-11 -24.5t-17.5 -22.5t-16.5 -14q-27 -23 -61.5 -35t-65.5 -12q-45 0 -82 18 q-41 25 -51 78q-61 -49 -141 -72.5t-154 -23.5q-43 0 -80 8t-62.5 27.5t-35.5 51zM317 170q-10 -43 8.5 -71.5t65.5 -28.5q23 0 47.5 10t46.5 26q23 16 32 32t22 38q10 18 17 48t11 48q4 16 6.5 31t6.5 33q-41 -10 -82 -19.5t-78 -25t-64.5 -44t-38.5 -77.5zM328 907 q10 47 52 84t89 37t73.5 -37t16.5 -84q-10 -49 -53 -86t-90 -37t-73 37t-15 86zM686 907q10 47 53 84t90 37t72.5 -37t15.5 -84q-10 -49 -52 -86t-89 -37t-73.5 37t-16.5 86z" />
<glyph unicode="&#xe5;" d="M82 66.5q-10 31.5 0 80.5q14 74 76.5 119t142.5 73t161 41t136 26q2 14 8 40.5t9 54t2 51t-9 34.5q-16 16 -38.5 22t-49.5 6t-55.5 -6t-54.5 -22q-14 -10 -8 -22.5t10 -20.5q12 -27 8 -49q-10 -47 -53 -70t-84 -23q-47 0 -73 30t-15 77q12 55 59 92t100 53 q53 18 102.5 25.5t100.5 7.5q59 0 125 -12t106 -47q45 -41 45.5 -89.5t-14.5 -111.5l-51 -233q-2 -14 -3 -27.5t-5 -26.5q-4 -20 2 -33.5t29 -13.5q8 0 18 5l18 9q18 14 33 0q4 -6 0 -18t-11 -24.5t-17.5 -22.5t-16.5 -14q-27 -23 -61.5 -35t-65.5 -12q-45 0 -82 18 q-41 25 -51 78q-61 -49 -141 -72.5t-154 -23.5q-43 0 -80 8t-62.5 27.5t-35.5 51zM317 170q-10 -43 8.5 -71.5t65.5 -28.5q23 0 47.5 10t46.5 26q23 16 32 32t22 38q10 18 17 48t11 48q4 16 6.5 31t6.5 33q-41 -10 -82 -19.5t-78 -25t-64.5 -44t-38.5 -77.5zM432 955 q16 76 83.5 122t151.5 46q88 0 136 -45t32 -123q-16 -76 -80.5 -122t-156.5 -46t-137.5 45t-28.5 123zM536 955q-10 -53 8.5 -85t63.5 -32q47 0 78 31t43 86q10 51 -7.5 83.5t-64.5 32.5q-45 0 -76.5 -31.5t-44.5 -84.5z" />
<glyph unicode="&#xe6;" horiz-adv-x="1273" d="M90 160q10 47 30.5 79.5t47.5 57.5q29 23 60.5 38t66.5 30q76 25 174 49t135 35l17 79q4 18 7 48t-1 51q-6 23 -23.5 39t-54.5 16q-31 0 -54.5 -9t-37.5 -18q-2 -16 3 -44.5t-1 -57.5q-2 -12 -13.5 -30.5t-25.5 -28.5q-20 -16 -43 -23.5t-64 -7.5q-61 0 -87.5 28.5 t-16.5 75.5q10 41 47 73t94 54q49 23 110.5 34t112.5 11q80 0 138.5 -15t99.5 -56q45 29 105.5 50t119.5 21q94 0 156.5 -24.5t93.5 -67.5t38 -98t-7 -117l-10 -47h-478q-31 -147 8.5 -225t159.5 -78q68 0 128.5 38t109.5 93l45 -41q-70 -86 -171 -140.5t-216 -54.5 q-119 0 -194.5 36t-108.5 104h-4q-25 -23 -55.5 -47.5t-69.5 -44.5q-43 -23 -89 -35.5t-110 -12.5q-90 0 -139 50.5t-33 132.5zM348 201q-12 -59 8.5 -85t59.5 -26t70.5 17t54.5 40l49 238q-45 -10 -86 -24.5t-72 -34.5q-29 -20 -51.5 -51t-32.5 -74zM844 446l223 3 q8 37 14 86t4 75q-6 31 -22 51.5t-49 20.5q-57 0 -100.5 -58.5t-69.5 -177.5z" />
<glyph unicode="&#xe7;" horiz-adv-x="786" d="M106.5 190.5q-12.5 59.5 4.5 135.5q18 82 65 149.5t111.5 113.5t142.5 71.5t158 25.5q45 0 93 -9t86 -30.5t58.5 -58.5t8.5 -90q-12 -57 -53.5 -89t-96.5 -32q-29 0 -51.5 11t-34.5 29.5t-12 43t16 51.5q6 14 16 25q4 4 8.5 8t8.5 8l14 14q10 14 5 24.5t-17 16.5t-27.5 8 t-25.5 2q-51 0 -89 -26.5t-65 -67.5t-44 -88t-26 -86q-10 -45 -13 -94t8.5 -90t42 -67.5t87.5 -26.5q84 0 143.5 50t100.5 122l62 -23q-59 -115 -151.5 -178t-215.5 -63q-35 0 -78 6t-72 16q-70 20 -110 76q-45 53 -57.5 112.5zM193 -322l12 58h71.5t59.5 4q25 6 40 17.5 t21 35.5q6 29 -18.5 37t-69.5 8l37 174h62l-19 -82q80 0 125 -27.5t33 -84.5q-10 -41 -38 -70t-69 -43q-45 -14 -103 -20.5t-144 -6.5z" />
<glyph unicode="&#xe8;" horiz-adv-x="811" d="M110.5 188.5q-12.5 67.5 4.5 139.5q16 74 62 146.5t114 119.5q66 49 135.5 70.5t142.5 21.5q86 0 143.5 -26.5t90.5 -75.5t40 -116t-12 -146h-475q-12 -51 -12 -97.5t16.5 -82.5t52.5 -56t93 -20q76 0 136 49t106 110l57 -26q-76 -117 -169 -168t-222 -51 q-72 0 -136.5 23.5t-109.5 70.5t-57.5 114.5zM334 1030q6 27 38 45t68 18q43 0 65.5 -13t47.5 -62q16 -35 45 -92.5t66 -129.5l-35 -26q-106 72 -159.5 104.5t-92.5 61.5q-29 23 -39 41t-4 53zM371 393h184q12 0 23.5 1t23.5 1q18 2 24.5 16.5t10.5 28.5q6 29 8 60.5 t-5 57.5t-27.5 42t-57.5 16q-41 0 -71.5 -23.5t-54 -57t-38 -72.5t-20.5 -70z" />
<glyph unicode="&#xe9;" horiz-adv-x="811" d="M110.5 188.5q-12.5 67.5 4.5 139.5q16 74 62 146.5t114 119.5q66 49 135.5 70.5t142.5 21.5q86 0 143.5 -26.5t90.5 -75.5t40 -116t-12 -146h-475q-12 -51 -12 -97.5t16.5 -82.5t52.5 -56t93 -20q76 0 136 49t106 110l57 -26q-76 -117 -169 -168t-222 -51 q-72 0 -136.5 23.5t-109.5 70.5t-57.5 114.5zM371 393h184q12 0 23.5 1t23.5 1q18 2 24.5 16.5t10.5 28.5q6 29 8 60.5t-5 57.5t-27.5 42t-57.5 16q-41 0 -71.5 -23.5t-54 -57t-38 -72.5t-20.5 -70zM563 811q82 86 128 136.5t77 85.5q41 45 72.5 60t72.5 15q35 0 59.5 -18 t18.5 -45q-6 -33 -25.5 -53.5t-56.5 -40.5q-41 -23 -127 -66t-197 -100z" />
<glyph unicode="&#xea;" horiz-adv-x="811" d="M110.5 188.5q-12.5 67.5 4.5 139.5q16 74 62 146.5t114 119.5q66 49 135.5 70.5t142.5 21.5q86 0 143.5 -26.5t90.5 -75.5t40 -116t-12 -146h-475q-12 -51 -12 -97.5t16.5 -82.5t52.5 -56t93 -20q76 0 136 49t106 110l57 -26q-76 -117 -169 -168t-222 -51 q-72 0 -136.5 23.5t-109.5 70.5t-57.5 114.5zM331 798q96 117 134.5 162t87.5 94q23 25 48 35t64 10t56.5 -10t31.5 -31q23 -41 49.5 -102.5t65.5 -157.5l-43 -20l-192 182l-269 -182zM371 393h184q12 0 23.5 1t23.5 1q18 2 24.5 16.5t10.5 28.5q6 29 8 60.5t-5 57.5 t-27.5 42t-57.5 16q-41 0 -71.5 -23.5t-54 -57t-38 -72.5t-20.5 -70z" />
<glyph unicode="&#xeb;" horiz-adv-x="811" d="M110.5 188.5q-12.5 67.5 4.5 139.5q16 74 62 146.5t114 119.5q66 49 135.5 70.5t142.5 21.5q86 0 143.5 -26.5t90.5 -75.5t40 -116t-12 -146h-475q-12 -51 -12 -97.5t16.5 -82.5t52.5 -56t93 -20q76 0 136 49t106 110l57 -26q-76 -117 -169 -168t-222 -51 q-72 0 -136.5 23.5t-109.5 70.5t-57.5 114.5zM328 907q10 47 52 84t89 37t73.5 -37t16.5 -84q-10 -49 -53 -86t-90 -37t-73 37t-15 86zM371 393h184q12 0 23.5 1t23.5 1q18 2 24.5 16.5t10.5 28.5q6 29 8 60.5t-5 57.5t-27.5 42t-57.5 16q-41 0 -71.5 -23.5t-54 -57 t-38 -72.5t-20.5 -70zM686 907q10 47 53 84t90 37t72.5 -37t15.5 -84q-10 -49 -52 -86t-89 -37t-73.5 37t-16.5 86z" />
<glyph unicode="&#xec;" horiz-adv-x="522" d="M47 0l14 70h58q14 0 29.5 4t23.5 20q6 14 9 26.5t7 26.5l66 312q6 29 13 59.5t-3 52.5q-12 10 -18 11.5t-23 3.5h-61l16 71l340 15l-112 -529q-2 -10 -5.5 -32.5t2.5 -30.5q8 -10 25.5 -10h32.5h35l-15 -70h-434zM188 1030q6 27 38 45t68 18q43 0 65.5 -13t47.5 -62 q16 -35 45 -92.5t66 -129.5l-35 -26q-106 72 -159.5 104.5t-92.5 61.5q-29 23 -39 41t-4 53z" />
<glyph unicode="&#xed;" horiz-adv-x="522" d="M47 0l14 70h58q14 0 29.5 4t23.5 20q6 14 9 26.5t7 26.5l66 312q6 29 13 59.5t-3 52.5q-12 10 -18 11.5t-23 3.5h-61l16 71l340 15l-112 -529q-2 -10 -5.5 -32.5t2.5 -30.5q8 -10 25.5 -10h32.5h35l-15 -70h-434zM414 811q82 86 128 136.5t77 85.5q41 45 72.5 60t72.5 15 q35 0 59.5 -18t18.5 -45q-6 -33 -25.5 -53.5t-56.5 -40.5q-41 -23 -127 -66t-197 -100z" />
<glyph unicode="&#xee;" horiz-adv-x="522" d="M47 0l14 70h58q14 0 29.5 4t23.5 20q6 14 9 26.5t7 26.5l66 312q6 29 13 59.5t-3 52.5q-12 10 -18 11.5t-23 3.5h-61l16 71l340 15l-112 -529q-2 -10 -5.5 -32.5t2.5 -30.5q8 -10 25.5 -10h32.5h35l-15 -70h-434zM163 798q96 117 134.5 162t87.5 94q23 25 48 35t64 10 t56.5 -10t31.5 -31q23 -41 49.5 -102.5t65.5 -157.5l-43 -20l-192 182l-269 -182z" />
<glyph unicode="&#xef;" horiz-adv-x="522" d="M47 0l14 70h58q14 0 29.5 4t23.5 20q6 14 9 26.5t7 26.5l66 312q6 29 13 59.5t-3 52.5q-12 10 -18 11.5t-23 3.5h-61l16 71l340 15l-112 -529q-2 -10 -5.5 -32.5t2.5 -30.5q8 -10 25.5 -10h32.5h35l-15 -70h-434zM160 907q10 47 52 84t89 37t73.5 -37t16.5 -84 q-10 -49 -53 -86t-90 -37t-73 37t-15 86zM518 907q10 47 53 84t90 37t72.5 -37t15.5 -84q-10 -49 -52 -86t-89 -37t-73.5 37t-16.5 86z" />
<glyph unicode="&#xf0;" horiz-adv-x="946" d="M127 362q35 166 161 271.5t294 105.5q68 0 113.5 -21.5t72.5 -62.5l8 2q4 68 -6 135.5t-41 122.5l-174 -96l-33 60l168 94q-18 25 -47 50.5t-55 45.5l47 53q31 -12 68.5 -31.5t91.5 -58.5l161 90l31 -59l-137 -78q35 -33 73 -87.5t58 -113.5q23 -72 26 -151.5t-18 -175.5 q-49 -229 -189.5 -354.5t-338.5 -125.5q-184 0 -277.5 105.5t-56.5 279.5zM373 237.5q-4 -57.5 2 -104.5q10 -47 34.5 -71.5t69.5 -24.5q41 0 77 24.5t65 67.5q29 45 49 104.5t35 131.5q14 61 19 119.5t-3 97.5q-10 41 -34.5 63.5t-72.5 22.5q-49 0 -83.5 -25t-63.5 -68 q-27 -41 -45.5 -96t-28.5 -112q-16 -72 -20 -129.5z" />
<glyph unicode="&#xf1;" horiz-adv-x="968" d="M35 0l14 70q23 2 44.5 3t43.5 5q23 4 28 25.5t9 37.5l68 318q6 29 13 59.5t-3 52.5q-10 10 -17.5 11.5t-23.5 3.5h-59l16 71l332 15l-27 -129h2q53 63 123 103t152 40q55 0 104 -19.5t74 -68.5q20 -47 12 -100.5t-20 -108.5l-60 -283q-4 -14 4 -26q16 -8 51 -9t43 -1 l-14 -70h-424l15 70q23 4 45 2t45 12q4 4 5 6l3 6q6 10 8 20.5t6 20.5l62 293q4 29 6 52.5t-15 43.5q-10 14 -26.5 23.5t-38.5 9.5q-41 0 -80 -23.5t-66 -60.5q-25 -35 -36 -70.5t-19 -74.5l-49 -232q0 -29 33 -28h59l-14 -70h-428zM323 778q16 29 42 64.5t63 70.5 q31 33 74 56.5t79 23.5q49 0 83 -12.5t65 -28.5q29 -16 48 -27.5t50 -11.5q59 0 87 29.5t52 75.5l52 -19q-16 -31 -43 -68.5t-64 -70.5q-39 -37 -77 -57.5t-83 -20.5q-51 0 -87 12.5t-62 28.5q-20 12 -47 26.5t-53 14.5q-35 0 -63 -25.5t-71 -83.5z" />
<glyph unicode="&#xf2;" d="M113.5 189.5q-17.5 66.5 1.5 148.5q16 74 63 141.5t113 114.5q137 92 291 92q76 0 140 -25.5t107 -72.5t59.5 -112.5t0.5 -145.5t-62.5 -144.5t-109 -110.5t-138 -70.5t-151.5 -24.5q-80 0 -145.5 25.5t-108.5 71.5t-60.5 112.5zM340 148q6 -42 31.5 -70.5t81.5 -28.5 q47 0 79.5 32t56 77t37 93t19.5 81q8 37 14.5 86t0 93t-30 73.5t-74.5 29.5q-49 0 -83 -31.5t-57.5 -75.5t-38 -93t-20.5 -84q-10 -41 -16 -90.5t0 -91.5zM361 1030q6 27 38 45t68 18q43 0 65.5 -13t47.5 -62q16 -35 45 -92.5t66 -129.5l-35 -26q-106 72 -159.5 104.5 t-92.5 61.5q-29 23 -39 41t-4 53z" />
<glyph unicode="&#xf3;" d="M113.5 189.5q-17.5 66.5 1.5 148.5q16 74 63 141.5t113 114.5q137 92 291 92q76 0 140 -25.5t107 -72.5t59.5 -112.5t0.5 -145.5t-62.5 -144.5t-109 -110.5t-138 -70.5t-151.5 -24.5q-80 0 -145.5 25.5t-108.5 71.5t-60.5 112.5zM340 148q6 -42 31.5 -70.5t81.5 -28.5 q47 0 79.5 32t56 77t37 93t19.5 81q8 37 14.5 86t0 93t-30 73.5t-74.5 29.5q-49 0 -83 -31.5t-57.5 -75.5t-38 -93t-20.5 -84q-10 -41 -16 -90.5t0 -91.5zM563 811q82 86 128 136.5t77 85.5q41 45 72.5 60t72.5 15q35 0 59.5 -18t18.5 -45q-6 -33 -25.5 -53.5t-56.5 -40.5 q-41 -23 -127 -66t-197 -100z" />
<glyph unicode="&#xf4;" d="M113.5 189.5q-17.5 66.5 1.5 148.5q16 74 63 141.5t113 114.5q137 92 291 92q76 0 140 -25.5t107 -72.5t59.5 -112.5t0.5 -145.5t-62.5 -144.5t-109 -110.5t-138 -70.5t-151.5 -24.5q-80 0 -145.5 25.5t-108.5 71.5t-60.5 112.5zM331 798q96 117 134.5 162t87.5 94 q23 25 48 35t64 10t56.5 -10t31.5 -31q23 -41 49.5 -102.5t65.5 -157.5l-43 -20l-192 182l-269 -182zM340 148q6 -42 31.5 -70.5t81.5 -28.5q47 0 79.5 32t56 77t37 93t19.5 81q8 37 14.5 86t0 93t-30 73.5t-74.5 29.5q-49 0 -83 -31.5t-57.5 -75.5t-38 -93t-20.5 -84 q-10 -41 -16 -90.5t0 -91.5z" />
<glyph unicode="&#xf5;" d="M113.5 189.5q-17.5 66.5 1.5 148.5q16 74 63 141.5t113 114.5q137 92 291 92q76 0 140 -25.5t107 -72.5t59.5 -112.5t0.5 -145.5t-62.5 -144.5t-109 -110.5t-138 -70.5t-151.5 -24.5q-80 0 -145.5 25.5t-108.5 71.5t-60.5 112.5zM272 778q16 29 42 64.5t63 70.5 q31 33 74 56.5t79 23.5q49 0 83 -12.5t65 -28.5q29 -16 48 -27.5t50 -11.5q59 0 87 29.5t52 75.5l52 -19q-16 -31 -43 -68.5t-64 -70.5q-39 -37 -77 -57.5t-83 -20.5q-51 0 -87 12.5t-62 28.5q-20 12 -47 26.5t-53 14.5q-35 0 -63 -25.5t-71 -83.5zM340 148 q6 -42 31.5 -70.5t81.5 -28.5q47 0 79.5 32t56 77t37 93t19.5 81q8 37 14.5 86t0 93t-30 73.5t-74.5 29.5q-49 0 -83 -31.5t-57.5 -75.5t-38 -93t-20.5 -84q-10 -41 -16 -90.5t0 -91.5z" />
<glyph unicode="&#xf6;" d="M113.5 189.5q-17.5 66.5 1.5 148.5q16 74 63 141.5t113 114.5q137 92 291 92q76 0 140 -25.5t107 -72.5t59.5 -112.5t0.5 -145.5t-62.5 -144.5t-109 -110.5t-138 -70.5t-151.5 -24.5q-80 0 -145.5 25.5t-108.5 71.5t-60.5 112.5zM328 907q10 47 52 84t89 37t73.5 -37 t16.5 -84q-10 -49 -53 -86t-90 -37t-73 37t-15 86zM340 148q6 -42 31.5 -70.5t81.5 -28.5q47 0 79.5 32t56 77t37 93t19.5 81q8 37 14.5 86t0 93t-30 73.5t-74.5 29.5q-49 0 -83 -31.5t-57.5 -75.5t-38 -93t-20.5 -84q-10 -41 -16 -90.5t0 -91.5zM686 907q10 47 53 84t90 37 t72.5 -37t15.5 -84q-10 -49 -52 -86t-89 -37t-73.5 37t-16.5 86z" />
<glyph unicode="&#xf7;" horiz-adv-x="1044" d="M193 356l26 119h805l-27 -119h-804zM428 121q10 49 53 85t92 36q47 0 74 -36t17 -85q-10 -51 -52.5 -86t-89.5 -35q-49 0 -76.5 35t-17.5 86zM553 713q12 49 54 85t91 36q47 0 74.5 -36t15.5 -85q-10 -51 -52 -86t-89 -35q-49 0 -76.5 35t-17.5 86z" />
<glyph unicode="&#xf8;" d="M88 -31l737 721h109l-737 -721h-109zM113.5 189.5q-17.5 66.5 1.5 148.5q16 74 63 141.5t113 114.5q137 92 291 92q76 0 140 -25.5t107 -72.5t59.5 -112.5t0.5 -145.5t-62.5 -144.5t-109 -110.5t-138 -70.5t-151.5 -24.5q-80 0 -145.5 25.5t-108.5 71.5t-60.5 112.5z M340 148q6 -42 31.5 -70.5t81.5 -28.5q47 0 79.5 32t56 77t37 93t19.5 81q8 37 14.5 86t0 93t-30 73.5t-74.5 29.5q-49 0 -83 -31.5t-57.5 -75.5t-38 -93t-20.5 -84q-10 -41 -16 -90.5t0 -91.5z" />
<glyph unicode="&#xf9;" horiz-adv-x="968" d="M152 586l16 71l328 15l-90 -422q-4 -25 -8.5 -52.5t5.5 -50.5q10 -25 26.5 -34t43.5 -9q45 0 88 27t68 68q20 35 31.5 74.5t19.5 76.5l22 109q6 29 13.5 59.5t-2.5 52.5q-10 10 -17.5 11.5t-23.5 3.5h-60l17 71l338 15l-99 -461q-4 -27 -11 -57.5t3 -55.5q6 -12 39 -12 h59l-14 -72l-328 -14l25 117h-4q-57 -66 -128 -101.5t-151 -35.5q-53 0 -84.5 11t-51 30.5t-29 44t-15.5 51.5q0 53 2 82.5t8 58.5l43 201q6 27 16.5 61.5t-3.5 50.5q-10 10 -16.5 11.5t-20.5 3.5h-55zM408 1030q6 27 38 45t68 18q43 0 65.5 -13t47.5 -62q16 -35 45 -92.5 t66 -129.5l-35 -26q-106 72 -159.5 104.5t-92.5 61.5q-29 23 -39 41t-4 53z" />
<glyph unicode="&#xfa;" horiz-adv-x="968" d="M152 586l16 71l328 15l-90 -422q-4 -25 -8.5 -52.5t5.5 -50.5q10 -25 26.5 -34t43.5 -9q45 0 88 27t68 68q20 35 31.5 74.5t19.5 76.5l22 109q6 29 13.5 59.5t-2.5 52.5q-10 10 -17.5 11.5t-23.5 3.5h-60l17 71l338 15l-99 -461q-4 -27 -11 -57.5t3 -55.5q6 -12 39 -12 h59l-14 -72l-328 -14l25 117h-4q-57 -66 -128 -101.5t-151 -35.5q-53 0 -84.5 11t-51 30.5t-29 44t-15.5 51.5q0 53 2 82.5t8 58.5l43 201q6 27 16.5 61.5t-3.5 50.5q-10 10 -16.5 11.5t-20.5 3.5h-55zM563 811q82 86 128 136.5t77 85.5q41 45 72.5 60t72.5 15 q35 0 59.5 -18t18.5 -45q-6 -33 -25.5 -53.5t-56.5 -40.5q-41 -23 -127 -66t-197 -100z" />
<glyph unicode="&#xfb;" horiz-adv-x="968" d="M152 586l16 71l328 15l-90 -422q-4 -25 -8.5 -52.5t5.5 -50.5q10 -25 26.5 -34t43.5 -9q45 0 88 27t68 68q20 35 31.5 74.5t19.5 76.5l22 109q6 29 13.5 59.5t-2.5 52.5q-10 10 -17.5 11.5t-23.5 3.5h-60l17 71l338 15l-99 -461q-4 -27 -11 -57.5t3 -55.5q6 -12 39 -12 h59l-14 -72l-328 -14l25 117h-4q-57 -66 -128 -101.5t-151 -35.5q-53 0 -84.5 11t-51 30.5t-29 44t-15.5 51.5q0 53 2 82.5t8 58.5l43 201q6 27 16.5 61.5t-3.5 50.5q-10 10 -16.5 11.5t-20.5 3.5h-55zM331 798q96 117 134.5 162t87.5 94q23 25 48 35t64 10t56.5 -10 t31.5 -31q23 -41 49.5 -102.5t65.5 -157.5l-43 -20l-192 182l-269 -182z" />
<glyph unicode="&#xfc;" horiz-adv-x="968" d="M152 586l16 71l328 15l-90 -422q-4 -25 -8.5 -52.5t5.5 -50.5q10 -25 26.5 -34t43.5 -9q45 0 88 27t68 68q20 35 31.5 74.5t19.5 76.5l22 109q6 29 13.5 59.5t-2.5 52.5q-10 10 -17.5 11.5t-23.5 3.5h-60l17 71l338 15l-99 -461q-4 -27 -11 -57.5t3 -55.5q6 -12 39 -12 h59l-14 -72l-328 -14l25 117h-4q-57 -66 -128 -101.5t-151 -35.5q-53 0 -84.5 11t-51 30.5t-29 44t-15.5 51.5q0 53 2 82.5t8 58.5l43 201q6 27 16.5 61.5t-3.5 50.5q-10 10 -16.5 11.5t-20.5 3.5h-55zM328 907q10 47 52 84t89 37t73.5 -37t16.5 -84q-10 -49 -53 -86 t-90 -37t-73 37t-15 86zM686 907q10 47 53 84t90 37t72.5 -37t15.5 -84q-10 -49 -52 -86t-89 -37t-73.5 37t-16.5 86z" />
<glyph unicode="&#xfd;" d="M-18 -156q10 45 51 79t86 34t72.5 -24.5t17.5 -71.5q-4 -12 -6 -20.5t-10 -20.5q-4 -8 -6.5 -9t1.5 -10q29 -2 58.5 16.5t56.5 46t48.5 58.5t37.5 53l-172 572q-6 27 -12 37t-35 16h-25l15 72h399l-14 -72h-25q-14 -2 -28.5 -3t-24.5 -15q-10 -16 -7 -31.5t7 -32.5 l84 -303l164 248q10 18 20 34.5t15 39.5q4 20 -0.5 31.5t-15.5 17.5t-25.5 9t-28.5 5h-27l15 72h319l-14 -72q-18 -4 -34.5 -6t-33.5 -12q-25 -16 -45 -40t-37 -50l-362 -537q-39 -55 -80 -104.5t-88 -84t-102.5 -50t-122.5 -5.5q-47 12 -72 46t-14 87zM584 811 q82 86 128 136.5t77 85.5q41 45 72.5 60t72.5 15q35 0 59.5 -18t18.5 -45q-6 -33 -25.5 -53.5t-56.5 -40.5q-41 -23 -127 -66t-197 -100z" />
<glyph unicode="&#xfe;" horiz-adv-x="958" d="M-78 -322l12 54q16 2 45 6t41 8q25 6 38.5 25.5t19.5 46.5l237 1122q6 29 0 52.5t-22 33.5q-12 10 -38 16.5t-46 8.5l10 53l363 18l8 -10l-101 -473l7 -2q55 47 119.5 74.5t121.5 27.5q150 0 214.5 -106.5t27.5 -280.5q-33 -152 -157 -261t-281 -109q-70 0 -111 13 t-63 36h-7l-45 -205q-4 -25 3.5 -44.5t25.5 -27.5t53 -14t58 -8l-13 -54h-520zM387 160q0 -16 8 -39t17 -35q14 -20 35.5 -30.5t48.5 -10.5q72 0 131 77.5t92 227.5q12 55 15 104.5t-9 88.5t-39 62.5t-74 23.5t-78.5 -16.5t-58.5 -43.5z" />
<glyph unicode="&#xff;" d="M31 -156q10 45 51 79t86 34t72.5 -24.5t17.5 -71.5q-4 -12 -6 -20.5t-10 -20.5q-4 -8 -6.5 -9t1.5 -10q29 -2 58.5 16.5t56.5 46t48.5 58.5t37.5 53l-172 572q-6 27 -12 37t-35 16h-25l15 72h399l-14 -72h-25q-14 -2 -28.5 -3t-24.5 -15q-10 -16 -7 -31.5t7 -32.5 l84 -303l164 248q10 18 20 34.5t15 39.5q4 20 -0.5 31.5t-15.5 17.5t-25.5 9t-28.5 5h-27l15 72h319l-14 -72q-18 -4 -34.5 -6t-33.5 -12q-25 -16 -45 -40t-37 -50l-362 -537q-39 -55 -80 -104.5t-88 -84t-102.5 -50t-122.5 -5.5q-47 12 -72 46t-14 87zM377 907q10 47 52 84 t89 37t73.5 -37t16.5 -84q-10 -49 -53 -86t-90 -37t-73 37t-15 86zM735 907q10 47 53 84t90 37t72.5 -37t15.5 -84q-10 -49 -52 -86t-89 -37t-73.5 37t-16.5 86z" />
<glyph unicode="&#x102;" horiz-adv-x="1073" d="M-25 0l17 76q43 4 77.5 25.5t64.5 52t55.5 66.5t48.5 71l477 751h106l176 -862q6 -31 12.5 -50t17.5 -31.5t31.5 -17.5t55.5 -5l-14 -76h-496l14 76q10 0 24.5 -1t30 0t29 4t21.5 11q16 16 15 30.5t-5 31.5l-26 159h-361q-18 -33 -40.5 -67.5t-31.5 -71.5 q-6 -31 2.5 -49.5t27 -29.5t43 -14t48.5 -3l-14 -76h-406zM403 399h285l-65 351zM605 1454l53 12q4 -35 11 -66.5t22 -54.5q16 -25 41.5 -38t76.5 -13q43 0 79 12.5t63 36.5q25 23 45 54.5t39 68.5l49 -12q-49 -139 -122 -213t-179 -74q-102 0 -147.5 75t-30.5 212z" />
<glyph unicode="&#x103;" d="M82 66.5q-10 31.5 0 80.5q14 74 76.5 119t142.5 73t161 41t136 26q2 14 8 40.5t9 54t2 51t-9 34.5q-16 16 -38.5 22t-49.5 6t-55.5 -6t-54.5 -22q-14 -10 -8 -22.5t10 -20.5q12 -27 8 -49q-10 -47 -53 -70t-84 -23q-47 0 -73 30t-15 77q12 55 59 92t100 53 q53 18 102.5 25.5t100.5 7.5q59 0 125 -12t106 -47q45 -41 45.5 -89.5t-14.5 -111.5l-51 -233q-2 -14 -3 -27.5t-5 -26.5q-4 -20 2 -33.5t29 -13.5q8 0 18 5l18 9q18 14 33 0q4 -6 0 -18t-11 -24.5t-17.5 -22.5t-16.5 -14q-27 -23 -61.5 -35t-65.5 -12q-45 0 -82 18 q-41 25 -51 78q-61 -49 -141 -72.5t-154 -23.5q-43 0 -80 8t-62.5 27.5t-35.5 51zM317 170q-10 -43 8.5 -71.5t65.5 -28.5q23 0 47.5 10t46.5 26q23 16 32 32t22 38q10 18 17 48t11 48q4 16 6.5 31t6.5 33q-41 -10 -82 -19.5t-78 -25t-64.5 -44t-38.5 -77.5zM418 1071l53 12 q4 -35 11 -66.5t22 -54.5q16 -25 41.5 -38t76.5 -13q43 0 79 12.5t63 36.5q25 23 45 54.5t39 68.5l49 -12q-49 -139 -122 -213t-179 -74q-102 0 -147.5 75t-30.5 212z" />
<glyph unicode="&#x106;" horiz-adv-x="1099" d="M150.5 300q-11.5 95 11.5 200q23 111 82 212t155 179q90 74 191.5 112.5t206.5 38.5q76 0 130 -14t109 -55q6 -6 15 -10l96 75h59l-71 -405l-74 -6q-4 57 -16.5 117.5t-40 110.5t-73.5 82t-116 32q-61 0 -111.5 -19.5t-97.5 -68.5q-47 -51 -68.5 -95.5t-45.5 -103.5 q-16 -41 -27.5 -88t-22.5 -88q-12 -55 -17 -108.5t-5 -108.5q2 -51 12 -88t41 -74q31 -35 70 -48t92 -13q68 0 127 24.5t107.5 66.5t85 97t61.5 117l80 -19q-82 -193 -212 -282.5t-327 -89.5q-113 0 -193.5 35.5t-142.5 115.5q-59 74 -70.5 169zM754 1159q82 86 128 136.5 t77 85.5q41 45 72.5 60t72.5 15q35 0 59.5 -18t18.5 -45q-6 -33 -25.5 -53.5t-56.5 -40.5q-41 -23 -127 -66t-197 -100z" />
<glyph unicode="&#x107;" horiz-adv-x="786" d="M106.5 190.5q-12.5 59.5 4.5 135.5q18 82 65 149.5t111.5 113.5t142.5 71.5t158 25.5q45 0 93 -9t86 -30.5t58.5 -58.5t8.5 -90q-12 -57 -53.5 -89t-96.5 -32q-29 0 -51.5 11t-34.5 29.5t-12 43t16 51.5q6 14 16 25q4 4 8.5 8t8.5 8l14 14q10 14 5 24.5t-17 16.5t-27.5 8 t-25.5 2q-51 0 -89 -26.5t-65 -67.5t-44 -88t-26 -86q-10 -45 -13 -94t8.5 -90t42 -67.5t87.5 -26.5q84 0 143.5 50t100.5 122l62 -23q-59 -115 -151.5 -178t-215.5 -63q-35 0 -78 6t-72 16q-70 20 -110 76q-45 53 -57.5 112.5zM563 811q82 86 128 136.5t77 85.5 q41 45 72.5 60t72.5 15q35 0 59.5 -18t18.5 -45q-6 -33 -25.5 -53.5t-56.5 -40.5q-41 -23 -127 -66t-197 -100z" />
<glyph unicode="&#x10c;" horiz-adv-x="1099" d="M150.5 300q-11.5 95 11.5 200q23 111 82 212t155 179q90 74 191.5 112.5t206.5 38.5q76 0 130 -14t109 -55q6 -6 15 -10l96 75h59l-71 -405l-74 -6q-4 57 -16.5 117.5t-40 110.5t-73.5 82t-116 32q-61 0 -111.5 -19.5t-97.5 -68.5q-47 -51 -68.5 -95.5t-45.5 -103.5 q-16 -41 -27.5 -88t-22.5 -88q-12 -55 -17 -108.5t-5 -108.5q2 -51 12 -88t41 -74q31 -35 70 -48t92 -13q68 0 127 24.5t107.5 66.5t85 97t61.5 117l80 -19q-82 -193 -212 -282.5t-327 -89.5q-113 0 -193.5 35.5t-142.5 115.5q-59 74 -70.5 169zM578 1401l41 20l190 -184 l271 184l34 -20q-78 -94 -131 -158.5t-94 -101.5q-25 -23 -43 -32t-61 -9q-45 0 -63.5 11t-30.5 32q-25 43 -53.5 112.5t-59.5 145.5z" />
<glyph unicode="&#x10d;" horiz-adv-x="786" d="M106.5 190.5q-12.5 59.5 4.5 135.5q18 82 65 149.5t111.5 113.5t142.5 71.5t158 25.5q45 0 93 -9t86 -30.5t58.5 -58.5t8.5 -90q-12 -57 -53.5 -89t-96.5 -32q-29 0 -51.5 11t-34.5 29.5t-12 43t16 51.5q6 14 16 25q4 4 8.5 8t8.5 8l14 14q10 14 5 24.5t-17 16.5t-27.5 8 t-25.5 2q-51 0 -89 -26.5t-65 -67.5t-44 -88t-26 -86q-10 -45 -13 -94t8.5 -90t42 -67.5t87.5 -26.5q84 0 143.5 50t100.5 122l62 -23q-59 -115 -151.5 -178t-215.5 -63q-35 0 -78 6t-72 16q-70 20 -110 76q-45 53 -57.5 112.5zM336 1059l41 20l190 -184l271 184l34 -20 q-78 -94 -131 -158.5t-94 -101.5q-25 -23 -43 -32t-61 -9q-45 0 -63.5 11t-30.5 32q-25 43 -53.5 112.5t-59.5 145.5z" />
<glyph unicode="&#x110;" horiz-adv-x="1236" d="M49 0l10 57q25 0 61 4.5t48 8.5q29 10 43 28.5t18 44.5l76 355h-141l16 75h142l63 299q6 25 1 45.5t-32 32.5q-25 12 -54.5 16.5t-45.5 6.5l12 55h547q88 0 184 -22.5t174 -81.5q82 -63 119 -166t4 -250q-27 -131 -100.5 -228.5t-171.5 -156.5q-98 -63 -216 -93t-239 -30 h-518zM491 133q3 -20 17 -35q14 -14 36.5 -23t61.5 -9q82 0 147.5 30.5t114.5 89.5q47 57 80 137.5t56 184.5q23 102 18.5 186t-35.5 144q-29 59 -85 92t-136 33q-25 0 -57.5 -1t-49.5 -1l-81 -388h223l-17 -75h-223l-67 -320q-6 -25 -3 -45z" />
<glyph unicode="&#x111;" horiz-adv-x="942" d="M111.5 200.5q-5.5 59.5 9.5 121.5q14 70 51 135t90 116.5t120 82t142 30.5q49 0 84 -13.5t70 -43.5q12 -12 18 -21.5t8.5 -13.5t3.5 -2t3 14l57 271q8 33 5 49t-16.5 22t-40 6h-65.5l15 74l358 14l-186 -870q-4 -18 -6.5 -35.5t2.5 -34.5q10 -10 21 -11t26 -3l59 -2 l-14 -72l-330 -14l22 106h-2q-53 -68 -121.5 -97t-146.5 -29q-61 0 -119.5 30.5t-93.5 95.5q-18 35 -23.5 94.5zM351 239q-3 -46 3 -81t32 -58.5t65 -23.5q43 0 77.5 26.5t61 64.5t43 81t22.5 78q8 37 13.5 84t-3 87t-32 67.5t-72.5 27.5q-47 0 -81 -30t-57.5 -70.5 t-38.5 -88t-22 -79.5q-8 -39 -11 -85zM395 788l23 107h717l-23 -107h-717z" />
<glyph unicode="&#x11e;" horiz-adv-x="1177" d="M148.5 301q-11.5 92 11.5 193q29 129 99.5 240.5t189.5 189.5q68 45 125 68.5t128 37.5q29 4 57.5 8t57.5 4t53.5 -3t53.5 -7q39 -8 70.5 -20.5t62.5 -34.5q16 -12 18 -12t19 12l80 59h61l-74 -401l-69 -4q-8 55 -17.5 106t-29 96.5t-54.5 78t-94 51.5q-35 10 -66 10 q-68 0 -120 -22.5t-90.5 -61.5t-68.5 -91.5t-54 -109.5q-23 -49 -36 -100t-24 -103q-14 -68 -21 -148.5t3 -143.5q29 -143 180 -144q31 0 64.5 8.5t60.5 24.5q39 20 55.5 40.5t38.5 55.5q6 12 13.5 29.5t13.5 38t11 40t7 31.5q4 16 7 33t-5 31q-8 12 -21.5 13t-29.5 1h-80 l15 76h503l-14 -76h-44t-44 -4q-4 -2 -9 -2t-12 -4q-16 -6 -23 -25.5t-11 -35.5l-74 -344h-70l-41 139q-80 -72 -170 -105.5t-184 -33.5q-111 0 -200 34.5t-146 118.5q-51 76 -62.5 168zM605 1454l53 12q4 -35 11 -66.5t22 -54.5q16 -25 41.5 -38t76.5 -13q43 0 79 12.5 t63 36.5q25 23 45 54.5t39 68.5l49 -12q-49 -139 -122 -213t-179 -74q-102 0 -147.5 75t-30.5 212z" />
<glyph unicode="&#x11f;" d="M10 -154q6 33 27.5 57.5t49.5 40t59.5 22.5t58.5 5h4l-4 2q-2 -2 -5 0t-7 2q-8 4 -12.5 5.5l-10.5 3.5q-43 14 -67.5 45.5t-14.5 83.5q6 27 23.5 48t41 37.5t51 27t52.5 14.5q8 0 18.5 2t20.5 2v2q-10 2 -17.5 4t-17.5 6q-57 25 -83.5 73t-10.5 115q14 66 56 112 t97.5 74.5t117 42t116.5 13.5q43 0 93 -10t85 -33q43 43 95.5 79t111.5 36q41 0 67.5 -24.5t16.5 -67.5q-10 -41 -39 -64.5t-70 -23.5q-25 0 -42 18t-17 49q2 6 0 12q-16 -2 -31.5 -13t-27.5 -21q-8 -8 -13 -11q74 -61 54 -163q-12 -59 -55.5 -110.5t-102.5 -76.5 q-72 -29 -127 -34t-123 -5q-29 0 -51.5 -1t-50.5 -21q-14 -12 -16.5 -29.5t7.5 -28.5q12 -12 32 -12h36h69t90 -2t87 -5t59 -9q27 -10 49.5 -25.5t34.5 -40.5q10 -20 11 -49t-3 -53q-16 -76 -66 -122t-115.5 -71.5t-137.5 -34t-129 -8.5q-68 0 -135 6q-29 2 -64 9.5 t-65.5 21.5t-49 38t-10.5 60zM195.5 -158.5q11.5 -29.5 44.5 -44.5q33 -10 64.5 -12t66.5 -2q23 0 56.5 2t67 11t60.5 27.5t33 49.5q6 23 -5.5 38t-33.5 19q-16 6 -36.5 6.5t-41.5 0.5h-213q-27 -10 -41 -31q-33 -35 -21.5 -64.5zM386 398.5q-1 -29.5 5 -55.5t23.5 -42 t50.5 -16t57.5 15t43 38.5t28.5 52.5t16 55q6 25 9.5 55.5t-3 56.5t-22.5 43t-51 17q-37 0 -61.5 -15t-42 -38.5t-29 -53.5t-17.5 -58q-6 -25 -7 -54.5zM418 1071l53 12q4 -35 11 -66.5t22 -54.5q16 -25 41.5 -38t76.5 -13q43 0 79 12.5t63 36.5q25 23 45 54.5t39 68.5 l49 -12q-49 -139 -122 -213t-179 -74q-102 0 -147.5 75t-30.5 212z" />
<glyph unicode="&#x128;" horiz-adv-x="626" d="M39 0l14 76h90q51 4 61.5 28.5t18.5 65.5l148 688q2 10 4 22.5t0 24.5t-2 20.5t-15 12.5q-16 6 -36.5 6t-36.5 2h-45l14 74h551l-14 -74h-46q-23 0 -48 -1t-48 -17q-6 -6 -9 -13.5t-7 -13.5q-4 -10 -6 -23.5t-6 -23.5l-150 -707q-4 -16 -5 -36.5t17 -28.5q6 -2 21 -2 q14 -4 31.5 -4h33.5h35l-14 -76h-551zM235 1161q16 29 42 64.5t63 70.5q31 33 74 56.5t79 23.5q49 0 83 -12.5t65 -28.5q29 -16 48 -27.5t50 -11.5q59 0 87 29.5t52 75.5l52 -19q-16 -31 -43 -68.5t-64 -70.5q-39 -37 -77 -57.5t-83 -20.5q-51 0 -87 12.5t-62 28.5 q-20 12 -47 26.5t-53 14.5q-35 0 -63 -25.5t-71 -83.5z" />
<glyph unicode="&#x129;" horiz-adv-x="522" d="M47 0l14 70h58q14 0 29.5 4t23.5 20q6 14 9 26.5t7 26.5l66 312q6 29 13 59.5t-3 52.5q-12 10 -18 11.5t-23 3.5h-61l16 71l340 15l-112 -529q-2 -10 -5.5 -32.5t2.5 -30.5q8 -10 25.5 -10h32.5h35l-15 -70h-434zM104 778q16 29 42 64.5t63 70.5q31 33 74 56.5t79 23.5 q49 0 83 -12.5t65 -28.5q29 -16 48 -27.5t50 -11.5q59 0 87 29.5t52 75.5l52 -19q-16 -31 -43 -68.5t-64 -70.5q-39 -37 -77 -57.5t-83 -20.5q-51 0 -87 12.5t-62 28.5q-20 12 -47 26.5t-53 14.5q-35 0 -63 -25.5t-71 -83.5z" />
<glyph unicode="&#x130;" horiz-adv-x="626" d="M39 0l14 76h90q51 4 61.5 28.5t18.5 65.5l148 688q2 10 4 22.5t0 24.5t-2 20.5t-15 12.5q-16 6 -36.5 6t-36.5 2h-45l14 74h551l-14 -74h-46q-23 0 -48 -1t-48 -17q-6 -6 -9 -13.5t-7 -13.5q-4 -10 -6 -23.5t-6 -23.5l-150 -707q-4 -16 -5 -36.5t17 -28.5q6 -2 21 -2 q14 -4 31.5 -4h33.5h35l-14 -76h-551zM443 1285q12 58 64.5 101t113.5 43t92.5 -43t19.5 -101q-12 -61 -63.5 -104t-111.5 -43q-61 0 -94.5 43t-20.5 104z" />
<glyph unicode="&#x131;" horiz-adv-x="522" d="M47 0l14 70h58q14 0 29.5 4t23.5 20q6 14 9 26.5t7 26.5l66 312q6 29 13 59.5t-3 52.5q-12 10 -18 11.5t-23 3.5h-61l16 71l340 15l-112 -529q-2 -10 -5.5 -32.5t2.5 -30.5q8 -10 25.5 -10h32.5h35l-15 -70h-434z" />
<glyph unicode="&#x141;" horiz-adv-x="1019" d="M27 0l14 76q29 -4 57.5 -1t57.5 5q27 4 36 27.5t13 44.5l45 206l-197 -100l29 129l194 100l72 334q8 45 13.5 69.5t-2 36t-30 14.5t-65.5 5h-37l15 74h557l-15 -74h-90q-47 0 -61.5 -16.5t-22.5 -61.5l-51 -235l350 178l-28 -127l-349 -180l-71 -334q-6 -41 -5 -63.5 t48 -26.5q23 -4 45 -4h45q156 0 249 80t154 225h74l-98 -381h-946z" />
<glyph unicode="&#x142;" horiz-adv-x="497" d="M31 0l14 70h31q16 2 34.5 2t34.5 8q14 14 19.5 40.5t9.5 43.5l37 174l-158 -80l29 129l156 80l79 373q4 23 11.5 52.5t-4.5 47.5q-2 4 -11.5 9t-13.5 5q-18 0 -36.5 1t-37.5 -1l15 72l340 16l-97 -448l172 88l-26 -127l-172 -90l-64 -301q-4 -16 -7 -33.5t-7 -34.5 q-2 -12 7 -17t21.5 -7t25.5 -2h22h26l-14 -70h-436z" />
<glyph unicode="&#x152;" horiz-adv-x="1634" d="M160 514q29 133 103.5 235.5t189.5 170.5q82 49 190.5 78.5t210.5 29.5h889l-55 -262h-56q-8 59 -48 118.5t-85 71.5q-23 4 -60.5 6.5t-62.5 2.5h-135l-86 -400h90q41 0 76 10.5t68 36.5q20 16 45.5 58.5t38.5 72.5h55l-92 -428h-56q2 29 -5 75t-19 65q-20 27 -51 36 t-74 9h-90l-62 -295q-20 -96 3.5 -117.5t125.5 -21.5t150.5 9t71.5 27q43 35 102 109t80 108h53l-86 -319h-942q-84 0 -182.5 24.5t-173.5 84.5q-92 72 -120 175t-1 230zM451 514q-43 -203 16 -325.5t219 -122.5q18 0 51 1t56 1l188 893q-23 2 -56.5 2h-47.5 q-158 0 -270.5 -122t-155.5 -327z" />
<glyph unicode="&#x153;" horiz-adv-x="1392" d="M127 358q35 168 167 274.5t324 106.5q92 0 157 -25.5t110 -74.5q70 53 139.5 76.5t130.5 23.5q94 0 155.5 -24.5t94.5 -67.5q31 -43 38 -98t-7 -117l-11 -47h-479q-31 -147 9 -225t163 -78q66 0 126.5 38t109.5 93l45 -41q-70 -86 -170.5 -140.5t-216.5 -54.5 q-90 0 -153.5 26t-104.5 71q-66 -45 -138.5 -71t-164.5 -26q-170 0 -266.5 101.5t-57.5 279.5zM369.5 237.5q-7.5 -57.5 1.5 -104.5q6 -47 30.5 -71.5t69.5 -24.5q43 0 76.5 24.5t60.5 69.5q27 47 45.5 103.5t32.5 130.5q12 59 20.5 117.5t0.5 101.5q-6 45 -29 71.5 t-70 26.5q-49 0 -85 -28.5t-58 -73.5q-27 -45 -44.5 -102.5t-27.5 -108.5q-16 -74 -23.5 -131.5zM961 446l225 3q8 37 14 86t2 75q-2 31 -18.5 51.5t-50.5 20.5q-55 0 -99.5 -57.5t-72.5 -178.5z" />
<glyph unicode="&#x15e;" horiz-adv-x="942" d="M80 -12l72 397h69q8 -59 31.5 -118.5t61.5 -106.5t92.5 -77t125.5 -30q37 0 76 9.5t72 28t57.5 49t34.5 73.5q14 72 -23.5 104.5t-97.5 44.5l-98 19q-76 16 -139.5 36.5t-118.5 67.5q-47 41 -66.5 102.5t-5.5 131.5q18 82 61.5 142.5t104 100t132 60t147.5 20.5 q131 0 231 -77l90 67h62l-62 -368h-71q-6 55 -27 110t-56.5 98t-86 70t-115.5 27q-33 0 -69 -8.5t-67.5 -27t-55 -46t-31.5 -66.5t2 -64.5t31.5 -42t50 -25.5t57.5 -15l88 -17q72 -16 138.5 -37.5t113.5 -60.5t67.5 -99.5t-0.5 -152.5q-16 -72 -60 -137.5t-112 -112.5 q-63 -45 -135.5 -61t-140.5 -16q-78 0 -144.5 23.5t-115.5 70.5l-109 -86h-61zM264 -322l12 58h72t60 4q25 6 40 17.5t21 35.5q6 29 -18.5 37t-69.5 8l37 174h61l-18 -82q80 0 124.5 -27.5t32.5 -84.5q-10 -41 -37.5 -70t-68.5 -43q-45 -14 -103.5 -20.5t-144.5 -6.5z" />
<glyph unicode="&#x15f;" horiz-adv-x="706" d="M61 0l43 242h64q10 -39 26.5 -74t41 -61.5t60.5 -43t83 -16.5q31 0 64.5 9.5t60.5 37.5q20 33 20 55.5t-15 37t-40 21.5t-49 13l-86 19q-45 10 -79 23t-65 48q-29 31 -34.5 67t4.5 83q12 57 45 99t78 69.5t97 42t105 14.5q41 0 85 -12t75 -35l60 33h57l-41 -221h-64 q-2 4 -2 8t-4 8q-23 59 -65.5 103t-116.5 44q-41 0 -86 -18t-55 -68q-4 -23 6 -35t26.5 -20t36 -12t33.5 -8l66 -17q35 -10 73.5 -20t69.5 -31q43 -25 59.5 -70t6.5 -98q-8 -39 -30 -79t-57 -70q-18 -16 -34.5 -27.5t-32.5 -20t-34.5 -14.5t-43.5 -12q-23 -6 -54.5 -10 t-53.5 -4q-43 0 -99.5 12t-89.5 35l-59 -27h-56zM156 -322l12 58h71.5t59.5 4q25 6 40 17.5t21 35.5q6 29 -18.5 37t-69.5 8l37 174h62l-19 -82q80 0 125 -27.5t33 -84.5q-10 -41 -38 -70t-69 -43q-45 -14 -103 -20.5t-144 -6.5z" />
<glyph unicode="&#x160;" horiz-adv-x="964" d="M55 0l68 373h63q10 -53 31 -111.5t53 -105.5q35 -49 82 -80t121 -31q98 0 160.5 48t79.5 122q12 59 -24 100t-122 72q-55 20 -103 36.5t-89 33.5q-96 43 -130 118.5t-14 172.5q12 61 50 116.5t96 98.5q59 41 139 67.5t168 26.5q86 0 154.5 -23.5t107.5 -48.5l53 43h64 l-68 -350h-63q-8 55 -25.5 115.5t-42.5 99.5q-29 41 -68.5 65.5t-101.5 24.5q-78 0 -138 -44t-73 -110q-14 -61 21 -100t121 -70q49 -18 100 -35.5t94 -33.5q94 -41 134 -112.5t18 -178.5q-14 -66 -58.5 -128t-105.5 -103q-68 -45 -149 -71t-183 -26q-94 0 -172 23.5 t-125 56.5l-61 -51h-62zM494 1333l26 21l213 -140l275 140l20 -21q-98 -94 -138 -134t-79 -75q-23 -20 -39 -30.5t-65 -10.5q-43 0 -61.5 11.5t-31.5 31.5q-23 39 -39 67t-81 140z" />
<glyph unicode="&#x161;" horiz-adv-x="761" d="M55 -8l47 268h52q6 -33 23.5 -74t41.5 -71q27 -33 66 -55.5t90 -22.5q66 0 103.5 25.5t47.5 78.5q6 29 -4 48.5t-33 31.5q-25 14 -56.5 24.5t-76.5 24.5q-47 16 -79.5 30.5t-63.5 45.5q-25 31 -36 70t-1 94q23 102 122 165.5t239 63.5q66 0 118 -13t88 -30l23 43h55 l-39 -247h-51q-12 76 -61 130t-121 54q-55 0 -92 -22.5t-45 -63.5q-12 -55 29.5 -81t121.5 -46q121 -35 169 -92.5t30 -145.5q-25 -119 -132 -184.5t-257 -65.5q-72 0 -135.5 20.5t-94.5 45.5l-30 -49h-58zM350 1102l41 20l191 -184l270 184l35 -20q-78 -94 -132.5 -158.5 t-95.5 -101.5q-23 -23 -41 -32t-63 -9q-43 0 -61.5 11t-30.5 32q-25 43 -53.5 112.5t-59.5 145.5z" />
<glyph unicode="&#x168;" horiz-adv-x="1177" d="M252 946l15 74h542l-14 -74q-35 -4 -73 -2t-68 -20q-12 -10 -16.5 -32t-6.5 -34l-100 -469q-10 -41 -19.5 -94t-1.5 -92q8 -37 23.5 -56.5t50.5 -35.5q31 -14 60.5 -20.5t66.5 -6.5q59 0 119.5 21.5t107.5 70.5q47 51 64.5 107.5t29.5 115.5l78 367q6 27 10.5 53.5t1 49 t-15.5 41t-41 26.5q-16 8 -35.5 8t-35.5 2l14 74h403l-14 -74q-51 -2 -84 -16.5t-54.5 -39t-34.5 -59t-24 -77.5l-86 -402q-8 -37 -18 -69.5t-29 -67.5q-33 -63 -87 -114.5t-118 -80.5q-57 -25 -124.5 -32.5t-122.5 -7.5q-35 0 -75 3t-79 11t-73.5 22.5t-59.5 34.5 q-59 49 -70.5 115.5t6.5 152.5l121 576q4 14 2 24.5t-16 16.5q-10 4 -27.5 6t-35 3t-34 1h-22.5zM610 1161q16 29 42 64.5t63 70.5q31 33 74 56.5t79 23.5q49 0 83 -12.5t65 -28.5q29 -16 48 -27.5t50 -11.5q59 0 87 29.5t52 75.5l52 -19q-16 -31 -43 -68.5t-64 -70.5 q-39 -37 -77 -57.5t-83 -20.5q-51 0 -87 12.5t-62 28.5q-20 12 -47 26.5t-53 14.5q-35 0 -63 -25.5t-71 -83.5z" />
<glyph unicode="&#x169;" horiz-adv-x="968" d="M244 586l16 71l328 15l-90 -422q-4 -25 -8.5 -52.5t5.5 -50.5q10 -25 26.5 -34t43.5 -9q45 0 88 27t68 68q20 35 31.5 74.5t19.5 76.5l22 109q6 29 13.5 59.5t-2.5 52.5q-10 10 -17.5 11.5t-23.5 3.5h-60l17 71l338 15l-99 -461q-4 -27 -11 -57.5t3 -55.5q6 -12 39 -12 h59l-14 -72l-328 -14l25 117h-4q-57 -66 -128 -101.5t-151 -35.5q-53 0 -84.5 11t-51 30.5t-29 44t-15.5 51.5q0 53 2 82.5t8 58.5l43 201q6 27 16.5 61.5t-3.5 50.5q-10 10 -16.5 11.5t-20.5 3.5h-55zM374 778q16 29 42 64.5t63 70.5q31 33 74 56.5t79 23.5q49 0 83 -12.5 t65 -28.5q29 -16 48 -27.5t50 -11.5q59 0 87 29.5t52 75.5l52 -19q-16 -31 -43 -68.5t-64 -70.5q-39 -37 -77 -57.5t-83 -20.5q-51 0 -87 12.5t-62 28.5q-20 12 -47 26.5t-53 14.5q-35 0 -63 -25.5t-71 -83.5z" />
<glyph unicode="&#x178;" horiz-adv-x="1087" d="M162 973l12 55h588l-12 -55q-80 -2 -111 -11.5t-33 -25.5q-2 -8 3 -31.5t22 -75.5q14 -47 45 -129t72 -192q184 217 254.5 303t74.5 107q4 25 -23.5 38t-92.5 17l12 55h381l-13 -55q-27 -4 -49 -10.5t-47 -18.5q-33 -16 -63.5 -44t-59.5 -60q-63 -70 -131.5 -151 t-150.5 -177q-53 -61 -69.5 -95t-33.5 -114l-30 -145q-6 -27 0 -46.5t30 -31.5q10 -4 48 -13.5t57 -9.5l-11 -57h-573l10 57q20 0 60.5 5.5t56.5 9.5q29 12 43 31.5t21 46.5l38 182q4 23 7.5 41t1.5 30q-2 14 -10.5 36t-18.5 55q-37 98 -69.5 186t-65.5 166q-16 39 -36 63.5 t-42 38.5q-16 10 -44 16.5t-48 8.5zM545 1233q10 47 51 84t90 37q47 0 72.5 -37t15.5 -84q-10 -49 -51 -86t-88 -37t-73.5 37t-16.5 86zM932 1233q10 47 53 84t90 37t72.5 -37t15.5 -84q-10 -49 -51 -86t-88 -37t-74.5 37t-17.5 86z" />
<glyph unicode="&#x17d;" horiz-adv-x="942" d="M35 0h839l103 387h-70q-2 -4 -3 -8t-3 -8q-29 -63 -74 -125t-102 -107q-59 -47 -129 -55t-135 -8h-59.5t-59.5 4l754 866l14 74h-809l-92 -356h67q29 53 68 108t86 96q61 53 128 65.5t136 12.5q29 0 54.5 -1t54.5 -1l-754 -870zM500 1401l41 20l190 -184l270 184l35 -20 q-78 -94 -131 -158.5t-94 -101.5q-25 -23 -43 -32t-61 -9q-45 0 -63.5 11t-31.5 32q-25 43 -53.5 112.5t-58.5 145.5z" />
<glyph unicode="&#x17e;" horiz-adv-x="759" d="M49 0h637l70 268h-66q-16 -39 -42.5 -74.5t-55.5 -68.5q-37 -41 -72 -48t-82 -7h-112l501 534l15 68h-613l-67 -254h67q20 37 37 68.5t38.5 56t51 40t76.5 17.5h133l-504 -537zM336 1057l41 20l190 -184l271 184l34 -20q-78 -94 -131 -158.5t-94 -101.5q-25 -23 -43 -32 t-61 -9q-45 0 -63.5 11t-30.5 32q-25 43 -53.5 112.5t-59.5 145.5z" />
<glyph unicode="&#x192;" horiz-adv-x="860" d="M-180 -137q12 51 48 78.5t85 27.5q51 0 79.5 -36.5t47.5 -133.5q43 25 79 121t60 162q35 109 67.5 209t57.5 172h-147l16 84h158q27 74 74 147.5t110 128.5q63 57 146 92t176 35q84 0 126.5 -36t30.5 -91q-4 -18 -13 -38.5t-26 -34.5q-20 -18 -40.5 -27.5t-57.5 -9.5 q-55 0 -80.5 37.5t-46.5 132.5q-31 -18 -60.5 -73.5t-76.5 -209.5l-19 -53h201l-16 -84h-211q-18 -53 -42 -129t-67 -184q-31 -84 -76 -160t-112 -135q-70 -61 -145.5 -92t-170.5 -31q-86 0 -127 36.5t-28 94.5z" />
<glyph unicode="&#x1a0;" horiz-adv-x="1177" d="M158.5 307.5q-19.5 98.5 3.5 198.5q23 111 83 210t156 177q86 72 195 110.5t209 38.5q115 0 202 -36.5t150 -118.5q57 -76 75.5 -173.5t-3.5 -203.5q-23 -104 -89.5 -209.5t-158.5 -177.5q-100 -78 -199.5 -110.5t-212.5 -32.5q-106 0 -194 38.5t-144 116.5 q-53 74 -72.5 172.5zM419 342q-5 -86 9 -152q31 -143 188 -143q63 0 109.5 28.5t80.5 73t57.5 97.5t41.5 102q14 39 24.5 80t18.5 80q8 41 16.5 91t10.5 101.5t-5 99.5t-26.5 86t-55.5 60.5t-91 22.5q-90 0 -151.5 -49.5t-102.5 -121t-64.5 -152.5t-38.5 -146 q-16 -72 -21 -158zM1151 776q-4 14 11.5 27.5t31.5 23.5q25 0 60.5 19.5t69.5 53.5t61.5 78t37.5 95h156q-20 -76 -60 -135t-110 -109q-90 -59 -184 -77q-23 -2 -44.5 2t-29.5 22z" />
<glyph unicode="&#x1a1;" d="M113.5 189.5q-17.5 66.5 1.5 148.5q16 74 63 141.5t113 114.5q137 92 291 92q76 0 140 -25.5t107 -72.5t59.5 -112.5t0.5 -145.5t-62.5 -144.5t-109 -110.5t-138 -70.5t-151.5 -24.5q-80 0 -145.5 25.5t-108.5 71.5t-60.5 112.5zM340 148q6 -42 31.5 -70.5t81.5 -28.5 q47 0 79.5 32t56 77t37 93t19.5 81q8 37 14.5 86t0 93t-30 73.5t-74.5 29.5q-49 0 -83 -31.5t-57.5 -75.5t-38 -93t-20.5 -84q-10 -41 -16 -90.5t0 -91.5zM825 455q-4 10 7.5 21t25.5 20q20 0 48 15t55.5 42t49 62.5t29.5 76.5h125q-16 -59 -47 -106t-90 -88 q-70 -49 -145 -64q-16 0 -35 3t-23 18z" />
<glyph unicode="&#x1af;" horiz-adv-x="1177" d="M221 946l15 74h542l-14 -74q-35 -4 -73 -2t-68 -20q-12 -10 -16.5 -32t-6.5 -34l-100 -469q-10 -41 -19.5 -94t-1.5 -92q8 -37 23.5 -56.5t50.5 -35.5q31 -14 60.5 -20.5t66.5 -6.5q59 0 119.5 21.5t107.5 70.5q47 51 64.5 107.5t29.5 115.5l78 367q6 27 10.5 53.5t1 49 t-15.5 41t-41 26.5q-16 8 -35.5 8t-35.5 2l14 74h403l-14 -74q-51 -2 -84 -16.5t-54.5 -39t-34.5 -59t-24 -77.5l-86 -402q-8 -37 -18 -69.5t-29 -67.5q-33 -63 -87 -114.5t-118 -80.5q-57 -25 -124.5 -32.5t-122.5 -7.5q-35 0 -75 3t-79 11t-73.5 22.5t-59.5 34.5 q-59 49 -70.5 115.5t6.5 152.5l121 576q4 14 2 24.5t-16 16.5q-10 4 -27.5 6t-35 3t-34 1h-22.5zM1131.5 742.5q-3.5 13.5 13.5 23.5l16 -12q57 0 114.5 22.5t106 60t83 86t44.5 99.5h154q-16 -70 -62.5 -127t-108.5 -99t-136 -68t-144 -30q-23 0 -45 -1t-28 18 q-4 14 -7.5 27.5z" />
<glyph unicode="&#x1b0;" horiz-adv-x="968" d="M152 586l16 71l328 15l-90 -422q-4 -25 -8.5 -52.5t5.5 -50.5q10 -25 26.5 -34t43.5 -9q45 0 88 27t68 68q20 35 31.5 74.5t19.5 76.5l22 109q6 29 13.5 59.5t-2.5 52.5q-10 10 -17.5 11.5t-23.5 3.5h-60l17 71l338 15l-99 -461q-4 -27 -11 -57.5t3 -55.5q6 -12 39 -12 h59l-14 -72l-328 -14l25 117h-4q-57 -66 -128 -101.5t-151 -35.5q-53 0 -84.5 11t-51 30.5t-29 44t-15.5 51.5q0 53 2 82.5t8 58.5l43 201q6 27 16.5 61.5t-3.5 50.5q-10 10 -16.5 11.5t-20.5 3.5h-55zM850 436q-4 10 8 22.5t25 18.5h2q88 0 155.5 58.5t85.5 140.5h123 q-12 -51 -48 -97.5t-83 -81t-102 -57t-109 -24.5q-16 0 -34.5 3t-22.5 17z" />
<glyph unicode="&#x2c6;" horiz-adv-x="741" d="M276 821q96 117 134.5 162t87.5 94q23 25 48 35t64 10t56.5 -10t31.5 -31q23 -41 49.5 -102.5t65.5 -157.5l-43 -20l-192 182l-269 -182z" />
<glyph unicode="&#x2c7;" horiz-adv-x="741" d="M336 1102l41 20l190 -184l271 184l34 -20q-78 -94 -131 -158.5t-94 -101.5q-25 -23 -43 -32t-61 -9q-45 0 -63.5 11t-30.5 32q-25 43 -53.5 112.5t-59.5 145.5z" />
<glyph unicode="&#x2d8;" horiz-adv-x="741" d="M367 1110l53 12q4 -35 11 -66.5t22 -54.5q16 -25 41.5 -38t76.5 -13q43 0 79 12.5t63 36.5q25 23 45 54.5t39 68.5l49 -12q-49 -139 -122 -213t-179 -74q-102 0 -147.5 75t-30.5 212z" />
<glyph unicode="&#x2d9;" horiz-adv-x="741" d="M457 979q10 49 54 85t95 36t77.5 -36t16.5 -85q-10 -51 -53 -87t-94 -36t-79 36t-17 87z" />
<glyph unicode="&#x2da;" horiz-adv-x="741" d="M375 969q16 76 83.5 122t151.5 46q88 0 136 -45t32 -123q-16 -76 -80.5 -122t-156.5 -46t-137.5 45t-28.5 123zM479 969q-10 -53 8.5 -85t63.5 -32q47 0 78 31t43 86q10 51 -7.5 83.5t-64.5 32.5q-45 0 -76.5 -31.5t-44.5 -84.5z" />
<glyph unicode="&#x2db;" horiz-adv-x="741" d="M170 -184q14 63 72.5 112t163.5 101h61q-59 -57 -93 -103.5t-44 -89.5q-8 -47 20.5 -69.5t102.5 -32.5l-13 -56q-154 0 -219 34t-51 104z" />
<glyph unicode="&#x2dc;" horiz-adv-x="741" d="M227 850q16 29 42 64.5t63 70.5q31 33 74 56.5t79 23.5q49 0 83 -12.5t65 -28.5q29 -16 48 -27.5t50 -11.5q59 0 87 29.5t52 75.5l52 -19q-16 -31 -43 -68.5t-64 -70.5q-39 -37 -77 -57.5t-83 -20.5q-51 0 -87 12.5t-62 28.5q-20 12 -47 26.5t-53 14.5q-35 0 -63 -25.5 t-71 -83.5z" />
<glyph unicode="&#x2dd;" horiz-adv-x="741" d="M287 819q70 80 110.5 132.5t79.5 99.5q23 35 51.5 53t73.5 18q27 0 44 -17t13 -40q-6 -31 -34.5 -53.5t-55.5 -40.5q-47 -33 -92 -61.5t-170 -116.5zM580 819q70 80 111.5 132.5t78.5 99.5q25 35 52.5 53t72.5 18q27 0 45 -17t14 -40q-6 -31 -34.5 -53.5t-57.5 -40.5 q-45 -33 -90 -61.5t-170 -116.5z" />
<glyph unicode="&#x300;" horiz-adv-x="471" d="M272 1059q6 27 38 45t68 18q43 0 65.5 -13t47.5 -62q16 -35 45 -92.5t66 -129.5l-35 -26q-106 72 -159.5 104.5t-92.5 61.5q-29 23 -39 41t-4 53z" />
<glyph unicode="&#x301;" horiz-adv-x="741" d="M379 825q82 86 128 136.5t77 85.5q41 45 72.5 60t72.5 15q35 0 59.5 -18t18.5 -45q-6 -33 -25.5 -53.5t-56.5 -40.5q-41 -23 -127 -66t-197 -100z" />
<glyph unicode="&#x303;" horiz-adv-x="741" d="M227 850q16 29 42 64.5t63 70.5q31 33 74 56.5t79 23.5q49 0 83 -12.5t65 -28.5q29 -16 48 -27.5t50 -11.5q59 0 87 29.5t52 75.5l52 -19q-16 -31 -43 -68.5t-64 -70.5q-39 -37 -77 -57.5t-83 -20.5q-51 0 -87 12.5t-62 28.5q-20 12 -47 26.5t-53 14.5q-35 0 -63 -25.5 t-71 -83.5z" />
<glyph unicode="&#x309;" horiz-adv-x="741" d="M457 929q59 57 93 103.5t44 89.5q8 47 -20.5 69.5t-102.5 32.5l13 56q154 0 219 -34t51 -104q-14 -63 -72.5 -112t-163.5 -101h-61z" />
<glyph unicode="&#x323;" horiz-adv-x="741" d="M191 -289q10 49 54 85t95 36t77.5 -36t16.5 -85q-10 -51 -53 -87t-94 -36t-79 36t-17 87z" />
<glyph unicode="&#x3b1;" horiz-adv-x="921" d="M117 315q20 94 61 169t99.5 128.5t131 82t156.5 28.5q66 0 108 -11.5t66.5 -35t35.5 -57t16 -76.5h2q29 47 48 83t33 72l140 25l10 -27l-123 -127q-16 -18 -37.5 -44.5t-66.5 -86.5q-2 -117 -2 -193.5t6 -119.5q10 -12 46 -21.5t68 -11.5l-24 -49q-27 -18 -84 -40.5 t-135 -22.5q-51 0 -82 16q-4 31 0 86t8 106h-6q-164 -209 -320 -208q-100 0 -144 91t-11 244zM343.5 184.5q14.5 -71.5 55.5 -71.5h2q41 0 95.5 50t101.5 113q8 68 13 135.5t0 121t-24.5 87t-60.5 33.5q-53 0 -96 -62.5t-72 -197.5q-29 -137 -14.5 -208.5z" />
<glyph unicode="&#x3b2;" horiz-adv-x="888" d="M31 -352l229 1077q20 96 61 166t98.5 116t125 67.5t141.5 21.5q68 0 120 -17.5t85 -50.5t45 -81t-2 -109q-12 -55 -41 -97.5t-67 -71t-78.5 -47t-77.5 -26.5l-2 -10q51 -4 80.5 -14.5t54.5 -24.5q133 -68 96 -242q-20 -92 -69.5 -154.5t-108.5 -101.5t-121.5 -55.5 t-107.5 -16.5q-27 0 -59 9.5t-81 44.5l25 53q31 -8 59 -8q27 0 61.5 11t68.5 38t62.5 72t43.5 112q23 113 -21.5 166t-124.5 53q-18 0 -33.5 -1t-37.5 -5l57 99q12 -2 21.5 -2.5t17.5 -0.5q37 0 67.5 17.5t55 45.5t41 63.5t24.5 74.5q23 102 -4.5 156.5t-83.5 54.5 q-66 0 -109.5 -66.5t-68.5 -189.5q-33 -156 -61.5 -302t-52 -271t-40 -219.5t-24.5 -145.5l-6 -133q-51 -31 -118 -45t-132 -18z" />
<glyph unicode="&#x3b3;" horiz-adv-x="833" d="M98 592l13 45q23 12 60.5 26.5t80.5 26.5t84 21.5t70 9.5q16 -10 35.5 -39t37.5 -82q12 -37 19.5 -85t10.5 -102.5t2 -109.5t-7 -106h6q16 39 50 102t71 129t68.5 122t45.5 79l21 86l2 6q25 0 55.5 -4t61 -10.5t57.5 -14.5t45 -16l-18 -35q-23 -10 -61 -26.5t-62 -26.5 q-47 -47 -111.5 -138.5t-140.5 -226.5q-45 -78 -73.5 -144.5t-37.5 -88.5q-4 -20 -9 -56t-12 -78t-15.5 -81t-16.5 -66q-16 -14 -45 -26.5t-64.5 -22.5t-72.5 -16t-68 -6l-10 16q8 29 28.5 73t43 91t43 88t30.5 63q23 74 24 166t-16.5 180t-49 159t-74.5 99q-27 4 -52.5 9.5 t-48.5 9.5z" />
<glyph unicode="&#x3b4;" horiz-adv-x="860" d="M116.5 190.5q-14.5 65.5 2.5 145.5q14 70 50 124t84 95t107.5 70.5t122.5 50.5v4q-68 59 -101.5 113.5t-23.5 99.5q8 39 40 76t79 64.5t106.5 45t123.5 17.5h2q61 0 109 -12.5t84 -32t57.5 -42t29.5 -42.5l-6 -17q-12 -12 -31.5 -26.5t-40 -25.5t-40 -18.5t-31.5 -7.5 q-33 55 -80 99.5t-131 46.5q-51 0 -74 -14.5t-27 -30.5q-4 -18 18.5 -49t92.5 -90q82 -72 135 -134.5t81 -121t33 -115.5t-7 -119q-18 -86 -63.5 -153.5t-107 -114.5t-136 -71.5t-150.5 -24.5q-84 0 -147.5 25.5t-104.5 72.5t-55.5 112.5zM345 236.5q-1 -52.5 10.5 -95.5 t36 -69.5t65.5 -26.5t73.5 20.5t57 53.5t41 75t26.5 85q14 63 8 115t-25.5 94t-48 76t-61.5 63h-4q-53 -37 -99 -110t-69 -177q-10 -51 -11 -103.5z" />
<glyph unicode="&#x3b8;" horiz-adv-x="868" d="M147 306.5q0 103.5 27 232.5t75 232t111.5 177t141.5 113t168 39h2q94 0 154.5 -39t90 -111.5t29.5 -176t-26 -232.5q-55 -260 -180.5 -410.5t-319.5 -150.5q-94 0 -154.5 38.5t-89.5 111.5t-29 176.5zM363.5 177.5q7.5 -62.5 28 -97.5t57.5 -35q74 0 136 133t115 365 q-51 -20 -92 -25.5t-82 -5.5h-135q-20 -100 -27.5 -186t0 -148.5zM414 614h297q14 82 23 158t5 134.5t-23.5 92t-58.5 33.5q-37 0 -72.5 -34.5t-67.5 -92t-58.5 -133.5t-44.5 -158z" />
<glyph unicode="&#x3bb;" horiz-adv-x="851" d="M2 16q29 27 61.5 54.5t57.5 48.5q84 121 171 250t173 286q-2 20 -5 49t-7 60q-10 74 -26.5 119t-36 68.5t-41 31.5t-44.5 8q-31 0 -57 -6l14 53q27 18 76 38t104 20q53 0 92 -22.5t67 -74t47.5 -134.5t31.5 -203q29 -248 50.5 -382.5t31.5 -170.5q18 -6 49 -16.5 t49 -20.5l-31 -47q-16 -8 -46.5 -15.5t-70.5 -12.5t-86 -9t-91 -4q-6 61 -12.5 132.5t-12.5 146.5t-13.5 149.5t-15.5 140.5q-98 -184 -169.5 -320.5t-114.5 -220.5q-12 -4 -33 -8t-46.5 -9t-51 -8t-46.5 -3z" />
<glyph unicode="&#x3c0;" horiz-adv-x="989" d="M94 16q29 27 64 54.5t51 42.5q10 23 20.5 52.5t22.5 94.5l74 340h-41q-41 0 -82 -10t-64 -17l8 48q20 20 82 49.5t162 29.5h584q31 6 59.5 11.5t57.5 7.5l10 -2q-6 -18 -16.5 -41t-20.5 -43.5t-22.5 -36.5t-20.5 -25l-10 -8q-12 8 -29.5 17.5t-38.5 19.5h-37l-102 -475 q4 -12 31.5 -23.5t93.5 -19.5l-29 -51q-27 -20 -76 -34.5t-104 -14.5q-84 0 -116 32.5t-21 77.5l108 508h-190l-72 -338q-23 -104 -42 -156.5t-30 -68.5q-16 -14 -42.5 -24.5t-60.5 -17.5t-72 -11t-74 -4z" />
<glyph unicode="&#x765;" horiz-adv-x="825" d="M18 0l13 59q10 0 27.5 -1t34 0t31.5 6.5t21 21.5q6 10 8.5 19.5t4.5 19.5l118 555q4 16 3 25q-4 16 -17 18q-23 4 -45 5t-45 1l12 57h731l-51 -282h-53q-6 59 -18.5 101t-37 69.5t-66.5 41t-107 13.5q-20 0 -40 -1t-40 -11q-12 -8 -23 -21q-8 -14 -11 -28.5t-7 -26.5 l-43 -207q80 -6 129 36t76 118h55l-78 -377h-57q14 78 -21 124t-116 42l-52 -238q-8 -37 -5 -55t40 -23q16 -2 29.5 -2h30.5q63 0 111 14.5t86 43t68.5 72.5t61.5 104l53 -4l-71 -289h-740z" />
<glyph unicode="&#xe00;" horiz-adv-x="876" />
<glyph unicode="&#xe01;" horiz-adv-x="866" d="M145 0l86 414q12 55 52 94q27 25 52 32t30 7l-168 6q6 12 26.5 56t64.5 92.5t117.5 85t186.5 36.5q100 0 158.5 -24.5t88 -62.5t34 -84t-4.5 -89l-100 -473l-104 -90h-84l125 594q6 29 3 55.5t-20.5 48t-51.5 33.5t-89 12q-61 0 -102.5 -19t-67 -42t-36.5 -41t-11 -20 l209 -15l-11 -51l-24 -4q-10 -4 -21.5 -7t-21.5 -14q-41 -35 -51 -81l-95 -449h-170z" />
<glyph unicode="&#xe02;" horiz-adv-x="841" d="M143 649q20 84 93 129t172 43q111 -2 166 -59t34 -150q-8 -39 -24.5 -66.5t-35 -49t-36.5 -40t-33 -36.5q-29 -35 -47 -57.5t-26 -57.5l-46 -213h138q33 0 57 19q12 10 16 22t9 29l116 547l129 110h66l-141 -663q-8 -31 -19.5 -56.5t-34.5 -46.5q-59 -53 -133 -53h-403 l8 20t7 19.5t7 19.5q4 18 7.5 29.5t7.5 32.5l32 158q10 37 24.5 61.5t45.5 56.5q41 43 74 69t69 69q16 20 29.5 43.5t20 48t3.5 47t-20 41.5q-14 14 -30.5 20t-32 7t-26.5 0l-11 -1q2 0 10 -6t17.5 -18t15.5 -31.5t0 -48.5q-12 -57 -60.5 -96t-107.5 -37q-72 2 -96.5 46 t-10.5 99zM212 639q-5 -25 7 -45.5t45 -20.5t54.5 20.5t26.5 45.5t-7 45.5t-45 20.5t-54.5 -20.5t-26.5 -45.5z" />
<glyph unicode="&#xe03;" horiz-adv-x="878" d="M127 520q0 51 16.5 108.5t51.5 100.5q31 41 68.5 66.5t80.5 25.5q41 0 62.5 -32.5t19.5 -57.5q4 10 17.5 25.5t31 30t35.5 24.5t35 10q66 4 93.5 -46t10.5 -128q-12 -57 -43 -103t-59 -83q-23 -29 -41.5 -55.5t-24.5 -53.5l-55 -260h133q33 0 57 19q12 10 16.5 22t8.5 29 l117 547l129 110h65l-141 -663q-8 -31 -19.5 -56.5t-33.5 -46.5q-59 -53 -133 -53h-404l10 20q10 20 17 39q4 18 7 29.5t7 32.5l33 158q4 18 14 47.5t27 52.5q39 53 81 98t77 107q35 55 38 98t-24 47q-12 2 -29.5 -9t-33 -27.5t-26.5 -30.5l-11 -13q-10 25 -23 45 q-10 16 -26.5 30.5t-36.5 12.5q-35 -4 -55.5 -38.5t-22.5 -51.5q4 2 33.5 8.5t62.5 -12.5q25 -14 33 -39.5t3 -55.5t-21.5 -56.5t-39.5 -40.5q-37 -25 -69.5 -28t-59 8t-42 34.5t-17.5 54.5zM203 542.5q-4 -20.5 5 -38t38 -17.5q27 0 45 17.5t22 38t-6 38t-37 17.5 q-29 0 -46 -17.5t-21 -38z" />
<glyph unicode="&#xe04;" horiz-adv-x="948" d="M176 0l12 68q12 70 12.5 130t-1.5 117.5t1 113.5t23 120q16 51 48 99t83.5 86t122 61.5t166.5 27.5q102 2 169 -20.5t102.5 -60t45 -86t-1.5 -93.5l-100 -473l-104 -90h-84l118 567q6 31 3 61.5t-20 53.5t-51 37t-85 14q-72 0 -120 -20.5t-81 -52t-51 -71.5t-29 -79 q-8 -35 -11 -72t-5 -68.5t-2 -57t-2 -33.5l-6 -64l20 74q10 29 21 59q10 25 21 54.5t26 54.5q29 49 71.5 92t112.5 45q63 0 94 -36t21 -87q-12 -72 -58.5 -105.5t-101.5 -35.5q-47 0 -64.5 17.5l-19.5 19.5q-16 -41 -28.5 -70t-28.5 -70q-27 -66 -41.5 -113.5t-30.5 -113.5 h-166zM515 461.5q-5 -23.5 7.5 -43t42.5 -19.5q31 0 51.5 19.5t25.5 43t-7 43t-43 19.5t-51.5 -19.5t-25.5 -43z" />
<glyph unicode="&#xe05;" horiz-adv-x="948" d="M176 0l12 68q12 70 11.5 130t-2.5 117.5t1 113.5t25 120q35 98 85 151.5t98 81.5q55 33 116 41l119 -98l156 98q4 0 21.5 -5t41 -16t46 -29.5t38.5 -47.5q25 -45 23 -88t-9 -74l-100 -473l-104 -90h-84l118 567q6 29 9.5 46.5t-0.5 43.5q-6 27 -21.5 40.5t-17.5 13.5 l-137 -86l-111 90q-2 -2 -19.5 -9.5t-41 -29t-49 -61.5t-42.5 -105q-8 -35 -12 -72t-5 -68.5t-1 -57t-2 -33.5l-6 -64l20 74q8 20 19 43q10 18 20 42.5t25 49.5q29 49 72.5 92t113.5 45q63 0 94 -36t21 -87q-14 -72 -59.5 -105.5t-102.5 -35.5q-47 0 -63.5 17.5t-20.5 19.5 q-16 -29 -28.5 -52.5t-24.5 -54.5q-14 -33 -24.5 -59.5t-18.5 -53t-15.5 -54t-13.5 -60.5h-170zM517 429.5q-5 -23.5 7.5 -43t42.5 -19.5q31 0 51.5 19.5t25.5 43t-7 43t-43 19.5t-51.5 -19.5t-25.5 -43z" />
<glyph unicode="&#xe06;" horiz-adv-x="991" d="M153.5 166.5q8.5 64.5 45.5 109.5q29 35 59.5 53.5t54.5 26.5q29 8 56 6q4 2 8 18.5t20 39.5q20 27 41 46t40.5 35.5t38 36t34.5 46.5q35 53 38 97t-24 48q-12 2 -29.5 -9t-33 -27.5t-26.5 -30.5l-11 -13q-10 25 -23 45q-10 16 -26.5 30.5t-36.5 12.5q-35 -4 -58.5 -33.5 t-27.5 -46.5q4 2 33.5 8.5t62.5 -12.5q25 -14 33 -39.5t3 -53.5t-20.5 -54.5t-37.5 -40.5q-37 -25 -70 -28t-58.5 8.5t-41 34t-17.5 50.5q-2 51 14.5 103.5t51.5 95.5q33 41 72.5 66.5t82.5 25.5q41 0 61.5 -32.5t20.5 -57.5q4 10 17.5 25.5t30 30t35 24.5t34.5 10 q61 2 85 -49t9 -127q-6 -45 -22.5 -75.5t-35 -54t-37.5 -42t-34 -37.5q-18 -25 -24 -53.5t-4 -28.5q0 -4 33.5 -13t74.5 -42q29 -25 46.5 -51.5t27.5 -49t14 -38t4 -17.5l4 66l107 500l129 110h65l-131 -614q-8 -35 -22.5 -81t-42.5 -79q-25 -29 -58.5 -43t-62.5 -2 q-12 6 -20.5 20.5t-17.5 38t-22.5 56t-37.5 73.5q-16 25 -34 39.5t-34 24.5q-20 8 -39 14l-26 -123l-7.5 -22.5t-17.5 -35.5t-31.5 -38.5t-48.5 -32.5q-72 -31 -133 -15.5t-86 60.5q-25 43 -16.5 107.5zM232.5 146.5q0.5 -21.5 8 -35t18.5 -18.5t22 -5q16 0 25 14.5t13 30.5 l33 152h-13t-30.5 -7.5t-36 -25.5t-30.5 -53q-10 -31 -9.5 -52.5zM252 552.5q-4 -20.5 5 -37.5t38 -17q27 0 45 17t22.5 37.5t-6 38t-37.5 17.5q-29 0 -46 -17.5t-21 -38z" />
<glyph unicode="&#xe07;" horiz-adv-x="700" d="M135 453l33 75q2 -2 18.5 -12t39 -33.5t51 -58.5t55.5 -86q16 -31 32.5 -69t31 -72.5t24.5 -63.5t12 -41l96 451q-2 0 -30.5 -3t-65.5 15q-43 23 -49 62.5t8 82.5q20 59 72.5 92t114.5 29q82 -4 120.5 -50t16.5 -153l-131 -618h-242q-6 41 -24.5 101.5t-49.5 146.5 q-20 53 -42.5 92t-43.5 63q-23 29 -47 50zM462 680q-5 -25 7 -45.5t45 -20.5t54.5 20.5t26.5 45.5t-7 45t-45 20t-54.5 -20t-26.5 -45z" />
<glyph unicode="&#xe08;" horiz-adv-x="774" d="M180 417.5q0 26.5 9.5 53.5t27.5 47q27 29 56.5 43t58 17.5t54.5 -4t44 -21.5q25 -18 36 -56t15 -83t2 -91.5t-4 -80.5q-4 -66 -7 -107t-3 -45l23 2q2 12 6 27q6 25 18 61q12 39 23.5 71t22.5 65.5t23.5 72.5t30.5 92q14 43 22.5 87t-1.5 81t-44 61.5t-104 28.5 q-76 4 -133 -16.5t-96 -47t-58 -49.5l-20 -22v101q33 33 82 59q41 23 102.5 41t145.5 18q104 0 164.5 -25.5t90.5 -63.5t34 -84t-2 -87q-8 -47 -22.5 -92t-33 -90t-39 -94t-40.5 -105q-18 -51 -34 -102t-22 -80h-248q4 27 5.5 50.5t9.5 76.5q6 53 6 94t-2 70q-2 32 -6 55 q-10 -6 -26.5 -14t-38 -11.5t-45 -1t-44.5 14.5q-20 12 -29.5 34.5t-9.5 49zM253 448.5q-5 -24.5 6 -44t42 -19.5t51.5 19.5t25.5 44t-6 44t-42 19.5t-51.5 -19.5t-25.5 -44z" />
<glyph unicode="&#xe09;" horiz-adv-x="950" d="M171 405.5q3 26.5 15.5 52t34.5 46.5q43 41 99.5 49t103.5 -18q31 -18 41 -47t10 -60t-6 -57.5t-8 -38.5l-33 -154q0 2 20.5 22.5t55.5 39.5q49 25 98 32t82 23q23 10 31 27.5t12 29.5l43 201q8 41 8 71.5t-26 59.5q-16 18 -46 29.5t-69 15.5t-84 3t-88 -9 q-55 -10 -102.5 -27.5t-81 -35t-54 -32t-24.5 -16.5l-15 72q2 0 22.5 14.5t55.5 34t83 39t106 31.5q98 23 195.5 18.5t162.5 -33.5q88 -39 116.5 -96t6.5 -162l-39 -182q-4 -18 -14.5 -28.5t-32.5 -22.5q-16 -10 -30.5 -16.5t-18.5 -6.5q4 0 23.5 -4t39 -17t32.5 -40t5 -72 q-10 -59 -54 -102t-108 -45q-66 -4 -98.5 27.5t-30.5 78.5t19.5 72t17.5 27q-53 2 -104 -20.5t-80 -51.5q-33 -31 -53.5 -71t-24.5 -56h-164l60 287q-2 0 -33 4t-53 26q-14 14 -20.5 38t-3.5 50.5zM245 417.5q-5 -24.5 7 -44t43 -19.5t51.5 19.5t25.5 44t-7 44t-43 19.5 t-51.5 -19.5t-25.5 -44zM690 133.5q-6 -24.5 6.5 -46t46.5 -21.5q33 0 54.5 21.5t27.5 46t-7 46t-46 21.5q-35 0 -55.5 -21.5t-26.5 -46z" />
<glyph unicode="&#xe0a;" horiz-adv-x="829" d="M154 649q20 84 92.5 129t171.5 43q111 -2 166 -59t34 -150q-8 -39 -24 -66.5t-34.5 -49t-37 -40t-33.5 -36.5q-29 -35 -47 -57.5t-26 -57.5l-45 -213h137q33 0 57 19q12 10 16.5 22t8.5 29l76 350q4 23 7 44.5t-1 37.5t-11.5 25.5t-15.5 13.5q-8 6 -20 6l-7 68 q31 2 54.5 12t50.5 26q41 29 65.5 68t32.5 74h178q0 -2 -6 -17.5t-21.5 -38t-41 -49t-64.5 -51.5q-47 -31 -76.5 -43t-72.5 -16q72 0 102 -49q20 -29 18.5 -68t-6.5 -63l-71 -336q-8 -31 -19.5 -56.5t-33.5 -46.5q-59 -53 -134 -53h-405l10 20q4 10 7 19.5t8 19.5 q4 18 7 29.5t7 32.5l33 158q10 37 24.5 61.5t44.5 56.5q41 43 74 69t70 69q16 20 29.5 43.5t19.5 48t3 47t-20 41.5q-14 14 -30.5 20t-31.5 7t-27 0l-11 -1q2 0 10 -6t17.5 -18t15.5 -31.5t0 -48.5q-12 -57 -60.5 -96t-107.5 -37q-72 2 -96.5 46t-9.5 99zM222 639 q-5 -25 7.5 -45.5t44.5 -20.5q33 0 54.5 20.5t26.5 45.5t-7 45.5t-45 20.5t-54.5 -20.5t-26.5 -45.5z" />
<glyph unicode="&#xe0b;" horiz-adv-x="886" d="M135 520q0 51 16.5 108.5t51.5 100.5q31 41 68.5 66.5t80.5 25.5q41 0 62.5 -32.5t19.5 -57.5q4 10 17.5 25.5t30 30t35 24.5t34.5 10q66 0 88.5 -49t7.5 -125q-10 -59 -37.5 -104t-58.5 -86q-23 -29 -50.5 -67t-35.5 -73l-47 -225h137q33 0 57 19q12 10 16.5 22t8.5 29 l76 350q4 23 7 44.5t-1 37.5t-15.5 25.5t-24.5 13.5t-23 5l-11 1l8 68q35 0 60.5 9t56.5 29q39 27 62.5 67t31.5 75h170q0 -2 -5 -17.5t-18.5 -37t-36 -47t-56.5 -50.5q-35 -23 -72 -41t-82 -22q72 0 102 -49q20 -29 18.5 -68t-5.5 -63l-72 -336q-8 -31 -19.5 -56.5 t-33.5 -46.5q-59 -53 -133 -53h-406l10 20q4 10 7.5 19.5t7.5 19.5q4 18 7 29.5t7 32.5l33 158q8 31 24.5 59.5t36.5 52.5q43 49 86 88t78 101q29 53 30 99t-26 50q-12 2 -29.5 -9t-33 -27.5t-26.5 -30.5l-11 -13q-10 25 -23 45q-10 16 -26.5 30.5t-36.5 12.5 q-35 -4 -55.5 -38.5t-22.5 -51.5q4 2 33.5 8.5t62.5 -12.5q25 -14 33 -39.5t3 -55.5t-21.5 -56.5t-38.5 -40.5q-37 -25 -70 -28t-59.5 8t-42 34.5t-17.5 54.5zM211 542.5q-4 -20.5 5 -38t38 -17.5q27 0 45 17.5t22.5 38t-5.5 38t-37 17.5q-29 0 -46.5 -17.5t-21.5 -38z" />
<glyph unicode="&#xe0c;" horiz-adv-x="1177" d="M137 111.5q2 23.5 6 42.5l56 260q12 55 51 94q27 25 52.5 32t29.5 7l-168 6q6 12 28.5 56t70.5 91.5t124 85t191 37.5q94 0 153.5 -23.5t91 -60.5t38.5 -83t-1 -89l-55 -262q0 -4 24.5 -12t53.5 -31q33 -25 43 -48.5t14 -27.5v31l104 492l130 110h65l-174 -819h-164 q0 2 1 16.5t-1 36t-6 45t-16 41.5q-16 25 -30.5 39.5t-29.5 24.5q-16 8 -31 14l-14 -63q0 -6 -4 -23.5t-14.5 -39t-30.5 -44t-55 -37.5q-55 -23 -111.5 -14.5t-79.5 53.5q-23 43 -12.5 98.5t45.5 96.5q20 25 41.5 38t40 20t30.5 9l13 2l61 285q10 57 -25.5 101t-140.5 44 q-61 0 -106 -18t-73.5 -40.5t-42 -42t-13.5 -21.5l209 -15l-10 -51q-12 -2 -25 -4q-10 -4 -21.5 -7t-21.5 -14q-41 -35 -51 -81l-41 -193l14 -4q15 -4 30 -18.5t24.5 -39t1.5 -63.5q-6 -31 -23.5 -56.5t-41.5 -43t-53.5 -25.5t-60.5 -4q-41 6 -60.5 23.5t-25.5 40t-4 46z M208 131q-5 -25 7 -45t45 -20t54.5 20t26.5 45t-7 45.5t-45 20.5t-54.5 -20.5t-26.5 -45.5zM537 103.5q6 -23.5 26 -23.5q16 0 22.5 14.5t10.5 30.5l25 111q-16 0 -31 -9q-12 -6 -26.5 -21t-22.5 -44q-10 -35 -4 -58.5z" />
<glyph unicode="&#xe0d;" horiz-adv-x="1183" d="M172 201l45 213q12 55 51 94q27 25 52.5 32t29.5 7l-168 6q6 12 26.5 56t64.5 92.5t118 85t187 36.5q100 0 158.5 -24.5t88 -62.5t33.5 -84t-4 -89l-90 -420q0 -6 -2 -18t2 -21q8 -12 24 -12h60q33 0 57 19q12 10 16.5 22t8.5 29l117 547l129 110h65l-141 -663 q-8 -31 -19.5 -56.5t-33.5 -46.5q-59 -53 -134 -53h-286q-16 0 -26.5 8t-18.5 21q-10 20 -3 48.5t11 41.5l100 475q6 29 3 55.5t-20.5 48t-51 33.5t-89.5 12q-61 0 -102 -19t-66.5 -42t-37 -41t-11.5 -20l209 -15l-10 -51q-12 -2 -25 -4q-10 -4 -21 -7t-22 -14 q-41 -35 -51 -81l-37 -173q2 0 31 3.5t66 -15.5q43 -23 49 -62.5t-8 -82.5q-20 -59 -72.5 -92t-114.5 -29q-82 4 -120.5 50t-16.5 153zM292 139.5q-5 -24.5 7 -45t45 -20.5t54.5 20.5t26.5 45t-7 45t-45 20.5t-54.5 -20.5t-26.5 -45zM502 -186q8 35 36.5 69.5t88.5 38.5 q57 2 77.5 -33.5t4.5 -78.5q-10 -23 -23.5 -36.5t-26.5 -21.5q-14 -8 -28 -12q2 0 26.5 -13.5t71.5 -9.5q41 4 68.5 18.5t54.5 43.5q14 16 22.5 33.5t12.5 33.5q6 18 6 37l160 43q-10 -43 -42 -101t-87 -104q-57 -45 -134 -67.5t-159 -3.5q-29 6 -55.5 19.5t-45 35t-26.5 48 t-2 61.5zM563 -175.5q-4 -17.5 5.5 -31.5t31.5 -14q23 0 37 14t18 31.5t-5 32t-32 14.5t-37 -14.5t-18 -32z" />
<glyph unicode="&#xe0e;" horiz-adv-x="880" d="M53 -233q12 57 54.5 87.5t99.5 41.5q57 10 93 -0.5t38 -10.5q0 2 3 11.5t5 19.5q0 4 1 9t1 9v11l125 16q0 -4 -2 -17.5t-6 -35.5l-7 -24.5t-7 -16.5l-7 -12q10 -6 21 -13q10 -4 18.5 -11t18.5 -11q8 -6 17 -14.5t18 -16.5l18 -18l174 823q6 29 3 55.5t-20.5 48t-51 33.5 t-89.5 12q-61 0 -102 -19t-66.5 -42t-37 -41t-11.5 -20l209 -15l-10 -51q-12 -2 -25 -4q-10 -4 -21 -7t-22 -14q-41 -35 -51 -81l-57 -285q-16 -72 -68.5 -118t-130.5 -48q-55 -2 -92 31.5t-31 89.5q4 39 24.5 75.5t61.5 61.5q35 20 59.5 21.5t28.5 1.5l27 135q12 55 51 94 q27 25 52.5 32t29.5 7l-168 6q6 12 26.5 56t64.5 92.5t118 85t186 36.5q100 0 159 -24.5t88.5 -62.5t33.5 -84t-4 -89l-193 -907h-178q-6 10 -14 20t-17.5 22t-23.5 26q-20 18 -40.5 31.5t-25.5 13.5q0 -2 -13 -20.5t-39.5 -40t-67.5 -41t-95 -21.5q-59 -2 -102 29.5 t-31 91.5zM140 141.5q-5 -24.5 7.5 -45t45.5 -20.5t54 20.5t26.5 45t-7 45t-45.5 20.5t-54.5 -20.5t-26.5 -45zM143.5 -226.5q-2.5 -15.5 5 -27.5t23.5 -18.5t41 -1.5q25 4 42 17t27.5 26.5t15.5 24.5t5 13t-14.5 10.5t-37 12.5t-48 0t-45.5 -29q-12 -12 -14.5 -27.5z" />
<glyph unicode="&#xe0f;" horiz-adv-x="894" d="M2 -233q12 57 52 88.5t96 42.5q57 8 91.5 -6.5t37.5 -14.5q0 4 4 15.5t6 21.5q0 4 1 10t1 10v11l125 16q0 -4 -8.5 -30.5t-12.5 -49.5q-4 -14 -9 -26.5l-9 -22.5q-6 -12 -10 -22l20 -43l113 106l67 -102l174 823q6 29 3 55.5t-20 48t-51 33.5t-89 12q-61 0 -102.5 -19 t-67 -42t-36.5 -41t-11 -20l208 -15l-10 -51l-24 -4q-10 -4 -21.5 -7t-21.5 -14q-41 -35 -52 -81l-57 -285q-16 -72 -68.5 -118t-130.5 -48q-55 -2 -92 31.5t-30 89.5q4 39 24.5 75.5t61.5 61.5q35 20 59.5 21.5t28.5 1.5l26 135q12 55 51 94q27 25 52.5 32t29.5 7l-168 6 q6 12 27 56t65 92.5t117.5 85t186.5 36.5q100 0 158.5 -24.5t88 -62.5t33.5 -84t-4 -89l-192 -907h-178l-60 100l-96 -100h-45l-35 76q-2 -2 -14.5 -15.5t-34 -29t-52 -28.5t-69.5 -13q-59 0 -98 30.5t-29 90.5zM86 -226.5q-2 -15.5 5 -27.5t23.5 -18.5t41.5 -1.5 q25 4 42 17t27.5 26.5t15.5 24.5t5 13t-14.5 10.5t-37 12.5t-48.5 0t-46 -29q-12 -12 -14 -27.5zM152.5 141.5q-5.5 -24.5 7 -45t45.5 -20.5t54.5 20.5t26.5 45t-7.5 45t-45.5 20.5t-54 -20.5t-26.5 -45z" />
<glyph unicode="&#xe10;" horiz-adv-x="794" d="M-86 -305q-10 47 17.5 94t76.5 64q31 10 53.5 8t38 -9.5t22.5 -15.5t7 -10q2 4 6 17.5t6 27.5t2 28.5v16.5l99 29q-2 -16 -4 -33q-2 -14 -5.5 -31.5t-7.5 -34.5q-12 -41 -25.5 -62.5t-15.5 -25.5l6 -39l111 109q0 -2 2 -22.5t11.5 -45t25.5 -47t41 -24.5q31 -4 50.5 3 t29.5 17t13 20.5t5 12.5q-2 0 -25.5 -4t-56.5 16q-18 12 -23 32.5t-1 45.5t17 47.5t36 38.5q41 31 88 27t70 -29q23 -27 20.5 -71t-16.5 -85q-25 -66 -73 -106.5t-107 -42.5q-37 0 -63 9t-44 22.5t-28.5 27t-12.5 21.5l-74 -76h-41l-20 70q0 -2 -19.5 -26t-64.5 -32 q-47 -10 -82 7.5t-45 60.5zM-17 -259.5q-3 -19.5 6 -34.5t34 -15q27 0 42 16.5t18 35.5t-7 34.5t-35 15.5t-40 -16.5t-18 -36zM146.5 322.5q-9.5 54.5 31.5 105.5q39 49 87 59.5t91 -2.5q27 -8 44.5 -28.5t28.5 -48t18.5 -59.5t13.5 -64q4 -25 8 -56.5t7 -61.5t4 -52.5 t1 -26.5q0 4 9.5 33t25.5 69q12 31 25.5 56.5t26 50.5t22.5 50.5t18 58.5q12 45 5 73.5t-29.5 47t-58.5 28.5t-79 18t-90 12.5t-87 6.5t-67 3l-28 1q2 4 13.5 31.5t34 61.5t57 66.5t86.5 51.5q55 18 102 15t91 -14t85 -23.5t82 -10.5q66 4 96.5 24.5t34.5 22.5l23 -102 q-10 -10 -27 -19q-14 -8 -34.5 -14t-47.5 -6q-45 0 -85 12.5t-80 25.5t-81 21.5t-86 -2.5q-25 -6 -40 -17t-25.5 -23.5t-15.5 -22.5t-7 -15q41 -2 88 -10q41 -6 90.5 -15t102.5 -24q70 -20 104.5 -49t45 -60.5t4 -66.5t-16.5 -67q-20 -57 -37.5 -94t-32 -65t-27 -50.5 t-22.5 -51.5q-20 -51 -28 -75q-6 -16 -9 -31h-233v48t-6 106q-4 61 -13.5 89.5t-11.5 32.5l-12 -8t-32.5 -16t-46.5 -11t-54 9q-47 18 -56.5 72.5zM216 366.5q-5 -22.5 6 -42t42 -19.5t50.5 19.5t24.5 42t-6 42t-42 19.5t-50.5 -19.5t-24.5 -42zM432 -161.5q-4 -18.5 5 -34 t34 -15.5t40 15.5t19.5 34t-4.5 33.5t-34 15t-40.5 -15t-19.5 -33.5z" />
<glyph unicode="&#xe11;" horiz-adv-x="987" d="M127 520q0 51 16.5 108.5t51.5 100.5q31 41 68.5 66.5t80.5 25.5q41 0 62.5 -32.5t19.5 -57.5q4 10 17.5 25.5t29.5 30t34.5 24.5t35.5 10q63 0 86.5 -50t1.5 -126q-14 -55 -41 -100t-55 -82q-23 -29 -34.5 -55.5t-17.5 -53.5l-30 -151q20 43 40.5 78.5t40 69.5t42 69 t49.5 76q31 47 62.5 95t62 91t59.5 76t51 49q33 23 70 19.5t55 -25.5q23 -27 30 -60.5t1 -62.5l-125 -588l-105 -90h-84l125 594q4 16 8.5 32.5t-10.5 16.5q-14 2 -36.5 -24.5t-52 -73.5t-66.5 -108.5t-78 -131.5q-53 -88 -96 -167t-72 -138h-184l57 279q4 18 13 47.5 t26 52.5q39 53 81 98t77 107q35 55 38 98t-24 47q-12 2 -29.5 -9t-33 -27.5t-26.5 -30.5l-11 -13q-10 25 -23 45q-10 16 -26.5 30.5t-36.5 12.5q-35 -4 -55.5 -38.5t-22.5 -51.5q4 2 33.5 8.5t62.5 -12.5q25 -14 33 -39.5t3 -55.5t-21.5 -56.5t-39.5 -40.5 q-37 -25 -69.5 -28t-59 8t-42 34.5t-17.5 54.5zM203 542.5q-4 -20.5 5 -38t38 -17.5q27 0 45 17.5t22 38t-6 38t-37 17.5q-29 0 -46 -17.5t-21 -38z" />
<glyph unicode="&#xe12;" horiz-adv-x="1245" d="M158 0l12 68q12 70 11 130t-3 117.5t1 113.5t26 120q35 98 85 151.5t97 81.5q55 33 117 41l119 -98l155 98q4 0 21.5 -5t41 -16t46 -29.5t39.5 -47.5q25 -45 22.5 -88t-8.5 -74l-57 -266q2 0 21.5 -9t39.5 -22q29 -16 41 -36.5t16 -24.5l107 504l129 110h66l-175 -819 h-161q4 31 0 64.5t-29 74.5q-16 25 -31.5 40.5t-42.5 27.5l-16 -74q-6 -29 -28.5 -63.5t-61.5 -55.5q-31 -16 -66 -21t-66.5 2t-55 25.5t-29.5 51.5q-10 45 6 98t61 92q18 16 37 26.5t34 15.5t27 7l11 2l53 254q6 29 9 46.5t-1 43.5q-6 27 -21.5 40.5t-17.5 13.5l-137 -86 l-110 90q-2 -2 -19.5 -10.5t-42 -30t-50.5 -61.5t-44 -103q-10 -43 -12 -78t-1 -68.5t2 -68.5t-3 -78q-4 -37 -10.5 -77t-8.5 -50q10 18 18.5 31.5t17.5 28t22.5 31t35.5 38.5q12 12 29.5 27.5t33 29t26 22.5t12.5 9q-4 0 -31 3t-49 26q-23 23 -26 59.5t18 75.5 q23 41 62.5 66.5t94.5 23.5q39 -2 61.5 -17.5t32 -39t7.5 -51t-11 -52.5q-14 -37 -41.5 -68.5t-63.5 -64t-75 -69.5t-76 -82q-35 -43 -53 -78t-20 -39h-170zM468 433.5q-5 -23.5 7 -43t43 -19.5t51.5 19.5t25.5 43t-7 43t-43 19.5t-51.5 -19.5t-25.5 -43zM609 113.5 q1 -15.5 6.5 -26.5t17.5 -13q16 -2 26.5 8t14.5 24l26 127q-14 0 -28 -8q-12 -6 -25.5 -17t-23.5 -34q-6 -12 -10.5 -28.5t-3.5 -32z" />
<glyph unicode="&#xe13;" horiz-adv-x="1189" d="M168 201l45 213q12 55 51 94q27 25 52.5 32t29.5 7l-168 6q6 12 26.5 56t64.5 92.5t118 85t186 36.5q100 0 159 -24.5t88.5 -62.5t33.5 -84t-4 -89l-76 -352q2 0 18.5 13.5t41.5 25.5q27 12 52 22.5t54 24.5q23 12 29 27.5t10 27.5l76 357l129 110h65l-100 -471 q-4 -18 -12.5 -29.5t-30.5 -23.5q-31 -16 -43 -16q4 0 22.5 -4.5t38 -18.5t32.5 -41t7 -70q-8 -59 -52 -105t-122 -50q-66 -2 -99.5 29.5t-29.5 78.5q4 51 19.5 73t17.5 24q-33 -12 -51.5 -25.5t-48.5 -42.5q-31 -29 -52.5 -70t-25.5 -57h-158l125 594q6 29 3 55.5t-20.5 48 t-51 33.5t-89.5 12q-61 0 -102 -19t-66.5 -42t-37 -41t-11.5 -20l209 -15l-10 -51q-12 -2 -25 -4q-10 -4 -21 -7t-22 -14q-41 -35 -51 -81l-37 -173q2 0 31 3.5t66 -15.5q43 -23 49 -62.5t-8 -82.5q-20 -59 -72.5 -92t-114.5 -29q-82 4 -121 50t-16 153zM288 139.5 q-5 -24.5 7 -45t45 -20.5t54.5 20.5t26.5 45t-7.5 45t-44.5 20.5q-33 0 -54.5 -20.5t-26.5 -45zM940 134q-6 -28 7.5 -50.5t49.5 -22.5q37 0 59.5 22.5t29 50.5t-7 50.5t-50.5 22.5t-59.5 -22.5t-28.5 -50.5z" />
<glyph unicode="&#xe14;" horiz-adv-x="927" d="M158 0l12 68q12 70 12 130t-2 117.5t1 113.5t24 120q16 51 48 99t83 86t121.5 61.5t167.5 27.5q102 2 168.5 -20.5t102.5 -60t45 -86t-1 -93.5l-100 -473l-105 -90h-84l119 567q6 31 3 61.5t-20.5 53.5t-51 37t-85.5 14q-72 0 -119.5 -20.5t-80.5 -52t-51.5 -71.5 t-28.5 -79q-10 -43 -12 -78t-1 -68.5t2 -68.5t-3 -78q-4 -37 -10.5 -77t-8.5 -50q23 33 41 58.5t62 72.5q14 16 33.5 35.5l36 36t28.5 29t12 14.5q-4 0 -30.5 3t-49.5 26t-25.5 59.5t17.5 75.5q23 41 62.5 66.5t95.5 23.5q39 -2 61.5 -17.5t31.5 -39t8 -51t-9 -52.5 q-12 -37 -41 -72.5t-67 -74.5t-79.5 -80t-78.5 -88q-35 -43 -54.5 -77t-21.5 -38h-178zM486.5 461.5q-5.5 -23.5 7 -43t43.5 -19.5t51 19.5t25 43t-7 43t-43 19.5t-51 -19.5t-25.5 -43z" />
<glyph unicode="&#xe15;" horiz-adv-x="927" d="M158 0l12 68q12 70 11 130t-3 117.5t1 113.5t26 120q35 98 85 151.5t97 81.5q55 33 117 41l119 -98l155 98q4 0 21.5 -5t41 -16t46 -29.5t39.5 -47.5q25 -45 22.5 -88t-8.5 -74l-100 -473l-105 -90h-84l119 567q6 29 9 46.5t-1 43.5q-6 27 -21.5 40.5t-17.5 13.5 l-137 -86l-110 90q-2 -2 -19.5 -10.5t-42 -30t-50.5 -61.5t-44 -103q-10 -43 -12 -78t-1 -68.5t2 -68.5t-3 -78q-4 -37 -10.5 -77t-8.5 -50q10 16 19.5 30.5t20.5 28t25.5 30t37.5 38.5q12 12 29.5 27.5t33.5 30t27.5 23.5t13.5 9q-4 0 -30.5 3t-49.5 26t-26 59.5t18 75.5 q23 41 62.5 66.5t95.5 23.5q39 -2 61.5 -17.5t31.5 -39t8 -51t-9 -52.5q-12 -37 -39 -70.5t-62.5 -68.5t-75.5 -72.5t-79 -80.5q-37 -41 -57.5 -73t-22.5 -36h-178zM480 433.5q-5 -23.5 7.5 -43t42.5 -19.5q31 0 51.5 19.5t25.5 43t-7 43t-43 19.5t-51.5 -19.5t-25.5 -43z " />
<glyph unicode="&#xe16;" horiz-adv-x="847" d="M174 201l45 213q12 55 51 94q27 25 52.5 32t29.5 7l-168 6q6 12 26.5 56t64.5 92.5t118 85t187 36.5q100 0 158.5 -24.5t88 -62.5t33.5 -84t-4 -89l-100 -473l-105 -90h-84l125 594q6 29 3 55.5t-20.5 48t-51 33.5t-88.5 12q-61 0 -102.5 -19t-67 -42t-37 -41t-11.5 -20 l209 -15l-10 -51l-24 -4q-10 -4 -21.5 -7t-21.5 -14q-41 -35 -52 -81l-37 -173q2 0 31 3.5t66 -15.5q43 -23 49 -62.5t-8 -82.5q-20 -59 -72.5 -92t-114.5 -29q-82 4 -120.5 50t-16.5 153zM294 139.5q-5 -24.5 7 -45t45 -20.5t54.5 20.5t26.5 45t-7 45t-45 20.5t-54.5 -20.5 t-26.5 -45z" />
<glyph unicode="&#xe17;" horiz-adv-x="919" d="M172 617.5q-6 39.5 8 82.5q20 59 72.5 92t114.5 29q82 -4 120.5 -50t16.5 -153l-29 -129l-43 -139l62 139q0 2 14 27t36.5 59.5t51.5 74.5t57 71q68 72 116 89t101 3q41 -12 63.5 -55t6.5 -121l-117 -547l-104 -90h-84l133 629q6 35 0.5 47t-25.5 14q-18 2 -42.5 -23.5 t-52 -65.5t-55.5 -87t-50 -86q-35 -59 -63.5 -123.5t-51 -124t-37 -106.5t-20.5 -74h-168l114 543q-2 0 -30.5 -3t-65.5 15q-43 23 -49 62.5zM251 680q-5 -25 7 -45.5t45 -20.5t54.5 20.5t26.5 45.5t-7 45t-45 20t-54.5 -20t-26.5 -45z" />
<glyph unicode="&#xe18;" horiz-adv-x="827" d="M158 106l69 336l183 52l-70 -330q-4 -16 -8 -29.5t2 -23.5q12 -18 33 -19h139q14 0 25.5 9.5t21.5 19.5q14 16 20.5 30.5t10.5 34.5l49 230q10 51 1 82.5t-79 50.5q-41 10 -97.5 18t-109.5 13q-61 6 -127 6l6 20q6 19 19.5 46.5t37 59t60.5 58.5q49 35 97 45t98.5 7 t103.5 -15t109 -21q31 -6 54 -0.5t40 13.5q18 8 33 22l34 -94q-2 0 -29.5 -17.5t-68.5 -19.5q-39 -2 -72.5 5t-67.5 16.5t-70 16.5t-79 7q-37 0 -60.5 -12t-37.5 -26.5t-20.5 -27t-6.5 -14.5q2 0 33 -3t74 -10t92 -17.5t88 -24.5q49 -18 76 -35.5t38 -38t10 -46t-9 -58.5 l-49 -229q-8 -41 -17.5 -72t-38.5 -62q-37 -37 -77.5 -48t-88.5 -11h-284q-53 0 -80 29q-23 29 -10 77z" />
<glyph unicode="&#xe19;" horiz-adv-x="915" d="M172 617.5q-6 39.5 8 82.5q20 59 72.5 92t114.5 29q82 -4 120.5 -50t16.5 -153l-88 -407q2 0 19.5 13.5t41.5 23.5q41 18 89 27.5t89 23.5q27 10 35 25.5t12 27.5l76 357l129 110h66l-99 -457q-4 -23 -16 -37t-31 -26q-23 -14 -42 -19.5t-25 -5.5q4 0 23.5 -4t40 -18 t33.5 -40t7 -71q-10 -59 -55 -102t-111 -47t-100.5 27.5t-30.5 78.5q2 49 20.5 74t18.5 27q-51 0 -97 -21.5t-75 -50.5q-33 -31 -51 -71t-23 -56h-157l114 543q-2 0 -30.5 -3t-65.5 15q-43 23 -49 62.5zM251 680q-5 -25 7 -45.5t45 -20.5t54.5 20.5t26.5 45.5t-7 45t-45 20 t-54.5 -20t-26.5 -45zM649 133.5q-6 -24.5 6.5 -46t46.5 -21.5q33 0 54.5 21.5t28 46t-7 46t-46.5 21.5q-35 0 -55.5 -21.5t-26.5 -46z" />
<glyph unicode="&#xe1a;" horiz-adv-x="944" d="M172 617.5q-6 39.5 8 82.5q20 59 72.5 92t114.5 29q82 -4 120.5 -50t16.5 -153l-98 -462q-2 -8 -5.5 -23.5t5.5 -26.5q6 -10 19 -12t24 -2h169q33 0 58 19q12 10 16 22t8 29l117 547l129 110h66l-142 -663q-8 -31 -19 -56.5t-34 -46.5q-59 -53 -133 -53h-360 q-29 0 -53.5 10t-34.5 27q-10 16 -11.5 39.5t2.5 44.5l90 422q-2 0 -30.5 -3t-65.5 15q-43 23 -49 62.5zM251 680q-5 -25 7 -45.5t45 -20.5t54.5 20.5t26.5 45.5t-7 45t-45 20t-54.5 -20t-26.5 -45z" />
<glyph unicode="&#xe1b;" horiz-adv-x="946" d="M172 617.5q-6 39.5 8 82.5q20 59 72.5 92t114.5 29q82 -4 120.5 -50t16.5 -153l-98 -462q-2 -8 -5.5 -23.5t5.5 -26.5q6 -10 19 -12t24 -2h169q33 0 58 19q12 10 16 22t8 29l209 977l127 110h66l-232 -1093q-8 -31 -19 -56.5t-34 -46.5q-59 -53 -133 -53h-360 q-29 0 -53.5 10t-34.5 27q-10 16 -11.5 39.5t2.5 44.5l90 422q-2 0 -30.5 -3t-65.5 15q-43 23 -49 62.5zM251 680q-5 -25 7 -45.5t45 -20.5t54.5 20.5t26.5 45.5t-7 45t-45 20t-54.5 -20t-26.5 -45z" />
<glyph unicode="&#xe1c;" horiz-adv-x="929" d="M121 0l131 618q20 98 79.5 148.5t143.5 54.5q61 2 99 -29.5t34 -91.5q-4 -43 -26.5 -82.5t-75.5 -62.5q-43 -18 -70.5 -15t-29.5 3l-91 -422l244 305l111 -305l125 588l129 110h65l-174 -819h-199l-94 260l-203 -260h-198zM396 680q-5 -25 7.5 -45.5t45.5 -20.5t54 20.5 t26.5 45.5t-7 45t-45.5 20t-54.5 -20t-26.5 -45z" />
<glyph unicode="&#xe1d;" horiz-adv-x="931" d="M123 0l131 618q20 98 79.5 148.5t143.5 54.5q61 2 99 -29.5t34 -91.5q-4 -43 -26.5 -82.5t-75.5 -62.5q-43 -18 -70.5 -15t-29.5 3l-91 -422l244 305l111 -305l217 1018l127 110h65l-264 -1249h-199l-94 260l-202 -260h-199zM398 680q-5 -25 7.5 -45.5t45.5 -20.5 t54 20.5t26.5 45.5t-7 45t-45.5 20t-54.5 -20t-26.5 -45z" />
<glyph unicode="&#xe1e;" horiz-adv-x="1005" d="M172 617.5q-6 39.5 8 82.5q20 59 72.5 92t114.5 29q82 -4 120.5 -50t16.5 -153l-66 -303l-30 -116l55 139l219 481h70l26 -479l-2 -141l19 116l84 394l129 110h65l-174 -819h-186l-31 571l2 88l-33 -88l-262 -571h-186l114 543q-2 0 -30.5 -3t-65.5 15q-43 23 -49 62.5z M251 680q-5 -25 7 -45.5t45 -20.5t54.5 20.5t26.5 45.5t-7 45t-45 20t-54.5 -20t-26.5 -45z" />
<glyph unicode="&#xe1f;" horiz-adv-x="1011" d="M172 617.5q-6 39.5 8 82.5q20 59 72.5 92t114.5 29q82 -4 120.5 -50t16.5 -153l-66 -303l-30 -116l55 139l219 481h70l26 -479l-2 -141l19 116l176 824l127 110h65l-264 -1249h-186l-31 571l2 88l-33 -88l-262 -571h-186l114 543q-2 0 -30.5 -3t-65.5 15q-43 23 -49 62.5 zM251 680q-5 -25 7 -45.5t45 -20.5t54.5 20.5t26.5 45.5t-7 45t-45 20t-54.5 -20t-26.5 -45z" />
<glyph unicode="&#xe20;" horiz-adv-x="892" d="M72 119q4 39 24.5 75.5t61.5 61.5q35 20 59.5 21.5t28.5 1.5l26 135q12 55 52 94q27 25 52 32t30 7l-168 6q6 12 26.5 56t64.5 92.5t117.5 85t186.5 36.5q100 0 158.5 -24.5t88 -62.5t34 -84t-4.5 -89l-100 -473l-104 -90h-84l124 594q6 29 3 55.5t-20 48t-51 33.5 t-89 12q-61 0 -102.5 -19t-67 -42t-36.5 -41t-11 -20l209 -15l-11 -51l-24 -4q-10 -4 -21.5 -7t-21.5 -14q-41 -35 -51 -81l-58 -285q-16 -72 -68.5 -118t-129.5 -48q-55 -2 -92 31.5t-31 89.5zM157 141.5q-5 -24.5 7 -45t45 -20.5t54.5 20.5t26.5 45t-7.5 45t-44.5 20.5 q-33 0 -54.5 -20.5t-26.5 -45z" />
<glyph unicode="&#xe21;" horiz-adv-x="944" d="M118 117q-3 33 3 66.5t18.5 66.5t28.5 55q31 41 61.5 61.5t56 30t40.5 10.5l16 1l29 135q-2 0 -31 -3t-66 15q-43 23 -49 62.5t8 82.5q20 59 72.5 92t114.5 29q82 -4 121 -50t16 -153l-47 -219q0 -2 10 -5t25.5 -11t35 -24.5t37.5 -43.5q51 -68 66.5 -118t15.5 -54l7 74 l104 492l129 110h66l-132 -614q-8 -35 -22 -81t-43 -79q-25 -29 -58.5 -42t-62.5 -1q-12 6 -23.5 24.5t-22.5 45t-23.5 57.5t-26.5 61q-18 37 -35.5 60.5t-32.5 38.5q-16 16 -30 22l-37 -168l-7.5 -22.5t-17.5 -35.5t-31.5 -38.5t-48.5 -32.5q-72 -31 -134 -16.5t-85 61.5 q-12 25 -15 58zM199 153.5q0 -26.5 6 -42t17 -19.5t22 -4q16 0 25.5 14.5t13.5 30.5l43 197q-25 -4 -47 -17q-18 -10 -37 -30.5t-29 -55.5q-14 -47 -14 -73.5zM304 680q-5 -25 7.5 -45.5t44.5 -20.5q33 0 54.5 20.5t26.5 45.5t-7 45t-45 20t-54.5 -20t-26.5 -45z" />
<glyph unicode="&#xe22;" horiz-adv-x="845" d="M160 121l28 135q10 41 24.5 69.5t49.5 57.5q12 10 31.5 19.5t37 15.5t30 9t14.5 3q-2 0 -35 6t-66.5 27.5t-54 61.5t-0.5 108q16 51 49 89t75 61.5t90 32.5t95 5q70 -6 99.5 -57t-15.5 -125q-18 -29 -46.5 -44t-59.5 -19.5t-58.5 2t-46.5 24.5q-12 12 -16 26.5t-4 28 t1 22.5t1 11l-13 -16q-12 -17 -22 -41.5t-11 -54t23 -56.5q23 -27 65 -33t77 -6h78l-15 -65l-14 1q-14 1 -33.5 -1t-43 -7t-42.5 -18q-25 -16 -43 -42.5t-22 -49.5l-29 -145q-2 -8 -4 -23.5t6 -26.5q6 -10 19.5 -12t23.5 -2h137q33 0 58 19q12 10 16 22t8 29l117 547 l129 110h65l-141 -663q-8 -31 -19.5 -56.5t-33.5 -46.5q-59 -53 -133 -53h-328q-29 0 -53.5 10t-34.5 27q-20 39 -10 84zM453 693.5q-4 -21.5 6 -40t39 -18.5t48 18.5t23 40t-6 40t-39 18.5t-48 -18.5t-23 -40z" />
<glyph unicode="&#xe23;" horiz-adv-x="708" d="M154 590l3 16q3 15 12 37.5t25.5 49t41.5 52.5q43 43 92 60.5t94 19.5t79 -4t64.5 -14t61 -16.5t69.5 -8.5q20 0 34.5 6.5t25.5 16.5q10 8 18 22l39 -86q-2 0 -11 -9t-26.5 -19.5t-43 -18.5t-60.5 -4q-39 2 -70 13.5t-59.5 20.5t-59 12t-69.5 -9q-23 -8 -36 -19.5 t-24 -23.5q-10 -14 -18 -31q2 0 26.5 -3t58.5 -9t72.5 -15.5t73.5 -21.5q84 -31 108.5 -68.5t8.5 -113.5l-47 -221q-23 -106 -80 -152.5t-143 -50.5q-61 -4 -99.5 28.5t-33.5 92.5q4 43 26.5 83t75.5 62q43 18 70.5 15t29.5 -3l33 152q4 23 6 42t-6 35.5t-28.5 29 t-59.5 22.5q-41 10 -88 16.5t-89 10.5t-69 5zM359.5 139.5q-5.5 -24.5 7 -45t45.5 -20.5t54 20.5t26.5 45t-7 45t-45.5 20.5t-54 -20.5t-26.5 -45z" />
<glyph unicode="&#xe24;" horiz-adv-x="841" d="M176 201l45 213q12 55 51 94q27 25 52.5 32t29.5 7l-168 6q6 12 26.5 56t65 92.5t118 85t186.5 36.5q100 0 158.5 -24.5t88 -62.5t33.5 -84t-4 -89l-166 -780l-104 -90h-84l190 901q6 29 3 55.5t-20.5 48t-51 33.5t-88.5 12q-61 0 -102.5 -19t-67 -42t-37 -41t-11.5 -20 l209 -15l-10 -51l-24 -4q-10 -4 -21.5 -7t-21.5 -14q-41 -35 -52 -81l-37 -173q2 0 31 3.5t66 -15.5q43 -23 49 -62.5t-8 -82.5q-20 -59 -72.5 -92t-114.5 -29q-82 4 -120.5 50t-16.5 153zM296 139.5q-5 -24.5 7 -45t45 -20.5t54.5 20.5t26.5 45t-7 45t-45 20.5t-54.5 -20.5 t-26.5 -45z" />
<glyph unicode="&#xe25;" horiz-adv-x="845" d="M160 201l28 133q10 47 32 92t55.5 81t78 57.5t97.5 21.5q57 0 96 -19.5t63 -44.5q29 -29 45 -65l4 -54l7 54l28 131q4 25 4 50.5t-14 47t-45 35.5t-86 16q-74 2 -131 -19.5t-98 -47.5q-47 -31 -82 -72l-6 86q2 2 24.5 23.5t65.5 46t107.5 46t150.5 21.5t144 -18.5t91 -51 t43 -74.5t2 -89l-106 -494l-105 -94h-84l37 174q4 20 7 49t1 61.5t-9 65.5t-21 62q-20 41 -57.5 65.5t-82.5 7.5q-37 -12 -54 -52t-28 -81l-16 -76q4 0 27.5 1.5t56.5 -19.5q35 -23 43 -60.5t-6 -78.5q-18 -55 -65.5 -88t-104.5 -33q-78 0 -119 48t-18 155zM265 137.5 q-5 -24.5 7 -45t45 -20.5t54.5 20.5t26.5 45t-7 45t-45 20.5t-54.5 -20.5t-26.5 -45z" />
<glyph unicode="&#xe26;" horiz-adv-x="901" d="M80 119q4 39 24.5 75.5t61.5 61.5q35 20 59.5 21.5t28.5 1.5l27 135q12 55 51 94q27 25 52.5 32t29.5 7l-168 6q6 12 26.5 56t64.5 92.5t117.5 85t186.5 36.5q100 0 158.5 -24.5t88.5 -62.5t34 -84t-4 -89l-166 -780l-105 -90h-84l191 901q6 29 3 55.5t-20.5 48 t-51.5 33.5t-89 12q-61 0 -102 -19t-67 -42t-37 -41t-11 -20l209 -15l-10 -51q-12 -2 -25 -4q-10 -4 -21.5 -7t-21.5 -14q-41 -35 -51 -81l-58 -285q-16 -72 -68 -118t-130 -48q-55 -2 -92 31.5t-31 89.5zM165 141.5q-5 -24.5 7 -45t45 -20.5t54.5 20.5t26.5 45t-7 45 t-45 20.5t-54.5 -20.5t-26.5 -45z" />
<glyph unicode="&#xe27;" horiz-adv-x="716" d="M147 668q31 43 80 77q41 29 106.5 53.5t160.5 22.5q98 -2 148 -33.5t69.5 -73.5t18.5 -85t-5 -64l-78 -364q-23 -106 -80 -152.5t-143 -50.5q-61 -4 -99 28.5t-34 92.5q4 43 26.5 83t75.5 62q43 18 71 15t30 -3l69 326q14 66 -19.5 103.5t-123.5 37.5q-59 0 -103.5 -23.5 t-74 -52t-44.5 -53.5l-16 -24zM370 139.5q-5 -24.5 7 -45t45 -20.5t54.5 20.5t26.5 45t-7.5 45t-44.5 20.5q-33 0 -54.5 -20.5t-26.5 -45z" />
<glyph unicode="&#xe28;" horiz-adv-x="933" d="M158 0l12 68q12 70 12 130t-2 117.5t1 113.5t24 120q16 51 48 99t83 86t121.5 62.5t167.5 26.5q61 2 102 -6t68 -18q29 -12 47 -27q8 4 16 12q12 10 31 39q10 18 18 38t8 24h162q-4 -16 -20.5 -47t-44.5 -64q-25 -27 -52.5 -43t-33.5 -18q4 -4 11 -23.5t7 -36.5 q4 -31 2 -50t-6 -40l-100 -473l-105 -90h-84l119 567q4 10 5 20.5t5 24.5q2 10 2 18.5v14.5q0 8 -2 12q-4 -2 -10 -4q-12 -4 -20 -6q-16 -4 -23 -4q-6 -2 -10 -2l-21 37q4 2 11 4q12 4 20 8q12 4 18 8q4 2 9 7q-4 2 -34 15t-104 13q-72 0 -119.5 -20.5t-80.5 -52 t-51.5 -71.5t-28.5 -79q-8 -35 -11 -72t-5.5 -68.5t-2.5 -57t-2 -33.5l-6 -64l21 74q10 29 20 59q10 25 21.5 54.5t25.5 54.5q29 49 72 92t113 45q63 0 94 -36t20 -87q-12 -72 -58 -105.5t-101 -35.5q-47 0 -64.5 17.5l-19.5 19.5q-16 -41 -28.5 -70t-29.5 -70 q-27 -66 -41 -113.5t-30 -113.5h-166zM497 461.5q-5 -23.5 7 -43t43 -19.5t51 19.5t25.5 43t-7 43t-43.5 19.5t-51 -19.5t-25 -43z" />
<glyph unicode="&#xe29;" horiz-adv-x="946" d="M172 617.5q-6 39.5 8 82.5q20 59 72.5 92t114.5 29q82 -4 120.5 -50t16.5 -153l-98 -462q-2 -8 -5.5 -23.5t5.5 -26.5q6 -10 19 -12t24 -2h169q33 0 58 19q12 10 16 22t8 29l31 139q-2 0 -19.5 -1t-42 -1t-52 4t-50.5 16q-90 41 -69 134q12 47 54 77.5t89 30.5 q55 0 77.5 -39t6.5 -90q-10 -35 -26.5 -49t-20.5 -16q6 -2 12 -2q6 -2 23 -3q14 0 20 3q6 0 12 2l72 342l129 110h66l-82 -381q8 4 16 11q6 4 14.5 11t16.5 17q6 8 13 18.5t14 18.5q8 8 14 18l14 -106l-18.5 -18.5t-38.5 -34.5q-14 -10 -25.5 -19.5t-21.5 -13.5 q-10 -8 -21 -10l-37 -174q-8 -31 -19 -56.5t-34 -46.5q-59 -53 -133 -53h-360q-29 0 -53.5 10t-34.5 27q-10 16 -11.5 39.5t2.5 44.5l90 422q-2 0 -30.5 -3t-65.5 15q-43 23 -49 62.5zM251 680q-5 -25 7 -45.5t45 -20.5t54.5 20.5t26.5 45.5t-7 45t-45 20t-54.5 -20 t-26.5 -45zM559 445.5q-4 -19.5 6 -37t37 -17.5t44.5 17.5t21.5 37t-6 37t-37 17.5t-44.5 -17.5t-21.5 -37z" />
<glyph unicode="&#xe2a;" horiz-adv-x="856" d="M168 201l29 133q23 98 87 169.5t173 80.5q59 4 98 -14.5t61 -43.5q27 -29 43 -65l9 -76l8 82l26 121q2 10 3.5 21.5t1.5 23.5q0 10 -5 26q-2 6 -2 13q-4 -2 -10 -4q-4 -2 -10 -4t-12 -5q-8 -4 -14.5 -5t-10.5 -3q-6 -2 -10 -2l-37 35l12 4q4 2 10.5 4t14.5 6t20 13 q6 4 11 6l-12 5q-13 5 -35.5 10t-57.5 6t-80 -7q-51 -10 -91 -32.5t-69 -45.5q-35 -27 -59 -57l-20 76l20.5 20.5t52 41t78.5 45t98 32.5q68 12 120.5 10t86.5 -10q41 -8 70 -25q0 2 13.5 14.5t25.5 35.5q4 8 7 16t7 16t6 17h174q-8 -14 -16 -29q-8 -12 -18.5 -26.5 t-26.5 -30.5q-18 -20 -34.5 -31.5t-29.5 -19.5q-14 -8 -28 -15l12 -16q10 -18 16 -45q4 -27 2 -48.5t-4 -35.5l-106 -494l-104 -94h-84l36 174q4 20 7.5 49t1.5 61.5t-9.5 65.5t-21.5 62q-20 41 -57 65.5t-82 7.5q-37 -12 -54.5 -52t-27.5 -81l-17 -76q4 0 28 1.5t56 -19.5 q35 -23 43 -60.5t-6 -78.5q-18 -55 -65.5 -88t-104.5 -33q-78 0 -119 48t-18 155zM273.5 137.5q-5.5 -24.5 7 -45t45.5 -20.5t54 20.5t26.5 45t-7 45t-45.5 20.5t-54 -20.5t-26.5 -45z" />
<glyph unicode="&#xe2b;" horiz-adv-x="923" d="M178 617.5q-6 39.5 8 82.5q20 59 72.5 92t114.5 29q82 -4 120.5 -50t16.5 -153l-61 -284q2 8 16 32.5t36.5 55.5t52.5 64.5t62 58.5q16 12 31 18t27 10q14 4 28 7l-8 6t-15 20.5t-8 38t11 57.5q10 27 31.5 51.5t51.5 42t65.5 22.5t74.5 -5q29 -8 46.5 -29.5t23.5 -49 t-1 -59.5t-26 -59q-39 -59 -106 -71q14 -4 24 -13q10 -6 19.5 -17t13.5 -28q8 -27 4 -53t-8 -49l-59 -285l-113 -100h-78l86 406q6 33 4 63.5t-33 34.5q-18 2 -39.5 -12.5t-45 -38t-46 -53t-41.5 -56.5q-78 -121 -113.5 -215t-39.5 -129h-168l115 543q-2 0 -31 -3t-66 15 q-43 23 -49 62.5zM257 680q-5 -25 7 -45.5t45 -20.5t54.5 20.5t26.5 45.5t-7 45t-45 20t-54.5 -20t-26.5 -45zM760 679q-6 -26 5 -47.5t46 -21.5q33 0 55.5 20.5t28.5 46t-6 47t-45 21.5q-35 0 -56.5 -20t-27.5 -46z" />
<glyph unicode="&#xe2c;" horiz-adv-x="1017" d="M174 617.5q-6 39.5 8 82.5q20 59 72.5 92t114.5 29q82 -4 120.5 -50t16.5 -153l-98 -460l213 329h84l59 -329l84 399h-15.5t-32 2t-37 6t-30.5 15q-39 29 -42 70.5t20 84.5q20 39 60 60.5t87 23.5q39 2 61.5 -4t35 -13t17.5 -14l5 -8q2 2 10 16.5t12 34.5q6 23 6.5 34.5 t2.5 15.5l159 18q-2 -4 -15 -54t-46 -97q-31 -45 -60.5 -60.5t-33.5 -17.5q4 -2 8 -6q6 -6 10 -25q2 -14 0 -25.5t-4 -21.5l-125 -592h-186l-64 313l-8 86l-47 -86l-205 -313h-186l114 543q-2 0 -30.5 -3t-65.5 15q-43 23 -49 62.5zM253 680q-5 -25 7 -45.5t45 -20.5 t54.5 20.5t26.5 45.5t-7 45t-45 20t-54.5 -20t-26.5 -45zM774 691.5q-4 -21.5 11.5 -40t52.5 -20.5q37 0 60.5 17.5t28.5 39t-10.5 41t-54.5 19.5q-37 0 -60.5 -17.5t-27.5 -39z" />
<glyph unicode="&#xe2d;" horiz-adv-x="839" d="M131 65.5q2 20.5 4 28.5l53 250q23 98 82.5 148.5t141.5 54.5q61 2 100 -30t35 -91q-4 -43 -26.5 -83t-76.5 -62q-45 -18 -72.5 -15.5t-29.5 2.5l-27 -131q-4 -10 -5 -18t5 -17q8 -10 29 -10h164q29 0 53 17q25 18 31 51l92 430q14 70 -19.5 108.5t-132.5 40.5 q-74 0 -130 -23.5t-93 -53t-55 -54t-18 -26.5l-19 92l21 24q22 23 65 50.5t109.5 51t160.5 23.5q68 0 124.5 -15t94 -46t54 -77t4.5 -105l-92 -433q-6 -31 -18.5 -53t-34.5 -45q-29 -27 -59 -38t-58 -11h-377q-25 0 -44.5 5t-29.5 24q-8 16 -6 36.5zM335 405.5 q-5 -24.5 7 -45t45 -20.5t53.5 20.5t25.5 45t-7 45t-45 20.5t-53.5 -20.5t-25.5 -45z" />
<glyph unicode="&#xe2e;" horiz-adv-x="843" d="M135 65.5q2 20.5 4 28.5l54 250q20 94 78.5 137t125.5 45q53 0 91 -27.5t34 -86.5q0 -35 -22.5 -79t-69.5 -63q-43 -16 -63.5 -14t-22.5 2l-27 -125q-4 -20 5 -31q8 -10 26 -10h164q29 0 53 17q25 18 31 51l98 463l-16 -7q-16 -6 -45 -13t-67 -13t-79 -6q-147 4 -206 37 t-43 86q8 31 37.5 52t71.5 35.5t91 21.5t94 7q53 0 95.5 -6t70.5 -14q35 -8 62 -19q4 4 8 11q4 4 7 11t7 17l10.5 31.5t4.5 15.5h159q-4 -16 -12 -32q-6 -14 -15 -32t-20 -34q-25 -33 -43 -48t-22 -17q0 -4 8 -16.5t8 -37.5q2 -31 0 -44t-6 -29l-92 -433q-6 -31 -18.5 -53 t-34.5 -45q-29 -27 -58.5 -38t-58.5 -11h-377q-25 0 -44 5t-30 24q-8 16 -6 36.5zM314 387q-5 -25 7.5 -45t45.5 -20t53 20t25.5 45t-7 45.5t-45.5 20.5t-53.5 -20.5t-25.5 -45.5zM358 707q-6 -16 7.5 -26.5t37 -16t51 -7.5t52.5 -2q47 0 79.5 8.5t54.5 18.5t28 14l16 13 l-8 7q-8 7 -25.5 15t-47.5 15.5t-73 7.5q-23 0 -50 -2t-53 -7.5t-45.5 -14.5t-23.5 -23z" />
<glyph unicode="&#xe2f;" horiz-adv-x="868" d="M229 623q-8 34 0.5 70t32 68t57.5 48q37 16 72 17t61.5 -10t43 -34.5t16.5 -56.5q-2 -51 -20.5 -73.5t-22.5 -26.5q18 4 41 12q18 8 41.5 20t48.5 35q51 47 75.5 78t45.5 43q23 16 64.5 11t70.5 -29q25 -23 29 -52.5t0 -56.5l-127 -594l-109 -92h-80l127 598 q16 76 -12 68q-6 -2 -20.5 -12.5t-33 -23t-39 -25.5t-38.5 -21q-35 -14 -72 -25.5t-74.5 -15.5t-73.5 2t-67 26q-29 18 -37 52zM299 692.5q-6 -26.5 6 -48t47 -21.5t56.5 21.5t27.5 48t-6 48t-47 21.5t-56.5 -21.5t-27.5 -48z" />
<glyph unicode="&#xe30;" horiz-adv-x="712" d="M114 199.5q5 33.5 24.5 65.5t54 55.5t83.5 23.5q72 2 99.5 -46t3.5 -108q-10 -29 -25.5 -43t-40.5 -28q10 -4 51.5 -5t96.5 19q43 16 68.5 48t40 63.5t18.5 56.5t4 27l135 -2q-31 -102 -98.5 -174t-171.5 -101q-47 -12 -101.5 -15t-102.5 6t-85 32.5t-51 66.5 q-8 25 -3 58.5zM185 213q-5 -25 8.5 -45.5t46.5 -20.5t53 20.5t24.5 45.5t-8 45.5t-45.5 20.5t-53.5 -20.5t-25.5 -45.5zM204 625.5q5 33.5 24.5 65.5t54 55.5t84.5 23.5q74 2 100.5 -46t1.5 -108q-10 -29 -25.5 -43t-40.5 -28q10 -4 51.5 -5t98.5 19q43 16 68.5 48t39 63.5 t17.5 56.5t4 27l137 -2q-33 -102 -100.5 -174t-171.5 -101q-47 -12 -100.5 -15t-101.5 6t-86 32.5t-52 66.5q-8 25 -3 58.5zM277.5 639q-5.5 -25 7 -45.5t45.5 -20.5t53 20.5t25.5 45.5t-7 45.5t-45.5 20.5t-53 -20.5t-25.5 -45.5z" />
<glyph unicode="&#xe31;" horiz-adv-x="0" d="M-236 1159q16 63 66.5 108.5t120.5 47.5q76 2 110.5 -45t18.5 -115q-12 -53 -36 -70.5t-28 -19.5q4 0 41 1t78 21q39 16 62.5 37t50.5 56q14 18 25.5 40.5t18.5 42t11 34t4 16.5h129q-20 -76 -60 -135.5t-112 -108.5q-68 -47 -137.5 -67.5t-149.5 -20.5q-117 0 -175 50 t-38 128zM-151.5 1161.5q-6.5 -28.5 8 -52.5t51.5 -24t60.5 24t28.5 52.5t-8 52t-50 23.5t-60.5 -23.5t-30 -52z" />
<glyph unicode="&#xe32;" horiz-adv-x="692" d="M176 600l4 121q27 29 68 51q35 18 89 33.5t130 15.5q98 0 149.5 -28.5t72 -68.5t18.5 -83t-9 -76l-100 -475l-104 -90h-84l127 602q14 68 -22 103.5t-126 31.5q-55 -2 -95 -23.5t-66.5 -46t-39.5 -45.5z" />
<glyph unicode="&#xe33;" horiz-adv-x="675" d="M-118.5 1161.5q12.5 59.5 61.5 108.5t127 49q80 0 109.5 -49t17 -108.5t-61.5 -108.5t-129 -49q-78 0 -107.5 49t-17 108.5zM-31 1162.5q-6 -27.5 7.5 -50t48.5 -22.5q37 0 59 22.5t28.5 50t-7 50t-50.5 22.5q-35 0 -57.5 -22.5t-28.5 -50zM154 600l4 121q27 29 67 51 q35 18 89.5 33.5t129.5 15.5q98 0 149.5 -28.5t72 -68.5t18.5 -83t-8 -76l-101 -475l-104 -90h-84l127 602q14 68 -21.5 103.5t-125.5 31.5q-55 -2 -95.5 -23.5t-67 -46t-38.5 -45.5z" />
<glyph unicode="&#xe34;" horiz-adv-x="0" d="M-575 991q27 51 65.5 99.5t88.5 83t112.5 53t138.5 12.5q72 -6 124 -42t85 -84t46 -100t7 -91l-28 10q-27 10 -73 23.5t-107.5 26.5t-131.5 17q-61 4 -118.5 3t-102.5 -3t-73.5 -5t-32.5 -3zM-365 1071q4 0 51.5 -2t118.5 -8q35 -4 70 -10.5t62 -12.5q31 -8 57 -14 q0 2 -7 20.5t-24.5 42t-47.5 44t-77 26.5q-57 6 -96 -7t-61 -30q-30 -22 -46 -49z" />
<glyph unicode="&#xe35;" horiz-adv-x="0" d="M-590 991q12 31 37 67t58.5 69.5t75.5 60t93 39.5q84 18 142.5 9t95.5 -27.5t54 -38.5l18 -19v45l14 70l98 47h68l-84 -391l-28 10q-27 10 -74.5 23.5t-109 26.5t-130.5 17q-61 4 -118.5 3t-102.5 -3t-74 -5t-33 -3zM-379 1071q4 0 51 -2t119 -8q35 -4 70 -10.5t61 -12.5 q31 -8 58 -14q0 2 -7.5 20.5t-25 42t-47 44t-76.5 26.5q-57 6 -96 -7t-62 -30q-29 -22 -45 -49z" />
<glyph unicode="&#xe36;" horiz-adv-x="0" d="M-573 991l12 25q12 24 36.5 58t64.5 70.5t95 61.5q57 25 107.5 30t87.5 2t60 -10l22 -7q2 4 9 27.5t30 45.5q31 31 63.5 43.5t63.5 11.5t54.5 -13.5t35.5 -30.5q25 -41 14.5 -85t-39.5 -79q-27 -33 -50 -42t-30 -12q2 -4 11.5 -29.5t13.5 -47.5q4 -27 5 -56.5t1 -31.5 l-28 10q-27 10 -73 23.5t-107.5 26.5t-131.5 17q-61 4 -118.5 3t-103.5 -3t-74.5 -5t-30.5 -3zM-362 1071q4 0 51 -2t118 -8q35 -4 70 -10.5t62 -12.5q31 -8 57 -14q0 2 -7 20.5t-24.5 42t-47.5 44t-77 26.5q-57 6 -96 -7t-61 -30q-29 -22 -45 -49zM-15 1214.5 q-5 -22.5 6 -42t42 -19.5t50 19.5t23.5 42t-7 42t-42.5 19.5t-49 -19.5t-23 -42z" />
<glyph unicode="&#xe37;" horiz-adv-x="0" d="M-594 991q16 35 39 70q20 29 51 61.5t78 61.5q41 23 78 34t65.5 16t47 5h20.5l18 88v2h134l-25 -117q4 0 17.5 -8t23.5 -14q14 -10 26.5 -23.5t12.5 -15.5l35 178h133l-86 -407l-28 10t-74 23.5t-107.5 26.5t-130.5 17q-61 4 -118.5 3t-102.5 -3t-74 -5t-33 -3z M-383 1071q4 0 51 -2t119 -8q35 -4 69.5 -10.5t61.5 -12.5q31 -8 57 -14q0 2 -7 20.5t-24.5 42t-47 44t-76.5 26.5q-57 6 -96 -7t-62 -30q-29 -22 -45 -49z" />
<glyph unicode="&#xe38;" horiz-adv-x="0" d="M-451.5 -244.5q5.5 27.5 20.5 54t44 45.5q51 35 102.5 33.5t85.5 -23.5q37 -25 42 -58.5t-5 -78.5l-43 -205l-90 -90h-67l43 202q-2 0 -14.5 -2t-29 -1t-36 7.5t-33.5 22.5t-19.5 41t0 52.5zM-380 -241.5q-5 -22.5 6.5 -42t41.5 -19.5q31 0 50.5 19.5t24.5 42t-6 42 t-42 19.5t-50.5 -19.5t-24.5 -42z" />
<glyph unicode="&#xe39;" horiz-adv-x="0" d="M-710.5 -264.5q-2.5 26.5 7 53.5t29 51.5t49.5 38.5q41 20 81 18.5t69 -20.5q29 -18 36 -52t-1 -71l-29 -131q-4 -29 15.5 -42t47.5 -13q74 0 84 53l41 189l93 86h53l-60 -273q-6 -35 -27.5 -67.5t-68.5 -55.5q-23 -10 -56.5 -16t-70.5 -7t-70.5 2t-56.5 11 q-35 10 -56.5 32.5t-10.5 63.5l14 68l-12 1q-13 1 -28 4t-31.5 10t-26.5 22q-12 18 -14.5 44.5zM-648 -225.5q-5 -22.5 6 -41t42 -18.5t49.5 18.5t22.5 41t-6 41t-41 18.5t-49.5 -18.5t-23.5 -41z" />
<glyph unicode="&#xe3a;" horiz-adv-x="0" d="M-359.5 -224q9.5 40 43 73.5t87.5 33.5q53 0 73.5 -33.5t11 -73.5t-43 -74t-86.5 -34t-74 34t-11.5 74z" />
<glyph unicode="&#xe3f;" horiz-adv-x="888" d="M154 0l174 819h264l22 115h99l-23 -115q68 -4 119 -26q43 -18 73.5 -58.5t20.5 -111.5q-8 -55 -32.5 -95.5t-58.5 -66t-76 -36.5t-85 -11q41 0 76 -9.5t58.5 -31t33.5 -57t0 -87.5q-16 -90 -65 -136t-102.5 -65.5t-94.5 -22.5t-41 -5l-24 -111h-99l25 111h-264zM324 102 h114l56 263h-115zM399 459h115l57 266h-114zM537 100l18 2t43 15.5t47.5 42t32.5 78.5q8 43 -4 67.5t-31 36.5q-23 14 -51 18zM614 463q35 4 66 20q27 14 50.5 42t33.5 77q8 41 -5.5 65.5t-33.5 37.5q-23 14 -55 18z" />
<glyph unicode="&#xe40;" horiz-adv-x="487" d="M154 201l112 528l107 90h84l-117 -543q2 0 31.5 4.5t64.5 -16.5q41 -23 48.5 -62.5t-7.5 -82.5q-20 -59 -72.5 -92t-113.5 -29q-82 4 -121 50t-16 153zM273.5 139.5q-5.5 -24.5 7 -45t45.5 -20.5t54 20.5t26.5 45t-7 45t-45.5 20.5t-54 -20.5t-26.5 -45z" />
<glyph unicode="&#xe41;" horiz-adv-x="913" d="M164 201l112 528l107 90h84l-117 -543q2 0 32 4.5t64 -16.5q41 -23 48.5 -62.5t-7.5 -82.5q-20 -59 -72.5 -92t-113.5 -29q-82 4 -121 50t-16 153zM284 139.5q-5 -24.5 7 -45t45 -20.5t54.5 20.5t26.5 45t-7.5 45t-44.5 20.5q-33 0 -54.5 -20.5t-26.5 -45zM578 201 l112 528l107 90h84l-117 -543q2 0 31.5 4.5t64.5 -16.5q41 -23 48 -62.5t-7 -82.5q-20 -59 -72.5 -92t-113.5 -29q-82 4 -121 50t-16 153zM697 139.5q-5 -24.5 7.5 -45t45.5 -20.5t54 20.5t26.5 45t-7 45t-45.5 20.5t-54.5 -20.5t-26.5 -45z" />
<glyph unicode="&#xe42;" horiz-adv-x="577" d="M182 1163l6 23q7 22 24 53t48 64.5t80 56.5q63 31 121.5 32t111 -10.5t95.5 -25t77 -10.5q27 2 45.5 8t32.5 16q14 8 27 23l57 -103q-14 -16 -35 -26q-18 -10 -44.5 -17.5t-61.5 -7.5q-39 0 -75 9t-70.5 21.5t-69.5 23t-72 10.5q-41 0 -66.5 -11.5t-42 -26t-22.5 -27.5 l-6 -13q45 -8 88 -21q37 -10 75 -25.5t66 -37.5q27 -23 25 -46.5t-8 -47.5l-164 -771q2 0 31.5 4.5t64.5 -16.5q41 -23 48 -62.5t-7 -82.5q-20 -59 -72.5 -92t-113.5 -29q-82 4 -121 50t-16 153l182 854q4 23 -3 37t-22.5 23t-35 14.5t-37.5 11.5q-53 14 -94.5 18t-45.5 4z M357 139.5q-5 -24.5 7.5 -45t45.5 -20.5t54 20.5t26.5 45t-7 45t-45.5 20.5t-54.5 -20.5t-26.5 -45z" />
<glyph unicode="&#xe43;" horiz-adv-x="610" d="M159 1105q-5 36 6 74t30 66q35 59 99 100t175 46q117 4 173 -39t58 -105q0 -49 -9 -84t-22.5 -62.5t-26.5 -49t-17 -41.5l-156 -734q2 0 31.5 4.5t64.5 -16.5q41 -23 48.5 -62.5t-7.5 -82.5q-20 -59 -72.5 -91t-113.5 -30q-82 4 -121 50t-16 153l168 790q6 25 22 49.5 t34.5 52t33 59.5t14.5 67q2 47 -23.5 66.5t-62.5 21.5q-47 2 -72 -9q-12 -6 -20 -12q2 0 19.5 -5t35 -21.5t24.5 -48t-10 -83.5q-18 -53 -70 -87.5t-112 -28.5q-53 6 -76.5 31.5t-28.5 61.5zM238.5 1149q-5.5 -25 7 -46.5t47.5 -21.5q33 0 54.5 21.5t26.5 46.5t-8.5 46.5 t-46.5 21.5q-35 0 -55 -21.5t-25.5 -46.5zM402.5 139.5q-5.5 -24.5 7 -45t45.5 -20.5t54 20.5t26.5 45t-7 45t-45.5 20.5t-54 -20.5t-26.5 -45z" />
<glyph unicode="&#xe44;" horiz-adv-x="612" d="M201 1321l100 123q14 -12 25 -25q10 -10 19 -26.5t15 -32.5q6 -18 8.5 -41t2.5 -41t-1 -29.5t-1 -9.5l19 25q18 26 48.5 56t69.5 54.5t80 24.5q43 0 66.5 -13.5t35.5 -37t13 -52t-1 -59.5q-6 -49 -27.5 -91t-31.5 -83l-168 -787q2 0 32 4.5t64 -16.5q41 -23 48.5 -62.5 t-7.5 -82.5q-20 -59 -72.5 -92t-113.5 -29q-82 4 -121 50t-16 153l180 837q6 25 16.5 43.5t21.5 35t22.5 34.5t17.5 43q16 53 5 73.5t-28 24.5q-18 2 -45.5 -26.5t-53.5 -65.5t-42 -67.5t-12 -32.5h-88q0 4 1 19.5t0 36t-5.5 43t-12.5 40.5q-23 49 -42 65.5t-21 16.5z M406.5 139.5q-5.5 -24.5 7 -45t45.5 -20.5t54.5 20.5t26.5 45t-7.5 45t-45.5 20.5t-54 -20.5t-26.5 -45z" />
<glyph unicode="&#xe45;" horiz-adv-x="663" d="M154 600l4 121q27 29 67 51q35 18 89.5 33.5t129.5 15.5q98 0 149.5 -28.5t72 -68.5t18.5 -83t-8 -76l-166 -782l-104 -90h-84l192 909q14 68 -21.5 103.5t-125.5 31.5q-55 -2 -95.5 -23.5t-67 -46t-38.5 -45.5z" />
<glyph unicode="&#xe46;" horiz-adv-x="1155" d="M479 500q-10 49 6.5 105.5t50 104.5t80 79.5t99.5 31.5q29 0 54.5 -16.5t43.5 -36.5q23 -23 41 -53q31 31 59 53q25 20 53.5 36.5t51.5 16.5q45 0 67.5 -12t44.5 -41q31 -37 33 -73t-8 -83l-176 -827l-105 -92h-83l198 936q0 4 2 14t2 21.5t-6 20.5t-20 11 q-16 2 -31.5 -6t-42.5 -33q-10 -10 -23.5 -24.5t-23.5 -26.5q-12 -14 -25 -31q-8 18 -16 37l-16.5 33t-18.5 31q-29 35 -55.5 46t-50.5 3q-16 -6 -26.5 -17.5t-17 -22.5t-7.5 -15l-3 -15q14 4 31 4q14 0 30.5 -4t33.5 -18q16 -14 22 -38t2 -49.5t-18.5 -51t-40.5 -43.5 q-31 -23 -63 -28t-58.5 1t-45 24.5t-24.5 47.5zM546 541.5q-5 -23.5 5 -42t41 -18.5t49 18.5t23.5 42t-5 42t-41.5 18.5t-49 -18.5t-23 -42z" />
<glyph unicode="&#xe47;" horiz-adv-x="0" d="M-487 1135q16 78 67 126t127 64q43 8 76 9t62.5 1t60.5 1t71 12q35 10 58.5 31.5t38.5 43.5q16 27 24 60h140q-10 -35 -31 -68q-16 -29 -48 -60.5t-79 -58.5t-92 -34t-88 -7t-85 2.5t-83 -6.5q-41 -8 -66.5 -40.5t-30.5 -73.5q-4 -33 4.5 -46.5t10.5 -17.5q2 4 27.5 23.5 t62.5 19.5q35 0 56.5 -13t56.5 -44q23 -18 44 -27.5t54 -5.5q18 2 27.5 8t13.5 13.5t4 13.5v6q-14 2 -25 10q-10 6 -15 18.5t-1 34.5q6 33 35.5 52.5t66.5 15.5q59 -10 63.5 -62.5t-28.5 -105.5q-27 -47 -75 -66.5t-85 -17.5q-45 2 -75.5 17.5t-54 31t-45 27.5t-48.5 8 q-23 -4 -40 -16.5t-29 -28.5q-15 -19 -25 -39q-61 18 -90 67.5t-12 121.5z" />
<glyph unicode="&#xe48;" horiz-adv-x="0" d="M43 1393l31 241h159l-71 -241h-119z" />
<glyph unicode="&#xe49;" horiz-adv-x="0" d="M-35.5 1560.5q-3.5 20.5 1.5 42t17.5 42t32.5 34.5q35 25 76 24t64 -22q27 -25 26.5 -67.5t-20.5 -77.5q-16 -29 -30.5 -47.5t-43.5 -34.5q41 2 88 23.5t78 58.5q20 25 33.5 50.5t20.5 48t11.5 37t4.5 16.5h104l-5 -16q-5 -15 -14.5 -37.5t-24.5 -49t-40 -53.5 q-39 -45 -82 -72.5t-98 -44.5q-29 -8 -62.5 -14t-62.5 -9t-49.5 -5.5t-22.5 -2.5l10 50q2 0 21.5 7t38.5 23q23 16 28 30.5t5 16.5q-16 -6 -33 -6q-14 0 -29.5 4t-27.5 19q-12 12 -15.5 32.5zM18.5 1601.5q-4.5 -18.5 5 -33t31.5 -14.5q25 0 39.5 14.5t18.5 33t-4 33 t-33 14.5t-39 -14.5t-18.5 -33z" />
<glyph unicode="&#xe4a;" horiz-adv-x="0" d="M-150 1528q12 66 55.5 109.5t100.5 48.5q12 0 25.5 -9.5t23.5 -21.5q12 -14 23 -33l11 10t26.5 22.5t33 22t29.5 9.5q45 0 63.5 -36t14.5 -83q-4 -27 -11 -47.5t-24 -42.5q2 0 38 26.5t73 87.5q10 18 18 41t14.5 42.5t9.5 32.5l3 13l94 19l-4 -19q-4 -20 -16.5 -50 t-34 -66.5t-58.5 -75.5q-47 -49 -90 -81t-75 -48q-39 -20 -72 -29l12 57q0 2 20.5 24t30.5 77q6 27 2 50.5t-24 31.5q-6 2 -22.5 -5.5t-34 -16.5t-31 -18t-13.5 -11l-8 9q-8 9 -18 18t-21.5 16.5t-19.5 5.5q-33 -8 -51.5 -38t-18.5 -61q0 -23 7.5 -37t17.5 -20q10 -8 26 -10 q-2 12 2 22q8 23 29 33q35 16 54.5 -3t11.5 -50q-4 -25 -31 -47.5t-74 -22.5q-63 0 -95 44t-22 110z" />
<glyph unicode="&#xe4b;" horiz-adv-x="0" d="M-70 1485l15 71h102l21 93h159l-20 -93h104l-14 -71h-104l-21 -92h-160l21 92h-103z" />
<glyph unicode="&#xe4c;" horiz-adv-x="0" d="M-64.5 1287.5q-5.5 27.5 3 58t28.5 55.5q25 33 53.5 48t61.5 24.5t66.5 16.5t68.5 21q61 23 92 59t43 68q14 37 13 78l110 -76q0 -2 -11.5 -32.5t-27.5 -53.5q-23 -35 -54.5 -57t-72.5 -41q-18 -8 -40.5 -14t-43 -9t-35 -5.5t-16.5 -2.5q20 -20 26.5 -41.5t-3.5 -54.5 q-6 -31 -25.5 -54.5t-44.5 -38.5t-53.5 -21.5t-55.5 -2.5q-37 6 -57 27t-25.5 48.5zM0 1336.5q-6 -25.5 5 -47t44 -21.5t55.5 20.5t28.5 46t-6 47t-45 21.5t-54.5 -20.5t-27.5 -46z" />
<glyph unicode="&#xe4d;" horiz-adv-x="0" d="M-114.5 1144.5q12.5 59.5 62.5 109t128 49.5q80 0 108.5 -49.5t16 -109t-61.5 -108.5t-129 -49q-78 0 -107.5 49t-17 108.5zM-26.5 1146q-6.5 -28 7 -50.5t48.5 -22.5q37 0 59.5 22.5t28.5 50.5t-7.5 50.5t-50.5 22.5q-35 0 -57 -22.5t-28.5 -50.5z" />
<glyph unicode="&#xe4e;" horiz-adv-x="0" d="M-133 1005.5v22.5q8 37 28.5 65.5t49.5 51.5q51 33 114 45q-8 6 -16 11t-12 13q-27 23 -21 58q20 68 76 102q51 33 135 33q23 0 44.5 -3t45.5 -7l-30 -58q-10 4 -18.5 4h-16.5q-47 0 -78 -24q-10 -8 -17.5 -18.5t-13.5 -24.5q-10 -31 4 -41q10 -6 56 -10l-35 -66 q-23 -6 -47.5 -12t-46.5 -21q-14 -8 -23.5 -16t-17.5 -16q-16 -18 -21.5 -34t-5.5 -22q0 -8 6 -10q12 -6 45 -6q16 0 34.5 1t41.5 3l-35 -88q-49 -6 -88 -6q-49 0 -86 12q-16 8 -28.5 17.5t-18.5 23.5q-4 10 -4 20.5z" />
<glyph unicode="&#xe4f;" horiz-adv-x="1044" d="M208.5 409.5q22.5 106.5 88 197.5t169 151.5t241.5 60.5q137 0 214.5 -60.5t104.5 -151.5t4.5 -197.5t-88 -197.5t-169.5 -151.5t-241 -60.5t-214.5 60.5t-104.5 151.5t-4.5 197.5zM312.5 409.5q-17.5 -79.5 2 -147t78 -113t160.5 -45.5t180 45.5t126 113t65.5 147 t-2 147.5t-78 113t-160.5 45t-180 -45t-126 -113t-65.5 -147.5zM393.5 409.5q12.5 59.5 47 108.5t92 83t133.5 34t118.5 -34t57 -83t2 -108.5t-47 -108.5t-92 -83t-133.5 -34t-118.5 34t-57 83t-2 108.5zM493.5 409.5q-10.5 -47.5 13.5 -87t85 -39.5t101 39.5t50.5 87 t-13 87.5t-85.5 40q-61 0 -101 -40t-50.5 -87.5z" />
<glyph unicode="&#xe50;" horiz-adv-x="978" d="M180 196.5q-6 65.5 13 143.5q37 147 149.5 228t300.5 83q90 0 153.5 -22.5t102.5 -64.5t51.5 -99t-0.5 -125q-14 -76 -47 -141.5t-87 -113.5t-132 -75.5t-182 -27.5t-173 27.5t-106 74.5t-43 112.5zM334 244q2 -47 22.5 -82t61.5 -56.5t104 -19.5t110.5 23.5t80 56.5 t52 80t30.5 94q16 90 -18 152.5t-150 64.5q-121 2 -187.5 -60.5t-93.5 -156.5q-14 -49 -12 -96z" />
<glyph unicode="&#xe51;" horiz-adv-x="1032" d="M178 287q14 66 46 128t88.5 111t139.5 79t199 32q104 2 170 -18.5t103 -54.5t51 -73.5t16 -78.5q4 -61 -10 -120t-41 -110t-61.5 -94t-73.5 -74q-39 -33 -75 -56.5t-63.5 -38.5t-44 -23.5t-18.5 -8.5l-80 33q2 0 40 19.5t87 62.5t98.5 112.5t71.5 172.5q8 43 9 90t-17 87 t-59 64.5t-117 24.5q-113 0 -185.5 -63.5t-99.5 -161.5t-7 -167t85 -79q43 -6 67.5 4t37 24.5t15.5 27.5l3 14q-2 0 -12.5 -2.5t-24.5 -1t-31.5 6.5t-31.5 17q-16 14 -20.5 41t3.5 54.5t26.5 53t47.5 41.5q23 12 50.5 16.5t53 0.5t45 -19.5t29.5 -42.5q12 -33 7 -74.5 t-24.5 -82.5t-50 -77t-69.5 -56q-78 -39 -152.5 -37t-130 37.5t-82 102.5t-8.5 157zM505 260.5q-5 -20.5 5 -38t39 -17.5q27 0 44 17.5t22.5 38t-6 37.5t-38.5 17q-29 0 -45 -17t-21 -37.5z" />
<glyph unicode="&#xe52;" horiz-adv-x="1019" d="M139 101.5q-2 33.5 8 88.5l95 445q4 23 6 57.5t-10 63.5q-20 41 -45 52t-31 13l145 80q12 -6 25 -16l23.5 -23.5t25.5 -30.5q25 -41 23.5 -88t-13.5 -106l-92 -430q-6 -27 -8 -47.5t8 -42.5q10 -20 29.5 -27.5t46.5 -7.5h262q31 0 58.5 4t49.5 27q23 20 32 40.5t14 47.5 l51 241q6 29 6 61t-25 34q-18 2 -33.5 -8.5t-27.5 -23.5t-20.5 -24.5t-12.5 -11.5t-8 11.5t-13.5 24.5t-24.5 22.5t-40 7.5q-31 -4 -50.5 -40t-29.5 -69q-10 -31 -10 -53q-2 -12 0 -25q4 4 23.5 18.5t66.5 14.5q35 0 56.5 -18.5t29.5 -44t1 -56.5t-32 -57 q-29 -33 -67.5 -45.5t-75.5 -9t-67.5 23t-45.5 51.5q-18 43 -16 102.5t25 125.5q10 33 29.5 64.5t45 57t55 41t64.5 15.5q47 0 68.5 -19.5t31.5 -54.5q27 35 59 53.5t75 20.5q66 4 99.5 -44t16.5 -122l-61 -283q-6 -29 -21.5 -66.5t-50.5 -66.5q-41 -35 -81 -42t-70 -7h-381 q-53 0 -98.5 5t-67.5 34q-23 29 -25 62.5zM563 268.5q-4 -18.5 5.5 -34t33.5 -15.5q25 0 40 15.5t19.5 34t-4.5 33.5t-34 15t-40.5 -15t-19.5 -33.5z" />
<glyph unicode="&#xe53;" horiz-adv-x="1105" d="M165 169q-1 42 6 89t21.5 93t36.5 87q43 80 110 134.5t171 58.5q43 2 72.5 -6.5t50 -22.5t34 -34.5t23.5 -45.5q35 45 73 76t103 35q74 4 118 -24.5t64.5 -79t18.5 -115t-20 -131.5q-31 -121 -71 -186.5t-69 -96.5h-151q25 29 63.5 92.5t75.5 190.5q8 33 14 79t2 85.5 t-22.5 67.5t-57.5 26t-67.5 -30t-46.5 -62q2 -49 0 -88t-12 -93q-18 -104 -44 -165.5t-45 -102.5h-102q6 12 17.5 39t23.5 64.5t24.5 81.5t22.5 89q8 43 11 91.5t-6 88.5t-32.5 65.5t-66.5 23.5q-68 -4 -112 -68.5t-62 -142.5q-10 -39 -12.5 -61.5t0.5 -34.5q2 -15 6 -23 q4 2 29.5 12.5t66.5 -0.5q29 -6 44 -26.5t18 -47t-6 -55t-27 -49.5q-33 -37 -75 -50t-83 -5t-74 34.5t-47 69.5q-8 31 -9 73zM305 111.5q-4 -19.5 6.5 -37t36.5 -17.5q27 0 44.5 17.5t21.5 37t-6 37t-37 17.5t-44.5 -17.5t-21.5 -37z" />
<glyph unicode="&#xe54;" horiz-adv-x="960" d="M172 193q0 51 12.5 109t38 118.5t68.5 107.5q63 68 138 86.5t149.5 19.5t143.5 0t118 23q47 25 77.5 64t48 76t24.5 64.5t7 29.5l101 -84q0 -2 -9.5 -27.5t-31 -60.5t-55 -71.5t-84.5 -61.5q-55 -27 -111.5 -33t-110 -6h-100.5t-84 -15q-76 -29 -114 -90t-54 -139 q-6 -31 -9 -64.5t3 -62.5t22.5 -51.5t51.5 -28.5q16 -4 36.5 0t39 10.5t31.5 11.5l13 5q-8 14 -20 44t-2 93q12 57 47 109.5t100 74.5q25 8 51.5 11.5t51 -3t44 -20.5t25.5 -39q14 -53 -15.5 -105t-88.5 -67q-29 -6 -49.5 -4t-33.5 7t-20 12l-8 6q0 -2 -3 -16.5t1 -35 t21.5 -42t54.5 -39.5q41 -18 80 -14.5t43 3.5l-4 -100q-2 0 -29.5 -2t-85.5 10q-25 6 -46 14.5t-41.5 14.5t-42 8t-48.5 -6q-61 -23 -115.5 -36t-97.5 -8t-73.5 32.5t-47.5 87.5q-8 29 -8 80zM651 334.5q-4 -21.5 6.5 -38.5t38.5 -17q29 0 46.5 17t22.5 38.5t-5 39t-39 17.5 t-47.5 -17.5t-22.5 -39z" />
<glyph unicode="&#xe55;" horiz-adv-x="970" d="M178 183.5q-2 45.5 7.5 101t32 113t63.5 110.5q41 51 97 76.5t108.5 35t89.5 8.5l36 -1q-16 6 -24 18q-8 10 -13.5 29.5t5.5 52.5q12 47 53 82t102 35q63 0 88 -33t21 -74t-24.5 -65.5t-24.5 -28.5q2 0 17 2t38.5 9.5t50.5 24.5t49 48q18 25 32.5 54.5t25 56t15.5 45 t5 20.5l88 -80q0 -2 -10 -29.5t-32.5 -63.5t-57.5 -74t-86 -58q-55 -23 -99.5 -29t-76 -4t-49 7.5t-19.5 5.5l-4 -2q-4 -3 -17.5 -6t-38 -8t-67.5 -9q-20 -2 -49 -12.5t-57.5 -36t-54 -72.5t-40.5 -125q-6 -31 -8 -64.5t5 -64.5t24.5 -53.5t52.5 -28.5q18 -4 41 1t42.5 11.5 t33.5 12.5l14 6q-45 49 -33 137q8 59 50.5 110.5t93.5 67.5q25 8 52.5 10.5t52 -3t43 -19.5t24.5 -39q6 -23 3 -49.5t-16.5 -50t-36 -42t-55.5 -26.5q-49 -12 -77.5 3.5t-30.5 15.5q0 -2 -3 -16.5t1 -35t20.5 -44t53.5 -44.5q20 -12 43.5 -16t42 -4t31 1t14.5 1l2 -86 q-2 0 -36 -2t-91 10q-23 4 -43.5 11.5t-42 11.5t-44 5t-49.5 -5q-61 -16 -116.5 -28.5t-100.5 -8.5t-76.5 30.5t-50.5 86.5q-8 29 -10 74.5zM650 718.5q-5 -22.5 6.5 -41t41.5 -18.5q31 0 49.5 18.5t22.5 41t-6 41t-41 18.5t-49.5 -18.5t-23.5 -41zM670 334.5 q-4 -21.5 6 -38.5t39 -17t46 17t22 38.5t-5 39t-39 17.5t-47 -17.5t-22 -39z" />
<glyph unicode="&#xe56;" horiz-adv-x="952" d="M184 815l125 84q4 -4 15.5 -9t24.5 -21.5t24.5 -47t13.5 -82.5q2 -59 -6 -110t-8 -56q2 2 21.5 13.5t53 24t85 21.5t118.5 9q170 -2 231.5 -85t37.5 -214q-16 -82 -46 -145.5t-82.5 -107.5t-127 -67.5t-179.5 -25.5q-59 0 -110 8t-88 28.5t-54.5 54.5t-9.5 85 q10 53 53 96t117 43q37 0 58.5 -13t33 -34.5t10.5 -46t-10 -49.5q-14 -39 -30.5 -51.5t-20.5 -16.5q10 -4 33 -9t78 -1q92 10 143 71.5t78 178.5q20 92 -25 152.5t-168 56.5q-66 -2 -120 -18.5t-94 -36t-62.5 -36t-24.5 -18.5q0 2 3.5 23.5t3.5 55.5t-2.5 77t-10.5 88 q-6 39 -18 63.5t-25.5 39t-25 20.5t-13.5 8zM302 181.5q-5 -21.5 5 -39t39 -17.5t47.5 17.5t23.5 39t-5 40t-39 18.5t-47.5 -18.5t-23.5 -40z" />
<glyph unicode="&#xe57;" horiz-adv-x="1280" d="M196.5 184q-10.5 90 16.5 181q14 51 42 99t64.5 85t83 59.5t97.5 22.5q59 0 88.5 -23.5t50.5 -62.5q33 35 73 59.5t93 26.5q59 2 96 -19.5t56.5 -57.5t22.5 -84t-5 -99q-14 -82 -51 -149.5t-86 -112.5q31 16 92 57t121 115q33 43 57.5 93t40.5 101t25.5 100.5t11.5 90.5 q4 74 -9.5 111.5t-13.5 39.5l158 84q10 -27 16 -63q4 -31 6.5 -76t-4.5 -98q-14 -117 -62 -235t-140 -216q-41 -45 -95.5 -84t-118 -68.5t-132 -46t-140.5 -16.5l17 18q18 19 41.5 54.5t50 90t47.5 128.5q10 33 16 72.5t4 75.5t-14 62.5t-39 30.5q-29 4 -58.5 -14t-53 -44 t-39 -48.5t-15.5 -24.5q0 2 -3 22.5t-13 44t-29.5 43t-52.5 19.5q-27 0 -50.5 -14t-42 -36.5t-31.5 -51.5t-19 -57q-12 -43 -14.5 -74t-0.5 -49.5t5 -26.5t3 -10q2 2 11.5 10t25 17.5t37 14.5t49.5 1q57 -8 80 -61.5t-20 -118.5q-25 -37 -65 -55.5t-83 -19.5t-83 12.5 t-62 37.5q-43 47 -53.5 137zM380 126.5q-5 -20.5 5 -37.5t39 -17q27 0 44 17t22.5 37.5t-6 38t-38.5 17.5q-29 0 -45 -17.5t-21 -38z" />
<glyph unicode="&#xe58;" horiz-adv-x="1071" d="M185.5 192q-3.5 50 7 105t33 111.5t61.5 103.5t83 72.5t92 38t100 14.5t106 2q45 0 89 1t86 8t82 24.5t76 52.5q27 27 47.5 58.5t34 60t19.5 48.5l6 21l98 -96q0 -2 -9 -29.5t-32.5 -65.5t-62.5 -78t-101 -64q-59 -23 -125.5 -28t-133 -5t-128 -2t-110.5 -23 q-57 -23 -92 -85t-52 -132q-16 -76 -10 -114.5t21 -57.5q16 -23 43 -24q0 2 8 29.5t45 72.5q47 53 87 72.5t42 19.5l1 -21q1 -20 8 -48.5t24.5 -59.5t50.5 -55q45 -35 79 -33t55.5 19.5t27.5 27.5l16 31l-18 -2q-17 -2 -39.5 2t-44 18.5t-29.5 46.5q-4 18 -1 44t16.5 52.5 t38 48t63.5 32.5q47 12 78.5 3.5t52 -29t28 -50t5.5 -60.5q-6 -47 -23.5 -93t-48.5 -84t-74 -63.5t-100 -33.5q-74 -10 -119 14.5t-68.5 57t-30.5 62.5t-7 32q0 -2 -17.5 -27.5t-30.5 -58.5q-12 -35 -17 -52.5t-5 -21.5q-35 -4 -74 -4t-76.5 10t-68.5 34t-47 67 q-12 33 -15.5 83zM801 282.5q-4 -22.5 7 -41t42 -18.5t49.5 18.5t22.5 41t-7.5 41t-42.5 18.5t-49 -18.5t-22 -41z" />
<glyph unicode="&#xe59;" horiz-adv-x="1077" d="M191.5 153.5q-13.5 59.5 3.5 145.5q10 63 38.5 122.5t71.5 106.5t98.5 76t120.5 31q53 2 91 -13.5t62.5 -39t38 -52t19.5 -53.5q0 2 2 11.5t6.5 23.5t9.5 28.5t13 26.5q18 25 35.5 47.5t50.5 18.5q20 -2 36.5 -15.5t31 -29t25.5 -28.5t22 -13q27 2 49 45t43 96 q12 35 22.5 73t18.5 73q8 39 16 77l98 -90q0 -4 -5 -22.5t-14 -47t-21.5 -64.5t-30.5 -73q-14 -33 -36 -65.5t-45.5 -59t-49 -43t-45.5 -16.5q-18 0 -33.5 14.5t-28 29.5t-25 27.5t-26.5 8.5q-10 -4 -20.5 -20.5t-17.5 -41t-12 -53t-7 -57.5q-4 -66 13 -120t40.5 -93 t45.5 -60.5t24 -21.5l-164 -47l-10 20q-11 19 -24 56t-28.5 91t-23.5 126q-6 43 -14.5 88t-24 82t-39 59.5t-60.5 22.5q-41 0 -70.5 -22.5t-51 -56.5t-36 -74t-22.5 -79q-16 -70 -8 -99.5t10 -33.5l6 12q5 11 17 26t31.5 29.5t50.5 24.5t60.5 6t52 -19t33.5 -42t5 -61 q-10 -80 -65.5 -117t-116.5 -41q-59 -4 -108.5 11t-82 52t-46 96.5zM413 137.5q-5 -22.5 6 -42t42 -19.5t50 19.5t24.5 42t-6 42t-42.5 19.5t-50 -19.5t-24 -42z" />
<glyph unicode="&#xe5a;" horiz-adv-x="1193" d="M229 623q-8 34 0.5 70t32 68t57.5 48q37 16 72 17t61.5 -10t43 -34.5t16.5 -56.5q-2 -51 -20.5 -73.5t-22.5 -26.5q18 4 41 12q18 8 41.5 20.5t48.5 34.5q51 47 75.5 78t45.5 43q23 16 64.5 11t70.5 -29q25 -23 29 -52.5t0 -56.5l-6 -29q25 12 47 35q51 47 75.5 78 t45.5 43q23 16 64.5 11.5t70.5 -29.5q25 -23 28.5 -52.5t-0.5 -56.5l-127 -594l-108 -92h-80l127 598q16 76 -12 68q-6 -2 -20.5 -12.5t-33 -23t-39 -25.5t-38.5 -21q-4 -2 -9.5 -4t-9.5 -5l-102 -483l-109 -92h-80l127 598q16 76 -12 68q-6 -2 -20.5 -12.5t-33 -23 t-39 -25.5t-38.5 -21q-35 -14 -72 -25.5t-74.5 -15.5t-73.5 2t-67 26q-29 18 -37 52zM299 692.5q-6 -26.5 6 -48t47 -21.5t56.5 21.5t27.5 48t-6 48t-47 21.5t-56.5 -21.5t-27.5 -48z" />
<glyph unicode="&#xe5b;" horiz-adv-x="1568" d="M209 235.5q-6 61.5 10 139.5q35 160 119 248q43 45 96 67q57 23 115 23q98 0 145 -62q45 -59 23 -166q-23 -104 -82 -170q-29 -31 -68 -51q-37 -16 -78 -16q-49 0 -81 39q-29 39 -17 90q10 53 55 92q43 37 99 37q31 0 53 -12q4 -2 14 -9q6 57 -4 93q-4 20 -22 28 q-16 10 -51 10q-37 0 -70 -16t-59 -49q-53 -66 -82 -186q-12 -57 -7 -99.5t21 -72.5q41 -59 121 -60q61 0 104 21q49 20 86 61q78 82 113 240q12 61 12 94l2 22l23 -4q59 -12 90 -71q18 -41 24 -93q8 20 13 46q10 39 4 94v28l24 -8q47 -16 74 -63q25 -35 33 -76q4 8 8 20 q2 10 2 27.5t2 46.5l2 25l23 -6q45 -16 73 -62q8 -16 14.5 -36.5t10.5 -45.5q4 10 8 27q4 10 4 23.5v27.5l2 14l17 7h10q12 0 25 -7q4 -4 8 -9t6 -11q16 -31 45 -49q27 -18 68 -19q27 0 51 13q29 18 45 45l12 24l14 -18q10 -12 7 -33q-2 -18 -21 -39v-2q-27 -29 -62.5 -45 t-74.5 -16h-4q-59 0 -101 39q-4 -10 -8 -19.5t-8 -17.5q-16 -25 -37 -45q-8 -4 -15 -8.5t-18 -8.5h-2h-2q-8 0 -12 4l-8 9q-4 12 -6 20q-4 14 -8.5 27.5t-8.5 29.5q-2 6 -2 21q-4 -10 -6 -17.5t-6 -15.5q-16 -47 -35 -68q-12 -16 -31 -26q-12 -4 -20 -4q-4 0 -6 1t-4 1 q0 4 -2 4q-4 4 -6 8q0 4 -5 21q-4 14 -6 28.5t-4 30.5l-8 35q-6 -16 -11 -31.5t-12 -30.5q-27 -51 -53 -73q-20 -16 -43 -17q-6 0 -10 4l-4 4l-4 9q-2 4 -2 10t-2 12l-11 68l-6 26q-29 -96 -73 -161q-66 -98 -166 -136q-61 -27 -146 -26q-66 0 -116 22q-49 25 -78 72 t-35 108.5zM461 377q-12 -58 45 -58t69 58q12 57 -45 57t-69 -57z" />
<glyph unicode="&#x1ea0;" horiz-adv-x="1073" d="M-25 0l17 76q43 4 77.5 25.5t64.5 52t55.5 66.5t48.5 71l477 751h106l176 -862q6 -31 12.5 -50t17.5 -31.5t31.5 -17.5t55.5 -5l-14 -76h-496l14 76q10 0 24.5 -1t30 0t29 4t21.5 11q16 16 15 30.5t-5 31.5l-26 159h-361q-18 -33 -40.5 -67.5t-31.5 -71.5 q-6 -31 2.5 -49.5t27 -29.5t43 -14t48.5 -3l-14 -76h-406zM355 -289q10 49 54 85t95 36t77.5 -36t16.5 -85q-10 -51 -53 -87t-94 -36t-79 36t-17 87zM403 399h285l-65 351z" />
<glyph unicode="&#x1ea1;" d="M82 66.5q-10 31.5 0 80.5q14 74 76.5 119t142.5 73t161 41t136 26q2 14 8 40.5t9 54t2 51t-9 34.5q-16 16 -38.5 22t-49.5 6t-55.5 -6t-54.5 -22q-14 -10 -8 -22.5t10 -20.5q12 -27 8 -49q-10 -47 -53 -70t-84 -23q-47 0 -73 30t-15 77q12 55 59 92t100 53 q53 18 102.5 25.5t100.5 7.5q59 0 125 -12t106 -47q45 -41 45.5 -89.5t-14.5 -111.5l-51 -233q-2 -14 -3 -27.5t-5 -26.5q-4 -20 2 -33.5t29 -13.5q8 0 18 5l18 9q18 14 33 0q4 -6 0 -18t-11 -24.5t-17.5 -22.5t-16.5 -14q-27 -23 -61.5 -35t-65.5 -12q-45 0 -82 18 q-41 25 -51 78q-61 -49 -141 -72.5t-154 -23.5q-43 0 -80 8t-62.5 27.5t-35.5 51zM250 -289q10 49 54 85t95 36t77.5 -36t16.5 -85q-10 -51 -53 -87t-94 -36t-79 36t-17 87zM317 170q-10 -43 8.5 -71.5t65.5 -28.5q23 0 47.5 10t46.5 26q23 16 32 32t22 38q10 18 17 48 t11 48q4 16 6.5 31t6.5 33q-41 -10 -82 -19.5t-78 -25t-64.5 -44t-38.5 -77.5z" />
<glyph unicode="&#x1ea2;" horiz-adv-x="1073" d="M-25 0l17 76q43 4 77.5 25.5t64.5 52t55.5 66.5t48.5 71l477 751h106l176 -862q6 -31 12.5 -50t17.5 -31.5t31.5 -17.5t55.5 -5l-14 -76h-496l14 76q10 0 24.5 -1t30 0t29 4t21.5 11q16 16 15 30.5t-5 31.5l-26 159h-361q-18 -33 -40.5 -67.5t-31.5 -71.5 q-6 -31 2.5 -49.5t27 -29.5t43 -14t48.5 -3l-14 -76h-406zM403 399h285l-65 351zM741 1130q59 57 93 103.5t44 89.5q8 47 -20.5 69.5t-102.5 32.5l13 56q154 0 219 -34t51 -104q-14 -63 -72.5 -112t-163.5 -101h-61z" />
<glyph unicode="&#x1ea3;" d="M82 66.5q-10 31.5 0 80.5q14 74 76.5 119t142.5 73t161 41t136 26q2 14 8 40.5t9 54t2 51t-9 34.5q-16 16 -38.5 22t-49.5 6t-55.5 -6t-54.5 -22q-14 -10 -8 -22.5t10 -20.5q12 -27 8 -49q-10 -47 -53 -70t-84 -23q-47 0 -73 30t-15 77q12 55 59 92t100 53 q53 18 102.5 25.5t100.5 7.5q59 0 125 -12t106 -47q45 -41 45.5 -89.5t-14.5 -111.5l-51 -233q-2 -14 -3 -27.5t-5 -26.5q-4 -20 2 -33.5t29 -13.5q8 0 18 5l18 9q18 14 33 0q4 -6 0 -18t-11 -24.5t-17.5 -22.5t-16.5 -14q-27 -23 -61.5 -35t-65.5 -12q-45 0 -82 18 q-41 25 -51 78q-61 -49 -141 -72.5t-154 -23.5q-43 0 -80 8t-62.5 27.5t-35.5 51zM317 170q-10 -43 8.5 -71.5t65.5 -28.5q23 0 47.5 10t46.5 26q23 16 32 32t22 38q10 18 17 48t11 48q4 16 6.5 31t6.5 33q-41 -10 -82 -19.5t-78 -25t-64.5 -44t-38.5 -77.5zM496 780 q59 57 93 103.5t44 89.5q8 47 -20.5 69.5t-102.5 32.5l13 56q154 0 219 -34t51 -104q-14 -63 -72.5 -112t-163.5 -101h-61z" />
<glyph unicode="&#x1ea4;" horiz-adv-x="1073" d="M-25 0l17 76q43 4 77.5 25.5t64.5 52t55.5 66.5t48.5 71l477 751h106l176 -862q6 -31 12.5 -50t17.5 -31.5t31.5 -17.5t55.5 -5l-14 -76h-496l14 76q10 0 24.5 -1t30 0t29 4t21.5 11q16 16 15 30.5t-5 31.5l-26 159h-361q-18 -33 -40.5 -67.5t-31.5 -71.5 q-6 -31 2.5 -49.5t27 -29.5t43 -14t48.5 -3l-14 -76h-406zM403 399h285l-65 351zM503 1112q96 117 134.5 162t87.5 94q23 25 48 35t64 10t56.5 -10t31.5 -31q23 -41 49.5 -102.5t65.5 -157.5l-43 -20l-192 182l-269 -182zM1006 1357q82 86 128 136.5t77 85.5q41 45 72.5 60 t72.5 15q35 0 59.5 -18t18.5 -45q-6 -33 -25.5 -53.5t-56.5 -40.5q-41 -23 -127 -66t-197 -100z" />
<glyph unicode="&#x1ea5;" d="M82 66.5q-10 31.5 0 80.5q14 74 76.5 119t142.5 73t161 41t136 26q2 14 8 40.5t9 54t2 51t-9 34.5q-16 16 -38.5 22t-49.5 6t-55.5 -6t-54.5 -22q-14 -10 -8 -22.5t10 -20.5q12 -27 8 -49q-10 -47 -53 -70t-84 -23q-47 0 -73 30t-15 77q12 55 59 92t100 53 q53 18 102.5 25.5t100.5 7.5q59 0 125 -12t106 -47q45 -41 45.5 -89.5t-14.5 -111.5l-51 -233q-2 -14 -3 -27.5t-5 -26.5q-4 -20 2 -33.5t29 -13.5q8 0 18 5l18 9q18 14 33 0q4 -6 0 -18t-11 -24.5t-17.5 -22.5t-16.5 -14q-27 -23 -61.5 -35t-65.5 -12q-45 0 -82 18 q-41 25 -51 78q-61 -49 -141 -72.5t-154 -23.5q-43 0 -80 8t-62.5 27.5t-35.5 51zM317 170q-10 -43 8.5 -71.5t65.5 -28.5q23 0 47.5 10t46.5 26q23 16 32 32t22 38q10 18 17 48t11 48q4 16 6.5 31t6.5 33q-41 -10 -82 -19.5t-78 -25t-64.5 -44t-38.5 -77.5zM331 798 q96 117 134.5 162t87.5 94q23 25 48 35t64 10t56.5 -10t31.5 -31q23 -41 49.5 -102.5t65.5 -157.5l-43 -20l-192 182l-269 -182zM854 1030q82 86 128 136.5t77 85.5q41 45 72.5 60t72.5 15q35 0 59.5 -18t18.5 -45q-6 -33 -25.5 -53.5t-56.5 -40.5q-41 -23 -127 -66 t-197 -100z" />
<glyph unicode="&#x1ea6;" horiz-adv-x="1073" d="M-25 0l17 76q43 4 77.5 25.5t64.5 52t55.5 66.5t48.5 71l477 751h106l176 -862q6 -31 12.5 -50t17.5 -31.5t31.5 -17.5t55.5 -5l-14 -76h-496l14 76q10 0 24.5 -1t30 0t29 4t21.5 11q16 16 15 30.5t-5 31.5l-26 159h-361q-18 -33 -40.5 -67.5t-31.5 -71.5 q-6 -31 2.5 -49.5t27 -29.5t43 -14t48.5 -3l-14 -76h-406zM403 399h285l-65 351zM503 1112q96 117 134.5 162t87.5 94q23 25 48 35t64 10t56.5 -10t31.5 -31q23 -41 49.5 -102.5t65.5 -157.5l-43 -20l-192 182l-269 -182zM827 1598q6 27 38 45t68 18q43 0 65.5 -13t47.5 -62 q16 -35 45 -92.5t66 -129.5l-35 -26q-106 72 -159.5 104.5t-92.5 61.5q-29 23 -39 41t-4 53z" />
<glyph unicode="&#x1ea7;" d="M82 66.5q-10 31.5 0 80.5q14 74 76.5 119t142.5 73t161 41t136 26q2 14 8 40.5t9 54t2 51t-9 34.5q-16 16 -38.5 22t-49.5 6t-55.5 -6t-54.5 -22q-14 -10 -8 -22.5t10 -20.5q12 -27 8 -49q-10 -47 -53 -70t-84 -23q-47 0 -73 30t-15 77q12 55 59 92t100 53 q53 18 102.5 25.5t100.5 7.5q59 0 125 -12t106 -47q45 -41 45.5 -89.5t-14.5 -111.5l-51 -233q-2 -14 -3 -27.5t-5 -26.5q-4 -20 2 -33.5t29 -13.5q8 0 18 5l18 9q18 14 33 0q4 -6 0 -18t-11 -24.5t-17.5 -22.5t-16.5 -14q-27 -23 -61.5 -35t-65.5 -12q-45 0 -82 18 q-41 25 -51 78q-61 -49 -141 -72.5t-154 -23.5q-43 0 -80 8t-62.5 27.5t-35.5 51zM317 170q-10 -43 8.5 -71.5t65.5 -28.5q23 0 47.5 10t46.5 26q23 16 32 32t22 38q10 18 17 48t11 48q4 16 6.5 31t6.5 33q-41 -10 -82 -19.5t-78 -25t-64.5 -44t-38.5 -77.5zM331 798 q96 117 134.5 162t87.5 94q23 25 48 35t64 10t56.5 -10t31.5 -31q23 -41 49.5 -102.5t65.5 -157.5l-43 -20l-192 182l-269 -182zM653 1270q6 27 38 45t68 18q43 0 65.5 -13t47.5 -62q16 -35 45 -92.5t66 -129.5l-35 -26q-106 72 -159.5 104.5t-92.5 61.5q-29 23 -39 41 t-4 53z" />
<glyph unicode="&#x1ea8;" horiz-adv-x="1073" d="M-25 0l17 76q43 4 77.5 25.5t64.5 52t55.5 66.5t48.5 71l477 751h106l176 -862q6 -31 12.5 -50t17.5 -31.5t31.5 -17.5t55.5 -5l-14 -76h-496l14 76q10 0 24.5 -1t30 0t29 4t21.5 11q16 16 15 30.5t-5 31.5l-26 159h-361q-18 -33 -40.5 -67.5t-31.5 -71.5 q-6 -31 2.5 -49.5t27 -29.5t43 -14t48.5 -3l-14 -76h-406zM403 399h285l-65 351zM503 1112q96 117 134.5 162t87.5 94q23 25 48 35t64 10t56.5 -10t31.5 -31q23 -41 49.5 -102.5t65.5 -157.5l-43 -20l-192 182l-269 -182zM1016 1304q59 57 93 103.5t44 89.5q8 47 -20.5 69.5 t-102.5 32.5l13 56q154 0 219 -34t51 -104q-14 -63 -72.5 -112t-163.5 -101h-61z" />
<glyph unicode="&#x1ea9;" d="M82 66.5q-10 31.5 0 80.5q14 74 76.5 119t142.5 73t161 41t136 26q2 14 8 40.5t9 54t2 51t-9 34.5q-16 16 -38.5 22t-49.5 6t-55.5 -6t-54.5 -22q-14 -10 -8 -22.5t10 -20.5q12 -27 8 -49q-10 -47 -53 -70t-84 -23q-47 0 -73 30t-15 77q12 55 59 92t100 53 q53 18 102.5 25.5t100.5 7.5q59 0 125 -12t106 -47q45 -41 45.5 -89.5t-14.5 -111.5l-51 -233q-2 -14 -3 -27.5t-5 -26.5q-4 -20 2 -33.5t29 -13.5q8 0 18 5l18 9q18 14 33 0q4 -6 0 -18t-11 -24.5t-17.5 -22.5t-16.5 -14q-27 -23 -61.5 -35t-65.5 -12q-45 0 -82 18 q-41 25 -51 78q-61 -49 -141 -72.5t-154 -23.5q-43 0 -80 8t-62.5 27.5t-35.5 51zM317 170q-10 -43 8.5 -71.5t65.5 -28.5q23 0 47.5 10t46.5 26q23 16 32 32t22 38q10 18 17 48t11 48q4 16 6.5 31t6.5 33q-41 -10 -82 -19.5t-78 -25t-64.5 -44t-38.5 -77.5zM331 798 q96 117 134.5 162t87.5 94q23 25 48 35t64 10t56.5 -10t31.5 -31q23 -41 49.5 -102.5t65.5 -157.5l-43 -20l-192 182l-269 -182zM854 954q59 57 93 103.5t44 89.5q8 47 -20.5 69.5t-102.5 32.5l13 56q154 0 219 -34t51 -104q-14 -63 -72.5 -112t-163.5 -101h-61z" />
</font>
</defs>
</svg>
