<?xml version="1.0" standalone="no"?>
<!DOCTYPE svg PUBLIC "-//W3C//DTD SVG 1.1//EN" "http://www.w3.org/Graphics/SVG/1.1/DTD/svg11.dtd" >
<svg xmlns="http://www.w3.org/2000/svg" xmlns:xlink="http://www.w3.org/1999/xlink" version="1.1">
<metadata></metadata>
<defs>
<font id="tf_uthongregular" horiz-adv-x="0" >
<font-face units-per-em="2048" ascent="1638" descent="-410" />
<missing-glyph horiz-adv-x="450" />
<glyph unicode="ffj" horiz-adv-x="1327" d="M27 594v61h123q-2 74 9 143.5t41.5 124t86 87t141.5 32.5q31 0 63.5 -7t59.5 -23.5t44 -41t17 -61.5q0 -35 -21.5 -59.5t-58.5 -24.5q-41 0 -64.5 34t-2.5 73q2 4 4 6t2 6q4 2 8 10t0 13q-4 6 -10 10q-16 10 -36.5 10t-37.5 -6q-37 -10 -58.5 -36.5t-33.5 -62.5t-16 -73 t-4 -68q0 -23 -1 -43t-1 -43h319q0 74 10.5 143.5t41 124t86 87t141.5 32.5q31 0 64.5 -7t60 -23.5t44 -41t17.5 -61.5q0 -35 -22.5 -59.5t-59.5 -24.5q-41 0 -63.5 34t-1.5 73q0 4 2 6t2 6q4 2 8 10q8 8 0 13q-4 6 -10 10q-16 10 -36 10t-36 -6q-37 -10 -59.5 -36.5 t-35 -62.5t-16.5 -73t-4 -68q0 -23 -1 -43t-1 -43h162v-61h-80h-82v-461q0 -35 2 -52.5t12.5 -23.5t30 -6t55.5 -2h39v-49h-383v49h35q16 4 39 3t35 14q6 23 6 44v44v440h-321v-461q0 -35 2 -52.5t12 -23.5t29.5 -6t56.5 -2h37v-49h-383v49h37q16 4 38.5 3t32.5 14 q8 23 8.5 44t0.5 44v440h-125zM480 594v61h123q-2 74 9 143.5t41.5 124t86 87t141.5 32.5q31 0 63.5 -7t59.5 -23.5t44 -41t17 -61.5q0 -35 -21.5 -59.5t-58.5 -24.5q-41 0 -64.5 34t-2.5 73q2 4 4 6t2 6q4 2 8 10t0 13q-4 6 -10 10q-16 10 -36.5 10t-37.5 -6 q-37 -10 -58.5 -36.5t-33.5 -62.5t-16 -73t-4 -68q0 -23 -1 -43t-1 -43h342l188 11v-537l-4 -111q0 -27 -2 -50t-8 -48q-10 -47 -28.5 -86t-53.5 -70q-29 -25 -72 -39t-84 -14q-25 0 -53.5 6.5t-52 19.5t-39 34.5t-15.5 52.5q0 51 36 72.5t81 1.5q23 -8 32 -29t3 -43 q-4 -10 -9 -21.5t-5 -21.5q10 -18 36 -19q10 2 21.5 5.5t21.5 7.5q35 23 46.5 66.5t15.5 84.5q2 41 2 82v82v406v27.5t-2 29.5q-6 18 -23.5 26.5t-39 10.5t-43 1t-35.5 1h-256v-461q0 -35 2 -52.5t12 -23.5t29.5 -6t56.5 -2h37v-49h-383v49h37q16 4 38.5 3t32.5 14 q8 23 8.5 44t0.5 44v440h-125z" />
<glyph unicode="fj" horiz-adv-x="872" d="M27 594v61h123q-2 74 9 143.5t41.5 124t86 87t141.5 32.5q31 0 63.5 -7t59.5 -23.5t44 -41t17 -61.5q0 -35 -21.5 -59.5t-58.5 -24.5q-41 0 -64.5 34t-2.5 73q2 4 4 6t2 6q4 2 8 10t0 13q-4 6 -10 10q-16 10 -36.5 10t-37.5 -6q-37 -10 -58.5 -36.5t-33.5 -62.5t-16 -73 t-4 -68q0 -23 -1 -43t-1 -43h342l188 11v-537l-4 -111q0 -27 -2 -50t-8 -48q-10 -47 -28.5 -86t-53.5 -70q-29 -25 -72 -39t-84 -14q-25 0 -53.5 6.5t-52 19.5t-39 34.5t-15.5 52.5q0 51 36 72.5t81 1.5q23 -8 32 -29t3 -43q-4 -10 -9 -21.5t-5 -21.5q10 -18 36 -19 q10 2 21.5 5.5t21.5 7.5q35 23 46.5 66.5t15.5 84.5q2 41 2 82v82v406v27.5t-2 29.5q-6 18 -23.5 26.5t-39 10.5t-43 1t-35.5 1h-256v-461q0 -35 2 -52.5t12 -23.5t29.5 -6t56.5 -2h37v-49h-383v49h37q16 4 38.5 3t32.5 14q8 23 8.5 44t0.5 44v440h-125z" />
<glyph unicode="&#xe24;&#xe32;" horiz-adv-x="1185" d="M74 553q0 2 3 22.5t14 51t32.5 65.5t56.5 63.5t87 48t126 19.5q86 0 146.5 -23.5t97.5 -61.5t54.5 -88t17.5 -103v-740l-76 -86h-47v834q0 82 -45 136t-148 57q-68 2 -109.5 -18.5t-65 -45.5t-31 -45.5t-7.5 -22.5l185 -14v-59q-43 0 -76 -27q-23 -20 -27 -50t-4 -44 v-178q12 4 49 7t74 -20q23 -12 37 -36.5t18 -52t-4 -56.5t-29 -51q-20 -23 -46.5 -32t-53.5 -10t-51.5 4t-40.5 13q-49 29 -62.5 68t-13.5 76v268q0 16 4 36.5t19 41.5q20 29 42.5 38t24.5 9zM244 122.5q0 -22.5 15 -42t46 -19.5t46.5 19.5t15.5 42t-15.5 42t-46.5 19.5 t-46 -19.5t-15 -42zM582 731q18 25 49 45q27 16 68.5 30.5t103.5 16.5q82 0 136 -21.5t86 -56t45 -76.5t13 -79v-783l-75 -86h-47v854q0 70 -37 121.5t-140 51.5q-57 0 -93 -18.5t-57.5 -41t-29.5 -41t-8 -20.5z" />
<glyph unicode="&#xe26;&#xe32;" horiz-adv-x="1280" d="M47 144.5q4 27.5 18.5 52t36.5 36.5q37 23 74 20t49 -7v176q0 16 4 36.5t19 41.5q20 29 42.5 38t24.5 9l-151 6q0 2 3 22.5t14.5 51t33 65.5t56 63.5t87 48t125.5 19.5q86 0 146.5 -23.5t97.5 -61.5t54.5 -88t17.5 -103v-740l-76 -86h-47v834q0 82 -45 136t-148 57 q-68 2 -109.5 -18.5t-65 -45.5t-31 -45.5t-7.5 -22.5l185 -14v-59q-43 0 -76 -27q-23 -20 -27 -47t-4 -59v-254q0 -37 -13 -76t-63 -68q-16 -8 -40.5 -13t-51 -4t-53.5 10t-47 32q-23 23 -30 51.5t-3 56zM117 124.5q0 -22.5 15 -42t46 -19.5t46.5 19.5t15.5 42t-15.5 42 t-46.5 19.5t-46 -19.5t-15 -42zM676 731q18 25 49 45q27 16 69 30.5t103 16.5q82 0 136 -21.5t86 -56t45.5 -76.5t13.5 -79v-783l-76 -86h-47v854q0 70 -37 121.5t-139 51.5q-57 0 -93 -18.5t-57.5 -41t-30 -41t-8.5 -20.5z" />
<glyph unicode="ff" horiz-adv-x="929" d="M27 594v61h123q-2 74 9 143.5t41.5 124t86 87t141.5 32.5q31 0 63.5 -7t59.5 -23.5t44 -41t17 -61.5q0 -35 -21.5 -59.5t-58.5 -24.5q-41 0 -64.5 34t-2.5 73q2 4 4 6t2 6q4 2 8 10t0 13q-4 6 -10 10q-16 10 -36.5 10t-37.5 -6q-37 -10 -58.5 -36.5t-33.5 -62.5t-16 -73 t-4 -68q0 -23 -1 -43t-1 -43h319q0 74 10.5 143.5t41 124t86 87t141.5 32.5q31 0 64.5 -7t60 -23.5t44 -41t17.5 -61.5q0 -35 -22.5 -59.5t-59.5 -24.5q-41 0 -63.5 34t-1.5 73q0 4 2 6t2 6q4 2 8 10q8 8 0 13q-4 6 -10 10q-16 10 -36 10t-36 -6q-37 -10 -59.5 -36.5 t-35 -62.5t-16.5 -73t-4 -68q0 -23 -1 -43t-1 -43h162v-61h-80h-82v-461q0 -35 2 -52.5t12.5 -23.5t30 -6t55.5 -2h39v-49h-383v49h35q16 4 39 3t35 14q6 23 6 44v44v440h-321v-461q0 -35 2 -52.5t12 -23.5t29.5 -6t56.5 -2h37v-49h-383v49h37q16 4 38.5 3t32.5 14 q8 23 8.5 44t0.5 44v440h-125z" />
<glyph unicode="fi" horiz-adv-x="860" d="M27 594v61h123q-2 74 9 143.5t41.5 124t86 87t141.5 32.5q31 0 63.5 -7t59.5 -23.5t44 -41t17 -61.5q0 -35 -21.5 -59.5t-58.5 -24.5q-41 0 -64.5 34t-2.5 73q2 4 4 6t2 6q4 2 8 10t0 13q-4 6 -10 10q-16 10 -36.5 10t-37.5 -6q-37 -10 -58.5 -36.5t-33.5 -62.5t-16 -73 t-4 -68q0 -23 -1 -43t-1 -43h168l264 15v-557q0 -33 2 -45.5t37 -14.5q23 -2 42 -4t37 0v-49h-370v49h39q16 4 35.5 3t35.5 9q10 23 10.5 47.5t0.5 49.5v340q0 20 1 39.5t-8 40.5q-6 10 -18 12t-25 4h-251v-461q0 -35 2 -52.5t12 -23.5t29.5 -6t56.5 -2h37v-49h-383v49h37 q16 4 38.5 3t32.5 14q8 23 8.5 44t0.5 44v440h-125z" />
<glyph unicode="fl" horiz-adv-x="854" d="M27 594v61h123q-2 74 9 143.5t41.5 124t86 87t141.5 32.5q45 0 86 -14l188 12v-942q0 -10 1.5 -18t5.5 -17q2 -4 7 -7t9 -3q16 -4 32.5 -3t33.5 -1h28v-49h-366v49h47t47 4q14 6 22 23q4 14 3 29.5t-1 29.5v699q0 78 -37.5 114.5t-93.5 36.5h-25t-20 -4 q-37 -10 -58.5 -36.5t-33.5 -62.5t-16 -73t-4 -68q0 -23 -1 -43t-1 -43h155v-61h-155v-461q0 -35 2 -52.5t12 -23.5t29.5 -6t56.5 -2h37v-49h-383v49h37q16 4 38.5 3t32.5 14q8 23 8.5 44t0.5 44v440h-125z" />
<glyph unicode="ffi" horiz-adv-x="1312" d="M27 594v61h123q-2 74 9 143.5t41.5 124t86 87t141.5 32.5q31 0 63.5 -7t59.5 -23.5t44 -41t17 -61.5q0 -35 -21.5 -59.5t-58.5 -24.5q-41 0 -64.5 34t-2.5 73q2 4 4 6t2 6q4 2 8 10t0 13q-4 6 -10 10q-16 10 -36.5 10t-37.5 -6q-37 -10 -58.5 -36.5t-33.5 -62.5t-16 -73 t-4 -68q0 -23 -1 -43t-1 -43h319q0 74 10.5 143.5t41 124t86 87t141.5 32.5q31 0 64.5 -7t60 -23.5t44 -41t17.5 -61.5q0 -35 -22.5 -59.5t-59.5 -24.5q-41 0 -63.5 34t-1.5 73q0 4 2 6t2 6q4 2 8 10q8 8 0 13q-4 6 -10 10q-16 10 -36 10t-36 -6q-37 -10 -59.5 -36.5 t-35 -62.5t-16.5 -73t-4 -68q0 -23 -1 -43t-1 -43h162v-61h-80h-82v-461q0 -35 2 -52.5t12.5 -23.5t30 -6t55.5 -2h39v-49h-383v49h35q16 4 39 3t35 14q6 23 6 44v44v440h-321v-461q0 -35 2 -52.5t12 -23.5t29.5 -6t56.5 -2h37v-49h-383v49h37q16 4 38.5 3t32.5 14 q8 23 8.5 44t0.5 44v440h-125zM478 594v61h123q-2 74 9 143.5t41.5 124t86 87t141.5 32.5q31 0 63.5 -7t59.5 -23.5t44 -41t17 -61.5q0 -35 -21.5 -59.5t-58.5 -24.5q-41 0 -64.5 34t-2.5 73q2 4 4 6t2 6q4 2 8 10t0 13q-4 6 -10 10q-16 10 -36.5 10t-37.5 -6 q-37 -10 -58.5 -36.5t-33.5 -62.5t-16 -73t-4 -68q0 -23 -1 -43t-1 -43h168l264 15v-557q0 -33 2 -45.5t37 -14.5q23 -2 42 -4t37 0v-49h-370v49h39q16 4 35.5 3t35.5 9q10 23 10.5 47.5t0.5 49.5v340q0 20 1 39.5t-8 40.5q-6 10 -18 12t-25 4h-251v-461q0 -35 2 -52.5 t12 -23.5t29.5 -6t56.5 -2h37v-49h-383v49h37q16 4 38.5 3t32.5 14q8 23 8.5 44t0.5 44v440h-125z" />
<glyph unicode="ffl" horiz-adv-x="1310" d="M27 594v61h123q-2 74 9 143.5t41.5 124t86 87t141.5 32.5q31 0 63.5 -7t59.5 -23.5t44 -41t17 -61.5q0 -35 -21.5 -59.5t-58.5 -24.5q-41 0 -64.5 34t-2.5 73q2 4 4 6t2 6q4 2 8 10t0 13q-4 6 -10 10q-16 10 -36.5 10t-37.5 -6q-37 -10 -58.5 -36.5t-33.5 -62.5t-16 -73 t-4 -68q0 -23 -1 -43t-1 -43h319q0 74 10.5 143.5t41 124t86 87t141.5 32.5q23 0 44 -3t42 -11l188 12v-942q0 -10 1 -18t5 -17q2 -4 7 -7t10 -3q16 -4 32.5 -3t32.5 -1h29v-49h-367v49h47.5t46.5 4q14 6 23 23q4 14 3 29.5t-1 29.5v699q0 78 -37 114.5t-94 36.5h-24.5 t-18.5 -4q-37 -10 -59.5 -36.5t-35 -62.5t-16.5 -73t-4 -68v-37.5t-2 -37.5v-11h162v-61h-162v-461v-4q0 -35 2 -50.5t12.5 -21.5t31 -6t54.5 -2h39v-49h-383v49h35q16 4 39 3t35 14q2 8 3 15t3 17q2 14 1 27.5t-1 28.5v440h-321v-461q0 -35 2 -52.5t12 -23.5t29.5 -6 t56.5 -2h37v-49h-383v49h37q16 4 38.5 3t32.5 14q8 23 8.5 44t0.5 44v440h-125z" />
<glyph unicode="[TEMPLATENCH]" horiz-adv-x="2344" d="M61 991v19h222v-19h-101v-254h-20v254h-101zM344 821q0 43 24.5 68.5t59.5 25.5q27 0 41 -10t21.5 -24.5t9.5 -29.5t2 -26h-140q0 -37 20.5 -54t49.5 -17q16 0 32.5 4t27.5 8l2 -16q-25 -12 -64 -13q-39 0 -62.5 23.5t-23.5 60.5zM365 842h118q0 12 -10 34.5t-47 22.5 q-31 0 -44 -19.5t-17 -37.5zM647 913h19l2 -30q16 33 57 32q18 0 31.5 -10t21.5 -26q16 37 62 36q6 0 16 -2t19.5 -10t16.5 -23.5t7 -41.5v-58q0 -10 4 -22q2 -8 4 -13h2l-18 -8q-4 4 -6 13q-4 16 -4 30v58q0 29 -13 45q-10 16 -34 16q-18 0 -35 -15.5t-17 -31.5v-107h-18 v101q0 53 -43 53q-18 0 -31.5 -11t-19.5 -26q-2 -4 -2 -16v-101h-19v125v21.5t-2 21.5zM1057 670q2 0 6 11t4 26v147v27.5t-2 27.5h18l2 -32q10 16 27.5 26t42.5 10q39 0 60.5 -25.5t21.5 -60.5q0 -45 -25.5 -68.5t-60.5 -23.5q-45 0 -66 31v-59q0 -8 -2 -14.5t-4 -12.5 q-4 -8 -6 -14zM1085 807q0 -4 1 -6t1 -6q4 -16 22.5 -29.5t41.5 -13.5q31 0 49.5 20t18.5 55q0 29 -17.5 49.5t-48.5 20.5q-23 0 -40 -11.5t-23 -33.5q-4 -8 -5 -14v-31zM1391 834v178h20v-170q0 -29 6 -57.5t43 -28.5l-2 -19q-45 2 -56 31t-11 66zM1581 782q0 29 26.5 46.5 t84.5 17.5h2v2q0 10 -6.5 29.5t-38.5 19.5q-23 0 -37.5 -5t-18.5 -7l-2 18q10 4 27.5 7t30.5 3q45 0 55 -25.5t10 -45.5v-62q0 -10 4 -26q0 -8 2 -15l-18 -4l-6 29q-8 -10 -23.5 -19.5t-38.5 -9.5h-8h-2q-12 2 -25 10q-10 8 -14 17.5t-4 19.5zM1602 784q0 -16 10 -24t24 -8 q25 0 38.5 11t19.5 21v11v32q-33 2 -62.5 -6t-29.5 -37zM1851 942l4 21h41v41l25 8v-49h70l-6 -21h-64v-139q0 -18 7 -31.5t26 -13.5q18 0 31 4l2 -21q-4 -2 -13.5 -4t-21.5 -2q-29 0 -41 19q-8 10 -11.5 23.5t-3.5 29.5v135h-45zM2105 821q0 43 24.5 68.5t59.5 25.5 q27 0 41.5 -10t21.5 -24.5t9 -29.5t2 -26h-139q0 -37 20.5 -54t48.5 -17q16 0 33 4t27 8l2 -16q-25 -12 -64 -13q-39 0 -62.5 23.5t-23.5 60.5zM2126 842h119q0 12 -10.5 34.5t-47.5 22.5q-31 0 -44 -19.5t-17 -37.5z" />
<glyph unicode="&#xd;" horiz-adv-x="452" />
<glyph unicode=" "  horiz-adv-x="450" />
<glyph unicode="&#x09;" horiz-adv-x="450" />
<glyph unicode="&#xa0;" horiz-adv-x="450" />
<glyph unicode="!" horiz-adv-x="544" d="M182 983q-4 41 25.5 65.5t68.5 24.5t67 -26.5t24 -67.5l-76 -672h-29zM184 88q0 35 22.5 63.5t69.5 28.5q45 0 69 -28.5t24 -63.5t-24 -63.5t-69 -28.5q-47 0 -69.5 28.5t-22.5 63.5z" />
<glyph unicode="&#x22;" horiz-adv-x="507" d="M86 637l84 295h109l-138 -295h-55zM248 637l84 295h108l-137 -295h-55z" />
<glyph unicode="#" horiz-adv-x="882" d="M133 307l10 60h162l39 192h-160l19 68l155 -2l56 249h80l-58 -249h129l56 241h81l-55 -241h174l-16 -64h-172l-43 -184h184l-16 -72l-178 2l-66 -307h-80l68 305h-131l-66 -305h-78l64 305zM383 371h131l41 190h-133z" />
<glyph unicode="$" horiz-adv-x="901" d="M126 206q-5 38 6 68.5t42 44.5q35 16 66.5 4t42.5 -38q10 -27 9 -51.5t-22 -40.5q-6 -6 -15 -9.5t-17 -5.5q-10 -2 -21 -2q2 -14 10 -26q6 -10 15.5 -22.5t25.5 -23.5q31 -20 55.5 -26t24.5 -2v344q-12 2 -29 10q-14 6 -32.5 15.5t-40.5 25.5q-35 20 -57.5 53t-28.5 72 t5 80t48 80q18 20 42 31.5t44 17.5t34.5 8t14.5 4v101h64v-95h86v95h63v-103q47 -8 88 -29q35 -18 69 -51t50 -86q10 -35 -1 -69.5t-56 -40.5q-39 -4 -68 21.5t-20 64.5q8 35 25.5 42t17.5 9q2 4 -8.5 20.5t-34.5 28.5q-18 10 -40 16.5t-22 3.5v-280q0 -2 14.5 -7t37 -15.5 t50 -27t54.5 -40.5q35 -31 51 -72t16 -83t-16 -81t-47 -69q-20 -20 -48 -32.5t-52.5 -20t-42 -10.5t-17.5 -5v-111h-63v109h-86v-109h-64v109q0 2 -12 5t-31.5 9t-44 18.5t-51.5 33.5q-35 27 -56.5 64.5t-26.5 75.5zM272 649q-4 -33 7.5 -54.5t27 -33.5t28.5 -17t13 -1v202 q0 2 -10 -3t-24.5 -17t-27 -31.5t-14.5 -44.5zM412 63h86v306l-86 34v-340zM412 518l86 -29v267q0 6 -41 6q-18 0 -31.5 -1t-13.5 -5v-238zM561 70l17 3q16 3 36.5 17t39 40t20.5 69q2 39 -15.5 65.5t-39 44t-39.5 24.5l-19 7v-270z" />
<glyph unicode="%" horiz-adv-x="1157" d="M91 455q3 43 20.5 88t42.5 84t59.5 72.5t72.5 54t80 24t83 -21.5q39 -23 53 -61t10 -83t-23.5 -90t-44.5 -84t-59.5 -72.5t-72.5 -54t-78.5 -22.5t-79.5 22q-39 25 -52.5 63t-10.5 81zM173 419.5q5 -24.5 30 -38.5q25 -16 49 -11t45.5 22.5t41 42t36.5 48.5 q14 25 29.5 54.5t21.5 57.5t0 51.5t-31 37.5t-47 8t-43.5 -22.5t-40.5 -40.5t-33 -49q-16 -25 -31.5 -53.5t-23.5 -55.5t-3 -51.5zM219 -94l602 987h86l-598 -987h-90zM644 225q3 43 20.5 88t42.5 84t60.5 73t74.5 54.5t79.5 23.5t77.5 -22q39 -25 52.5 -62.5t10.5 -81.5 t-21.5 -89t-43.5 -84t-59.5 -73t-72.5 -54.5t-79 -22.5t-79 23q-39 25 -52.5 62.5t-10.5 80.5zM726 190.5q5 -24.5 30 -38.5q25 -16 49 -11.5t45.5 22t41 42t36.5 49.5q14 25 28.5 52.5t21.5 55t2 51t-30 38.5q-25 14 -48 9t-43.5 -21.5t-40.5 -40t-34 -46.5 q-16 -25 -31.5 -53.5t-23.5 -56t-3 -52z" />
<glyph unicode="&#x26;" horiz-adv-x="845" d="M104 227q0 66 24 111t53.5 73.5t54 41t26.5 12.5q-27 25 -47 53q-18 25 -32.5 57.5t-12.5 73.5q4 78 61.5 128t151.5 48q84 -2 138 -44t59 -126q2 -49 -24 -88t-57.5 -65.5t-58.5 -39.5l-28 -13q0 -2 10 -13.5t23.5 -27t30 -34t28.5 -32.5q43 -49 68.5 -75.5t25.5 -28.5 q0 4 8 19t17 44q4 14 7 26.5t5 22.5t4 23l88 -54q-2 -14 -6 -28q-4 -12 -9 -27.5t-12 -32.5q-14 -35 -28.5 -52t-14.5 -19l152 -160h-129l-76 84q0 -2 -15.5 -17.5t-45 -32t-75 -30.5t-106.5 -12q-129 4 -193.5 70.5t-64.5 164.5zM229 223q4 -53 38 -94t116 -43 q37 0 64.5 10t47 23.5t30 25t10.5 13.5q-14 12 -33 30q-16 16 -38 40t-48 55q-14 16 -29.5 33.5t-30.5 33.5q-16 19 -32 37q-2 0 -18.5 -8t-35 -26.5t-32 -50.5t-9.5 -79zM279 645q0 -25 11 -48.5t23.5 -42.5t23.5 -31.5t13 -12.5t21.5 11t42 30.5t41 45t18.5 54.5 q0 41 -22.5 69t-75.5 28q-53 2 -74.5 -30t-21.5 -73z" />
<glyph unicode="'" horiz-adv-x="389" d="M98 637l84 295h109l-137 -295h-56z" />
<glyph unicode="(" horiz-adv-x="661" d="M113 410q0 121 32.5 218t81.5 171.5t107.5 129t108 88.5t83.5 49l33 15l27 -30q-100 -53 -178 -142q-33 -37 -65 -86t-56.5 -111.5t-40 -137t-15.5 -164.5q0 -115 28 -207t68 -164t88 -124t88 -85t67 -50l26 -16l-33 -26l-33 16q-34 17 -84.5 52.5t-108.5 89t-108.5 128 t-83 171t-32.5 215.5z" />
<glyph unicode=")" horiz-adv-x="661" d="M82 1055l33 26l33 -16q34 -16 84.5 -52t108.5 -89.5t108.5 -128t83 -171t32.5 -214.5q0 -121 -32.5 -218.5t-82 -172t-107.5 -129t-107.5 -88t-83 -50t-33.5 -14.5l-27 31q98 53 176 141q33 37 65 86t57.5 111.5t40.5 137t15 165.5q0 115 -27.5 207t-67.5 163.5 t-88 123.5t-88 85t-67 49z" />
<glyph unicode="*" horiz-adv-x="669" d="M72 811l39 68l176 -125l-21 215h78l-18 -215l176 125l39 -68l-199 -88l197 -90l-39 -66l-176 123l20 -215h-78l21 213l-174 -121l-39 66l196 90z" />
<glyph unicode="+" horiz-adv-x="821" d="M127 369v82h246v245h82v-245h245v-82h-245v-246h-82v246h-246z" />
<glyph unicode="," horiz-adv-x="454" d="M91 107.5q1 23.5 15 44.5q23 33 51.5 43t56.5 5t49.5 -18.5t29.5 -25.5q29 -47 35 -97.5t-4 -119.5q-8 -51 -37 -89t-59.5 -62t-53.5 -35l-24 -11l-27 37q0 2 13.5 7t32.5 17.5t40.5 33t36.5 48.5q12 23 16 46.5t4 42t-2 30.5t-4 12q0 2 -5 -2t-17.5 -9t-31 -6t-42.5 5 q-23 6 -39 21.5t-25.5 37t-8.5 45z" />
<glyph unicode="-" horiz-adv-x="821" d="M131 369v82h551v-82h-551z" />
<glyph unicode="." horiz-adv-x="407" d="M106 96q0 37 24 67t73 30t72.5 -30t23.5 -67t-23.5 -66.5t-72.5 -29.5t-73 29.5t-24 66.5z" />
<glyph unicode="/" horiz-adv-x="737" d="M121 0l434 819h102l-434 -819h-102z" />
<glyph unicode="0" horiz-adv-x="749" d="M78 412q0 74 14 146.5t49 129.5t91.5 94t140.5 41q84 2 140 -33.5t91 -95t49.5 -135.5t14.5 -149q0 -74 -14.5 -149t-48.5 -134t-91 -95t-141 -36t-141.5 38t-91.5 96t-48 133t-14 149zM201 410q0 -57 5 -119t23.5 -112t52 -84t91.5 -34q57 0 91 33t52.5 84t23.5 112.5 t5 119.5q0 57 -5 119.5t-23.5 114.5t-52.5 86t-91 32t-91 -36t-52.5 -85t-23.5 -112.5t-5 -118.5z" />
<glyph unicode="1" horiz-adv-x="749" d="M129 709v49q23 0 59.5 4t85.5 18q23 6 41.5 15.5t30.5 17.5q14 8 27 21h59v-719q0 -29 12 -43q14 -16 48 -17h90v-55h-422v55h92q31 0 45 17q12 14 12 43v594h-180z" />
<glyph unicode="2" horiz-adv-x="749" d="M109 0v43l6 19q6 18 26.5 49.5t56 75.5t95.5 100q45 41 80 73.5t60.5 62.5t42 57.5t26.5 58.5q8 25 11 53.5t-3 56t-22.5 52t-49.5 42.5q-25 14 -57.5 18.5t-65 -1.5t-61.5 -22.5t-43 -47.5q-16 -35 -12 -48t4 -17q2 0 23.5 5t45.5 -16q12 -12 18.5 -29.5t3.5 -36 t-15.5 -34.5t-34.5 -22q-47 -14 -72 4t-39 45q-14 29 -16 62.5t8 67.5t30.5 63.5t51.5 49.5q33 25 84 36t104.5 8t103.5 -21.5t81 -54.5q35 -41 47 -86t7 -89.5t-22.5 -84t-42.5 -66.5q-35 -41 -77.5 -77t-114.5 -91q-53 -41 -86 -71.5t-51.5 -51t-25.5 -31t-7 -12.5h278 q51 0 80 49q6 12 10.5 28.5t8.5 33.5q4 18 4 37h43l-13 -240h-509z" />
<glyph unicode="3" horiz-adv-x="749" d="M119 190q2 33 20.5 67t71.5 30q23 -2 38 -14.5t21 -29t5 -36t-9 -35.5q-10 -20 -32.5 -24.5t-26.5 -4.5q4 -6 11 -24.5t42 -36.5q18 -10 47 -15.5t60.5 -4.5t63.5 10.5t56 31.5q29 25 41.5 60t11.5 69.5t-13.5 67.5t-32.5 55q-29 29 -64 43.5t-65 18.5q-37 6 -74 0v53 q2 0 24.5 -1t52 3t60.5 13.5t51 29.5q35 35 41 87t-24 102q-16 25 -44 37t-60 15t-61.5 -1t-45.5 -15q-27 -16 -36 -29.5t-11 -17.5q6 0 21 -5t24 -34q10 -29 -6.5 -53t-49.5 -29q-43 -4 -62.5 27t-12.5 72q14 74 78.5 112.5t146.5 38.5q45 0 88 -10t76.5 -32.5t55 -57.5 t26.5 -82q8 -78 -41.5 -132t-120.5 -65q33 -6 66.5 -18t61 -35.5t45 -61.5t17.5 -93q2 -111 -72.5 -175.5t-199.5 -66.5q-55 0 -103.5 13t-84 38t-55 61.5t-17.5 83.5z" />
<glyph unicode="4" horiz-adv-x="749" d="M84 219v55l381 545h70v-530h112v-70h-112v-106q0 -8 1 -19.5t7 -21.5q10 -16 30 -17h70v-55h-354v55h84q20 0 30 15q8 10 8.5 20t0.5 23v106h-328zM176 289h236v336z" />
<glyph unicode="5" horiz-adv-x="749" d="M112 168q-3 27 3 51.5t22.5 42t44.5 21.5q53 6 70.5 -28t7.5 -69q-8 -27 -33.5 -33t-31.5 -6q2 -8 9 -24.5t29 -32.5q23 -16 50.5 -24.5t57.5 -8.5t57.5 8.5t47.5 22.5q47 33 62.5 89t9.5 122q-2 31 -10 63.5t-26.5 58t-48.5 42t-75 16.5q-41 0 -70.5 -11t-49 -25.5 t-29.5 -27t-10 -14.5l-47 5q4 16 13 70t19 147q12 92 13.5 137t1.5 61l19 -2q20 -2 49.5 -5t63.5 -5t64 -2q86 0 139.5 9t57.5 9l-1 -14q-1 -14 -7 -30.5t-21.5 -34t-46.5 -23.5q-33 -8 -77 -9t-85 1t-70 5l-30 3q-2 -20 -4 -41q-2 -16 -4 -34.5t-4 -35.5q-2 -18 -5.5 -39.5 t-6.5 -40t-5 -32.5l-2 -13q12 14 33 27q16 10 45 18.5t72 10.5q74 0 127 -24.5t85.5 -68.5t45 -104.5t2.5 -128.5q-16 -111 -92 -165t-187 -56q-78 0 -140 26.5t-91 98.5q-8 20 -11 47z" />
<glyph unicode="6" horiz-adv-x="749" d="M110 366.5q-1 49.5 3 94.5q8 96 41.5 174t95.5 129q31 25 73 41t88 19t91 -9t82 -43q16 -14 27.5 -34.5t13.5 -43t-6.5 -42t-30.5 -31.5q-29 -14 -61.5 -3t-43.5 41q-10 31 3.5 52.5t15.5 21.5q-4 8 -13 15q-13 12 -38 14q-66 4 -105 -22.5t-72 -86.5q-23 -41 -33 -81 t-13 -72.5t-3 -54v-23.5q0 2 7.5 13t20.5 26.5t33.5 31t51.5 25.5q70 20 145.5 4t122.5 -84q25 -37 38 -89t11 -106.5t-21.5 -104.5t-58.5 -83q-43 -37 -96 -52t-107.5 -10t-104.5 30.5t-85 72.5q-25 33 -40 78t-23 94t-9 98.5zM248 248q0 -35 9 -69t29.5 -59.5t51.5 -39.5 t72 -14q37 0 62.5 17t42.5 44t24.5 59.5t7.5 67.5t-7.5 69.5t-24.5 63.5t-45 46.5t-69 17.5t-70.5 -17.5t-48 -46.5t-26.5 -64.5t-8 -74.5z" />
<glyph unicode="7" horiz-adv-x="749" d="M115 549l32 274q41 -2 80 -4q35 -2 73 -2h73q41 0 88 1t88 3l94 4q0 -2 -4 -41t-45 -112q-31 -59 -53.5 -109.5t-39 -98.5t-27.5 -95t-21 -103q-6 -37 -11.5 -68.5t-7.5 -62.5t-3 -63.5t-1 -71.5h-141q0 4 2 32.5t9 75t19.5 103.5t34.5 121q29 82 63 151.5t64.5 121.5 t51 82t22.5 34h-258q-6 0 -31 -1t-41 -11t-27.5 -33t-11.5 -29l-22 -98h-49z" />
<glyph unicode="8" horiz-adv-x="749" d="M92 211q-4 53 13.5 93t45 67.5t60 44t61.5 22.5q-29 8 -57.5 25.5t-50 44.5t-32.5 61.5t-7 75.5q10 94 86 137t180 41q98 -2 157.5 -46t67.5 -122t-38 -129t-107 -63q51 -14 92 -43q35 -25 63.5 -67t32.5 -107q4 -115 -70.5 -184.5t-221.5 -65.5q-129 2 -200 59.5 t-75 155.5zM211 205q18 -133 180 -144q78 -4 128 41t46 117q-4 49 -40 82t-77.5 52.5t-77.5 27.5l-36 8q-61 -16 -96 -67t-27 -117zM221 639q0 -43 30 -71.5t64.5 -45t65.5 -22.5l31 -6q14 0 37.5 9t44 28.5t34 49t9.5 68.5q-6 47 -41 79t-107 34q-68 0 -118 -27.5 t-50 -95.5z" />
<glyph unicode="9" horiz-adv-x="749" d="M106.5 567q4.5 49 24 95.5t51.5 82.5q39 43 92.5 62.5t108.5 17.5t105.5 -24.5t82.5 -65.5q31 -41 49.5 -88t26.5 -98t8 -100.5t-4 -92.5q-8 -88 -34.5 -165.5t-96.5 -137.5q-29 -23 -71.5 -39t-91 -20t-97.5 5t-86 38q-16 12 -28.5 30.5t-16.5 40t3 42t30 36.5 q29 20 64.5 8t45.5 -49q8 -33 -4 -50t-12 -19q4 -2 17.5 -10.5t33.5 -10.5q72 -4 116 29t66 80q14 31 23.5 71.5t13.5 77.5t5 62.5t1 27.5q0 -4 -5 -16t-15 -28.5t-30.5 -34t-51.5 -27.5q-35 -12 -73 -12t-75.5 11t-71.5 32.5t-56 54.5q-29 39 -40.5 87t-7 97zM217 563 q0 -35 9.5 -69.5t27.5 -63.5t48 -46t71 -17q70 0 108.5 56t34.5 146q-2 37 -11 70t-27.5 58.5t-46.5 40t-66 14.5q-39 0 -67 -16.5t-46.5 -44t-26.5 -61.5t-8 -67z" />
<glyph unicode=":" horiz-adv-x="471" d="M145 96q0 37 24 67t73 30t72.5 -30t23.5 -67t-23.5 -66.5t-72.5 -29.5t-73 29.5t-24 66.5zM145 723q0 37 24 66.5t73 29.5t72.5 -29.5t23.5 -66.5t-23.5 -66.5t-72.5 -29.5t-73 29.5t-24 66.5z" />
<glyph unicode=";" horiz-adv-x="485" d="M87 103.5q1 23.5 15 43.5q23 33 51.5 43.5t56.5 5t49.5 -18.5t29.5 -25q29 -47 35 -97.5t-5 -120.5q-8 -51 -36.5 -89t-59 -61.5t-54.5 -34.5l-24 -11l-26 37q0 2 13 8t32.5 18.5t40 32t37.5 47.5q12 20 16 44t4 43.5t-2 31.5t-4 12q0 2 -5 -2t-17.5 -9t-31 -6t-42.5 5 q-23 6 -39.5 21.5t-25.5 37t-8 45zM96 723q0 37 23.5 66.5t73.5 29.5q49 0 72.5 -29.5t23.5 -66.5t-23.5 -66.5t-72.5 -29.5t-73 29.5t-24 66.5z" />
<glyph unicode="&#x3c;" horiz-adv-x="630" d="M61 403l459 281v-92l-325 -189l327 -184v-92z" />
<glyph unicode="=" horiz-adv-x="821" d="M119 254v88h602v-88h-602zM119 479v88h602v-88h-602z" />
<glyph unicode="&#x3e;" horiz-adv-x="630" d="M111 135v92l327 185l-325 188v92l458 -280z" />
<glyph unicode="?" horiz-adv-x="890" d="M142 757q-3 44 12.5 88t42.5 75q41 47 105.5 69.5t134 22.5t134 -20.5t103.5 -59.5q37 -37 54 -83t13 -93t-30.5 -89t-79.5 -73q-61 -35 -91 -73t-36 -79q-4 -23 -6 -52.5t-3 -55t-3 -42.5l-3 -18h-86l-6 136v52t6.5 39.5t20.5 37t39 43.5q27 25 52.5 43t47 39.5t34.5 49 t17 68.5q4 57 -44 102.5t-128 43.5q-53 -2 -99 -14.5t-79 -59.5q-16 -23 -21 -46.5t-6 -41.5t2 -29.5t7 -9.5q0 -4 3 3t11 16.5t21.5 18.5t33.5 9q55 0 75 -39t3 -78q-16 -39 -65 -50t-84 5q-49 23 -74 62t-28 83zM356 88q0 33 22.5 61.5t67.5 28.5q47 2 70 -26.5t23 -62.5 t-23.5 -62.5t-66.5 -28.5q-45 0 -69 28.5t-24 61.5z" />
<glyph unicode="@" horiz-adv-x="1042" d="M61 500q0 113 37 212t102.5 172.5t155.5 115.5t197 42q80 0 155.5 -27.5t139.5 -80.5q74 -59 110.5 -137t36.5 -181q0 -78 -22.5 -151.5t-71.5 -130.5q-18 -23 -44 -45.5t-55.5 -41t-59 -29.5t-58.5 -11q-49 0 -72.5 40t-27.5 87q-35 -53 -70 -85t-94 -32q-35 0 -69 16.5 t-56 45.5q-31 33 -42 69.5t-11 81.5q0 61 23.5 121.5t63.5 108t92 77t109 29.5q47 0 77 -28.5t40 -75.5l23 92h133l-105 -420q-4 -10 -4 -17.5v-17.5q0 -14 6.5 -27.5t22.5 -13.5t34.5 11.5t35 27.5t31 34.5t24.5 30.5q35 53 55.5 119t20.5 131q0 72 -32 133.5t-79 108.5 q-106 100 -250 100q-90 0 -167 -32.5t-134 -91t-89 -141.5t-32 -181q0 -102 34 -184t93.5 -139.5t139 -88t172.5 -30.5q98 0 182 54t137 142h90q-31 -63 -76 -115.5t-100 -89.5t-118.5 -57t-131.5 -20q-102 0 -193 37.5t-160 106.5t-109 165t-40 211zM377 381q0 -18 2 -38.5 t10 -39t21 -30t36 -11.5t42.5 14.5t36 36t29.5 45t21 41.5q18 47 32 106.5t14 106.5q0 35 -14.5 71t-53.5 36q-41 0 -72.5 -40t-55.5 -94.5t-36 -111.5t-12 -92z" />
<glyph unicode="A" horiz-adv-x="1019" d="M-12 0v63q59 2 93 30t54 81l342 868h55l375 -917q10 -25 22.5 -37t27 -17t33 -6.5t42.5 -1.5v-63h-432v63q29 2 59.5 2.5t59.5 6.5q10 2 19.5 11t9.5 19q0 12 -7 25l-82 205h-383q-10 -29 -20 -56.5t-20 -58.5q-8 -23 -13.5 -37t-5.5 -37q0 -29 14.5 -45t37 -23t47 -9.5 t46.5 -2.5v-63h-374zM303 403h328l-166 416z" />
<glyph unicode="B" horiz-adv-x="1019" d="M43 0v63q29 2 58.5 1t58.5 8q16 4 23 11t14 23q4 14 3 30t-1 32v719v20q-2 23 -11.5 30t-27.5 13q-59 6 -117 6v64h510q59 0 119.5 -8t111.5 -41q49 -33 80 -83t31 -110q0 -113 -72.5 -173t-177.5 -73q55 -4 108.5 -20t96.5 -47t69.5 -76t26.5 -108q0 -41 -13 -86 t-40 -76q-33 -39 -59.5 -54.5t-73.5 -33.5q-23 -8 -44.5 -12.5t-43.5 -8.5q-33 -4 -65 -6t-64 -2q-16 -2 -29.5 -2h-30.5h-440zM352 162q0 -39 4 -59.5t17.5 -28.5t37 -9.5t62.5 -1.5q53 0 116.5 5.5t110.5 33.5q41 25 58.5 74t17.5 94q0 78 -23.5 123t-65.5 67.5t-98.5 29 t-119.5 6.5q-29 0 -58.5 -1t-58.5 -3v-330zM352 559h60h53.5t63 2t61 7t49.5 14q57 27 76.5 72.5t19.5 105.5q0 47 -19.5 98t-64.5 74q-39 18 -92 22t-94 4q-18 0 -37.5 -1t-38.5 -5q-16 -8 -21.5 -14t-11.5 -23q-4 -12 -4 -24v-27v-305z" />
<glyph unicode="C" horiz-adv-x="1019" d="M63 485q0 106 29 201.5t96 177.5q68 82 153 130t196 48q72 0 139 -24.5t117 -73.5l57 88h53l21 -407l-62 -2q-10 33 -19 64.5t-22 64.5q-23 53 -43 90t-63 71q-76 63 -176 64q-86 0 -148.5 -46t-93.5 -122q-33 -82 -41 -160t-8 -164q0 -80 12 -159.5t46 -142t94.5 -101.5 t158.5 -39q74 0 128 24.5t93 66.5t63.5 99.5t35.5 124.5l65 -10q-25 -174 -126 -271t-279 -97q-106 0 -194.5 40.5t-151 109.5t-96.5 161t-34 194z" />
<glyph unicode="D" horiz-adv-x="1099" d="M41 0v63h45q20 2 39.5 2.5t38.5 0.5q8 2 20 10q16 23 15.5 51.5t-0.5 52.5v645q0 29 1 59.5t-16 55.5q-14 10 -20 10t-23 2l-98 4v64h467q82 0 151.5 -9.5t129 -37t106.5 -76.5t84 -129q31 -68 42 -133.5t11 -136.5q0 -68 -16.5 -137.5t-48 -131t-80.5 -110.5t-115 -76 q-39 -16 -70.5 -24.5t-63.5 -12.5t-65.5 -5t-74.5 -1h-459zM352 121q0 -23 5 -33t28 -18q8 -4 23.5 -5.5t32 -1.5h32.5h27q31 0 67.5 1.5t65.5 7.5q57 10 91 37.5t62 74.5q45 72 55.5 162t10.5 172q0 37 -2 73t-8 73q-12 86 -44 152.5t-116 105.5q-47 23 -96 28.5t-103 5.5 h-23.5t-31.5 -1t-30.5 -2t-20.5 -3q-12 -6 -15.5 -15t-7.5 -22q-2 -6 -2 -21v-24v-747z" />
<glyph unicode="E" horiz-adv-x="1019" d="M41 0v63h43q14 0 31.5 1.5t34 5.5t28.5 12t17 27q4 16 4 30.5v30.5v684v29.5t-2 29.5q-4 23 -15.5 30t-31.5 9q-27 4 -52.5 4h-54.5v64h852l18 -361h-59q-16 100 -39.5 160t-64.5 90.5t-104.5 38.5t-160.5 8h-50t-50 -4q-8 -4 -14 -6q-16 -10 -17.5 -30.5t-1.5 -38.5 v-316q16 -1 31 -1q95 0 143 33q56 38 64 161h63v-465h-63v18q-2 29 -8.5 58.5t-19.5 55t-34.5 44t-54.5 24.5q-29 6 -55.5 7.5t-55.5 1.5h-10v-381q0 -12 2 -17.5t13 -17.5q14 -10 30.5 -11t32.5 -1q23 -4 45.5 -5.5t46.5 -1.5q29 0 57.5 1.5t57.5 5.5q57 6 96 26.5t64.5 54 t41 76.5t27.5 95q4 12 6 25t7 30l57 -2l-27 -375h-868z" />
<glyph unicode="F" horiz-adv-x="942" d="M41 0v63q29 2 58.5 1t58.5 8l12 4t10 8q14 10 16.5 27.5t2.5 33.5v734v18t-4 16t-5.5 14.5t-5.5 10.5q-16 12 -33.5 13t-33.5 3q-18 0 -37 1t-37 1v64h840l18 -361l-59 -6q-6 43 -16.5 85t-26.5 83q-23 51 -53.5 79t-69.5 40t-83 14t-93 2q-25 0 -48.5 -1t-48.5 -1 q-23 -2 -34 -9t-15 -18.5t-3 -27.5t1 -35v-305h25q41 0 75 5q44 7 72.5 27.5t45 59.5t20.5 101h63v-463h-63v14q-4 47 -20.5 96.5t-61.5 73.5q-35 20 -76 20.5t-80 0.5v-373q0 -10 1 -19.5t12 -17.5q4 -4 11 -6t11 -6q31 -7 63 -7h8h18q27 0 52 -2v-63h-487z" />
<glyph unicode="G" horiz-adv-x="1099" d="M59 485q0 106 32 208t106 179q74 80 155.5 125t192.5 45q76 0 143.5 -23.5t120.5 -76.5l55 90h54l20 -397l-59 -2q-16 66 -42 127t-66 109.5t-96.5 78t-133.5 29.5q-92 0 -150.5 -46t-92.5 -114.5t-46 -151.5t-12 -157q0 -78 10 -158t45 -151q37 -74 103.5 -115 t146.5 -41q49 0 89 11.5t77 39.5q43 33 58 64.5t24 85.5q2 14 2 27.5v25.5v26.5t-3.5 28t-10.5 24.5t-21 15q-31 6 -61.5 7t-61.5 1v64h455v-64q-29 0 -56.5 -1t-56.5 -7q-29 -4 -33 -15t-8 -36v-360h-51l-56 131q-57 -68 -137 -99.5t-168 -31.5q-98 0 -187 41.5t-155 113.5 t-95.5 163t-29.5 187z" />
<glyph unicode="H" horiz-adv-x="1177" d="M41 0v63q18 0 45 2.5t51.5 7.5t43 13t18.5 25v800q0 20 -19.5 29.5t-45 12.5t-52.5 2t-41 1v64h469v-64h-27.5t-36 -1t-35 -2t-24.5 -3q-16 -2 -25.5 -14t-9.5 -27v-346h471v355q0 27 -26 32q-10 2 -27.5 4t-36 2h-36h-29.5v64h469v-64q-22 -1 -44 -1h-21q-32 1 -62 -5 q-16 -4 -24.5 -9t-8.5 -23v-807q0 -14 12 -24.5t29 -14.5q29 -8 57.5 -7t57.5 -2v-63h-467v63q16 2 41.5 1t51 2.5t44 13.5t20.5 35v374h-471v-383q0 -14 10.5 -24t26.5 -12q8 -2 25.5 -3t35 -2.5t34 -1.5h24.5v-63h-467z" />
<glyph unicode="I" horiz-adv-x="575" d="M53 0v63q23 2 62 1t59 8q29 10 33 26.5t4 44.5v738q0 18 -2 30.5t-14 28.5q-24 17 -55 17q-6 0 -13 -1q-20 -2 -37.5 -2t-34.5 2v64h467v-64h-57.5t-56.5 -4q-16 -4 -24.5 -10t-16.5 -22q-2 -10 -2 -22.5v-25.5v-733q0 -10 -1.5 -18t3.5 -19q4 -4 6 -10t8 -10 q14 -10 30.5 -14.5t35 -4.5t37 1.5t34.5 -1.5v-63h-465z" />
<glyph unicode="J" horiz-adv-x="786" d="M6 225q0 29 9.5 58.5t26.5 53t43 38t58 14.5q47 0 77 -26.5t30 -73.5q0 -43 -23.5 -72t-68.5 -29q-14 0 -26.5 3.5t-27.5 3.5q-8 0 -10 -2q-4 -8 -10 -9q-6 -12 -2 -25.5t13 -26.5t19.5 -25.5t18.5 -18.5q27 -23 61.5 -34t69.5 -11q63 0 108.5 33t63.5 94 q12 45 14.5 107.5t2.5 109.5v477v25.5t-4 23.5q-4 18 -11.5 26.5t-25.5 12.5q-31 4 -62 4h-61v64h471v-64q-25 0 -48.5 -1t-47.5 -1q-41 -4 -49.5 -25.5t-8.5 -58.5v-536q-2 -68 -12 -138.5t-57 -123.5q-45 -53 -112 -72.5t-136 -19.5q-57 0 -108.5 14t-90.5 45t-61.5 77 t-22.5 109z" />
<glyph unicode="K" horiz-adv-x="1099" d="M43 0v63q29 0 58.5 1.5t58.5 5.5q14 4 24.5 12t12.5 24q2 10 2 20.5v20.5v727v23.5t-4 22.5q-8 23 -20.5 26.5t-35.5 7.5q-25 2 -48 2h-48v64h465v-64q-31 0 -61.5 -1t-61.5 -5q-4 -4 -10 -6t-10 -6q-12 -18 -12.5 -37.5t-0.5 -40.5v-407l361 366q16 18 37.5 45t21.5 49 q0 16 -14.5 26.5t-30.5 12.5q-20 2 -40.5 3t-43.5 1v64h434v-64q-80 -4 -138 -35.5t-114 -89.5l-200 -198l338 -490q8 -10 14 -20t16 -21q10 -14 23.5 -21t30.5 -11q45 -6 88 -7v-63h-482v63h66t63 11q8 4 15 10q10 16 -3.5 35.5t-23.5 34.5l-252 368l-166 -170v-155 q0 -25 -1 -49.5t3 -49.5q4 -4 6 -9t7 -9q4 -4 9 -6t9 -4q8 0 14.5 -2t12.5 -2l96 -3v-63h-465z" />
<glyph unicode="L" horiz-adv-x="942" d="M49 0v63q27 2 51.5 2.5t49.5 2.5q41 2 47 25.5t6 53.5v754q0 23 -10 35q-4 4 -9.5 7t-9.5 7q-31 4 -62.5 5t-62.5 1v64h467v-64h-45t-45 -2q-14 0 -27.5 -1t-25.5 -11q-4 -4 -7.5 -10t-5.5 -10q-4 -10 -4 -22.5v-22.5v-719q0 -23 3 -50.5t30 -37.5q29 -4 60.5 -5.5 t62.5 -1.5q53 0 108.5 5.5t102.5 33.5q45 29 65.5 74t36.5 92q20 63 29 119l59 -2l-30 -385h-834z" />
<glyph unicode="M" horiz-adv-x="1333" d="M31 0v63q35 2 78 12.5t59 45.5q18 37 22.5 78t4.5 82v610q-2 23 -6.5 36t-26.5 25q-12 4 -24.5 4h-24.5h-78v64h362l275 -764l262 764h356v-64q-31 -2 -62.5 -2t-62.5 -4q-10 -4 -15 -9t-9 -17q-6 -23 -7 -47.5t-1 -47.5v-704q0 -23 6 -36t32 -17q29 -6 59 -7.5t58 -1.5 v-63h-465v63h33.5t34.5 3q55 2 71.5 15t16.5 66v799h-2l-320 -946h-53l-340 948h-2v-686q0 -49 4 -85t21.5 -60.5t50.5 -37.5t90 -16v-63h-397z" />
<glyph unicode="N" horiz-adv-x="1150" d="M27 0v63q25 4 49 6.5t47 12.5q27 10 41 33.5t21.5 53.5t8.5 60.5t1 55.5v624q-18 27 -43 36t-56 9q-16 2 -34.5 2h-34.5v64h295l565 -762v537q-4 88 -38 121.5t-124 39.5v64h397v-64q-51 -4 -82.5 -14t-48 -31.5t-23.5 -54.5t-10 -80v-796h-55l-637 864v-586q0 -41 4 -82 t33 -76q25 -18 59 -28q16 -4 36 -5t38 -4v-63h-409z" />
<glyph unicode="O" horiz-adv-x="1099" d="M63 508q0 102 36 198.5t100.5 171t153.5 119.5t196 45q209 0 352 -159q61 -72 98 -171.5t37 -193.5q0 -96 -37.5 -199.5t-97.5 -175.5q-68 -80 -158 -121.5t-194 -41.5q-109 0 -198 44t-152.5 117.5t-99.5 169t-36 197.5zM244 481q0 -74 14 -150.5t49 -141t93.5 -105.5 t148.5 -41q96 0 156.5 44t93 112.5t44 150.5t11.5 158q0 47 -1 86t-9 84q-12 68 -29.5 115t-64.5 100q-39 47 -88.5 65.5t-108.5 18.5q-66 0 -117 -20.5t-92 -71.5q-23 -29 -37 -53.5t-23.5 -50t-14.5 -53.5t-11 -62q-10 -47 -12 -92.5t-2 -92.5z" />
<glyph unicode="P" horiz-adv-x="942" d="M39 0v63h45h31.5t34 3.5t27.5 12.5t16 25q2 10 2 21.5t2 21.5v732q0 10 1 20t-3 21q-8 18 -28 25t-42.5 9t-46 1t-39.5 1v64h514q45 -2 88 -6t84 -19q92 -27 142.5 -94t50.5 -164q0 -113 -82 -192q-37 -39 -81 -56.5t-96 -27.5q-23 -4 -42 -5t-42 -3h-69q-41 0 -78 1 t-78 1v-281q0 -20 1 -47t11 -43q4 -6 10.5 -8t12.5 -6q20 -4 42 -4t44 -3h45v-63h-477zM350 518q35 0 68 -1t67 -1q61 0 109.5 9.5t82.5 35t52.5 68.5t18.5 110q0 104 -48.5 157.5t-152.5 57.5q-23 2 -47.5 2h-46.5q-16 0 -34 -1t-34 -5l-18 -6q-12 -10 -13.5 -24.5 t-3.5 -28.5v-373z" />
<glyph unicode="Q" horiz-adv-x="1099" d="M63 504q0 217 136 373q68 80 153.5 122.5t192.5 42.5q109 0 196.5 -40.5t159.5 -118.5q66 -74 100.5 -168t34.5 -193q0 -135 -58 -259t-167 -204q6 -14 11 -28.5t9 -28.5q6 -18 14.5 -40.5t20 -44t23.5 -41t29 -30.5q16 -4 24 -4q6 4 12.5 5t10.5 6q23 23 25.5 54.5 t6.5 59.5h60v-10l-2 -20q-2 -33 -14.5 -78t-34.5 -68q-27 -27 -59 -42t-70 -15q-55 0 -91 24.5t-57.5 62.5t-31 85t-11.5 92q-8 0 -20 -4q-55 -14 -119 -14q-104 0 -192.5 45t-153 118.5t-101.5 168t-37 192.5zM246 512q0 -43 4 -93t13 -100.5t26.5 -96.5t46.5 -79 q-3 20 -3 38q0 28 7 53q12 42 39 73t66.5 48.5t89.5 17.5q98 0 159.5 -62.5t81.5 -152.5q41 68 59.5 149.5t18.5 163.5q0 47 -1 90t-7 84q-6 82 -41 168q-35 78 -99.5 121t-150.5 43q-41 0 -83 -9.5t-77 -33.5q-29 -20 -55.5 -53t-42.5 -64q-12 -29 -22.5 -67.5t-16.5 -81.5 t-9 -84t-3 -72zM393 166q0 -68 47 -95.5t109 -27.5q29 0 59.5 6t59.5 17l12 6q0 41 -5 84t-21.5 76.5t-48.5 55t-83 21.5q-61 0 -95 -43t-34 -100z" />
<glyph unicode="R" horiz-adv-x="1019" d="M37 0v63q20 2 42 2q16 0 33 -1h9q34 0 61 20q4 4 6 10t5 10q4 10 4 21.5v21.5v725q0 16 -1 25.5t-6 26.5q-10 23 -24 24.5t-37 5.5l-90 2v64h514q59 0 121.5 -12.5t114 -42t84 -77.5t32.5 -120q0 -68 -29.5 -115t-77.5 -76.5t-106.5 -44t-116.5 -16.5q174 -18 218 -192 l24 -93q8 -35 16.5 -70.5t30.5 -64.5q29 -20 46.5 -8t26.5 38t11 54.5t2 44.5h58q0 -45 -7 -89t-27 -78.5t-54.5 -56t-90.5 -21.5q-29 0 -64.5 15t-51.5 40q-35 51 -45 115q-4 29 -6.5 52t-4.5 46q-4 59 -16 105t-36.5 78t-66.5 48.5t-108 18.5h-80v-353q0 -23 2 -44t31 -29 t59.5 -7t61.5 -2v-63h-467zM350 563q29 -2 59.5 -2h61.5q27 0 52.5 2t51.5 6q35 4 69 18.5t56 45.5q16 23 25.5 59.5t9.5 65.5q0 78 -31.5 133t-117.5 59q-78 6 -156 6q-8 0 -34.5 -3t-33.5 -9q-10 -16 -11 -35.5t-1 -36.5v-309z" />
<glyph unicode="S" horiz-adv-x="890" d="M72 387l61 4q0 -4 1 -8t1 -8q12 -70 41 -130.5t74 -105.5t104.5 -70.5t132.5 -25.5q47 0 89 10t77 41q31 25 50.5 58.5t19.5 74.5q0 33 -11.5 71t-33.5 60q-23 25 -49.5 36.5t-57.5 21.5l-143 37q-66 16 -126 33.5t-118 58.5q-47 37 -68.5 90t-21.5 113q0 141 86 217.5 t223 76.5q76 0 138.5 -23.5t122.5 -76.5l55 90h51l16 -368h-59q-14 59 -39.5 115.5t-65.5 100.5t-93.5 70.5t-120.5 26.5q-41 0 -80 -8t-70 -37q-29 -23 -44 -55.5t-15 -67.5q0 -39 14 -66.5t36.5 -47t53.5 -33t64 -21.5l229 -61q57 -16 99 -38t79 -71q35 -41 47.5 -89 t12.5 -101q0 -70 -29 -131.5t-84 -102.5q-47 -37 -110.5 -52t-123.5 -15q-16 0 -38.5 2t-46 6t-45 9t-35.5 11q-35 16 -68 35.5t-59 44.5l-62 -98h-53z" />
<glyph unicode="T" horiz-adv-x="942" d="M27 631l26 389h840l22 -393h-55q-10 53 -23.5 108.5t-35.5 102.5q-27 55 -75 86.5t-110 31.5q-18 0 -36.5 -5t-28.5 -23q-2 -14 -2 -29.5v-32.5v-704v-48t22 -38q27 -12 53.5 -12t55.5 -1h35v-63h-494v63l105 5q14 0 27.5 1t23.5 9q16 12 17 33.5t1 40.5v735v20.5 t-4 20.5q-8 18 -28.5 23t-38.5 5q-59 0 -102.5 -27.5t-74.5 -74.5q-23 -33 -35 -82t-20 -90q-4 -12 -6 -25.5t-4 -25.5h-55z" />
<glyph unicode="U" horiz-adv-x="1150" d="M25 956v64h471v-64q-33 -4 -65 -4t-64 -4q-10 -2 -20.5 -8t-10.5 -16v-568q0 -66 9 -126t63 -107q47 -43 98 -56.5t115 -13.5q70 0 135 31t100 94q16 29 27.5 73t11.5 79v452q0 94 -32 132t-132 42v64h397v-64q-59 0 -91.5 -17t-48 -47t-17.5 -71t-2 -90v-309 q0 -86 -12.5 -170t-73.5 -156q-55 -68 -137 -92t-166 -24q-35 0 -66 2t-65 8q-51 10 -95.5 28.5t-83.5 55.5q-51 49 -70.5 93t-19.5 109v611q0 16 -1 32.5t-19 26.5q-16 8 -45 8t-45 2h-45z" />
<glyph unicode="V" horiz-adv-x="1019" d="M-12 956v64h440v-64h-61q-27 0 -54.5 -4t-27.5 -39q0 -10 7 -30.5t11 -30.5l254 -645l209 561q10 27 19.5 55.5t9.5 57.5q0 27 -15.5 42t-37 23t-46 9t-43.5 1v64h379v-64q-10 1 -20 1q-60 1 -88 -31q-34 -36 -56 -101l-327 -845h-54l-350 876q-14 35 -24.5 55.5 t-24.5 30.5t-37.5 13t-62.5 1z" />
<glyph unicode="W" horiz-adv-x="1386" d="M8 956v64h395v-64h-27.5t-27.5 2q-29 0 -53 -6q-18 -10 -19 -28q0 -4 4.5 -20.5t8.5 -20.5l203 -639l172 567l-43 119q-10 20 -34 22t-44 4h-43v64h407v-64q-25 0 -49 -1t-49 -5q-16 -6 -18.5 -10t-8.5 -20q0 -18 6.5 -37t12.5 -37l190 -600l164 563q4 14 9 34.5t5 35.5 q0 29 -13 44t-32.5 22t-43 8t-44.5 3v64h342v-64q-41 -2 -65.5 -15t-41 -36.5t-26.5 -53.5t-20 -63l-242 -808h-55l-234 714l-209 -714h-59l-303 915q-8 23 -14.5 35t-15.5 18t-24.5 7t-39.5 1h-21z" />
<glyph unicode="X" horiz-adv-x="995" d="M-8 0v63q63 4 106 30t82 77l238 328l-279 399q-14 18 -23.5 30.5t-31.5 22.5q-23 6 -46.5 6h-45.5v64h434v-64l-86 -2q-35 -2 -37 -15t19 -42l188 -272l154 221q10 14 16 23.5t6 25.5q0 25 -12 37t-30.5 17t-39 5t-39.5 2v64h389v-64q-41 0 -69.5 -8t-52 -22.5t-44 -38 t-43.5 -53.5l-196 -271l293 -420q10 -14 19 -27.5t22 -23.5q16 -23 42.5 -23.5t51.5 -5.5h35v-63h-463v63l90 3h17.5t19.5 4q8 4 9 8t1 14q0 14 -10 29.5t-17 25.5l-200 289l-146 -200q-12 -18 -30.5 -47t-18.5 -52t6 -33t23 -26q23 -14 48.5 -13t51.5 -2v-63h-401z" />
<glyph unicode="Y" horiz-adv-x="995" d="M-18 956v64h452v-64h-45q-8 0 -22.5 1t-27.5 0t-25.5 -4t-14.5 -9q-6 -6 -5 -16t5 -19q2 -8 6 -15t8 -15l238 -379l168 295q6 14 13 27.5t13 29.5q4 16 5.5 32.5t-2.5 33.5q-12 16 -21 22q-29 10 -58.5 12t-60.5 4v64h400v-64q-80 -4 -119 -35.5t-76 -99.5l-225 -401 v-268q0 -29 2 -46.5t10 -26.5t24.5 -12.5t47.5 -3.5h80v-63h-486v63h43h31.5t38 3.5t33 9.5t18.5 22t4 35v35v240l-284 450q-10 18 -31 49t-43 39q-29 10 -60 10h-34z" />
<glyph unicode="Z" horiz-adv-x="864" d="M35 0v55l579 901h-192q-84 0 -133 -18t-78 -55t-45 -92.5t-33 -128.5h-57l24 358h701v-53l-584 -904h219q47 0 96.5 6.5t90.5 28.5q45 27 62 65t34 83q12 35 18 80q8 31 13 65l63 -4l-27 -387h-751z" />
<glyph unicode="[" horiz-adv-x="471" d="M94 -154v1174l324 -2v-43h-221v-1086l223 5v-41z" />
<glyph unicode="\" horiz-adv-x="856" d="M104 1042h121l527 -1042h-121z" />
<glyph unicode="]" horiz-adv-x="471" d="M51 -104l221 -5v1086h-219v41l324 4v-1176l-326 7v43z" />
<glyph unicode="^" horiz-adv-x="856" d="M74 449l299 571h110l299 -571h-114l-240 438l-240 -438h-114z" />
<glyph unicode="_" horiz-adv-x="706" d="M0 -102h707v-86h-707v86z" />
<glyph unicode="`" horiz-adv-x="741" d="M238 1059q0 20 16 37.5t43 17.5q29 0 49.5 -12t42.5 -51q25 -39 59 -90.5t89 -133.5l-29 -22q-74 59 -133.5 103t-85.5 69q-29 23 -40 37t-11 45z" />
<glyph unicode="a" horiz-adv-x="786" d="M61 147q0 70 50.5 116t121 76t146.5 44t129 23q4 25 2 49t-2 51q-4 66 -49 86t-103 20q-29 0 -63.5 -4t-56.5 -24q-12 -10 -10.5 -19.5t10.5 -21.5q6 -12 13 -26.5t7 -31.5q0 -37 -22.5 -53t-57.5 -16q-39 0 -56.5 26.5t-17.5 61.5q0 47 32 83t71 54q47 20 85 28.5 t87 8.5q35 0 69.5 -5t65.5 -16q43 -16 67.5 -36.5t38 -47t16.5 -59.5t3 -74l-4 -243v-30.5t2 -31.5q0 -14 6 -31.5t23 -25.5q18 -16 45 -8q18 8 41 14q18 -2 18 -21q-12 -35 -51 -55t-76 -20q-53 0 -82 26.5t-43 77.5q-47 -57 -114.5 -84.5t-139.5 -27.5q-82 0 -141.5 38.5 t-59.5 128.5zM201 160q0 -51 35.5 -81t82.5 -30q45 0 87.5 22.5t68.5 57.5q29 39 31 76t2 82v61q-41 -8 -94.5 -17t-100.5 -27.5t-79.5 -52.5t-32.5 -91z" />
<glyph unicode="b" horiz-adv-x="786" d="M12 969v59l238 14v-483q29 55 81 87t113 32q37 0 72 -11.5t66 -29.5q78 -47 115.5 -129t37.5 -172q0 -72 -18.5 -135.5t-63.5 -116.5q-41 -47 -97 -75.5t-122 -28.5q-139 0 -217 114l-70 -114h-51q10 37 13.5 76.5t7.5 80.5l4 84v680q0 29 -4 43t-15.5 19.5t-29 5.5 h-41.5h-19zM244 311q0 -49 9 -98t30.5 -87t59.5 -62.5t93 -24.5q47 0 77 28.5t47.5 69.5t23.5 89t6 87q0 43 -5 93.5t-23.5 95.5t-52.5 74.5t-89 29.5t-90 -29.5t-54.5 -74.5t-25.5 -96.5t-6 -94.5z" />
<glyph unicode="c" horiz-adv-x="626" d="M47 305q0 78 20.5 145.5t60.5 119t101.5 80t145.5 28.5q88 0 155 -55q23 -20 39.5 -47t16.5 -58q0 -41 -18.5 -70.5t-65.5 -29.5q-35 0 -59.5 19.5t-24.5 56.5q0 23 7 34t17 25q2 4 7.5 11t5.5 11q0 12 -10.5 20.5t-23.5 14.5t-26.5 8.5t-21.5 2.5q-53 0 -88 -28 t-55.5 -70t-28.5 -91t-8 -92q0 -49 8 -98t29.5 -89t58.5 -65t96 -25q66 0 104.5 42t61.5 100l51 -21q-23 -63 -62.5 -116.5t-107.5 -73.5q-23 -6 -48.5 -10t-47.5 -4q-68 0 -121 27.5t-90 72.5t-57.5 104.5t-20.5 120.5z" />
<glyph unicode="d" horiz-adv-x="811" d="M61 319q0 63 15.5 127t54.5 117q37 51 92.5 83t118.5 32q61 0 112.5 -28.5t84.5 -82.5v344q0 23 -13 43q-16 10 -33.5 11.5t-33.5 1.5t-31.5 1t-32.5 1v59l273 14v-909q0 -27 4 -41t14 -20t26.5 -8.5t41.5 -2.5l28 -2v-59l-243 -14v123q-6 -10 -11.5 -23.5t-15.5 -24.5 q-27 -43 -73 -62t-95 -19q-68 0 -119 26.5t-94 77.5q-39 47 -54.5 109.5t-15.5 125.5zM205 326q0 -51 4 -95.5t27 -87.5q18 -41 52 -65.5t81 -24.5q51 0 83.5 25.5t52 65.5t27 87.5t7.5 90.5q0 41 -7.5 97t-25.5 91q-20 41 -53 66.5t-82 25.5q-53 0 -85 -27.5t-50.5 -69.5 t-24.5 -90t-6 -89z" />
<glyph unicode="e" horiz-adv-x="706" d="M49 317q0 70 21.5 135.5t63.5 115.5t100.5 80t132.5 30q78 0 136 -39t99 -104q23 -35 31 -75t16 -81q4 -16 4 -30.5t2 -31.5h-460v-18q0 -40 7 -78q9 -47 33.5 -85t63.5 -61.5t96 -23.5q61 0 104.5 24.5t78.5 71.5q4 8 8 15.5t8 15.5q4 4 7 11.5t7 13.5l49 -27 q-43 -98 -111.5 -147t-174.5 -49q-70 0 -131.5 21.5t-108.5 74.5q-49 53 -65.5 111.5t-16.5 129.5zM197 377h237q37 0 55.5 4t18.5 47q0 35 -8 68.5t-24.5 61.5t-45.5 45.5t-68 17.5q-47 0 -78.5 -24t-50 -60.5t-26.5 -79.5t-10 -80z" />
<glyph unicode="f" horiz-adv-x="471" d="M27 594v61h123v23q0 62 9 120q11 70 41.5 124.5t86 87t141.5 32.5q31 0 63.5 -7t59.5 -23.5t44 -41t17 -61.5q0 -35 -21.5 -59.5t-58.5 -24.5q-41 0 -64 34q-13 18 -13 37q0 18 10 36q2 4 4 6t2 6q4 2 8 10t0 13q-4 6 -10 10q-16 10 -36.5 10t-37.5 -6 q-37 -10 -58.5 -36.5t-33.5 -62.5t-16 -73t-4 -68q0 -23 -1 -43t-1 -43h155v-61h-155v-461q0 -35 2 -52.5t12 -23.5t29.5 -6t56.5 -2h37v-49h-383v49h37q16 4 38.5 3t32.5 14q8 23 8.5 44t0.5 44v440h-125z" />
<glyph unicode="g" horiz-adv-x="759" d="M33 -135q0 25 16.5 48.5t34.5 39.5q18 14 35.5 21.5t40.5 13.5l12 4q-49 8 -77.5 41t-28.5 84q0 61 36.5 91t90.5 46l12 4q-63 27 -93 76t-30 117q0 51 23.5 97t64.5 75q41 31 89 43t97 12t94.5 -12.5t86.5 -42.5q29 29 62.5 52t74.5 23q35 0 63.5 -19.5t28.5 -55.5 q0 -39 -28 -59q-17 -11 -36 -11q-13 0 -28 6q-25 10 -31 33q-4 16 -6 26q-4 6 -8 6.5t-15 -1.5q-4 -4 -9 -5.5t-9 -5.5l-25 -24q31 -27 42.5 -64t11.5 -73q0 -63 -27 -112.5t-82 -80.5q-53 -29 -108.5 -33t-112.5 -6q-16 0 -40 -1t-45.5 -7t-36.5 -18.5t-15 -34.5 q0 -53 51 -54q29 0 59.5 -1t59.5 -1q23 0 42 -1t42 -1q29 0 57.5 -1t56.5 -3q68 -2 113 -46t45 -113q0 -68 -29.5 -111t-77 -68.5t-103.5 -36t-112 -10.5q-41 0 -97 3t-107.5 17.5t-88 46.5t-36.5 87zM147 -135q0 -41 31 -60.5t66 -27.5t64.5 -9t64.5 -1q33 0 72.5 8 t68.5 20t51.5 38t22.5 58q0 47 -35 68t-76 25q-20 4 -39.5 4h-40.5q-79 0 -159 -6q-37 -16 -64 -44t-27 -73zM207 449q0 -74 33.5 -126.5t115.5 -52.5q76 0 110 53.5t34 120.5q0 76 -31 127.5t-115 51.5q-76 0 -111.5 -52.5t-35.5 -121.5z" />
<glyph unicode="h" horiz-adv-x="864" d="M20 969v59l256 14v-505q31 61 92.5 101t133.5 40q55 0 103 -22.5t79 -69.5q29 -41 35 -89t6 -98v-264q0 -14 -1 -36.5t3 -32.5t14.5 -11.5t18.5 -1.5l78 -4v-49h-359v49h37q14 4 27.5 3t27.5 3q10 0 15.5 11.5t6.5 24.5t1 27.5v20.5v264q0 35 -3 68t-22 61 q-18 27 -44.5 42.5t-59.5 15.5q-106 0 -158 -96q-25 -47 -26.5 -89.5t-6.5 -95.5v-164q0 -23 1 -43t10 -41q10 -8 28 -8l74 -4v-49h-356v49h30q12 4 25.5 4h26.5q8 2 20 8q14 12 14 30v34v780q0 23 -5 39.5t-36 20.5q-20 0 -41.5 2t-44.5 2z" />
<glyph unicode="i" horiz-adv-x="444" d="M25 582v59l264 14v-542q0 -33 3 -45.5t38 -14.5q20 -2 39.5 -4t38.5 0v-49h-371v49h39q16 4 35.5 3t35.5 9q10 23 11.5 47.5t1.5 49.5v325v40t-6 40q-8 10 -20.5 12.5l-22.5 4.5zM135 932q0 33 25.5 56.5t56.5 23.5q35 0 59.5 -24.5t24.5 -59.5q0 -33 -25.5 -57.5 t-58.5 -24.5q-35 0 -58.5 25.5t-23.5 60.5z" />
<glyph unicode="j" horiz-adv-x="417" d="M-117 -176q0 51 36 72q19 12 40 12q19 0 41 -10q23 -8 32 -29t3 -43q-4 -10 -9.5 -21.5t-5.5 -21.5q10 -18 37 -19q10 2 21.5 5.5t21.5 7.5q35 23 46.5 66.5t15.5 84.5q2 41 2 82v82v393v27.5t-2 30.5q-6 18 -23.5 26.5t-39 10.5t-43 1t-36.5 1v59l275 14v-526l-4 -111 q0 -27 -2 -50t-8 -48q-10 -47 -29 -86t-53 -70q-29 -25 -72 -39t-84 -14q-25 0 -53.5 6.5t-52 19.5t-39 34.5t-15.5 52.5zM143 932q0 35 23.5 57.5t58.5 22.5t58.5 -22.5t23.5 -57.5t-23.5 -59.5t-58.5 -24.5t-58.5 24.5t-23.5 59.5z" />
<glyph unicode="k" horiz-adv-x="837" d="M20 969v59l256 14v-706l199 192q14 12 24.5 22.5t10.5 31.5q0 10 -10.5 15t-23.5 7t-26.5 2h-19.5h-35v49h369v-49h-9t-10 -2q-66 -4 -108.5 -30.5t-89.5 -67.5l-88 -84l184 -252q39 -53 76 -87t110 -34v-49h-372v49q18 2 36.5 3t36.5 1q6 2 15 6q12 12 0 29 q-4 8 -10.5 14.5t-10.5 14.5l-157 223l-91 -82v-133q0 -16 1.5 -42t23.5 -30q12 -2 25.5 -1t25.5 -3h31v-49h-350v49h35q8 2 21 2t24.5 2t20.5 8.5t11 18.5q2 10 2 22.5v22.5v760q0 16 -1 37.5t-17 31.5q-18 10 -46 11.5t-48 3.5h-15z" />
<glyph unicode="l" horiz-adv-x="444" d="M27 969v59l262 14v-944q0 -10 1 -18t5 -17q2 -4 7 -7t9 -3q16 -4 32.5 -3t33.5 -1h29v-49h-367v49h47.5t46.5 4q14 6 23 23q4 14 3 29.5t-1 29.5v774q0 14 -1 23.5t-12 21.5q-16 14 -38.5 13.5t-43.5 1.5h-36z" />
<glyph unicode="m" horiz-adv-x="1255" d="M33 582v59l250 14v-108q29 57 87 94t124 37q72 0 123 -39t65 -92l4 -15l8 15q25 39 54.5 64.5t59.5 41t55.5 20.5t43.5 5q23 0 51.5 -7t56 -22.5t49 -40t32.5 -61.5q8 -23 13 -43.5t5 -44.5v-371q2 -6 4 -13t6 -14q10 -10 32 -10t36 -2h35v-49h-350v49q20 -2 39.5 1 t39.5 5q25 2 27 28t2 42v283q0 37 -2 58t-6 38q-12 47 -46 68.5t-63 21.5q-45 0 -79.5 -24.5t-57.5 -65.5q-20 -39 -25.5 -83t-5.5 -85v-234q0 -23 7.5 -34t17.5 -14t25.5 -3h33.5l25 -2v-49h-348v49q20 2 39.5 3t40.5 1q27 0 28.5 25.5t1.5 44.5v285q0 37 -2 58t-6 38 q-14 47 -47 68.5t-61 21.5q-45 0 -81 -24.5t-57 -65.5q-23 -39 -26.5 -83t-3.5 -85v-199q0 -12 1 -24.5t1 -24.5q4 -29 26 -33q12 -4 25.5 -3t26.5 -1l28 -2v-49h-354v49l27 2q12 2 25 2h28q16 0 24.5 11.5t11.5 26.5t2 31.5t-1 27.5v333q0 20 -1 40t-7 40q-6 10 -17.5 12.5 t-21.5 4.5z" />
<glyph unicode="n" horiz-adv-x="864" d="M39 0v49h35q16 4 34.5 3t34.5 9q6 4 8.5 12.5t2.5 14.5v395v40t-7 40q-6 10 -16 12.5t-20 4.5l-72 2v59l242 14v-118q53 88 112.5 114.5t106.5 26.5q23 0 52.5 -6t59 -22.5t55 -44t40.5 -68.5q10 -25 14 -56.5t4 -79.5v-303q0 -6 1 -11t1 -11q0 -10 8 -15.5t17 -7.5h30.5 t30.5 -2l25 -2v-49h-357v49q16 -2 33.5 0t36.5 4q8 0 18.5 2t16.5 8q4 2 4 6.5t4 8.5v20v308q0 39 -2 59t-4 35q-6 43 -44 68.5t-85 25.5q-45 0 -84 -26.5t-62 -67.5t-25.5 -80t-2.5 -84v-236v-11t2 -13q0 -12 10 -17.5t23.5 -6.5t27.5 -1h23l28 -2v-49h-360z" />
<glyph unicode="o" horiz-adv-x="706" d="M47 322q0 76 17.5 131t64.5 114q41 49 96.5 80t120.5 31q76 0 134.5 -30t98 -79t60 -113.5t20.5 -133.5q0 -72 -20.5 -133.5t-60 -108.5t-98 -73.5t-132.5 -26.5q-72 0 -128 28.5t-94 75.5t-58.5 108.5t-20.5 129.5zM193 322q0 -37 5 -87.5t21.5 -95.5t47 -75.5 t81.5 -30.5q55 0 89 28.5t50.5 72.5t21.5 94.5t5 93.5q0 55 -3 99t-22 97q-18 45 -50 74t-85 29q-55 0 -86.5 -31t-49 -77t-21.5 -98.5t-4 -92.5z" />
<glyph unicode="p" horiz-adv-x="811" d="M39 582v59l237 14l-2 -110q31 59 84.5 96t118.5 37q137 0 221 -133q20 -39 29.5 -63.5t15.5 -49.5q12 -49 13 -106q0 -61 -18.5 -123t-53.5 -112t-88 -80.5t-121 -30.5q-59 0 -110.5 26.5t-83.5 77.5v-272q0 -35 10 -41.5t45 -10.5h65v-49h-358v49h27l39 4q16 2 27 7.5 t11 25.5q2 12 3.5 24.5t1.5 24.5v686q-6 41 -29 43.5t-57 6.5h-27zM281 313q0 -43 7 -88t29 -82q20 -37 53 -62.5t79 -25.5q53 0 84.5 29t49 70t23.5 89t6 89q0 29 -2 52.5t-6 51.5q-10 66 -46.5 115t-108.5 49q-55 0 -88 -28.5t-50.5 -71.5t-23.5 -93.5t-6 -93.5z" />
<glyph unicode="q" horiz-adv-x="786" d="M51 317q0 70 20.5 134.5t60.5 114.5t98.5 81t131.5 31q59 0 119 -34t88 -87l66 98h53q-4 -25 -12 -63.5t-12 -81.5v-676q0 -39 4 -55.5t45 -18.5h61v-49h-362v49h28q33 0 52.5 1t28.5 9.5t11.5 26t2.5 49.5v242q-33 -57 -82.5 -82.5t-112.5 -25.5q-72 0 -125 28.5 t-98 85.5q-35 47 -50.5 105.5t-15.5 117.5zM195 326q0 -51 6 -97.5t28 -91.5q20 -39 56.5 -61.5t76.5 -22.5q57 0 92 30t53.5 74t24 95t5.5 96q0 41 -7.5 88t-27 87t-53 66.5t-84.5 26.5q-57 0 -91 -29.5t-51.5 -72.5t-22.5 -94t-5 -94z" />
<glyph unicode="r" horiz-adv-x="626" d="M29 582v59l250 14v-200q12 41 30.5 80.5t46 71.5t64.5 51.5t84 19.5t78.5 -32t31.5 -79q0 -41 -21.5 -68.5t-62.5 -27.5q-33 0 -53 22.5t-20 53.5q0 35 20 57q2 4 4 6t4 6q-66 -8 -104.5 -60t-61 -121.5t-29.5 -144.5t-7 -128v-42.5t4 -39.5q2 -14 14 -20.5t27.5 -8.5 t31 -2h25.5h37v-49h-381v49q12 2 25.5 3t25.5 1q27 0 40 3t19.5 12.5t7.5 25t1 41.5v391q-10 45 -39 50.5t-64 5.5h-28z" />
<glyph unicode="s" horiz-adv-x="653" d="M72 -14v268h53q25 -94 82 -156.5t162 -62.5q23 0 48 7t45.5 20.5t34 34t13.5 46.5q0 39 -18.5 60.5t-53.5 36.5q-37 14 -67.5 20t-67.5 16q-14 4 -28.5 6.5t-30.5 6.5q-35 10 -68 23.5t-55 41.5q-23 29 -31 60.5t-8 66.5q0 92 57.5 144.5t149.5 52.5q47 0 91 -14.5 t81 -45.5l43 54h45v-236h-49q-23 78 -73 131.5t-138 53.5q-47 0 -88 -25t-41 -78q0 -29 15 -47t36.5 -30.5t47.5 -18.5t48 -10l82 -17q47 -10 82 -21.5t70 -43.5q53 -51 53 -135q0 -53 -15.5 -91t-56.5 -75q-29 -23 -75 -36t-82 -13q-53 0 -104.5 16t-92.5 51l-49 -61h-47z " />
<glyph unicode="t" horiz-adv-x="548" d="M25 594v61q57 4 93 33t56.5 70t28.5 90t12 94h55v-287h211v-61h-211v-424q0 -16 2 -34.5t11.5 -35t28 -28t50.5 -11.5q33 0 54.5 20.5t34 49.5t16.5 62.5t4 60.5h57q0 -55 -9 -105.5t-33.5 -87t-66.5 -59t-104 -22.5q-74 0 -124 43t-50 108v463h-116z" />
<glyph unicode="u" horiz-adv-x="864" d="M29 582v59l247 14v-403v-80q4 -55 38 -82t87 -27q51 0 91 25t63 70q23 49 25 89t6 93v199q-4 20 -8.5 27t-26.5 12q-25 4 -51.5 4h-50.5v59l266 14v-497q0 -16 2 -36t14 -32q6 -8 21 -12q16 -2 29.5 -2h27.5h31v-62l-254 -14v111q-35 -59 -92.5 -95t-126.5 -36 q-14 0 -45 5t-65 18t-62.5 39t-36.5 69q-8 12 -10.5 52t-2.5 66v306q0 8 -1 17t-9 15q-16 14 -36.5 14.5t-41.5 0.5h-28z" />
<glyph unicode="v" horiz-adv-x="759" d="M12 606v49h332v-49h-18q-16 0 -41 -1t-35 -17q-4 -16 -1 -27.5t9 -23.5l160 -377l123 311q10 23 16 41t6 45q0 35 -22.5 40t-46.5 7l-29 2v49h280v-49q-31 0 -54 -15.5t-39.5 -39t-29 -51t-22.5 -51.5l-192 -469h-46l-233 542q-6 14 -12 27.5t-17 28.5q-18 23 -30.5 24.5 t-40.5 3.5h-17z" />
<glyph unicode="w" horiz-adv-x="1099" d="M20 606v49h310v-49l-27 -2h-20.5t-20.5 -4t-13 -9t-3 -18q0 -10 7 -30.5t11 -30.5l131 -332l125 338q-2 6 -3 13.5t-5 13.5q-4 10 -8 18t-10 23q-14 16 -33 18t-39 2h-14v49h315v-49l-27 -2q-12 0 -25.5 1t-25.5 -3q-18 -12 -18 -29q0 -12 9 -34.5t13 -34.5l127 -332 l113 307q8 20 15 43t3 45q-4 31 -23.5 34t-43.5 5h-27v49h264v-49l-18 -2q-45 -6 -60.5 -30.5t-29.5 -61.5l-201 -532h-41l-176 454l-168 -454h-43l-223 569q-4 10 -8.5 21.5t-14.5 19.5q-8 8 -22 12q-12 4 -24.5 4h-27.5z" />
<glyph unicode="x" horiz-adv-x="759" d="M12 0v49q27 2 44.5 6t31.5 12.5t26.5 20.5t28.5 31l29 35l139 159q-43 53 -85 108.5t-85 110.5q-10 10 -17 21.5t-18 21.5q-10 10 -30 21q-31 10 -56 10v49h332v-49h-28h-20.5t-20.5 -4q-12 -4 -13 -12q-4 -14 5.5 -26.5t19.5 -22.5l100 -133l92 112q10 10 17.5 22.5 t7.5 28.5q0 29 -24.5 31t-43.5 4h-18v49h291v-49l-40 -4t-36 -12q-14 -6 -23.5 -17.5t-19.5 -21.5l-164 -191l170 -225q30 -41 60 -65q25 -21 69 -22q7 0 15 1v-49h-355v49q18 2 38 3t40 5q6 4 10 12.5t0 14.5q-4 10 -10 19.5t-12 19.5l-109 143l-100 -123q-8 -10 -15.5 -18 t-13.5 -19q-6 -16 -4 -24t12 -21q14 -8 27.5 -8t28.5 -2l26 -2v-49h-299z" />
<glyph unicode="y" horiz-adv-x="759" d="M4 -180q0 37 25.5 59.5t60.5 22.5q23 0 45.5 -17.5t22.5 -42.5q0 -27 -8 -43l-3 -4q-2 -4 -1 -6t1 -6q4 -2 9 -6q5 -1 10 -1q31 0 58 24q30 26 56.5 65t47 80t32.5 67l-227 518q-10 25 -19.5 39.5t-21.5 22.5t-29.5 11t-44.5 3v49h334v-49l-26 -2q-23 0 -45.5 -2 t-22.5 -31q0 -6 5 -21t9 -22l154 -360l115 291l14 35q4 10 10 27.5t6 25.5q0 41 -19.5 49t-53.5 10h-27v49h279v-49q-59 -2 -82 -34.5t-43 -79.5l-176 -433l-46 -102q-18 -41 -43.5 -84t-58.5 -79t-74 -59.5t-92 -23.5q-53 0 -92 25.5t-39 83.5z" />
<glyph unicode="z" horiz-adv-x="679" d="M55 0v53l391 541h-120q-41 0 -77 -7t-65 -38q-23 -23 -34 -56.5t-13 -64.5v-8h-53l12 235h510v-49l-395 -545h156q41 0 85 9.5t66 48.5q16 27 29.5 63.5t13.5 69.5h53l-14 -252h-545z" />
<glyph unicode="{" horiz-adv-x="471" d="M94 430q66 20 86.5 56t20.5 102v243q0 61 14 98.5t42 57t69 26.5t94 7q-70 -16 -93.5 -57t-23.5 -113v-242q0 -74 -21.5 -115.5t-93.5 -62.5q76 -20 95.5 -65.5t19.5 -120.5v-230q0 -70 24.5 -111.5t92.5 -56.5q-59 0 -101.5 8.5t-69 30t-37.5 61.5t-11 105v219 q0 72 -18.5 107t-88.5 53z" />
<glyph unicode="|" horiz-adv-x="856" d="M373 0v1042h110v-1042h-110z" />
<glyph unicode="}" horiz-adv-x="471" d="M51 -154q66 14 91.5 56.5t25.5 111.5v230q0 37 3 67.5t15.5 53t35 39t61.5 26.5q-74 20 -94.5 62.5t-20.5 115.5v242q0 72 -23.5 113t-93.5 57q53 0 94 -7t69 -26.5t42 -56.5t14 -99v-243q0 -66 20.5 -101.5t86.5 -56.5q-70 -18 -88.5 -53t-18.5 -107v-219 q0 -66 -12 -105.5t-37.5 -61t-67.5 -30t-102 -8.5z" />
<glyph unicode="~" horiz-adv-x="856" d="M72 281q16 29 35.5 58.5t44 53t55.5 38.5t67 15q37 0 80 -15t85 -33.5t80 -34t67 -15.5q47 0 83 39t56 78l59 -66q-33 -59 -82 -108t-118 -49q-20 0 -46 7t-51.5 16t-50 20.5t-43.5 17.5q-29 12 -58.5 24.5t-60.5 12.5q-29 0 -50 -12.5t-38.5 -30.5t-31 -42t-25.5 -44z " />
<glyph unicode="&#xa1;" horiz-adv-x="491" d="M150 948q0 41 29.5 71t70.5 30t69.5 -30t28.5 -71t-28.5 -68.5t-69.5 -27.5t-70.5 27.5t-29.5 68.5zM158 76q0 47 22.5 240.5t38.5 402.5h57q16 -174 41 -388t25 -255q0 -43 -25.5 -71t-66.5 -28t-66.5 28t-25.5 71z" />
<glyph unicode="&#xa2;" horiz-adv-x="823" d="M102 362q0 139 86 246t226 123v193h57v-189q106 0 178 -51t72 -137q0 -43 -19.5 -67.5t-58.5 -24.5q-47 0 -67.5 22.5t-20.5 48.5q0 31 10 66t13 51q-12 18 -41 28.5t-66 12.5v-621h7h7q76 0 129.5 35t98.5 105l41 -33q-43 -74 -117 -126t-166 -58v-203h-57v205 q-150 12 -231 115.5t-81 258.5zM250 369q0 -117 43 -193.5t121 -103.5v610q-33 -8 -61.5 -30.5t-53.5 -59.5q-20 -37 -34.5 -94.5t-14.5 -128.5z" />
<glyph unicode="&#xa3;" horiz-adv-x="923" d="M86 0v106q49 18 81 54.5t48 83.5q16 45 22.5 98t6.5 109h-121v69h121q-2 29 -6.5 87.5t-4.5 94.5q0 154 91.5 254.5t238.5 100.5q63 0 111.5 -20.5t79.5 -49.5q33 -31 50 -68.5t17 -76.5q0 -37 -17.5 -64.5t-58.5 -27.5q-43 0 -67.5 21.5t-24.5 49.5q0 33 9.5 67t13.5 50 q-10 18 -41 38.5t-76 20.5q-25 0 -54.5 -7t-58.5 -32q-29 -23 -47 -65.5t-18 -108.5q0 -45 4 -128t4 -136h287v-69h-287q0 -98 -44 -179.5t-128 -136.5v-8h629v-127h-760z" />
<glyph unicode="&#xa4;" horiz-adv-x="847" d="M121 166l133 135q-14 23 -22.5 50.5t-8.5 54.5q0 31 8.5 55t22.5 49l-133 137l63 62l135 -134q18 12 50 20.5t55 8.5q29 0 57.5 -8t46.5 -21l136 134l65 -62l-135 -137q14 -23 22.5 -51.5t8.5 -52.5q0 -29 -9.5 -58t-21.5 -47l135 -135l-63 -64l-136 134 q-23 -14 -50 -22.5t-56 -8.5q-27 0 -54.5 8t-50.5 23l-137 -136zM307 406q0 -49 35 -84t82 -35q49 0 84 34t35 85q0 49 -35 83.5t-84 34.5q-47 0 -82 -34.5t-35 -83.5z" />
<glyph unicode="&#xa5;" horiz-adv-x="913" d="M-8 977v51h420v-51q-70 -2 -95.5 -9t-25.5 -26q0 -6 12 -31.5t41 -83.5q33 -57 65.5 -116.5t90.5 -159.5q82 135 146.5 244.5t64.5 128.5q0 16 -11.5 26.5t-29.5 16.5q-20 4 -39 6t-43 4v51h342v-51q-12 0 -40 -9.5t-38 -17.5q-29 -18 -39 -27.5t-39 -48.5 q-82 -123 -128 -201.5t-120 -205.5v-61h285v-70h-285v-186q0 -25 9.5 -44.5t31.5 -31.5q14 -6 49 -14.5t58 -8.5v-51h-443v51q18 2 54.5 5t50.5 12q20 8 31.5 26.5t11.5 48.5v193h-287v70h287v47q-63 127 -108.5 206.5t-108.5 194.5q-25 41 -43.5 62.5t-40.5 35.5 q-18 12 -43 18.5t-43 6.5z" />
<glyph unicode="&#xa6;" horiz-adv-x="557" d="M233 281h93v-588h-93v588zM233 524v580h93v-580h-93z" />
<glyph unicode="&#xa7;" horiz-adv-x="741" d="M88 432q0 70 42 126t132 93q-78 37 -112.5 82t-34.5 109q0 45 18.5 83t56.5 66q35 29 92.5 46.5t123.5 17.5t108.5 -14.5t65.5 -32.5t33 -41t10 -39q0 -33 -19.5 -52.5t-52.5 -19.5q-25 0 -41 13.5t-29 31.5q-12 23 -21 44.5t-22 45.5q-10 2 -27.5 4t-31.5 2 q-68 0 -111 -36.5t-43 -92.5q0 -29 15.5 -51t44.5 -41q29 -20 78 -41.5t86 -36.5q106 -45 156 -104t50 -133t-49 -136.5t-133 -93.5q80 -35 116 -83t36 -111q0 -47 -20.5 -88t-57.5 -72q-41 -31 -92.5 -47t-122.5 -16q-68 0 -109 12t-63 33q-27 18 -36 39.5t-9 40.5 q0 31 18.5 51t52.5 20q25 0 41.5 -13t28.5 -32q10 -18 21.5 -43.5t19.5 -46.5q12 -2 25.5 -4t33.5 -2q68 0 113 40t45 91q0 43 -38 85t-165 91q-123 47 -173 109.5t-50 146.5zM199 461q0 -72 54 -118t169 -91q68 37 94.5 80t26.5 94q0 63 -56.5 112.5t-162.5 86.5 q-68 -27 -96.5 -69t-28.5 -95z" />
<glyph unicode="&#xa8;" horiz-adv-x="741" d="M129 989q0 37 25.5 62.5t60.5 25.5q37 0 61.5 -25.5t24.5 -62.5t-24.5 -63.5t-61.5 -26.5q-35 0 -60.5 26.5t-25.5 63.5zM442 989q0 37 25 62.5t59 25.5q37 0 61.5 -25.5t24.5 -62.5t-24.5 -63.5t-61.5 -26.5q-35 0 -59.5 26.5t-24.5 63.5z" />
<glyph unicode="&#xa9;" horiz-adv-x="1398" d="M57 436q0 266 188.5 453.5t452.5 187.5q266 0 454.5 -187.5t188.5 -453.5t-188 -453.5t-455 -187.5q-264 0 -452.5 187.5t-188.5 453.5zM129 436q0 -236 166 -405.5t403 -169.5q240 0 406 169.5t166 405.5t-166 407t-406 171q-238 0 -403.5 -171t-165.5 -407zM356 428 q0 78 28 143.5t79 114.5q49 49 118.5 78t151.5 29q41 0 88 -14.5t72 -33.5l31 48h43l4 -263h-39q-14 43 -29.5 78t-44.5 68q-25 29 -61.5 46t-91.5 17q-86 0 -141.5 -80.5t-55.5 -222.5q0 -133 66.5 -209.5t166.5 -76.5q74 0 125.5 38.5t87.5 122.5l43 -18 q-16 -37 -40.5 -77t-59.5 -66q-37 -33 -80 -51.5t-104 -18.5q-78 0 -143.5 23.5t-114.5 70.5q-47 45 -73 109.5t-26 144.5z" />
<glyph unicode="&#xaa;" horiz-adv-x="741" d="M113 590q0 37 10 64.5t29 50.5q16 18 38.5 29t47.5 22q51 18 117.5 38.5t105.5 43.5v39q0 8 -4 30.5t-15 38.5q-12 23 -35.5 39t-60.5 16q-25 0 -46 -9t-34 -19q2 -12 7.5 -33.5t5.5 -38.5q0 -20 -23 -35.5t-57 -15.5q-31 0 -44.5 21.5t-13.5 48.5q0 55 70 94t141 39 q49 0 89 -7.5t71 -27.5q31 -23 48.5 -58.5t17.5 -97.5q0 -84 -2.5 -145.5t-2.5 -136.5q0 -23 8.5 -37.5t26.5 -22.5q10 -6 29.5 -7t38.5 -1v-43q-29 -8 -52.5 -15.5t-50.5 -7.5q-47 0 -74.5 24t-35.5 65h-4q-39 -43 -86 -67t-109 -24q-66 0 -108.5 41t-42.5 105zM240 616 q0 -49 23.5 -71.5t62.5 -22.5q49 0 79.5 19.5t53.5 46.5l2 190q-55 -14 -90 -26.5t-70 -32.5q-29 -18 -45 -44t-16 -59z" />
<glyph unicode="&#xab;" horiz-adv-x="862" d="M123 383q0 23 11 35t22 22l256 240l34 -31l-188 -266l188 -266l-34 -31l-258 242q-6 6 -18.5 19t-12.5 36zM399 383q0 23 12.5 36t20.5 21l254 240l37 -31l-188 -266l188 -266l-37 -31l-256 242q-6 6 -18.5 19t-12.5 36z" />
<glyph unicode="&#xac;" horiz-adv-x="954" d="M104 383v90h740v-418h-96v328h-644z" />
<glyph unicode="&#xad;" horiz-adv-x="821" d="M131 369v82h551v-82h-551z" />
<glyph unicode="&#xae;" horiz-adv-x="1398" d="M57 436q0 266 188.5 453.5t452.5 187.5q266 0 454.5 -187.5t188.5 -453.5t-188 -453.5t-455 -187.5q-264 0 -452.5 187.5t-188.5 453.5zM129 436q0 -236 166 -405.5t403 -169.5q240 0 406 169.5t166 405.5t-166 407t-406 171q-238 0 -403.5 -171t-165.5 -407zM393 104v43 q14 2 37 4.5t33 8.5q16 6 23.5 18t7.5 31v465q0 16 -5.5 29.5t-25.5 19.5q-14 4 -33.5 8t-36.5 6v41h359q41 0 79.5 -8t69.5 -27q33 -18 52.5 -48.5t19.5 -76.5q0 -78 -43 -122.5t-127 -69.5q57 -70 97 -120t73 -89q20 -27 39.5 -38t38.5 -17q14 -6 34.5 -10.5t32.5 -4.5 v-43h-209q-68 98 -119 163t-104 130h-76v-188q0 -16 6.5 -29.5t24.5 -19.5q8 -4 33.5 -8.5t38.5 -4.5v-43h-320zM610 453h64q76 0 120 39.5t44 111.5q0 61 -36 92t-108 31h-84v-274z" />
<glyph unicode="&#xaf;" horiz-adv-x="954" d="M-4 1161v74h962v-74h-962z" />
<glyph unicode="&#xb0;" horiz-adv-x="622" d="M76 817q0 102 67.5 169t167.5 67q104 0 170 -68t66 -168q0 -98 -65.5 -166.5t-170.5 -68.5q-104 0 -169.5 69.5t-65.5 165.5zM182 819q0 -84 35 -133t96 -49q49 0 88 44t39 130q0 92 -35.5 140t-95.5 48q-57 0 -92 -49t-35 -131z" />
<glyph unicode="&#xb1;" horiz-adv-x="954" d="M109 0v90h321v293h-321v90h321v328h92v-328h326v-90h-326v-293h326v-90h-739z" />
<glyph unicode="&#xb2;" horiz-adv-x="741" d="M106 354v82q29 47 87.5 92t140.5 99q25 14 55.5 40.5t46.5 49.5q23 29 34 60.5t11 78.5q0 72 -35.5 107.5t-93.5 35.5q-43 0 -71.5 -14t-40.5 -33q4 -16 9 -38.5t5 -47.5q0 -23 -20.5 -39t-59.5 -16q-33 0 -48 22.5t-15 51.5q0 66 75.5 117t175.5 51q113 0 186 -54.5 t73 -146.5q0 -55 -16.5 -95t-45.5 -69q-27 -29 -61.5 -50.5t-73.5 -39.5q-45 -23 -111.5 -60.5t-109.5 -76.5h448v-107h-545z" />
<glyph unicode="&#xb3;" horiz-adv-x="741" d="M92 475q0 33 17.5 52.5t44.5 19.5q37 0 56 -16.5t19 -34.5q0 -16 -5 -38t-9 -36q18 -16 51 -27.5t70 -11.5q74 0 119 42t45 122q0 27 -7.5 50.5t-21.5 41.5q-16 16 -46 26.5t-75 10.5h-78v69h56q76 0 108.5 35t32.5 109q0 51 -30.5 81.5t-88.5 30.5q-33 0 -59.5 -11 t-42.5 -32q4 -12 8 -36.5t4 -40.5q0 -18 -20.5 -35t-57.5 -17q-33 0 -47 20.5t-14 47.5t15.5 53.5t49.5 48.5q29 23 80 38.5t109 15.5q68 0 114 -16.5t74 -45.5q27 -27 35 -55.5t8 -44.5q0 -23 -7 -48.5t-24 -45.5q-18 -20 -46.5 -40t-75.5 -32v-6q29 -4 64 -16.5t58 -30.5 q27 -20 45.5 -51t18.5 -76q0 -92 -84 -153.5t-223 -61.5q-98 0 -169 42t-71 103z" />
<glyph unicode="&#xb4;" horiz-adv-x="741" d="M207 827q66 96 91.5 136.5t53.5 87.5q25 37 45.5 50t46.5 13q27 0 44.5 -17.5t17.5 -37.5q0 -29 -13.5 -46.5t-37.5 -35.5q-37 -29 -95.5 -74t-126.5 -98z" />
<glyph unicode="&#xb5;" horiz-adv-x="841" d="M88 -250q0 43 13.5 111.5t17.5 105.5q4 41 6 73t2 58v617h137v-492q0 -74 34 -114.5t85 -40.5q41 0 71.5 11t51.5 25q16 16 31.5 33t21.5 31v547h137v-570q0 -31 10.5 -48t30.5 -29q12 -6 36 -7.5t48 -1.5v-45q-35 -14 -61.5 -21t-57.5 -7q-57 0 -94 28.5t-47 83.5h-4 l-41.5 -41.5t-46.5 -36.5q-29 -18 -57.5 -26t-81.5 -8q-43 0 -81 17t-59 40h-4v-43q0 -47 19.5 -130t19.5 -118t-22.5 -54.5t-48.5 -19.5q-29 0 -47.5 19.5t-18.5 52.5z" />
<glyph unicode="&#xb6;" horiz-adv-x="741" d="M72 768q0 117 77.5 188.5t200.5 71.5h375v-53h-80v-1133h-76v1133h-114v-1133h-76v670q-139 0 -223 66.5t-84 189.5z" />
<glyph unicode="&#xb7;" horiz-adv-x="415" d="M109 406q0 41 29.5 70.5t70.5 29.5t69.5 -29.5t28.5 -70.5t-28.5 -70t-69.5 -29t-70.5 29t-29.5 70z" />
<glyph unicode="&#xb8;" horiz-adv-x="741" d="M223 -270q29 0 64 1t59 7q31 6 46.5 19.5t15.5 37.5q0 35 -40 45t-79 10v162h55v-84q35 0 60.5 -4t52.5 -18q25 -10 40 -31.5t15 -54.5q0 -41 -23.5 -71t-64.5 -46q-41 -12 -89 -18.5t-112 -6.5v52z" />
<glyph unicode="&#xb9;" horiz-adv-x="741" d="M160 922v57h45q55 0 105 20.5t73 49.5h53q0 -33 -2 -87.5t-2 -84.5v-406q0 -16 8.5 -29.5t22.5 -19.5t50 -10t58 -4v-54h-409v54q23 0 61.5 3t52.5 7q14 6 23.5 17t9.5 30v457h-149z" />
<glyph unicode="&#xba;" horiz-adv-x="741" d="M84 745q0 135 81 221.5t210 86.5q127 0 204.5 -84t77.5 -215q0 -135 -78.5 -225.5t-213.5 -90.5q-115 0 -198 86t-83 221zM217 754q0 -53 9.5 -100.5t27.5 -82.5t48 -56t71 -21q39 0 67.5 20t46.5 55q18 33 27.5 80t9.5 103q0 45 -7 90t-25 80t-47 56t-72 21t-74 -21.5 t-49 -57.5q-18 -35 -25.5 -81t-7.5 -85z" />
<glyph unicode="&#xbb;" horiz-adv-x="862" d="M139 117l189 266l-189 266l35 31l256 -240q8 -6 20.5 -21.5t12.5 -35.5q0 -23 -12.5 -36t-18.5 -19l-258 -242zM416 117l188 266l-188 266l37 31l254 -240q8 -6 20 -22.5t12 -34.5q0 -23 -12 -36t-18 -19l-256 -242z" />
<glyph unicode="&#xbc;" horiz-adv-x="1445" d="M94 922v57h45q57 0 106.5 20.5t73.5 49.5h54q0 -16 -1 -39t-2 -47.5t-2 -48t-1 -37.5v-406q0 -35 30 -49q14 -6 50 -10t61 -4v-54h-412v54q23 0 62 3t55 7q12 6 22.5 17t10.5 30v457h-152zM410 0l532 1028h100l-536 -1028h-96zM821 186h303v-90v-19t-6 -18 q-12 -12 -28 -12h-78v-47h327v47h-63q-23 0 -29 14q-6 10 -7 19.5t-1 15.5v90h104v62h-104v452h-65l-353 -464v-50zM907 248l217 287v-287h-217z" />
<glyph unicode="&#xbd;" horiz-adv-x="1492" d="M94 922v57h45q57 0 106.5 20.5t73.5 49.5h54q0 -16 -1 -39t-2 -47.5t-2 -48t-1 -37.5v-406q0 -35 30 -49q14 -6 50 -10t61 -4v-54h-412v54q23 0 62 3t55 7q12 6 22.5 17t10.5 30v457h-152zM410 0l532 1028h100l-536 -1028h-96zM879 0h505l13 201h-43q0 -16 -4 -31 q-4 -12 -8.5 -26.5t-10.5 -24.5q-27 -41 -78 -41h-278l7 9t25.5 25.5t51.5 42t86 60.5q72 47 113.5 77t76.5 64q25 23 42.5 56.5t22.5 70.5t-7.5 75t-46.5 71q-31 31 -80 46t-102.5 18t-104.5 -6t-84 -30q-59 -35 -80 -96t8 -108q14 -23 38 -38.5t71 -2.5q23 6 35 19 t15 28.5t-3 30t-19 24.5q-25 18 -46 13t-23 -5q0 4 -4 15.5t12 40.5q14 25 43 40t61.5 19t65.5 1t57 -15q31 -16 48.5 -37t23.5 -43.5t3 -47t-11 -44.5q-20 -53 -68.5 -97.5t-140.5 -113.5q-59 -47 -94 -84t-56 -64q-23 -31 -32 -55v-37z" />
<glyph unicode="&#xbe;" horiz-adv-x="1445" d="M4 504q2 29 20.5 57.5t73.5 24.5q47 -4 59.5 -37t-3.5 -62q-10 -16 -33 -20t-27 -4q4 -4 11.5 -19.5t41.5 -31.5q18 -8 47 -12.5t61 -3.5t64.5 8.5t57.5 25.5q29 20 41 50t11 60.5t-13.5 58.5t-32.5 46q-29 25 -64.5 36t-66.5 15q-37 4 -74 0v45h24.5t52.5 3.5t61.5 11.5 t52.5 24q35 29 41 74t-25 86q-16 20 -45 31.5t-60.5 14.5t-61.5 -1t-46 -12q-27 -14 -36 -25.5t-11 -15.5q6 0 21.5 -5t23.5 -28q10 -25 -6.5 -45t-48.5 -25q-43 -4 -63.5 23t-14.5 61q16 61 80.5 95t146.5 34q45 0 89 -9t78 -28.5t55.5 -49t25.5 -68.5q8 -66 -41 -113 t-123 -55q35 -4 69 -15.5t61.5 -31t45 -51t17.5 -78.5q2 -94 -73 -149.5t-202 -57.5q-55 0 -104 11t-84 32.5t-55.5 52.5t-18.5 72zM410 0l532 1028h100l-536 -1028h-96zM821 186v50l353 464h65v-452h104v-62h-104v-90q0 -6 1 -15t7 -20q6 -14 29 -14h63v-47h-327v47h78 q16 0 28 12q6 8 6 17.5v19.5v90h-303zM907 248h217v287z" />
<glyph unicode="&#xbf;" horiz-adv-x="710" d="M74 279q0 135 85 220t234 101v162h68v-277q-45 -4 -90 -14t-82 -37t-57.5 -64.5t-20.5 -107.5q0 -109 46 -166t134 -57q35 0 59.5 9t34.5 20q-2 16 -8 49t-6 51q0 27 22.5 48.5t67.5 21.5q39 0 56.5 -26.5t17.5 -61.5q0 -29 -16.5 -58t-51.5 -53q-29 -25 -79 -41 t-103 -16q-76 0 -135.5 23.5t-97.5 64.5q-39 43 -58.5 95t-19.5 114zM326 950q0 41 28.5 70t71.5 29q39 0 68.5 -29t29.5 -70t-29.5 -69.5t-68.5 -28.5q-43 0 -71.5 28.5t-28.5 69.5z" />
<glyph unicode="&#xc0;" horiz-adv-x="1019" d="M-12 0v63q59 2 93 30t54 81l342 868h55l375 -917q10 -25 22.5 -37t27 -17t33 -6.5t42.5 -1.5v-63h-432v63q29 2 59.5 2.5t59.5 6.5q10 2 19.5 11t9.5 19q0 12 -7 25l-82 205h-383q-10 -29 -20 -56.5t-20 -58.5q-8 -23 -13.5 -37t-5.5 -37q0 -29 14.5 -45t37 -23t47 -9.5 t46.5 -2.5v-63h-374zM238 1329q0 20 16 37.5t43 17.5q29 0 49.5 -12t42.5 -51q25 -39 59 -90.5t89 -133.5l-29 -22q-74 59 -133.5 103t-85.5 69q-29 23 -40 37t-11 45zM303 403h328l-166 416z" />
<glyph unicode="&#xc1;" horiz-adv-x="1019" d="M-12 0v63q59 2 93 30t54 81l342 868h55l375 -917q10 -25 22.5 -37t27 -17t33 -6.5t42.5 -1.5v-63h-432v63q29 2 59.5 2.5t59.5 6.5q10 2 19.5 11t9.5 19q0 12 -7 25l-82 205h-383q-10 -29 -20 -56.5t-20 -58.5q-8 -23 -13.5 -37t-5.5 -37q0 -29 14.5 -45t37 -23t47 -9.5 t46.5 -2.5v-63h-374zM303 403h328l-166 416zM471 1114q66 96 91.5 136.5t53.5 87.5q25 37 45.5 50t46.5 13q27 0 44.5 -17.5t17.5 -37.5q0 -29 -13.5 -46.5t-37.5 -35.5q-37 -29 -95.5 -74t-126.5 -98z" />
<glyph unicode="&#xc2;" horiz-adv-x="1019" d="M-12 0v63q59 2 93 30t54 81l342 868h55l375 -917q10 -25 22.5 -37t27 -17t33 -6.5t42.5 -1.5v-63h-432v63q29 2 59.5 2.5t59.5 6.5q10 2 19.5 11t9.5 19q0 12 -7 25l-82 205h-383q-10 -29 -20 -56.5t-20 -58.5q-8 -23 -13.5 -37t-5.5 -37q0 -29 14.5 -45t37 -23t47 -9.5 t46.5 -2.5v-63h-374zM270 1115l172 251q12 18 23.5 25.5t42.5 7.5q29 0 40 -7t21 -24l172 -253l-35 -23l-200 197l-201 -197zM303 403h328l-166 416z" />
<glyph unicode="&#xc3;" horiz-adv-x="1019" d="M-12 0v63q59 2 93 30t54 81l342 868h55l375 -917q10 -25 22.5 -37t27 -17t33 -6.5t42.5 -1.5v-63h-432v63q29 2 59.5 2.5t59.5 6.5q10 2 19.5 11t9.5 19q0 12 -7 25l-82 205h-383q-10 -29 -20 -56.5t-20 -58.5q-8 -23 -13.5 -37t-5.5 -37q0 -29 14.5 -45t37 -23t47 -9.5 t46.5 -2.5v-63h-374zM233 1108q6 23 23.5 55.5t40.5 56.5q20 27 52 45.5t64 18.5q41 0 71 -12.5t54 -26.5q27 -14 46.5 -25.5t46.5 -11.5q29 0 46 7t27 20q12 14 20.5 29.5t18.5 39.5l43 -14q-6 -29 -20.5 -57.5t-38.5 -57.5q-29 -29 -56.5 -46t-68.5 -17t-72 12t-53 25 q-27 14 -49.5 26.5t-48.5 12.5q-25 0 -35 -6.5t-25 -18.5q-10 -14 -22.5 -35.5t-22.5 -40.5zM303 403h328l-166 416z" />
<glyph unicode="&#xc4;" horiz-adv-x="1019" d="M-12 0v63q59 2 93 30t54 81l342 868h55l375 -917q10 -25 22.5 -37t27 -17t33 -6.5t42.5 -1.5v-63h-432v63q29 2 59.5 2.5t59.5 6.5q10 2 19.5 11t9.5 19q0 12 -7 25l-82 205h-383q-10 -29 -20 -56.5t-20 -58.5q-8 -23 -13.5 -37t-5.5 -37q0 -29 14.5 -45t37 -23t47 -9.5 t46.5 -2.5v-63h-374zM268 1173q0 37 25.5 62.5t60.5 25.5q37 0 61.5 -25.5t24.5 -62.5t-24.5 -63.5t-61.5 -26.5q-35 0 -60.5 26.5t-25.5 63.5zM303 403h328l-166 416zM581 1173q0 37 25 62.5t59 25.5q37 0 61.5 -25.5t24.5 -62.5t-24.5 -63.5t-61.5 -26.5q-35 0 -59.5 26.5 t-24.5 63.5z" />
<glyph unicode="&#xc5;" horiz-adv-x="1019" d="M-12 0v63q59 2 93 30t54 81l342 868h55l375 -917q10 -25 22.5 -37t27 -17t33 -6.5t42.5 -1.5v-63h-432v63q29 2 59.5 2.5t59.5 6.5q10 2 19.5 11t9.5 19q0 12 -7 25l-82 205h-383q-10 -29 -20 -56.5t-20 -58.5q-8 -23 -13.5 -37t-5.5 -37q0 -29 14.5 -45t37 -23t47 -9.5 t46.5 -2.5v-63h-374zM303 403h328l-166 416zM313 1250q0 72 54.5 116.5t132.5 44.5q82 0 134 -43.5t52 -117.5q0 -72 -51 -116t-135 -44t-135.5 43t-51.5 117zM403 1250q0 -49 26 -82t71 -33q47 0 71.5 32t24.5 83t-24.5 82.5t-71.5 31.5q-45 0 -71 -30.5t-26 -83.5z" />
<glyph unicode="&#xc6;" horiz-adv-x="1441" d="M-70 0v51q20 2 48 10.5t47 18.5q25 14 47 39.5t41 56.5q111 193 218 384.5t224 400.5q-18 8 -55 12t-68 4v51h897v-248h-53q-14 55 -63.5 118t-92.5 69q-23 2 -53.5 3t-71.5 1h-153v-408h108q55 0 82 10.5t45 34.5q16 20 27.5 56t13.5 67h56v-403h-56q-2 35 -14 73.5 t-27 57.5q-23 27 -51.5 36t-75.5 9h-108v-309q0 -45 6 -73t26 -40q18 -14 51 -18.5t93 -4.5h62.5t62.5 2q31 4 57.5 11.5t36.5 21.5q35 33 72 104.5t47 104.5h51l-18 -303h-848v51q16 2 53 6t51 11q25 10 33 27.5t8 43.5v297h-346q-33 -51 -59.5 -100t-69.5 -139 q-10 -18 -17.5 -38t-7.5 -36q0 -33 32 -50.5t91 -21.5v-51h-379zM375 500h311v465h-55z" />
<glyph unicode="&#xc7;" horiz-adv-x="952" d="M57 506q0 123 37 223t105 172q66 72 155.5 111t192.5 39q76 0 137 -18.5t119 -53.5l28 49h60l4 -366h-57q-12 55 -36 117.5t-54 105.5q-35 49 -83.5 76.5t-109.5 27.5q-70 0 -130 -30.5t-106 -92.5q-41 -57 -65.5 -148t-24.5 -204q0 -98 26 -180t71 -146 q47 -61 110.5 -96t141.5 -35q59 0 108 18.5t84 49.5q39 33 65.5 74t45.5 88l55 -27q-61 -147 -159.5 -212.5t-233.5 -70.5v-49q33 0 58.5 -4t51.5 -18q27 -10 41.5 -31.5t14.5 -54.5q0 -41 -22.5 -71t-65.5 -46q-39 -12 -88.5 -18.5t-112.5 -6.5v52q29 0 63.5 1t61.5 7 q29 6 44 19.5t15 37.5q0 18 -10 28.5t-29 16.5q-14 6 -38.5 8t-41.5 2v127q-80 8 -154.5 43t-131.5 97q-66 68 -104 166t-38 223z" />
<glyph unicode="&#xc8;" horiz-adv-x="1019" d="M41 0v63h43q14 0 31.5 1.5t34 5.5t28.5 12t17 27q4 16 4 30.5v30.5v684v29.5t-2 29.5q-4 23 -15.5 30t-31.5 9q-27 4 -52.5 4h-54.5v64h852l18 -361h-59q-16 100 -39.5 160t-64.5 90.5t-104.5 38.5t-160.5 8h-50t-50 -4q-8 -4 -14 -6q-16 -10 -17.5 -30.5t-1.5 -38.5 v-316q117 -6 173.5 32t64.5 161h63v-465h-63v18q-2 29 -8.5 58.5t-19.5 55t-34.5 44t-54.5 24.5q-29 6 -55.5 7.5t-55.5 1.5h-10v-381q0 -12 2 -17.5t13 -17.5q14 -10 30.5 -11t32.5 -1q23 -4 45.5 -5.5t46.5 -1.5q29 0 57.5 1.5t57.5 5.5q57 6 96 26.5t64.5 54t41 76.5 t27.5 95q4 12 6 25t7 30l57 -2l-27 -375h-868zM291 1329q0 20 16 37.5t43 17.5q29 0 49.5 -12t42.5 -51q25 -39 59 -90.5t89 -133.5l-29 -22q-74 59 -133.5 103t-85.5 69q-29 23 -40 37t-11 45z" />
<glyph unicode="&#xc9;" horiz-adv-x="1019" d="M41 0v63h43q14 0 31.5 1.5t34 5.5t28.5 12t17 27q4 16 4 30.5v30.5v684v29.5t-2 29.5q-4 23 -15.5 30t-31.5 9q-27 4 -52.5 4h-54.5v64h852l18 -361h-59q-16 100 -39.5 160t-64.5 90.5t-104.5 38.5t-160.5 8h-50t-50 -4q-8 -4 -14 -6q-16 -10 -17.5 -30.5t-1.5 -38.5 v-316q117 -6 173.5 32t64.5 161h63v-465h-63v18q-2 29 -8.5 58.5t-19.5 55t-34.5 44t-54.5 24.5q-29 6 -55.5 7.5t-55.5 1.5h-10v-381q0 -12 2 -17.5t13 -17.5q14 -10 30.5 -11t32.5 -1q23 -4 45.5 -5.5t46.5 -1.5q29 0 57.5 1.5t57.5 5.5q57 6 96 26.5t64.5 54t41 76.5 t27.5 95q4 12 6 25t7 30l57 -2l-27 -375h-868zM526 1114q66 96 91.5 136.5t53.5 87.5q25 37 45.5 50t46.5 13q27 0 44.5 -17.5t17.5 -37.5q0 -29 -13.5 -46.5t-37.5 -35.5q-37 -29 -95.5 -74t-126.5 -98z" />
<glyph unicode="&#xca;" horiz-adv-x="1019" d="M41 0v63h43q14 0 31.5 1.5t34 5.5t28.5 12t17 27q4 16 4 30.5v30.5v684v29.5t-2 29.5q-4 23 -15.5 30t-31.5 9q-27 4 -52.5 4h-54.5v64h852l18 -361h-59q-16 100 -39.5 160t-64.5 90.5t-104.5 38.5t-160.5 8h-50t-50 -4q-8 -4 -14 -6q-16 -10 -17.5 -30.5t-1.5 -38.5 v-316q117 -6 173.5 32t64.5 161h63v-465h-63v18q-2 29 -8.5 58.5t-19.5 55t-34.5 44t-54.5 24.5q-29 6 -55.5 7.5t-55.5 1.5h-10v-381q0 -12 2 -17.5t13 -17.5q14 -10 30.5 -11t32.5 -1q23 -4 45.5 -5.5t46.5 -1.5q29 0 57.5 1.5t57.5 5.5q57 6 96 26.5t64.5 54t41 76.5 t27.5 95q4 12 6 25t7 30l57 -2l-27 -375h-868zM323 1115l172 251q12 18 23.5 25.5t42.5 7.5q29 0 40 -7t21 -24l172 -253l-35 -23l-200 197l-201 -197z" />
<glyph unicode="&#xcb;" horiz-adv-x="1019" d="M94 0v63h43q14 0 31.5 1.5t34 5.5t28.5 12t17 27q4 16 4 30.5v30.5v684v29.5t-2 29.5q-4 23 -15.5 30t-31.5 9q-27 4 -52.5 4h-54.5v64h852l18 -361h-59q-16 100 -39.5 160t-64.5 90.5t-104.5 38.5t-160.5 8h-50t-50 -4q-8 -4 -14 -6q-16 -10 -17.5 -30.5t-1.5 -38.5 v-316q117 -6 173.5 32t64.5 161h63v-465h-63v18q-2 29 -8.5 58.5t-19.5 55t-34.5 44t-54.5 24.5q-29 6 -55.5 7.5t-55.5 1.5h-10v-381q0 -12 2 -17.5t13 -17.5q14 -10 30.5 -11t32.5 -1q23 -4 45.5 -5.5t46.5 -1.5q29 0 57.5 1.5t57.5 5.5q57 6 96 26.5t64.5 54t41 76.5 t27.5 95q4 12 6 25t7 30l57 -2l-27 -375h-868zM322 1173q0 37 25.5 62.5t60.5 25.5q37 0 61.5 -25.5t24.5 -62.5t-24.5 -63.5t-61.5 -26.5q-35 0 -60.5 26.5t-25.5 63.5zM635 1173q0 37 25 62.5t59 25.5q37 0 61.5 -25.5t24.5 -62.5t-24.5 -63.5t-61.5 -26.5 q-35 0 -59.5 26.5t-24.5 63.5z" />
<glyph unicode="&#xcc;" horiz-adv-x="575" d="M25 1329q0 20 16 37.5t43 17.5q29 0 49.5 -12t42.5 -51q25 -39 59 -90.5t89 -133.5l-29 -22q-74 59 -133.5 103t-85.5 69q-29 23 -40 37t-11 45zM65 0v63q23 2 62 1t59 8q29 10 33 26.5t4 44.5v738q0 18 -2 30.5t-14 28.5q-29 20 -68 16t-72 0v64h467v-64h-57.5t-56.5 -4 q-16 -4 -24.5 -10t-16.5 -22q-2 -10 -2 -22.5v-25.5v-733q0 -10 -1.5 -18t3.5 -19q4 -4 6 -10t8 -10q14 -10 30.5 -14.5t35 -4.5t37 1.5t34.5 -1.5v-63h-465z" />
<glyph unicode="&#xcd;" horiz-adv-x="575" d="M65 0v63q23 2 62 1t59 8q29 10 33 26.5t4 44.5v738q0 18 -2 30.5t-14 28.5q-29 20 -68 16t-72 0v64h467v-64h-57.5t-56.5 -4q-16 -4 -24.5 -10t-16.5 -22q-2 -10 -2 -22.5v-25.5v-733q0 -10 -1.5 -18t3.5 -19q4 -4 6 -10t8 -10q14 -10 30.5 -14.5t35 -4.5t37 1.5 t34.5 -1.5v-63h-465zM277 1114q66 96 91.5 136.5t53.5 87.5q25 37 45.5 50t46.5 13q27 0 44.5 -17.5t17.5 -37.5q0 -29 -13.5 -46.5t-37.5 -35.5q-37 -29 -95.5 -74t-126.5 -98z" />
<glyph unicode="&#xce;" horiz-adv-x="575" d="M65 0v63q23 2 62 1t59 8q29 10 33 26.5t4 44.5v738q0 18 -2 30.5t-14 28.5q-29 20 -68 16t-72 0v64h467v-64h-57.5t-56.5 -4q-16 -4 -24.5 -10t-16.5 -22q-2 -10 -2 -22.5v-25.5v-733q0 -10 -1.5 -18t3.5 -19q4 -4 6 -10t8 -10q14 -10 30.5 -14.5t35 -4.5t37 1.5 t34.5 -1.5v-63h-465zM67 1115l172 251q12 18 23.5 25.5t42.5 7.5q29 0 40 -7t21 -24l172 -253l-35 -23l-200 197l-201 -197z" />
<glyph unicode="&#xcf;" horiz-adv-x="575" d="M47 1173q0 37 25.5 62.5t60.5 25.5q37 0 61.5 -25.5t24.5 -62.5t-24.5 -63.5t-61.5 -26.5q-35 0 -60.5 26.5t-25.5 63.5zM53 0v63q23 2 62 1t59 8q29 10 33 26.5t4 44.5v738q0 18 -2 30.5t-14 28.5q-29 20 -68 16t-72 0v64h467v-64h-57.5t-56.5 -4q-16 -4 -24.5 -10 t-16.5 -22q-2 -10 -2 -22.5v-25.5v-733q0 -10 -1.5 -18t3.5 -19q4 -4 6 -10t8 -10q14 -10 30.5 -14.5t35 -4.5t37 1.5t34.5 -1.5v-63h-465zM360 1173q0 37 25 62.5t59 25.5q37 0 61.5 -25.5t24.5 -62.5t-24.5 -63.5t-61.5 -26.5q-35 0 -59.5 26.5t-24.5 63.5z" />
<glyph unicode="&#xd0;" horiz-adv-x="1112" d="M68 0v51q20 0 55 4t45 11q20 8 30.5 26.5t10.5 44.5v371h-135v72h135v299q0 25 -8 44t-33 31q-23 12 -49.5 17.5t-44.5 5.5v51h448q94 0 184.5 -28.5t155.5 -75.5q90 -66 142.5 -170.5t52.5 -245.5q0 -131 -49.5 -227.5t-128.5 -157.5q-80 -61 -179.5 -92t-205.5 -31 h-426zM362 176q0 -66 39 -91.5t119 -25.5q92 0 161 33t112 90q45 61 65.5 141.5t20.5 186.5q0 102 -28 186t-81 146q-49 59 -122 94t-163 35q-29 0 -66.5 -1t-56.5 -3v-387h220v-72h-220v-332z" />
<glyph unicode="&#xd1;" horiz-adv-x="1150" d="M66 0v63q25 4 49 6.5t47 12.5q27 10 41 33.5t21.5 53.5t8.5 60.5t1 55.5v624q-18 27 -43 36t-56 9q-16 2 -34.5 2h-34.5v64h295l565 -762v537q-4 88 -38 121.5t-124 39.5v64h397v-64q-51 -4 -82.5 -14t-48 -31.5t-23.5 -54.5t-10 -80v-796h-55l-637 864v-586q0 -41 4 -82 t33 -76q25 -18 59 -28q16 -4 36 -5t38 -4v-63h-409zM299 1108q6 23 23.5 55.5t40.5 56.5q20 27 52 45.5t64 18.5q41 0 71 -12.5t54 -26.5q27 -14 46.5 -25.5t46.5 -11.5q29 0 46 7t27 20q12 14 20.5 29.5t18.5 39.5l43 -14q-6 -29 -20.5 -57.5t-38.5 -57.5 q-29 -29 -56.5 -46t-68.5 -17t-72 12t-53 25q-27 14 -49.5 26.5t-48.5 12.5q-25 0 -35 -6.5t-25 -18.5q-10 -14 -22.5 -35.5t-22.5 -40.5z" />
<glyph unicode="&#xd2;" horiz-adv-x="1099" d="M63 508q0 102 36 198.5t100.5 171t153.5 119.5t196 45q209 0 352 -159q61 -72 98 -171.5t37 -193.5q0 -96 -37.5 -199.5t-97.5 -175.5q-68 -80 -158 -121.5t-194 -41.5q-109 0 -198 44t-152.5 117.5t-99.5 169t-36 197.5zM244 481q0 -74 14 -150.5t49 -141t93.5 -105.5 t148.5 -41q96 0 156.5 44t93 112.5t44 150.5t11.5 158q0 47 -1 86t-9 84q-12 68 -29.5 115t-64.5 100q-39 47 -88.5 65.5t-108.5 18.5q-66 0 -117 -20.5t-92 -71.5q-23 -29 -37 -53.5t-23.5 -50t-14.5 -53.5t-11 -62q-10 -47 -12 -92.5t-2 -92.5zM279 1329q0 20 16 37.5 t43 17.5q29 0 49.5 -12t42.5 -51q25 -39 59 -90.5t89 -133.5l-29 -22q-74 59 -133.5 103t-85.5 69q-29 23 -40 37t-11 45z" />
<glyph unicode="&#xd3;" horiz-adv-x="1099" d="M63 508q0 102 36 198.5t100.5 171t153.5 119.5t196 45q209 0 352 -159q61 -72 98 -171.5t37 -193.5q0 -96 -37.5 -199.5t-97.5 -175.5q-68 -80 -158 -121.5t-194 -41.5q-109 0 -198 44t-152.5 117.5t-99.5 169t-36 197.5zM244 481q0 -74 14 -150.5t49 -141t93.5 -105.5 t148.5 -41q96 0 156.5 44t93 112.5t44 150.5t11.5 158q0 47 -1 86t-9 84q-12 68 -29.5 115t-64.5 100q-39 47 -88.5 65.5t-108.5 18.5q-66 0 -117 -20.5t-92 -71.5q-23 -29 -37 -53.5t-23.5 -50t-14.5 -53.5t-11 -62q-10 -47 -12 -92.5t-2 -92.5zM537 1114q66 96 91.5 136.5 t53.5 87.5q25 37 45.5 50t46.5 13q27 0 44.5 -17.5t17.5 -37.5q0 -29 -13.5 -46.5t-37.5 -35.5q-37 -29 -95.5 -74t-126.5 -98z" />
<glyph unicode="&#xd4;" horiz-adv-x="1099" d="M63 508q0 102 36 198.5t100.5 171t153.5 119.5t196 45q209 0 352 -159q61 -72 98 -171.5t37 -193.5q0 -96 -37.5 -199.5t-97.5 -175.5q-68 -80 -158 -121.5t-194 -41.5q-109 0 -198 44t-152.5 117.5t-99.5 169t-36 197.5zM244 481q0 -74 14 -150.5t49 -141t93.5 -105.5 t148.5 -41q96 0 156.5 44t93 112.5t44 150.5t11.5 158q0 47 -1 86t-9 84q-12 68 -29.5 115t-64.5 100q-39 47 -88.5 65.5t-108.5 18.5q-66 0 -117 -20.5t-92 -71.5q-23 -29 -37 -53.5t-23.5 -50t-14.5 -53.5t-11 -62q-10 -47 -12 -92.5t-2 -92.5zM313 1115l172 251 q12 18 23.5 25.5t42.5 7.5q29 0 40 -7t21 -24l172 -253l-35 -23l-200 197l-201 -197z" />
<glyph unicode="&#xd5;" horiz-adv-x="1099" d="M63 508q0 102 36 198.5t100.5 171t153.5 119.5t196 45q209 0 352 -159q61 -72 98 -171.5t37 -193.5q0 -96 -37.5 -199.5t-97.5 -175.5q-68 -80 -158 -121.5t-194 -41.5q-109 0 -198 44t-152.5 117.5t-99.5 169t-36 197.5zM244 481q0 -74 14 -150.5t49 -141t93.5 -105.5 t148.5 -41q96 0 156.5 44t93 112.5t44 150.5t11.5 158q0 47 -1 86t-9 84q-12 68 -29.5 115t-64.5 100q-39 47 -88.5 65.5t-108.5 18.5q-66 0 -117 -20.5t-92 -71.5q-23 -29 -37 -53.5t-23.5 -50t-14.5 -53.5t-11 -62q-10 -47 -12 -92.5t-2 -92.5zM272 1108q6 23 23.5 55.5 t40.5 56.5q20 27 52 45.5t64 18.5q41 0 71 -12.5t54 -26.5q27 -14 46.5 -25.5t46.5 -11.5q29 0 46 7t27 20q12 14 20.5 29.5t18.5 39.5l43 -14q-6 -29 -20.5 -57.5t-38.5 -57.5q-29 -29 -56.5 -46t-68.5 -17t-72 12t-53 25q-27 14 -49.5 26.5t-48.5 12.5q-25 0 -35 -6.5 t-25 -18.5q-10 -14 -22.5 -35.5t-22.5 -40.5z" />
<glyph unicode="&#xd6;" horiz-adv-x="1099" d="M63 508q0 102 36 198.5t100.5 171t153.5 119.5t196 45q209 0 352 -159q61 -72 98 -171.5t37 -193.5q0 -96 -37.5 -199.5t-97.5 -175.5q-68 -80 -158 -121.5t-194 -41.5q-109 0 -198 44t-152.5 117.5t-99.5 169t-36 197.5zM244 481q0 -74 14 -150.5t49 -141t93.5 -105.5 t148.5 -41q96 0 156.5 44t93 112.5t44 150.5t11.5 158q0 47 -1 86t-9 84q-12 68 -29.5 115t-64.5 100q-39 47 -88.5 65.5t-108.5 18.5q-66 0 -117 -20.5t-92 -71.5q-23 -29 -37 -53.5t-23.5 -50t-14.5 -53.5t-11 -62q-10 -47 -12 -92.5t-2 -92.5zM307 1173q0 37 25.5 62.5 t60.5 25.5q37 0 61.5 -25.5t24.5 -62.5t-24.5 -63.5t-61.5 -26.5q-35 0 -60.5 26.5t-25.5 63.5zM620 1173q0 37 25 62.5t59 25.5q37 0 61.5 -25.5t24.5 -62.5t-24.5 -63.5t-61.5 -26.5q-35 0 -59.5 26.5t-24.5 63.5z" />
<glyph unicode="&#xd7;" horiz-adv-x="954" d="M152 143l264 263l-264 262l63 63l262 -262l262 262l64 -63l-264 -262l264 -263l-64 -63l-262 262l-262 -262z" />
<glyph unicode="&#xd8;" horiz-adv-x="1099" d="M63 508q0 102 36 198.5t100.5 171t153.5 119.5t196 45q209 0 352 -159q61 -72 98 -171.5t37 -193.5q0 -96 -37.5 -199.5t-97.5 -175.5q-68 -80 -158 -121.5t-194 -41.5q-109 0 -198 44t-152.5 117.5t-99.5 169t-36 197.5zM214 0l557 1050h131l-557 -1050h-131zM244 481 q0 -74 14 -150.5t49 -141t93.5 -105.5t148.5 -41q96 0 156.5 44t93 112.5t44 150.5t11.5 158q0 47 -1 86t-9 84q-12 68 -29.5 115t-64.5 100q-39 47 -88.5 65.5t-108.5 18.5q-66 0 -117 -20.5t-92 -71.5q-23 -29 -37 -53.5t-23.5 -50t-14.5 -53.5t-11 -62q-10 -47 -12 -92.5 t-2 -92.5z" />
<glyph unicode="&#xd9;" horiz-adv-x="1150" d="M25 956v64h471v-64q-33 -4 -65 -4t-64 -4q-10 -2 -20.5 -8t-10.5 -16v-568q0 -66 9 -126t63 -107q47 -43 98 -56.5t115 -13.5q70 0 135 31t100 94q16 29 27.5 73t11.5 79v452q0 94 -32 132t-132 42v64h397v-64q-59 0 -91.5 -17t-48 -47t-17.5 -71t-2 -90v-309 q0 -86 -12.5 -170t-73.5 -156q-55 -68 -137 -92t-166 -24q-35 0 -66 2t-65 8q-51 10 -95.5 28.5t-83.5 55.5q-51 49 -70.5 93t-19.5 109v611q0 16 -1 32.5t-19 26.5q-16 8 -45 8t-45 2h-45zM291 1329q0 20 16 37.5t43 17.5q29 0 49.5 -12t42.5 -51q25 -39 59 -90.5 t89 -133.5l-29 -22q-74 59 -133.5 103t-85.5 69q-29 23 -40 37t-11 45z" />
<glyph unicode="&#xda;" horiz-adv-x="1150" d="M25 956v64h471v-64q-33 -4 -65 -4t-64 -4q-10 -2 -20.5 -8t-10.5 -16v-568q0 -66 9 -126t63 -107q47 -43 98 -56.5t115 -13.5q70 0 135 31t100 94q16 29 27.5 73t11.5 79v452q0 94 -32 132t-132 42v64h397v-64q-59 0 -91.5 -17t-48 -47t-17.5 -71t-2 -90v-309 q0 -86 -12.5 -170t-73.5 -156q-55 -68 -137 -92t-166 -24q-35 0 -66 2t-65 8q-51 10 -95.5 28.5t-83.5 55.5q-51 49 -70.5 93t-19.5 109v611q0 16 -1 32.5t-19 26.5q-16 8 -45 8t-45 2h-45zM541 1114q66 96 91.5 136.5t53.5 87.5q25 37 45.5 50t46.5 13q27 0 44.5 -17.5 t17.5 -37.5q0 -29 -13.5 -46.5t-37.5 -35.5q-37 -29 -95.5 -74t-126.5 -98z" />
<glyph unicode="&#xdb;" horiz-adv-x="1150" d="M25 956v64h471v-64q-33 -4 -65 -4t-64 -4q-10 -2 -20.5 -8t-10.5 -16v-568q0 -66 9 -126t63 -107q47 -43 98 -56.5t115 -13.5q70 0 135 31t100 94q16 29 27.5 73t11.5 79v452q0 94 -32 132t-132 42v64h397v-64q-59 0 -91.5 -17t-48 -47t-17.5 -71t-2 -90v-309 q0 -86 -12.5 -170t-73.5 -156q-55 -68 -137 -92t-166 -24q-35 0 -66 2t-65 8q-51 10 -95.5 28.5t-83.5 55.5q-51 49 -70.5 93t-19.5 109v611q0 16 -1 32.5t-19 26.5q-16 8 -45 8t-45 2h-45zM340 1115l172 251q12 18 23.5 25.5t42.5 7.5q29 0 40 -7t21 -24l172 -253l-35 -23 l-200 197l-201 -197z" />
<glyph unicode="&#xdc;" horiz-adv-x="1150" d="M25 956v64h471v-64q-33 -4 -65 -4t-64 -4q-10 -2 -20.5 -8t-10.5 -16v-568q0 -66 9 -126t63 -107q47 -43 98 -56.5t115 -13.5q70 0 135 31t100 94q16 29 27.5 73t11.5 79v452q0 94 -32 132t-132 42v64h397v-64q-59 0 -91.5 -17t-48 -47t-17.5 -71t-2 -90v-309 q0 -86 -12.5 -170t-73.5 -156q-55 -68 -137 -92t-166 -24q-35 0 -66 2t-65 8q-51 10 -95.5 28.5t-83.5 55.5q-51 49 -70.5 93t-19.5 109v611q0 16 -1 32.5t-19 26.5q-16 8 -45 8t-45 2h-45zM334 1173q0 37 25.5 62.5t60.5 25.5q37 0 61.5 -25.5t24.5 -62.5t-24.5 -63.5 t-61.5 -26.5q-35 0 -60.5 26.5t-25.5 63.5zM647 1173q0 37 25 62.5t59 25.5q37 0 61.5 -25.5t24.5 -62.5t-24.5 -63.5t-61.5 -26.5q-35 0 -59.5 26.5t-24.5 63.5z" />
<glyph unicode="&#xdd;" horiz-adv-x="995" d="M-18 956v64h452v-64h-45q-8 0 -22.5 1t-27.5 0t-25.5 -4t-14.5 -9q-6 -6 -5 -16t5 -19q2 -8 6 -15t8 -15l238 -379l168 295q6 14 13 27.5t13 29.5q4 16 5.5 32.5t-2.5 33.5q-12 16 -21 22q-29 10 -58.5 12t-60.5 4v64h400v-64q-80 -4 -119 -35.5t-76 -99.5l-225 -401 v-268q0 -29 2 -46.5t10 -26.5t24.5 -12.5t47.5 -3.5h80v-63h-486v63h43h31.5t38 3.5t33 9.5t18.5 22t4 35v35v240l-284 450q-10 18 -31 49t-43 39q-29 10 -60 10h-34zM471 1114q66 96 91.5 136.5t53.5 87.5q25 37 45.5 50t46.5 13q27 0 44.5 -17.5t17.5 -37.5 q0 -29 -13.5 -46.5t-37.5 -35.5q-37 -29 -95.5 -74t-126.5 -98z" />
<glyph unicode="&#xde;" horiz-adv-x="911" d="M70 977v51h432v-51q-20 0 -51 -6t-45 -10q-25 -10 -34.5 -29t-9.5 -43v-68h185q135 0 225 -74.5t90 -197.5q0 -82 -31.5 -142.5t-85.5 -99.5q-51 -37 -117.5 -55.5t-142.5 -18.5h-123v-94q0 -25 8.5 -44t35.5 -29q12 -4 44.5 -9.5t59.5 -5.5v-51h-438v51q16 2 49 5t47 10 q20 10 30.5 28.5t10.5 44.5v742q0 25 -8 42t-33 29q-23 8 -50.5 16.5t-47.5 8.5zM362 299h80q78 0 127 23.5t72 60.5q27 37 34 75t7 68q0 41 -10 85t-35 75q-27 37 -69 56.5t-103 19.5h-103v-463z" />
<glyph unicode="&#xdf;" horiz-adv-x="813" d="M43 0v47q14 2 33.5 4t32.5 6q18 6 26 23.5t8 44.5v604q0 100 15.5 169t74.5 132q49 53 106.5 73.5t113.5 20.5q51 0 93 -12t81 -41q35 -27 55 -66.5t20 -101.5q0 -53 -19 -94t-48 -68q-31 -27 -63.5 -42t-61.5 -17v-6q39 -8 83 -30.5t81 -61.5q35 -37 59.5 -92.5 t24.5 -131.5q0 -162 -91.5 -265t-224.5 -103q-23 0 -47 2t-41 6v59q16 -4 34 -6t32 -2q49 0 86 24.5t57 65.5q23 43 32 98.5t9 125.5q0 127 -53 203.5t-154 76.5h-14v64h27q29 0 58.5 10t53.5 33q25 25 40.5 61.5t15.5 85.5q0 82 -36 126t-98 44q-84 0 -124.5 -78 t-40.5 -223v-768h-236z" />
<glyph unicode="&#xe0;" horiz-adv-x="786" d="M115 1016q0 20 16 37.5t43 17.5q29 0 49.5 -12t42.5 -51q25 -39 59 -90.5t89 -133.5l-29 -22q-74 59 -133.5 103t-85.5 69q-29 23 -40 37t-11 45zM135 147q0 70 50.5 116t121 76t146.5 44t129 23q4 25 2 49t-2 51q-4 66 -49 86t-103 20q-29 0 -63.5 -4t-56.5 -24 q-12 -10 -10.5 -19.5t10.5 -21.5q6 -12 13 -26.5t7 -31.5q0 -37 -22.5 -53t-57.5 -16q-39 0 -56.5 26.5t-17.5 61.5q0 47 32 83t71 54q47 20 85 28.5t87 8.5q35 0 69.5 -5t65.5 -16q43 -16 67.5 -36.5t38 -47t16.5 -59.5t3 -74l-4 -243v-30.5t2 -31.5q0 -14 6 -31.5 t23 -25.5q18 -16 45 -8q18 8 41 14q18 -2 18 -21q-12 -35 -51 -55t-76 -20q-53 0 -82 26.5t-43 77.5q-47 -57 -114.5 -84.5t-139.5 -27.5q-82 0 -141.5 38.5t-59.5 128.5zM275 160q0 -51 35.5 -81t82.5 -30q45 0 87.5 22.5t68.5 57.5q29 39 31 76t2 82v61q-41 -8 -94.5 -17 t-100.5 -27.5t-79.5 -52.5t-32.5 -91z" />
<glyph unicode="&#xe1;" horiz-adv-x="786" d="M135 147q0 70 50.5 116t121 76t146.5 44t129 23q4 25 2 49t-2 51q-4 66 -49 86t-103 20q-29 0 -63.5 -4t-56.5 -24q-12 -10 -10.5 -19.5t10.5 -21.5q6 -12 13 -26.5t7 -31.5q0 -37 -22.5 -53t-57.5 -16q-39 0 -56.5 26.5t-17.5 61.5q0 47 32 83t71 54q47 20 85 28.5 t87 8.5q35 0 69.5 -5t65.5 -16q43 -16 67.5 -36.5t38 -47t16.5 -59.5t3 -74l-4 -243v-30.5t2 -31.5q0 -14 6 -31.5t23 -25.5q18 -16 45 -8q18 8 41 14q18 -2 18 -21q-12 -35 -51 -55t-76 -20q-53 0 -82 26.5t-43 77.5q-47 -57 -114.5 -84.5t-139.5 -27.5q-82 0 -141.5 38.5 t-59.5 128.5zM275 160q0 -51 35.5 -81t82.5 -30q45 0 87.5 22.5t68.5 57.5q29 39 31 76t2 82v61q-41 -8 -94.5 -17t-100.5 -27.5t-79.5 -52.5t-32.5 -91zM383 782q66 96 91.5 136.5t53.5 87.5q25 37 45.5 50t46.5 13q27 0 44.5 -17.5t17.5 -37.5q0 -29 -13.5 -46.5 t-37.5 -35.5q-37 -29 -95.5 -74t-126.5 -98z" />
<glyph unicode="&#xe2;" horiz-adv-x="786" d="M135 147q0 70 50.5 116t121 76t146.5 44t129 23q4 25 2 49t-2 51q-4 66 -49 86t-103 20q-29 0 -63.5 -4t-56.5 -24q-12 -10 -10.5 -19.5t10.5 -21.5q6 -12 13 -26.5t7 -31.5q0 -37 -22.5 -53t-57.5 -16q-39 0 -56.5 26.5t-17.5 61.5q0 47 32 83t71 54q47 20 85 28.5 t87 8.5q35 0 69.5 -5t65.5 -16q43 -16 67.5 -36.5t38 -47t16.5 -59.5t3 -74l-4 -243v-30.5t2 -31.5q0 -14 6 -31.5t23 -25.5q18 -16 45 -8q18 8 41 14q18 -2 18 -21q-12 -35 -51 -55t-76 -20q-53 0 -82 26.5t-43 77.5q-47 -57 -114.5 -84.5t-139.5 -27.5q-82 0 -141.5 38.5 t-59.5 128.5zM207 781l172 251q12 18 23.5 25.5t42.5 7.5q29 0 40 -7t21 -24l172 -253l-35 -23l-200 197l-201 -197zM275 160q0 -51 35.5 -81t82.5 -30q45 0 87.5 22.5t68.5 57.5q29 39 31 76t2 82v61q-41 -8 -94.5 -17t-100.5 -27.5t-79.5 -52.5t-32.5 -91z" />
<glyph unicode="&#xe3;" horiz-adv-x="786" d="M135 147q0 70 50.5 116t121 76t146.5 44t129 23q4 25 2 49t-2 51q-4 66 -49 86t-103 20q-29 0 -63.5 -4t-56.5 -24q-12 -10 -10.5 -19.5t10.5 -21.5q6 -12 13 -26.5t7 -31.5q0 -37 -22.5 -53t-57.5 -16q-39 0 -56.5 26.5t-17.5 61.5q0 47 32 83t71 54q47 20 85 28.5 t87 8.5q35 0 69.5 -5t65.5 -16q43 -16 67.5 -36.5t38 -47t16.5 -59.5t3 -74l-4 -243v-30.5t2 -31.5q0 -14 6 -31.5t23 -25.5q18 -16 45 -8q18 8 41 14q18 -2 18 -21q-12 -35 -51 -55t-76 -20q-53 0 -82 26.5t-43 77.5q-47 -57 -114.5 -84.5t-139.5 -27.5q-82 0 -141.5 38.5 t-59.5 128.5zM164 783q6 23 23.5 55.5t40.5 56.5q20 27 52 45.5t64 18.5q41 0 71 -12.5t54 -26.5q27 -14 46.5 -25.5t46.5 -11.5q29 0 46 7t27 20q12 14 20.5 29.5t18.5 39.5l43 -14q-6 -29 -20.5 -57.5t-38.5 -57.5q-29 -29 -56.5 -46t-68.5 -17t-72 12t-53 25 q-27 14 -49.5 26.5t-48.5 12.5q-25 0 -35 -6.5t-25 -18.5q-10 -14 -22.5 -35.5t-22.5 -40.5zM275 160q0 -51 35.5 -81t82.5 -30q45 0 87.5 22.5t68.5 57.5q29 39 31 76t2 82v61q-41 -8 -94.5 -17t-100.5 -27.5t-79.5 -52.5t-32.5 -91z" />
<glyph unicode="&#xe4;" horiz-adv-x="786" d="M135 147q0 70 50.5 116t121 76t146.5 44t129 23q4 25 2 49t-2 51q-4 66 -49 86t-103 20q-29 0 -63.5 -4t-56.5 -24q-12 -10 -10.5 -19.5t10.5 -21.5q6 -12 13 -26.5t7 -31.5q0 -37 -22.5 -53t-57.5 -16q-39 0 -56.5 26.5t-17.5 61.5q0 47 32 83t71 54q47 20 85 28.5 t87 8.5q35 0 69.5 -5t65.5 -16q43 -16 67.5 -36.5t38 -47t16.5 -59.5t3 -74l-4 -243v-30.5t2 -31.5q0 -14 6 -31.5t23 -25.5q18 -16 45 -8q18 8 41 14q18 -2 18 -21q-12 -35 -51 -55t-76 -20q-53 0 -82 26.5t-43 77.5q-47 -57 -114.5 -84.5t-139.5 -27.5q-82 0 -141.5 38.5 t-59.5 128.5zM192 856q0 37 25.5 62.5t60.5 25.5q37 0 61.5 -25.5t24.5 -62.5t-24.5 -63.5t-61.5 -26.5q-35 0 -60.5 26.5t-25.5 63.5zM275 160q0 -51 35.5 -81t82.5 -30q45 0 87.5 22.5t68.5 57.5q29 39 31 76t2 82v61q-41 -8 -94.5 -17t-100.5 -27.5t-79.5 -52.5 t-32.5 -91zM505 856q0 37 25 62.5t59 25.5q37 0 61.5 -25.5t24.5 -62.5t-24.5 -63.5t-61.5 -26.5q-35 0 -59.5 26.5t-24.5 63.5z" />
<glyph unicode="&#xe5;" horiz-adv-x="786" d="M61 147q0 70 50.5 116t121 76t146.5 44t129 23q4 25 2 49t-2 51q-4 66 -49 86t-103 20q-29 0 -63.5 -4t-56.5 -24q-12 -10 -10.5 -19.5t10.5 -21.5q6 -12 13 -26.5t7 -31.5q0 -37 -22.5 -53t-57.5 -16q-39 0 -56.5 26.5t-17.5 61.5q0 47 32 83t71 54q47 20 85 28.5 t87 8.5q35 0 69.5 -5t65.5 -16q43 -16 67.5 -36.5t38 -47t16.5 -59.5t3 -74l-4 -243v-30.5t2 -31.5q0 -14 6 -31.5t23 -25.5q18 -16 45 -8q18 8 41 14q18 -2 18 -21q-12 -35 -51 -55t-76 -20q-53 0 -82 26.5t-43 77.5q-47 -57 -114.5 -84.5t-139.5 -27.5q-82 0 -141.5 38.5 t-59.5 128.5zM176 930q0 72 54.5 116.5t132.5 44.5q82 0 134 -43.5t52 -117.5q0 -72 -51 -116t-135 -44t-135.5 43t-51.5 117zM201 160q0 -51 35.5 -81t82.5 -30q45 0 87.5 22.5t68.5 57.5q29 39 31 76t2 82v61q-41 -8 -94.5 -17t-100.5 -27.5t-79.5 -52.5t-32.5 -91z M266 930q0 -49 26 -82t71 -33q47 0 71.5 32t24.5 83t-24.5 82.5t-71.5 31.5q-45 0 -71 -30.5t-26 -83.5z" />
<glyph unicode="&#xe6;" horiz-adv-x="1165" d="M61 162q0 70 50.5 116t121 75.5t146.5 44t129 22.5q4 25 2 49.5t-2 50.5q-4 66 -49 86.5t-103 20.5q-29 0 -63.5 -4.5t-56.5 -24.5q-12 -10 -10.5 -19.5t10.5 -21.5q6 -12 13 -26.5t7 -30.5q0 -37 -22.5 -53.5t-57.5 -16.5q-39 0 -56.5 26.5t-17.5 61.5q0 47 32 83t71 54 q47 20 85 28.5t87 8.5q35 0 69.5 -5t65.5 -15q39 -14 61.5 -31.5t36.5 -40.5q41 43 95.5 67.5t119.5 24.5q78 0 136.5 -39t99.5 -104q23 -35 31 -75t16 -81q4 -16 4 -30.5t2 -30.5h-461q-2 -49 7.5 -96.5t34 -85t63.5 -61t96 -23.5q61 0 104 24.5t78 71.5q4 8 8.5 15t8.5 16 q4 4 7 11t7 13l49 -27q-43 -98 -111.5 -147t-175.5 -49q-70 0 -131 21.5t-108 74.5q-23 25 -39 55q-14 -27 -35 -39q-47 -57 -114.5 -84.5t-139.5 -27.5q-82 0 -141.5 39t-59.5 129zM201 174q0 -51 35.5 -81t82.5 -30q45 0 87 22.5t69 57.5q29 39 31 76t2 82v61 q-41 -8 -94.5 -17t-100.5 -27.5t-79.5 -52.5t-32.5 -91zM655 391h238q37 0 55.5 4t18.5 47q0 35 -8.5 69t-24.5 61.5t-45 45t-68 17.5q-47 0 -78.5 -23.5t-50 -60.5t-27 -80t-10.5 -80z" />
<glyph unicode="&#xe7;" horiz-adv-x="673" d="M51 360q0 76 23.5 141.5t68.5 119.5q43 51 107.5 82.5t140.5 31.5q106 0 172 -50t66 -138q0 -35 -17.5 -63.5t-56.5 -28.5q-43 0 -66.5 22.5t-23.5 48.5q0 31 8 66t10 51q-12 23 -37.5 31t-56.5 8q-35 0 -66.5 -15.5t-60.5 -56.5q-27 -35 -43 -96t-16 -147 q0 -135 59.5 -220.5t155.5 -85.5q72 0 119 34t88 102l47 -29q-47 -84 -124 -134t-159 -52v-54q35 0 60.5 -4t52.5 -18q25 -10 40 -31.5t15 -54.5q0 -41 -23.5 -71t-64.5 -46q-41 -12 -89 -18.5t-112 -6.5v52q29 0 64 1t59 7q29 6 45.5 19.5t16.5 37.5q0 18 -11.5 28.5 t-27.5 16.5t-41 8t-39 2v134q-133 16 -208 117.5t-75 258.5z" />
<glyph unicode="&#xe8;" horiz-adv-x="706" d="M49 317q0 70 21.5 135.5t63.5 115.5t100.5 80t132.5 30q78 0 136 -39t99 -104q23 -35 31 -75t16 -81q4 -16 4 -30.5t2 -31.5h-460q-2 -49 7 -96t33.5 -85t63.5 -61.5t96 -23.5q61 0 104.5 24.5t78.5 71.5q4 8 8 15.5t8 15.5q4 4 7 11.5t7 13.5l49 -27 q-43 -98 -111.5 -147t-174.5 -49q-70 0 -131.5 21.5t-108.5 74.5q-49 53 -65.5 111.5t-16.5 129.5zM115 1016q0 20 16 37.5t43 17.5q29 0 49.5 -12t42.5 -51q25 -39 59 -90.5t89 -133.5l-29 -22q-74 59 -133.5 103t-85.5 69q-29 23 -40 37t-11 45zM197 377h237q37 0 55.5 4 t18.5 47q0 35 -8 68.5t-24.5 61.5t-45.5 45.5t-68 17.5q-47 0 -78.5 -24t-50 -60.5t-26.5 -79.5t-10 -80z" />
<glyph unicode="&#xe9;" horiz-adv-x="706" d="M49 317q0 70 21.5 135.5t63.5 115.5t100.5 80t132.5 30q78 0 136 -39t99 -104q23 -35 31 -75t16 -81q4 -16 4 -30.5t2 -31.5h-460q-2 -49 7 -96t33.5 -85t63.5 -61.5t96 -23.5q61 0 104.5 24.5t78.5 71.5q4 8 8 15.5t8 15.5q4 4 7 11.5t7 13.5l49 -27 q-43 -98 -111.5 -147t-174.5 -49q-70 0 -131.5 21.5t-108.5 74.5q-49 53 -65.5 111.5t-16.5 129.5zM197 377h237q37 0 55.5 4t18.5 47q0 35 -8 68.5t-24.5 61.5t-45.5 45.5t-68 17.5q-47 0 -78.5 -24t-50 -60.5t-26.5 -79.5t-10 -80zM369 782q66 96 91.5 136.5t53.5 87.5 q25 37 45.5 50t46.5 13q27 0 44.5 -17.5t17.5 -37.5q0 -29 -13.5 -46.5t-37.5 -35.5q-37 -29 -95.5 -74t-126.5 -98z" />
<glyph unicode="&#xea;" horiz-adv-x="706" d="M49 317q0 70 21.5 135.5t63.5 115.5t100.5 80t132.5 30q78 0 136 -39t99 -104q23 -35 31 -75t16 -81q4 -16 4 -30.5t2 -31.5h-460q-2 -49 7 -96t33.5 -85t63.5 -61.5t96 -23.5q61 0 104.5 24.5t78.5 71.5q4 8 8 15.5t8 15.5q4 4 7 11.5t7 13.5l49 -27 q-43 -98 -111.5 -147t-174.5 -49q-70 0 -131.5 21.5t-108.5 74.5q-49 53 -65.5 111.5t-16.5 129.5zM119 781l172 251q12 18 23.5 25.5t42.5 7.5q29 0 40 -7t21 -24l172 -253l-35 -23l-200 197l-201 -197zM197 377h237q37 0 55.5 4t18.5 47q0 35 -8 68.5t-24.5 61.5 t-45.5 45.5t-68 17.5q-47 0 -78.5 -24t-50 -60.5t-26.5 -79.5t-10 -80z" />
<glyph unicode="&#xeb;" horiz-adv-x="706" d="M49 317q0 70 21.5 135.5t63.5 115.5t100.5 80t132.5 30q78 0 136 -39t99 -104q23 -35 31 -75t16 -81q4 -16 4 -30.5t2 -31.5h-460q-2 -49 7 -96t33.5 -85t63.5 -61.5t96 -23.5q61 0 104.5 24.5t78.5 71.5q4 8 8 15.5t8 15.5q4 4 7 11.5t7 13.5l49 -27 q-43 -98 -111.5 -147t-174.5 -49q-70 0 -131.5 21.5t-108.5 74.5q-49 53 -65.5 111.5t-16.5 129.5zM113 856q0 37 25.5 62.5t60.5 25.5q37 0 61.5 -25.5t24.5 -62.5t-24.5 -63.5t-61.5 -26.5q-35 0 -60.5 26.5t-25.5 63.5zM197 377h237q37 0 55.5 4t18.5 47q0 35 -8 68.5 t-24.5 61.5t-45.5 45.5t-68 17.5q-47 0 -78.5 -24t-50 -60.5t-26.5 -79.5t-10 -80zM426 856q0 37 25 62.5t59 25.5q37 0 61.5 -25.5t24.5 -62.5t-24.5 -63.5t-61.5 -26.5q-35 0 -59.5 26.5t-24.5 63.5z" />
<glyph unicode="&#xec;" horiz-adv-x="444" d="M27 1016q0 20 16 37.5t43 17.5q29 0 49.5 -12t42.5 -51q25 -39 59 -90.5t89 -133.5l-29 -22q-74 59 -133.5 103t-85.5 69q-29 23 -40 37t-11 45zM121 582v59l264 14v-542q0 -33 3 -45.5t38 -14.5q20 -2 39.5 -4t38.5 0v-49h-371v49h39q16 4 35.5 3t35.5 9 q10 23 11.5 47.5t1.5 49.5v325v40t-6 40q-8 10 -20.5 12.5l-22.5 4.5z" />
<glyph unicode="&#xed;" horiz-adv-x="444" d="M25 582v59l264 14v-542q0 -33 3 -45.5t38 -14.5q20 -2 39.5 -4t38.5 0v-49h-371v49h39q16 4 35.5 3t35.5 9q10 23 11.5 47.5t1.5 49.5v325v40t-6 40q-8 10 -20.5 12.5l-22.5 4.5zM201 782q66 96 91.5 136.5t53.5 87.5q25 37 45.5 50t46.5 13q27 0 44.5 -17.5t17.5 -37.5 q0 -29 -13.5 -46.5t-37.5 -35.5q-37 -29 -95.5 -74t-126.5 -98z" />
<glyph unicode="&#xee;" horiz-adv-x="444" d="M26 781l172 251q12 18 23.5 25.5t42.5 7.5q29 0 40 -7t21 -24l172 -253l-35 -23l-200 197l-201 -197zM88 582v59l264 14v-542q0 -33 3 -45.5t38 -14.5q20 -2 39.5 -4t38.5 0v-49h-371v49h39q16 4 35.5 3t35.5 9q10 23 11.5 47.5t1.5 49.5v325v40t-6 40q-8 10 -20.5 12.5 l-22.5 4.5z" />
<glyph unicode="&#xef;" horiz-adv-x="444" d="M25 856q0 37 25.5 62.5t60.5 25.5q37 0 61.5 -25.5t24.5 -62.5t-24.5 -63.5t-61.5 -26.5q-35 0 -60.5 26.5t-25.5 63.5zM88 582v59l264 14v-542q0 -33 3 -45.5t38 -14.5q20 -2 39.5 -4t38.5 0v-49h-371v49h39q16 4 35.5 3t35.5 9q10 23 11.5 47.5t1.5 49.5v325v40t-6 40 q-8 10 -20.5 12.5l-22.5 4.5zM338 856q0 37 25 62.5t59 25.5q37 0 61.5 -25.5t24.5 -62.5t-24.5 -63.5t-61.5 -26.5q-35 0 -59.5 26.5t-24.5 63.5z" />
<glyph unicode="&#xf0;" horiz-adv-x="790" d="M51 352q0 160 92.5 261.5t237.5 101.5q68 0 120 -32t74 -71l7 2q-10 94 -46 173t-79 143l-168 -101l-37 58l166 94q-23 31 -54.5 57.5t-66.5 48.5l37 41q33 -18 80 -48.5t73 -57.5l148 88l37 -57l-137 -78q100 -106 150 -235.5t50 -297.5q0 -213 -92 -339t-258 -126 q-63 0 -122.5 25t-108.5 74q-47 47 -75 116.5t-28 159.5zM201 362q0 -166 50 -247.5t142 -81.5q51 0 88 28.5t60 75.5q23 45 33 105.5t10 128.5q0 129 -51.5 207.5t-137.5 78.5q-55 0 -93 -26.5t-60 -67.5q-20 -37 -30.5 -91t-10.5 -110z" />
<glyph unicode="&#xf1;" horiz-adv-x="864" d="M39 0v49h35q16 4 34.5 3t34.5 9q6 4 8.5 12.5t2.5 14.5v395v40t-7 40q-6 10 -16 12.5t-20 4.5l-72 2v59l242 14v-118q53 88 112.5 114.5t106.5 26.5q23 0 52.5 -6t59 -22.5t55 -44t40.5 -68.5q10 -25 14 -56.5t4 -79.5v-303q0 -6 1 -11t1 -11q0 -10 8 -15.5t17 -7.5h30.5 t30.5 -2l25 -2v-49h-357v49q16 -2 33.5 0t36.5 4q8 0 18.5 2t16.5 8q4 2 4 6.5t4 8.5v20v308q0 39 -2 59t-4 35q-6 43 -44 68.5t-85 25.5q-45 0 -84 -26.5t-62 -67.5t-25.5 -80t-2.5 -84v-236v-11t2 -13q0 -12 10 -17.5t23.5 -6.5t27.5 -1h23l28 -2v-49h-360zM155 783 q6 23 23.5 55.5t40.5 56.5q20 27 52 45.5t64 18.5q41 0 71 -12.5t54 -26.5q27 -14 46.5 -25.5t46.5 -11.5q29 0 46 7t27 20q12 14 20.5 29.5t18.5 39.5l43 -14q-6 -29 -20.5 -57.5t-38.5 -57.5q-29 -29 -56.5 -46t-68.5 -17t-72 12t-53 25q-27 14 -49.5 26.5t-48.5 12.5 q-25 0 -35 -6.5t-25 -18.5q-10 -14 -22.5 -35.5t-22.5 -40.5z" />
<glyph unicode="&#xf2;" horiz-adv-x="706" d="M47 322q0 76 17.5 131t64.5 114q41 49 96.5 80t120.5 31q76 0 134.5 -30t98 -79t60 -113.5t20.5 -133.5q0 -72 -20.5 -133.5t-60 -108.5t-98 -73.5t-132.5 -26.5q-72 0 -128 28.5t-94 75.5t-58.5 108.5t-20.5 129.5zM115 1016q0 20 16 37.5t43 17.5q29 0 49.5 -12 t42.5 -51q25 -39 59 -90.5t89 -133.5l-29 -22q-74 59 -133.5 103t-85.5 69q-29 23 -40 37t-11 45zM193 322q0 -37 5 -87.5t21.5 -95.5t47 -75.5t81.5 -30.5q55 0 89 28.5t50.5 72.5t21.5 94.5t5 93.5q0 55 -3 99t-22 97q-18 45 -50 74t-85 29q-55 0 -86.5 -31t-49 -77 t-21.5 -98.5t-4 -92.5z" />
<glyph unicode="&#xf3;" horiz-adv-x="706" d="M47 322q0 76 17.5 131t64.5 114q41 49 96.5 80t120.5 31q76 0 134.5 -30t98 -79t60 -113.5t20.5 -133.5q0 -72 -20.5 -133.5t-60 -108.5t-98 -73.5t-132.5 -26.5q-72 0 -128 28.5t-94 75.5t-58.5 108.5t-20.5 129.5zM193 322q0 -37 5 -87.5t21.5 -95.5t47 -75.5 t81.5 -30.5q55 0 89 28.5t50.5 72.5t21.5 94.5t5 93.5q0 55 -3 99t-22 97q-18 45 -50 74t-85 29q-55 0 -86.5 -31t-49 -77t-21.5 -98.5t-4 -92.5zM324 782q66 96 91.5 136.5t53.5 87.5q25 37 45.5 50t46.5 13q27 0 44.5 -17.5t17.5 -37.5q0 -29 -13.5 -46.5t-37.5 -35.5 q-37 -29 -95.5 -74t-126.5 -98z" />
<glyph unicode="&#xf4;" horiz-adv-x="706" d="M47 322q0 76 17.5 131t64.5 114q41 49 96.5 80t120.5 31q76 0 134.5 -30t98 -79t60 -113.5t20.5 -133.5q0 -72 -20.5 -133.5t-60 -108.5t-98 -73.5t-132.5 -26.5q-72 0 -128 28.5t-94 75.5t-58.5 108.5t-20.5 129.5zM119 781l172 251q12 18 23.5 25.5t42.5 7.5 q29 0 40 -7t21 -24l172 -253l-35 -23l-200 197l-201 -197zM193 322q0 -37 5 -87.5t21.5 -95.5t47 -75.5t81.5 -30.5q55 0 89 28.5t50.5 72.5t21.5 94.5t5 93.5q0 55 -3 99t-22 97q-18 45 -50 74t-85 29q-55 0 -86.5 -31t-49 -77t-21.5 -98.5t-4 -92.5z" />
<glyph unicode="&#xf5;" horiz-adv-x="706" d="M47 322q0 76 17.5 131t64.5 114q41 49 96.5 80t120.5 31q76 0 134.5 -30t98 -79t60 -113.5t20.5 -133.5q0 -72 -20.5 -133.5t-60 -108.5t-98 -73.5t-132.5 -26.5q-72 0 -128 28.5t-94 75.5t-58.5 108.5t-20.5 129.5zM78 783q6 23 23.5 55.5t40.5 56.5q20 27 52 45.5 t64 18.5q41 0 71 -12.5t54 -26.5q27 -14 46.5 -25.5t46.5 -11.5q29 0 46 7t27 20q12 14 20.5 29.5t18.5 39.5l43 -14q-6 -29 -20.5 -57.5t-38.5 -57.5q-29 -29 -56.5 -46t-68.5 -17t-72 12t-53 25q-27 14 -49.5 26.5t-48.5 12.5q-25 0 -35 -6.5t-25 -18.5 q-10 -14 -22.5 -35.5t-22.5 -40.5zM193 322q0 -37 5 -87.5t21.5 -95.5t47 -75.5t81.5 -30.5q55 0 89 28.5t50.5 72.5t21.5 94.5t5 93.5q0 55 -3 99t-22 97q-18 45 -50 74t-85 29q-55 0 -86.5 -31t-49 -77t-21.5 -98.5t-4 -92.5z" />
<glyph unicode="&#xf6;" horiz-adv-x="706" d="M47 322q0 76 17.5 131t64.5 114q41 49 96.5 80t120.5 31q76 0 134.5 -30t98 -79t60 -113.5t20.5 -133.5q0 -72 -20.5 -133.5t-60 -108.5t-98 -73.5t-132.5 -26.5q-72 0 -128 28.5t-94 75.5t-58.5 108.5t-20.5 129.5zM113 856q0 37 25.5 62.5t60.5 25.5q37 0 61.5 -25.5 t24.5 -62.5t-24.5 -63.5t-61.5 -26.5q-35 0 -60.5 26.5t-25.5 63.5zM193 322q0 -37 5 -87.5t21.5 -95.5t47 -75.5t81.5 -30.5q55 0 89 28.5t50.5 72.5t21.5 94.5t5 93.5q0 55 -3 99t-22 97q-18 45 -50 74t-85 29q-55 0 -86.5 -31t-49 -77t-21.5 -98.5t-4 -92.5zM426 856 q0 37 25 62.5t59 25.5q37 0 61.5 -25.5t24.5 -62.5t-24.5 -63.5t-61.5 -26.5q-35 0 -59.5 26.5t-24.5 63.5z" />
<glyph unicode="&#xf7;" horiz-adv-x="954" d="M104 360v91h746v-91h-746zM383 111q0 39 27.5 66.5t66.5 27.5t66.5 -27.5t27.5 -66.5t-27.5 -66t-66.5 -27t-66.5 27t-27.5 66zM383 700q0 39 27.5 66t66.5 27t66.5 -27t27.5 -66t-27.5 -66.5t-66.5 -27.5t-66.5 28t-27.5 66z" />
<glyph unicode="&#xf8;" horiz-adv-x="706" d="M47 322q0 76 17.5 131t64.5 114q41 49 96.5 80t120.5 31q76 0 134.5 -30t98 -79t60 -113.5t20.5 -133.5q0 -72 -20.5 -133.5t-60 -108.5t-98 -73.5t-132.5 -26.5q-72 0 -128 28.5t-94 75.5t-58.5 108.5t-20.5 129.5zM84 -12l449 688h105l-449 -688h-105zM193 322 q0 -37 5 -87.5t21.5 -95.5t47 -75.5t81.5 -30.5q55 0 89 28.5t50.5 72.5t21.5 94.5t5 93.5q0 55 -3 99t-22 97q-18 45 -50 74t-85 29q-55 0 -86.5 -31t-49 -77t-21.5 -98.5t-4 -92.5z" />
<glyph unicode="&#xf9;" horiz-adv-x="864" d="M29 582v59l247 14v-403v-80q4 -55 38 -82t87 -27q51 0 91 25t63 70q23 49 25 89t6 93v199q-4 20 -8.5 27t-26.5 12q-25 4 -51.5 4h-50.5v59l266 14v-497q0 -16 2 -36t14 -32q6 -8 21 -12q16 -2 29.5 -2h27.5h31v-62l-254 -14v111q-35 -59 -92.5 -95t-126.5 -36 q-14 0 -45 5t-65 18t-62.5 39t-36.5 69q-8 12 -10.5 52t-2.5 66v306q0 8 -1 17t-9 15q-16 14 -36.5 14.5t-41.5 0.5h-28zM146 1016q0 20 16 37.5t43 17.5q29 0 49.5 -12t42.5 -51q25 -39 59 -90.5t89 -133.5l-29 -22q-74 59 -133.5 103t-85.5 69q-29 23 -40 37t-11 45z" />
<glyph unicode="&#xfa;" horiz-adv-x="864" d="M29 582v59l247 14v-403v-80q4 -55 38 -82t87 -27q51 0 91 25t63 70q23 49 25 89t6 93v199q-4 20 -8.5 27t-26.5 12q-25 4 -51.5 4h-50.5v59l266 14v-497q0 -16 2 -36t14 -32q6 -8 21 -12q16 -2 29.5 -2h27.5h31v-62l-254 -14v111q-35 -59 -92.5 -95t-126.5 -36 q-14 0 -45 5t-65 18t-62.5 39t-36.5 69q-8 12 -10.5 52t-2.5 66v306q0 8 -1 17t-9 15q-16 14 -36.5 14.5t-41.5 0.5h-28zM404 782q66 96 91.5 136.5t53.5 87.5q25 37 45.5 50t46.5 13q27 0 44.5 -17.5t17.5 -37.5q0 -29 -13.5 -46.5t-37.5 -35.5q-37 -29 -95.5 -74 t-126.5 -98z" />
<glyph unicode="&#xfb;" horiz-adv-x="864" d="M29 582v59l247 14v-403v-80q4 -55 38 -82t87 -27q51 0 91 25t63 70q23 49 25 89t6 93v199q-4 20 -8.5 27t-26.5 12q-25 4 -51.5 4h-50.5v59l266 14v-497q0 -16 2 -36t14 -32q6 -8 21 -12q16 -2 29.5 -2h27.5h31v-62l-254 -14v111q-35 -59 -92.5 -95t-126.5 -36 q-14 0 -45 5t-65 18t-62.5 39t-36.5 69q-8 12 -10.5 52t-2.5 66v306q0 8 -1 17t-9 15q-16 14 -36.5 14.5t-41.5 0.5h-28zM186 781l172 251q12 18 23.5 25.5t42.5 7.5q29 0 40 -7t21 -24l172 -253l-35 -23l-200 197l-201 -197z" />
<glyph unicode="&#xfc;" horiz-adv-x="864" d="M29 582v59l247 14v-403v-80q4 -55 38 -82t87 -27q51 0 91 25t63 70q23 49 25 89t6 93v199q-4 20 -8.5 27t-26.5 12q-25 4 -51.5 4h-50.5v59l266 14v-497q0 -16 2 -36t14 -32q6 -8 21 -12q16 -2 29.5 -2h27.5h31v-62l-254 -14v111q-35 -59 -92.5 -95t-126.5 -36 q-14 0 -45 5t-65 18t-62.5 39t-36.5 69q-8 12 -10.5 52t-2.5 66v306q0 8 -1 17t-9 15q-16 14 -36.5 14.5t-41.5 0.5h-28zM192 856q0 37 25.5 62.5t60.5 25.5q37 0 61.5 -25.5t24.5 -62.5t-24.5 -63.5t-61.5 -26.5q-35 0 -60.5 26.5t-25.5 63.5zM505 856q0 37 25 62.5 t59 25.5q37 0 61.5 -25.5t24.5 -62.5t-24.5 -63.5t-61.5 -26.5q-35 0 -59.5 26.5t-24.5 63.5z" />
<glyph unicode="&#xfd;" horiz-adv-x="759" d="M4 -180q0 37 25.5 59.5t60.5 22.5q23 0 45.5 -17.5t22.5 -42.5q0 -27 -8 -43l-3 -4q-2 -4 -1 -6t1 -6q4 -2 9 -6q37 -4 67.5 22.5t57 65.5t47 80t32.5 67l-227 518q-10 25 -19.5 39.5t-21.5 22.5t-29.5 11t-44.5 3v49h334v-49l-26 -2q-23 0 -45.5 -2t-22.5 -31 q0 -6 5 -21t9 -22l154 -360l115 291l14 35q4 10 10 27.5t6 25.5q0 41 -19.5 49t-53.5 10h-27v49h279v-49q-59 -2 -82 -34.5t-43 -79.5l-176 -433l-46 -102q-18 -41 -43.5 -84t-58.5 -79t-74 -59.5t-92 -23.5q-53 0 -92 25.5t-39 83.5zM369 782q66 96 91.5 136.5t53.5 87.5 q25 37 45.5 50t46.5 13q27 0 44.5 -17.5t17.5 -37.5q0 -29 -13.5 -46.5t-37.5 -35.5q-37 -29 -95.5 -74t-126.5 -98z" />
<glyph unicode="&#xfe;" horiz-adv-x="829" d="M-14 1059v47l266 16l8 -12v-473l4 -4q39 43 95.5 71.5t109.5 28.5q68 0 123 -27.5t94 -74.5q43 -51 66.5 -119t23.5 -154q0 -84 -27.5 -154.5t-74.5 -117.5q-47 -51 -106.5 -77.5t-127.5 -26.5q-63 0 -105 14t-69 35h-6v-215q0 -27 10.5 -44.5t30.5 -25.5q18 -6 50 -12 t55 -6v-50h-400v50q23 0 43.5 2t36.5 8q23 6 32 24.5t9 42.5v1149q-2 23 -12.5 48.5t-28.5 37.5q-14 8 -47 13.5t-53 5.5zM260 152q8 -20 22.5 -41t32.5 -35q23 -18 48.5 -29.5t64.5 -11.5q41 0 79 21.5t62 60.5q29 45 43.5 104t14.5 131q0 55 -12.5 110.5t-36.5 96.5 q-25 43 -65 68.5t-95 25.5q-53 0 -91 -23.5t-67 -56.5v-421z" />
<glyph unicode="&#xff;" horiz-adv-x="759" d="M4 -180q0 37 25.5 59.5t60.5 22.5q23 0 45.5 -17.5t22.5 -42.5q0 -27 -8 -43l-3 -4q-2 -4 -1 -6t1 -6q4 -2 9 -6q37 -4 67.5 22.5t57 65.5t47 80t32.5 67l-227 518q-10 25 -19.5 39.5t-21.5 22.5t-29.5 11t-44.5 3v49h334v-49l-26 -2q-23 0 -45.5 -2t-22.5 -31 q0 -6 5 -21t9 -22l154 -360l115 291l14 35q4 10 10 27.5t6 25.5q0 41 -19.5 49t-53.5 10h-27v49h279v-49q-59 -2 -82 -34.5t-43 -79.5l-176 -433l-46 -102q-18 -41 -43.5 -84t-58.5 -79t-74 -59.5t-92 -23.5q-53 0 -92 25.5t-39 83.5zM137 856q0 37 25.5 62.5t60.5 25.5 q37 0 61.5 -25.5t24.5 -62.5t-24.5 -63.5t-61.5 -26.5q-35 0 -60.5 26.5t-25.5 63.5zM450 856q0 37 25 62.5t59 25.5q37 0 61.5 -25.5t24.5 -62.5t-24.5 -63.5t-61.5 -26.5q-35 0 -59.5 26.5t-24.5 63.5z" />
<glyph unicode="&#x102;" horiz-adv-x="1019" d="M-12 0v63q59 2 93 30t54 81l342 868h55l375 -917q10 -25 22.5 -37t27 -17t33 -6.5t42.5 -1.5v-63h-432v63q29 2 59.5 2.5t59.5 6.5q10 2 19.5 11t9.5 19q0 12 -7 25l-82 205h-383q-10 -29 -20 -56.5t-20 -58.5q-8 -23 -13.5 -37t-5.5 -37q0 -29 14.5 -45t37 -23t47 -9.5 t46.5 -2.5v-63h-374zM282 1376l41 11q10 -35 24.5 -67t35.5 -52q20 -25 50 -37t77 -12q45 0 75.5 12t51.5 35q20 23 34.5 53.5t24.5 67.5l41 -11q-20 -137 -76.5 -201.5t-150.5 -64.5q-96 0 -152.5 68.5t-75.5 197.5zM303 403h328l-166 416z" />
<glyph unicode="&#x103;" horiz-adv-x="786" d="M61 147q0 70 50.5 116t121 76t146.5 44t129 23q4 25 2 49t-2 51q-4 66 -49 86t-103 20q-29 0 -63.5 -4t-56.5 -24q-12 -10 -10.5 -19.5t10.5 -21.5q6 -12 13 -26.5t7 -31.5q0 -37 -22.5 -53t-57.5 -16q-39 0 -56.5 26.5t-17.5 61.5q0 47 32 83t71 54q47 20 85 28.5 t87 8.5q35 0 69.5 -5t65.5 -16q43 -16 67.5 -36.5t38 -47t16.5 -59.5t3 -74l-4 -243v-30.5t2 -31.5q0 -14 6 -31.5t23 -25.5q18 -16 45 -8q18 8 41 14q18 -2 18 -21q-12 -35 -51 -55t-76 -20q-53 0 -82 26.5t-43 77.5q-47 -57 -114.5 -84.5t-139.5 -27.5q-82 0 -141.5 38.5 t-59.5 128.5zM166 1020l41 11q10 -35 24.5 -67t35.5 -52q20 -25 50 -37t77 -12q45 0 75.5 12t51.5 35q20 23 34.5 53.5t24.5 67.5l41 -11q-20 -137 -76.5 -201.5t-150.5 -64.5q-96 0 -152.5 68.5t-75.5 197.5zM201 160q0 -51 35.5 -81t82.5 -30q45 0 87.5 22.5t68.5 57.5 q29 39 31 76t2 82v61q-41 -8 -94.5 -17t-100.5 -27.5t-79.5 -52.5t-32.5 -91z" />
<glyph unicode="&#x106;" horiz-adv-x="1019" d="M63 485q0 106 29 201.5t96 177.5q68 82 153 130t196 48q72 0 139 -24.5t117 -73.5l57 88h53l21 -407l-62 -2q-10 33 -19 64.5t-22 64.5q-23 53 -43 90t-63 71q-76 63 -176 64q-86 0 -148.5 -46t-93.5 -122q-33 -82 -41 -160t-8 -164q0 -80 12 -159.5t46 -142t94.5 -101.5 t158.5 -39q74 0 128 24.5t93 66.5t63.5 99.5t35.5 124.5l65 -10q-25 -174 -126 -271t-279 -97q-106 0 -194.5 40.5t-151 109.5t-96.5 161t-34 194zM471 1114q66 96 91.5 136.5t53.5 87.5q25 37 45.5 50t46.5 13q27 0 44.5 -17.5t17.5 -37.5q0 -29 -13.5 -46.5t-37.5 -35.5 q-37 -29 -95.5 -74t-126.5 -98z" />
<glyph unicode="&#x107;" horiz-adv-x="626" d="M47 305q0 78 20.5 145.5t60.5 119t101.5 80t145.5 28.5q88 0 155 -55q23 -20 39.5 -47t16.5 -58q0 -41 -18.5 -70.5t-65.5 -29.5q-35 0 -59.5 19.5t-24.5 56.5q0 23 7 34t17 25q2 4 7.5 11t5.5 11q0 12 -10.5 20.5t-23.5 14.5t-26.5 8.5t-21.5 2.5q-53 0 -88 -28 t-55.5 -70t-28.5 -91t-8 -92q0 -49 8 -98t29.5 -89t58.5 -65t96 -25q66 0 104.5 42t61.5 100l51 -21q-23 -63 -62.5 -116.5t-107.5 -73.5q-23 -6 -48.5 -10t-47.5 -4q-68 0 -121 27.5t-90 72.5t-57.5 104.5t-20.5 120.5zM326 782q66 96 91.5 136.5t53.5 87.5q25 37 45.5 50 t46.5 13q27 0 44.5 -17.5t17.5 -37.5q0 -29 -13.5 -46.5t-37.5 -35.5q-37 -29 -95.5 -74t-126.5 -98z" />
<glyph unicode="&#x10c;" horiz-adv-x="1019" d="M63 485q0 106 29 201.5t96 177.5q68 82 153 130t196 48q72 0 139 -24.5t117 -73.5l57 88h53l21 -407l-62 -2q-10 33 -19 64.5t-22 64.5q-23 53 -43 90t-63 71q-76 63 -176 64q-86 0 -148.5 -46t-93.5 -122q-33 -82 -41 -160t-8 -164q0 -80 12 -159.5t46 -142t94.5 -101.5 t158.5 -39q74 0 128 24.5t93 66.5t63.5 99.5t35.5 124.5l65 -10q-25 -174 -126 -271t-279 -97q-106 0 -194.5 40.5t-151 109.5t-96.5 161t-34 194zM307 1391l35 22l201 -198l200 198l35 -22l-172 -256q-12 -16 -21.5 -22.5t-39.5 -6.5q-33 0 -43.5 7t-22.5 26z" />
<glyph unicode="&#x10d;" horiz-adv-x="626" d="M47 305q0 78 20.5 145.5t60.5 119t101.5 80t145.5 28.5q88 0 155 -55q23 -20 39.5 -47t16.5 -58q0 -41 -18.5 -70.5t-65.5 -29.5q-35 0 -59.5 19.5t-24.5 56.5q0 23 7 34t17 25q2 4 7.5 11t5.5 11q0 12 -10.5 20.5t-23.5 14.5t-26.5 8.5t-21.5 2.5q-53 0 -88 -28 t-55.5 -70t-28.5 -91t-8 -92q0 -49 8 -98t29.5 -89t58.5 -65t96 -25q66 0 104.5 42t61.5 100l51 -21q-23 -63 -62.5 -116.5t-107.5 -73.5q-23 -6 -48.5 -10t-47.5 -4q-68 0 -121 27.5t-90 72.5t-57.5 104.5t-20.5 120.5zM123 1067l35 22l201 -198l200 198l35 -22l-172 -256 q-12 -16 -21.5 -22.5t-39.5 -6.5q-33 0 -43.5 7t-22.5 26z" />
<glyph unicode="&#x110;" horiz-adv-x="1112" d="M68 0v51q20 0 55 4t45 11q20 8 30.5 26.5t10.5 44.5v371h-135v72h135v299q0 25 -8 44t-33 31q-23 12 -49.5 17.5t-44.5 5.5v51h448q94 0 184.5 -28.5t155.5 -75.5q90 -66 142.5 -170.5t52.5 -245.5q0 -131 -49.5 -227.5t-128.5 -157.5q-80 -61 -179.5 -92t-205.5 -31 h-426zM362 176q0 -66 39 -91.5t119 -25.5q92 0 161 33t112 90q45 61 65.5 141.5t20.5 186.5q0 102 -28 186t-81 146q-49 59 -122 94t-163 35q-29 0 -66.5 -1t-56.5 -3v-387h220v-72h-220v-332z" />
<glyph unicode="&#x111;" horiz-adv-x="811" d="M61 319q0 63 15.5 127t54.5 117q37 51 92.5 83t118.5 32q61 0 112.5 -28.5t84.5 -82.5v224h-240v59h240v61q0 23 -13 43q-16 10 -33.5 11.5t-33.5 1.5t-31.5 1t-32.5 1v59l273 14v-192h61v-59h-61v-658q0 -27 4 -41t14 -20t26.5 -8.5t41.5 -2.5l28 -2v-59l-243 -14v123 q-6 -10 -11.5 -23.5t-15.5 -24.5q-27 -43 -73 -62t-95 -19q-68 0 -119 26.5t-94 77.5q-39 47 -54.5 109.5t-15.5 125.5zM205 326q0 -51 4 -95.5t27 -87.5q18 -41 52 -65.5t81 -24.5q51 0 83.5 25.5t52 65.5t27 87.5t7.5 90.5q0 41 -7.5 97t-25.5 91q-20 41 -53 66.5 t-82 25.5q-53 0 -85 -27.5t-50.5 -69.5t-24.5 -90t-6 -89z" />
<glyph unicode="&#x11e;" horiz-adv-x="1099" d="M59 485q0 106 32 208t106 179q74 80 155.5 125t192.5 45q76 0 143.5 -23.5t120.5 -76.5l55 90h54l20 -397l-59 -2q-16 66 -42 127t-66 109.5t-96.5 78t-133.5 29.5q-92 0 -150.5 -46t-92.5 -114.5t-46 -151.5t-12 -157q0 -78 10 -158t45 -151q37 -74 103.5 -115 t146.5 -41q49 0 89 11.5t77 39.5q43 33 58 64.5t24 85.5q2 14 2 27.5v25.5v26.5t-3.5 28t-10.5 24.5t-21 15q-31 6 -61.5 7t-61.5 1v64h455v-64q-29 0 -56.5 -1t-56.5 -7q-29 -4 -33 -15t-8 -36v-360h-51l-56 131q-57 -68 -137 -99.5t-168 -31.5q-98 0 -187 41.5t-155 113.5 t-95.5 163t-29.5 187zM336 1394l41 11q10 -35 24.5 -67t35.5 -52q20 -25 50 -37t77 -12q45 0 75.5 12t51.5 35q20 23 34.5 53.5t24.5 67.5l41 -11q-20 -137 -76.5 -201.5t-150.5 -64.5q-96 0 -152.5 68.5t-75.5 197.5z" />
<glyph unicode="&#x11f;" horiz-adv-x="759" d="M33 -135q0 25 16.5 48.5t34.5 39.5q18 14 35.5 21.5t40.5 13.5l12 4q-49 8 -77.5 41t-28.5 84q0 61 36.5 91t90.5 46l12 4q-63 27 -93 76t-30 117q0 51 23.5 97t64.5 75q41 31 89 43t97 12t94.5 -12.5t86.5 -42.5q29 29 62.5 52t74.5 23q35 0 63.5 -19.5t28.5 -55.5 q0 -39 -28.5 -58.5t-63.5 -5.5q-25 10 -31 33q-4 16 -6 26q-4 6 -8 6.5t-15 -1.5q-4 -4 -9 -5.5t-9 -5.5l-25 -24q31 -27 42.5 -64t11.5 -73q0 -63 -27 -112.5t-82 -80.5q-53 -29 -108.5 -33t-112.5 -6q-16 0 -40 -1t-45.5 -7t-36.5 -18.5t-15 -34.5q0 -53 51 -54 q29 0 59.5 -1t59.5 -1q23 0 42 -1t42 -1q29 0 57.5 -1t56.5 -3q68 -2 113 -46t45 -113q0 -68 -29.5 -111t-77 -68.5t-103.5 -36t-112 -10.5q-41 0 -97 3t-107.5 17.5t-88 46.5t-36.5 87zM147 -135q0 -41 31 -60.5t66 -27.5t64.5 -9t64.5 -1q33 0 72.5 8t68.5 20t51.5 38 t22.5 58q0 47 -35 68t-76 25q-20 4 -39.5 4h-40.5q-79 0 -159 -6q-37 -16 -64 -44t-27 -73zM157 1060l41 11q10 -35 24.5 -67t35.5 -52q20 -25 50 -37t77 -12q45 0 75.5 12t51.5 35q20 23 34.5 53.5t24.5 67.5l41 -11q-20 -137 -76.5 -201.5t-150.5 -64.5q-96 0 -152.5 68.5 t-75.5 197.5zM207 449q0 -74 33.5 -126.5t115.5 -52.5q76 0 110 53.5t34 120.5q0 76 -31 127.5t-115 51.5q-76 0 -111.5 -52.5t-35.5 -121.5z" />
<glyph unicode="&#x128;" horiz-adv-x="575" d="M12 1108q6 23 23.5 55.5t40.5 56.5q20 27 52 45.5t64 18.5q41 0 71 -12.5t54 -26.5q27 -14 46.5 -25.5t46.5 -11.5q29 0 46 7t27 20q12 14 20.5 29.5t18.5 39.5l43 -14q-6 -29 -20.5 -57.5t-38.5 -57.5q-29 -29 -56.5 -46t-68.5 -17t-72 12t-53 25q-27 14 -49.5 26.5 t-48.5 12.5q-25 0 -35 -6.5t-25 -18.5q-10 -14 -22.5 -35.5t-22.5 -40.5zM53 0v63q23 2 62 1t59 8q29 10 33 26.5t4 44.5v738q0 18 -2 30.5t-14 28.5q-29 20 -68 16t-72 0v64h467v-64h-57.5t-56.5 -4q-16 -4 -24.5 -10t-16.5 -22q-2 -10 -2 -22.5v-25.5v-733q0 -10 -1.5 -18 t3.5 -19q4 -4 6 -10t8 -10q14 -10 30.5 -14.5t35 -4.5t37 1.5t34.5 -1.5v-63h-465z" />
<glyph unicode="&#x129;" horiz-adv-x="444" d="M26 764q6 23 23.5 55.5t40.5 56.5q20 27 52 45.5t64 18.5q41 0 71 -12.5t54 -26.5q27 -14 46.5 -25.5t46.5 -11.5q29 0 46 7t27 20q12 14 20.5 29.5t18.5 39.5l43 -14q-6 -29 -20.5 -57.5t-38.5 -57.5q-29 -29 -56.5 -46t-68.5 -17t-72 12t-53 25q-27 14 -49.5 26.5 t-48.5 12.5q-25 0 -35 -6.5t-25 -18.5q-10 -14 -22.5 -35.5t-22.5 -40.5zM154 582v59l264 14v-542q0 -33 3 -45.5t38 -14.5q20 -2 39.5 -4t38.5 0v-49h-371v49h39q16 4 35.5 3t35.5 9q10 23 11.5 47.5t1.5 49.5v325v40t-6 40q-8 10 -20.5 12.5l-22.5 4.5z" />
<glyph unicode="&#x130;" horiz-adv-x="575" d="M53 0v63q23 2 62 1t59 8q29 10 33 26.5t4 44.5v738q0 18 -2 30.5t-14 28.5q-29 20 -68 16t-72 0v64h467v-64h-57.5t-56.5 -4q-16 -4 -24.5 -10t-16.5 -22q-2 -10 -2 -22.5v-25.5v-733q0 -10 -1.5 -18t3.5 -19q4 -4 6 -10t8 -10q14 -10 30.5 -14.5t35 -4.5t37 1.5 t34.5 -1.5v-63h-465zM191 1241q0 45 32 80t75 35q48 0 79 -32t31 -75q0 -48 -32.5 -84t-77.5 -36q-43 0 -75 33.5t-32 78.5z" />
<glyph unicode="&#x131;" horiz-adv-x="444" d="M25 582v59l264 14v-542q0 -33 3 -45.5t38 -14.5q20 -2 39.5 -4t38.5 0v-49h-371v49h39q16 4 35.5 3t35.5 9q10 23 11.5 47.5t1.5 49.5v325v40t-6 40q-8 10 -20.5 12.5l-22.5 4.5z" />
<glyph unicode="&#x141;" horiz-adv-x="888" d="M0 0v63q27 2 51.5 2.5t48.5 2.5q41 2 47.5 25.5t6.5 56.5v241l-154 -125v156l154 123v356q0 20 -11 37q-4 4 -9 7t-9 7q-31 4 -62.5 5t-62.5 1v64h467v-64h-45.5t-44.5 -2q-14 0 -27.5 -2t-25.5 -12q-4 -4 -7.5 -10t-5.5 -10q-4 -10 -4 -21.5v-23.5v-209l209 168v-154 l-209 -168v-356q0 -23 3 -49.5t30 -38.5q29 -4 60.5 -5.5t62.5 -1.5q53 0 108.5 6.5t102.5 34.5q45 27 65.5 73t36.5 93q18 57 29 117l59 -2l-30 -385h-834z" />
<glyph unicode="&#x142;" horiz-adv-x="446" d="M0 264v154l154 125v364q0 14 -1 23.5t-10 21.5q-16 14 -38.5 13.5t-43.5 1.5h-38v59l264 14v-387l178 144v-154l-178 -143v-404q0 -10 1 -18t5 -17q4 -10 16 -10q16 -4 32.5 -3t33.5 -1h28v-49h-366v49h46t46 4q16 6 23 23q4 14 3 29.5t-1 29.5v256z" />
<glyph unicode="&#x152;" horiz-adv-x="1482" d="M57 520q0 129 48.5 225.5t127.5 159.5q78 63 179.5 93t203.5 30h754v-248h-55q-14 55 -62.5 118t-91.5 69q-23 2 -54.5 3t-70.5 1h-153v-408h106q53 0 80 9.5t47 35.5q16 20 27.5 56t15.5 67h55v-403h-55q-4 35 -16.5 73.5t-26.5 57.5q-20 27 -49 36t-78 9h-106v-309 q0 -45 6 -73t24 -40q20 -14 52 -18.5t94 -4.5h60.5t64.5 2q29 4 55.5 11.5t38.5 21.5q35 33 70.5 104.5t46.5 104.5h53l-21 -303h-835q-156 0 -286 71.5t-191 192.5q-27 51 -42.5 115.5t-15.5 140.5zM233 520q0 -207 109 -334t285 -127q18 0 43.5 1t56.5 3v902 q-31 2 -61.5 3t-51.5 1q-84 0 -151.5 -24.5t-120.5 -82.5q-49 -51 -79 -138t-30 -204z" />
<glyph unicode="&#x153;" horiz-adv-x="1212" d="M51 354q0 80 22.5 148.5t67.5 122.5q43 51 108.5 80.5t147.5 29.5q84 0 149.5 -42t100.5 -97q39 61 101.5 100t138.5 39t127 -23.5t86 -64.5q33 -41 48 -96t15 -119v-51h-450q2 -162 58 -241t167 -79q76 0 120 37t75 103l49 -31q-41 -90 -115 -139t-164 -49 q-82 0 -150.5 36.5t-111.5 104.5q-43 -68 -108.5 -107t-149.5 -39q-63 0 -123.5 27t-107.5 76q-47 47 -74 117.5t-27 156.5zM201 367q0 -72 11 -132.5t32 -105.5q25 -43 60.5 -69.5t86.5 -26.5q86 0 133 78.5t47 242.5q0 61 -8 123t-26 105q-23 45 -58 72.5t-88 27.5 q-55 0 -92 -29.5t-59 -74.5q-23 -43 -31 -100.5t-8 -110.5zM713 440h309q0 43 -4 84t-21 78q-16 35 -43.5 57.5t-74.5 22.5q-74 0 -120 -70.5t-46 -171.5z" />
<glyph unicode="&#x15e;" horiz-adv-x="890" d="M72 387l61 4q0 -4 1 -8t1 -8q12 -70 41 -130.5t74 -105.5t104.5 -70.5t132.5 -25.5q47 0 89 10t77 41q31 25 50.5 58.5t19.5 74.5q0 33 -11.5 71t-33.5 60q-23 25 -49.5 36.5t-57.5 21.5l-143 37q-66 16 -126 33.5t-118 58.5q-47 37 -68.5 90t-21.5 113q0 141 86 217.5 t223 76.5q76 0 138.5 -23.5t122.5 -76.5l55 90h51l16 -368h-59q-14 59 -39.5 115.5t-65.5 100.5t-93.5 70.5t-120.5 26.5q-41 0 -80 -8t-70 -37q-29 -23 -44 -55.5t-15 -67.5q0 -39 14 -66.5t36.5 -47t53.5 -33t64 -21.5l229 -61q57 -16 99 -38t79 -71q35 -41 47.5 -89 t12.5 -101q0 -70 -29 -131.5t-84 -102.5q-47 -37 -110.5 -52t-123.5 -15q-16 0 -38.5 2t-46 6t-45 9t-35.5 11q-35 16 -68 35.5t-59 44.5l-62 -98h-53zM368 -270q29 0 64 1t59 7q31 6 46.5 19.5t15.5 37.5q0 35 -40 45t-79 10v162h55v-84q35 0 60.5 -4t52.5 -18 q25 -10 40 -31.5t15 -54.5q0 -41 -23.5 -71t-64.5 -46q-41 -12 -89 -18.5t-112 -6.5v52z" />
<glyph unicode="&#x15f;" horiz-adv-x="653" d="M72 -14v268h53q25 -94 82 -156.5t162 -62.5q23 0 48 7t45.5 20.5t34 34t13.5 46.5q0 39 -18.5 60.5t-53.5 36.5q-37 14 -67.5 20t-67.5 16q-14 4 -28.5 6.5t-30.5 6.5q-35 10 -68 23.5t-55 41.5q-23 29 -31 60.5t-8 66.5q0 92 57.5 144.5t149.5 52.5q47 0 91 -14.5 t81 -45.5l43 54h45v-236h-49q-23 78 -73 131.5t-138 53.5q-47 0 -88 -25t-41 -78q0 -29 15 -47t36.5 -30.5t47.5 -18.5t48 -10l82 -17q47 -10 82 -21.5t70 -43.5q53 -51 53 -135q0 -53 -15.5 -91t-56.5 -75q-29 -23 -75 -36t-82 -13q-53 0 -104.5 16t-92.5 51l-49 -61h-47z M258 -270q29 0 64 1t59 7q31 6 46.5 19.5t15.5 37.5q0 35 -40 45t-79 10v162h55v-84q35 0 60.5 -4t52.5 -18q25 -10 40 -31.5t15 -54.5q0 -41 -23.5 -71t-64.5 -46q-41 -12 -89 -18.5t-112 -6.5v52z" />
<glyph unicode="&#x160;" horiz-adv-x="833" d="M68 352h59q18 -66 43 -119t63 -98q37 -43 88.5 -67.5t116.5 -24.5q51 0 88 12.5t62 36.5q23 25 34 56.5t11 74.5q0 61 -35 114.5t-104 80.5q-47 18 -107.5 41.5t-105.5 44.5q-86 39 -135.5 102.5t-49.5 163.5q0 59 24.5 110.5t67.5 90.5t100.5 60.5t119.5 21.5 q72 0 128 -22.5t103 -51.5l29 49h57l6 -342h-57q-16 59 -37 113.5t-51 97.5q-31 41 -76 66.5t-111 25.5q-70 0 -118 -45t-48 -106q0 -68 31 -112t90 -73q53 -25 104.5 -43t98.5 -39q43 -18 84 -42.5t70 -57.5q33 -35 48 -79t15 -99q0 -137 -100.5 -225t-249.5 -88 q-70 0 -138.5 21.5t-117.5 49.5l-33 -51h-57zM186 1331l35 23l203 -156l199 156l34 -23l-170 -207q-14 -18 -22 -24t-43 -6q-31 0 -42 8t-22 20z" />
<glyph unicode="&#x161;" horiz-adv-x="641" d="M53 246h49q6 -29 24.5 -66t45.5 -67q31 -33 70 -54.5t88 -21.5q70 0 107.5 31.5t37.5 91.5q0 29 -12 51t-35 39q-25 16 -59.5 30.5t-77.5 26.5q-35 10 -76 27.5t-72 42.5t-51 61.5t-20 87.5q0 86 65.5 147.5t173.5 61.5q43 0 87 -11t71 -26l16 37h54l10 -229h-49 q-16 78 -66.5 126t-124.5 48q-57 0 -92 -29.5t-35 -72.5q0 -33 11.5 -54.5t33.5 -38.5q23 -14 55.5 -26.5t82.5 -28.5q47 -14 89.5 -34.5t69.5 -45.5q31 -27 46.5 -60.5t15.5 -82.5q0 -100 -75 -162.5t-192 -62.5q-63 0 -115 22.5t-75 40.5l-14 -47h-56zM90 1096l35 22 l201 -198l200 198l35 -22l-172 -256q-12 -16 -21.5 -22.5t-39.5 -6.5q-33 0 -43.5 7t-22.5 26z" />
<glyph unicode="&#x168;" horiz-adv-x="1150" d="M25 956v64h471v-64q-33 -4 -65 -4t-64 -4q-10 -2 -20.5 -8t-10.5 -16v-568q0 -66 9 -126t63 -107q47 -43 98 -56.5t115 -13.5q70 0 135 31t100 94q16 29 27.5 73t11.5 79v452q0 94 -32 132t-132 42v64h397v-64q-59 0 -91.5 -17t-48 -47t-17.5 -71t-2 -90v-309 q0 -86 -12.5 -170t-73.5 -156q-55 -68 -137 -92t-166 -24q-35 0 -66 2t-65 8q-51 10 -95.5 28.5t-83.5 55.5q-51 49 -70.5 93t-19.5 109v611q0 16 -1 32.5t-19 26.5q-16 8 -45 8t-45 2h-45zM299 1108q6 23 23.5 55.5t40.5 56.5q20 27 52 45.5t64 18.5q41 0 71 -12.5 t54 -26.5q27 -14 46.5 -25.5t46.5 -11.5q29 0 46 7t27 20q12 14 20.5 29.5t18.5 39.5l43 -14q-6 -29 -20.5 -57.5t-38.5 -57.5q-29 -29 -56.5 -46t-68.5 -17t-72 12t-53 25q-27 14 -49.5 26.5t-48.5 12.5q-25 0 -35 -6.5t-25 -18.5q-10 -14 -22.5 -35.5t-22.5 -40.5z" />
<glyph unicode="&#x169;" horiz-adv-x="864" d="M29 582v59l247 14v-403v-80q4 -55 38 -82t87 -27q51 0 91 25t63 70q23 49 25 89t6 93v199q-4 20 -8.5 27t-26.5 12q-25 4 -51.5 4h-50.5v59l266 14v-497q0 -16 2 -36t14 -32q6 -8 21 -12q16 -2 29.5 -2h27.5h31v-62l-254 -14v111q-35 -59 -92.5 -95t-126.5 -36 q-14 0 -45 5t-65 18t-62.5 39t-36.5 69q-8 12 -10.5 52t-2.5 66v306q0 8 -1 17t-9 15q-16 14 -36.5 14.5t-41.5 0.5h-28zM155 783q6 23 23.5 55.5t40.5 56.5q20 27 52 45.5t64 18.5q41 0 71 -12.5t54 -26.5q27 -14 46.5 -25.5t46.5 -11.5q29 0 46 7t27 20q12 14 20.5 29.5 t18.5 39.5l43 -14q-6 -29 -20.5 -57.5t-38.5 -57.5q-29 -29 -56.5 -46t-68.5 -17t-72 12t-53 25q-27 14 -49.5 26.5t-48.5 12.5q-25 0 -35 -6.5t-25 -18.5q-10 -14 -22.5 -35.5t-22.5 -40.5z" />
<glyph unicode="&#x178;" horiz-adv-x="913" d="M-33 977v51h441v-51q-74 0 -105 -9.5t-31 -25.5q0 -4 4.5 -15.5t12.5 -27.5q10 -18 22.5 -43t24.5 -45q35 -66 69.5 -130.5t92.5 -166.5q115 182 174 285.5t59 124.5q0 16 -12 26.5t-33 16.5q-20 4 -45 6t-45 4v51h356v-51q-12 0 -38.5 -9.5t-39.5 -17.5 q-27 -18 -38 -27.5t-39 -48.5q-55 -80 -103.5 -161.5t-120.5 -208.5q-27 -47 -36 -75t-9 -83v-194q0 -27 11.5 -46.5t35.5 -29.5q16 -6 55.5 -15.5t61.5 -9.5v-51h-479v51q18 2 59 6t58 11q25 10 35 29.5t10 45.5v250q0 12 -14.5 43t-32.5 70q-45 84 -97.5 181t-93.5 167 q-23 41 -41 62.5t-43 35.5q-16 12 -40.5 18.5t-45.5 6.5zM238 1253q0 37 24.5 63.5t59.5 26.5q37 0 61.5 -26.5t24.5 -63.5t-25 -62.5t-61 -25.5q-35 0 -59.5 26t-24.5 62zM563 1253q0 37 24.5 63.5t59.5 26.5q37 0 61.5 -26.5t24.5 -63.5t-24.5 -62.5t-61.5 -25.5 q-35 0 -59.5 26t-24.5 62z" />
<glyph unicode="&#x17d;" horiz-adv-x="864" d="M35 0v55l579 901h-192q-84 0 -133 -18t-78 -55t-45 -92.5t-33 -128.5h-57l24 358h701v-53l-584 -904h219q47 0 96.5 6.5t90.5 28.5q45 27 62 65t34 83q12 35 18 80q8 31 13 65l63 -4l-27 -387h-751zM196 1391l35 22l201 -198l200 198l35 -22l-172 -256 q-12 -16 -21.5 -22.5t-39.5 -6.5q-33 0 -43.5 7t-22.5 26z" />
<glyph unicode="&#x17e;" horiz-adv-x="679" d="M55 0v53l391 541h-120q-41 0 -77 -7t-65 -38q-23 -23 -34 -56.5t-13 -64.5v-8h-53l12 235h510v-49l-395 -545h156q41 0 85 9.5t66 48.5q16 27 29.5 63.5t13.5 69.5h53l-14 -252h-545zM112 1067l35 22l201 -198l200 198l35 -22l-172 -256q-12 -16 -21.5 -22.5t-39.5 -6.5 q-33 0 -43.5 7t-22.5 26z" />
<glyph unicode="&#x192;" horiz-adv-x="770" d="M-129 -166q0 33 19.5 54.5t52.5 21.5q35 0 64.5 -27.5t60.5 -97.5q59 8 94 78.5t55 208.5q16 115 26.5 207t18.5 172h-147v69h153q14 121 47 201t91 139q43 43 96 64.5t116 21.5q68 0 107 -29.5t39 -72.5q0 -35 -17.5 -55.5t-52.5 -20.5t-65.5 29.5t-61.5 97.5 q-59 -10 -96 -75.5t-53 -211.5l-10 -88h186v-69h-193q-8 -76 -15 -150t-19 -141q-20 -131 -55.5 -210t-82.5 -128q-43 -45 -97 -67.5t-114 -22.5q-70 0 -108.5 29.5t-38.5 72.5z" />
<glyph unicode="&#x1a0;" horiz-adv-x="1099" d="M63 508q0 102 36 198.5t100.5 171t153.5 119.5t196 45q209 0 352 -159q61 -72 98 -171.5t37 -193.5q0 -96 -37.5 -199.5t-97.5 -175.5q-68 -80 -158 -121.5t-194 -41.5q-109 0 -198 44t-152.5 117.5t-99.5 169t-36 197.5zM244 481q0 -74 14 -150.5t49 -141t93.5 -105.5 t148.5 -41q96 0 156.5 44t93 112.5t44 150.5t11.5 158q0 47 -1 86t-9 84q-12 68 -29.5 115t-64.5 100q-39 47 -88.5 65.5t-108.5 18.5q-66 0 -117 -20.5t-92 -71.5q-23 -29 -37 -53.5t-23.5 -50t-14.5 -53.5t-11 -62q-10 -47 -12 -92.5t-2 -92.5zM840 735q16 29 38.5 48.5 t51.5 23.5l-6 -6q86 14 119.5 82.5t35.5 160.5h125q-2 -49 -23.5 -105t-56 -104.5t-81 -79t-97.5 -30.5q-29 0 -55.5 1t-50.5 9z" />
<glyph unicode="&#x1a1;" horiz-adv-x="706" d="M47 322q0 76 17.5 131t64.5 114q41 49 96.5 80t120.5 31q76 0 134.5 -30t98 -79t60 -113.5t20.5 -133.5q0 -72 -20.5 -133.5t-60 -108.5t-98 -73.5t-132.5 -26.5q-72 0 -128 28.5t-94 75.5t-58.5 108.5t-20.5 129.5zM193 322q0 -37 5 -87.5t21.5 -95.5t47 -75.5 t81.5 -30.5q55 0 89 28.5t50.5 72.5t21.5 94.5t5 93.5q0 55 -3 99t-22 97q-18 45 -50 74t-85 29q-55 0 -86.5 -31t-49 -77t-21.5 -98.5t-4 -92.5zM524 432q14 23 34 38t42 19l-4 -4q82 0 114.5 57.5t34.5 135.5h93q0 -39 -13.5 -82t-39 -79t-67.5 -61.5t-102 -31.5 q-55 -4 -92 8z" />
<glyph unicode="&#x1af;" horiz-adv-x="1150" d="M25 956v64h471v-64q-33 -4 -65 -4t-64 -4q-10 -2 -20.5 -8t-10.5 -16v-568q0 -66 9 -126t63 -107q47 -43 98 -56.5t115 -13.5q70 0 135 31t100 94q16 29 27.5 73t11.5 79v452q0 94 -32 132t-132 42v64h397v-64q-59 0 -91.5 -17t-48 -47t-17.5 -71t-2 -90v-309 q0 -86 -12.5 -170t-73.5 -156q-55 -68 -137 -92t-166 -24q-35 0 -66 2t-65 8q-51 10 -95.5 28.5t-83.5 55.5q-51 49 -70.5 93t-19.5 109v611q0 16 -1 32.5t-19 26.5q-16 8 -45 8t-45 2h-45zM899 735q16 29 39 48.5t51 23.5l-4 -4l-2 -2q43 6 89 28.5t84 54t62.5 72.5 t26.5 88h123q-16 -72 -55 -127t-90.5 -95t-108.5 -64.5t-108 -32.5q-29 -6 -55.5 -2t-51.5 12z" />
<glyph unicode="&#x1b0;" horiz-adv-x="864" d="M29 582v59l247 14v-403v-80q4 -55 38 -82t87 -27q51 0 91 25t63 70q23 49 25 89t6 93v199q-4 20 -8.5 27t-26.5 12q-25 4 -51.5 4h-50.5v59l266 14v-497q0 -16 2 -36t14 -32q6 -8 21 -12q16 -2 29.5 -2h27.5h31v-62l-254 -14v111q-35 -59 -92.5 -95t-126.5 -36 q-14 0 -45 5t-65 18t-62.5 39t-36.5 69q-8 12 -10.5 52t-2.5 66v306q0 8 -1 17t-9 15q-16 14 -36.5 14.5t-41.5 0.5h-28zM643 418q14 23 33.5 38t42.5 17q-2 -2 -4 -2q41 0 69.5 15.5t46 42t25.5 61.5t8 74h92q0 -41 -13 -83t-38.5 -79t-67.5 -62.5t-102 -29.5q-47 -6 -92 8 z" />
<glyph unicode="&#x2c6;" horiz-adv-x="741" d="M135 834l172 251q12 18 23.5 25.5t42.5 7.5q29 0 40 -7t21 -24l172 -253l-35 -23l-200 197l-201 -197z" />
<glyph unicode="&#x2c7;" horiz-adv-x="741" d="M135 1096l35 22l201 -198l200 198l35 -22l-172 -256q-12 -16 -21.5 -22.5t-39.5 -6.5q-33 0 -43.5 7t-22.5 26z" />
<glyph unicode="&#x2d8;" horiz-adv-x="741" d="M143 1083l41 11q10 -35 24.5 -67t35.5 -52q20 -25 50 -37t77 -12q45 0 75.5 12t51.5 35q20 23 34.5 53.5t24.5 67.5l41 -11q-20 -137 -76.5 -201.5t-150.5 -64.5q-96 0 -152.5 68.5t-75.5 197.5z" />
<glyph unicode="&#x2d9;" horiz-adv-x="741" d="M279 999q0 39 27.5 69t64.5 30q41 0 67.5 -27.5t26.5 -64.5q0 -41 -27.5 -72t-66.5 -31q-37 0 -64.5 29t-27.5 67z" />
<glyph unicode="&#x2da;" horiz-adv-x="741" d="M184 969q0 72 54.5 116.5t132.5 44.5q82 0 134 -43.5t52 -117.5q0 -72 -51 -116t-135 -44t-135.5 43t-51.5 117zM274 969q0 -49 26 -82t71 -33q47 0 71.5 32t24.5 83t-24.5 82.5t-71.5 31.5q-45 0 -71 -30.5t-26 -83.5z" />
<glyph unicode="&#x2db;" horiz-adv-x="741" d="M221 -180q0 51 42 104t130 105h43q-43 -35 -71.5 -79t-28.5 -108q0 -25 7 -45t26 -37q18 -14 51 -22t80 -8v-52h-84q-92 0 -143.5 38t-51.5 104z" />
<glyph unicode="&#x2dc;" horiz-adv-x="741" d="M94 883q6 23 23.5 55.5t40.5 56.5q20 27 52 45.5t64 18.5q41 0 71 -12.5t54 -26.5q27 -14 46.5 -25.5t46.5 -11.5q29 0 46 7t27 20q12 14 20.5 29.5t18.5 39.5l43 -14q-6 -29 -20.5 -57.5t-38.5 -57.5q-29 -29 -56.5 -46t-68.5 -17t-72 12t-53 25q-27 14 -49.5 26.5 t-48.5 12.5q-25 0 -35 -6.5t-25 -18.5q-10 -14 -22.5 -35.5t-22.5 -40.5z" />
<glyph unicode="&#x2dd;" horiz-adv-x="741" d="M139 825q55 92 81 141.5t42 82.5q18 37 35.5 51t44.5 14t43 -17.5t16 -37.5q0 -27 -9 -43.5t-34 -38.5q-23 -20 -68.5 -63.5t-121.5 -108.5zM397 825q51 82 82 133.5t51 90.5q20 37 38 51t44 14q25 0 42.5 -17.5t17.5 -37.5q0 -29 -11.5 -45.5t-33.5 -36.5 q-31 -27 -80 -69t-123 -103z" />
<glyph unicode="&#x300;" horiz-adv-x="741" d="M238 1344q0 20 16 37.5t43 17.5q29 0 49.5 -12t42.5 -51q25 -39 59 -90.5t89 -133.5l-29 -22q-74 59 -133.5 103t-85.5 69q-29 23 -40 37t-11 45z" />
<glyph unicode="&#x301;" horiz-adv-x="741" d="M207 1114q66 96 91.5 136.5t53.5 87.5q25 37 45.5 50t46.5 13q27 0 44.5 -17.5t17.5 -37.5q0 -29 -13.5 -46.5t-37.5 -35.5q-37 -29 -95.5 -74t-126.5 -98z" />
<glyph unicode="&#x303;" horiz-adv-x="741" d="M94 1108q6 23 23.5 55.5t40.5 56.5q20 27 52 45.5t64 18.5q41 0 71 -12.5t54 -26.5q27 -14 46.5 -25.5t46.5 -11.5q29 0 46 7t27 20q12 14 20.5 29.5t18.5 39.5l43 -14q-6 -29 -20.5 -57.5t-38.5 -57.5q-29 -29 -56.5 -46t-68.5 -17t-72 12t-53 25q-27 14 -49.5 26.5 t-48.5 12.5q-25 0 -35 -6.5t-25 -18.5q-10 -14 -22.5 -35.5t-22.5 -40.5z" />
<glyph unicode="&#x309;" horiz-adv-x="741" d="M233 1405v52h84q92 0 143.5 -38t51.5 -104q0 -51 -42 -104t-130 -105h-43q43 35 71.5 79t28.5 108q0 25 -7 45t-26 37q-18 14 -51 22t-80 8z" />
<glyph unicode="&#x323;" horiz-adv-x="741" d="M279 -199q0 39 27.5 69t64.5 30q41 0 67.5 -27.5t26.5 -64.5q0 -41 -27.5 -72t-66.5 -31q-37 0 -64.5 29t-27.5 67z" />
<glyph unicode="&#x3b1;" horiz-adv-x="876" d="M61 307q0 84 19.5 157t60.5 127t101.5 86t142.5 32q113 0 165 -52.5t81 -158.5h4q23 63 36 109t23 89l115 19l10 -17l-78 -112q-14 -20 -35.5 -64.5t-50.5 -109.5q23 -127 41.5 -213t28.5 -109q16 -10 53 -17t70 -10l-4 -26q-18 -20 -61.5 -38.5t-100.5 -18.5 q-20 0 -39.5 3t-32.5 11q-4 14 -9 38.5t-11 55.5t-11.5 65.5t-11.5 67.5h-4q-70 -129 -138.5 -185t-145.5 -56q-100 0 -158 93t-60 234zM203 350q0 -135 39 -203.5t86 -68.5h4q41 0 97 48t122 177q-10 96 -24.5 162.5t-36 107.5t-51 59.5t-70.5 18.5q-166 0 -166 -301z" />
<glyph unicode="&#x3b2;" horiz-adv-x="833" d="M121 -389v1132q0 100 25.5 172t68.5 117t98.5 66.5t114.5 21.5q57 0 106.5 -16.5t86 -49t57 -81.5t20.5 -113q0 -53 -19.5 -96t-50 -74t-66.5 -52.5t-68 -31.5v-8q41 -4 74.5 -15.5t62.5 -23.5q66 -35 105.5 -95.5t39.5 -148.5q0 -98 -38 -162.5t-92 -102.5t-114.5 -54 t-103.5 -16q-20 0 -57 9t-86 44l12 39q16 -4 36.5 -9.5t47.5 -5.5q43 0 88 13.5t82 44t60.5 80t23.5 122.5q0 111 -73 173.5t-185 62.5q-16 0 -35.5 -1t-36.5 -3l35 80q14 -2 24.5 -2h20.5q57 2 93 24.5t56.5 55t28.5 71.5t8 76q0 88 -38.5 149.5t-116.5 61.5 q-86 0 -129 -75t-43 -204q0 -141 2 -286.5t4 -279.5t5 -247.5t9 -193.5l17 -121q-23 -23 -66 -38t-86 -17z" />
<glyph unicode="&#x3b3;" horiz-adv-x="778" d="M-8 606l4 31q37 29 95.5 50.5t96.5 25.5q20 -8 48 -39t63 -92q20 -39 37.5 -89.5t32 -106.5t24.5 -114.5t17 -113.5h6q12 51 35.5 122.5t49 141.5t47 127t32.5 82v78l4 4q49 0 107.5 -13.5t92.5 -31.5l-6 -23q-18 -10 -50 -21.5t-60 -21.5q-37 -53 -80 -148.5t-90 -220.5 q-31 -84 -47.5 -155.5t-20.5 -93.5q0 -18 1 -58.5t1 -85.5t-1 -87t-3 -64q-20 -29 -67.5 -50.5t-84.5 -23.5l-12 12q2 31 11.5 78t20.5 96t21.5 93.5t16.5 68.5q4 74 -12.5 171t-49 190.5t-76.5 169t-96 106.5q-29 0 -54.5 2t-53.5 4z" />
<glyph unicode="&#x3b4;" horiz-adv-x="817" d="M57 332q0 76 26 135t69 104t101 76t124 51l4 4q-109 88 -155 144.5t-46 97.5q0 31 19.5 62.5t54.5 57.5t83 41t107 15h2q53 0 100.5 -14t85.5 -35.5t65.5 -47.5t43.5 -46l-2 -6q-12 -18 -42.5 -35.5t-57.5 -13.5q-49 51 -106.5 91t-145.5 42q-55 2 -79.5 -19.5 t-26.5 -38.5q0 -10 7 -23t22.5 -32.5t44 -45.5t71.5 -62q94 -76 157.5 -137.5t102.5 -119t55.5 -112.5t16.5 -119q0 -90 -29 -158.5t-77 -114.5t-111.5 -69.5t-130.5 -23.5q-78 0 -142.5 25.5t-111.5 72.5t-73 111.5t-26 142.5zM209 338q0 -51 13.5 -104.5t40 -97.5 t67.5 -72.5t98 -28.5q55 0 92 24.5t60.5 63.5t34 89t10.5 101q0 61 -17.5 110.5t-45 91.5t-63.5 77t-75 67h-2q-115 -41 -164 -123.5t-49 -197.5z" />
<glyph unicode="&#x3b8;" horiz-adv-x="813" d="M72 547q0 133 23.5 239.5t66.5 180t105.5 113.5t142.5 40h2q84 0 146.5 -40t103 -113.5t61 -178t20.5 -235.5q0 -266 -84 -419.5t-260 -153.5q-82 0 -143 39.5t-102 113.5t-61.5 178.5t-20.5 235.5zM211 530q2 -102 14.5 -192t38 -157.5t63.5 -106.5t89 -39q53 0 88 39 t56.5 107.5t31.5 164.5t10 213q-41 -20 -98.5 -24.5t-93.5 -4.5h-199zM213 616h387q-2 84 -11 165t-30.5 143.5t-56.5 101.5t-90 39q-53 0 -90 -38t-61.5 -100.5t-36 -143.5t-11.5 -167z" />
<glyph unicode="&#x3bb;" horiz-adv-x="798" d="M16 8q18 20 41 43l49 49q61 127 119 262.5t115 292.5q-4 18 -14.5 49t-22.5 60q-31 82 -57.5 134t-51 82t-51 41t-57.5 11q-18 0 -33.5 -2t-27.5 -6l2 41q20 16 54 30.5t77 14.5q45 0 84 -20.5t75.5 -72.5t75.5 -139t82 -219q82 -246 133 -392t68 -179q25 -4 57.5 -12 t54.5 -19l-12 -32q-16 -8 -42.5 -15.5t-56.5 -12.5t-60.5 -9t-57.5 -4q-20 61 -42.5 133.5t-46.5 149.5t-49.5 155t-49.5 149q-68 -197 -116 -335t-77 -224q-10 -4 -29.5 -8t-41 -9t-43 -8t-33.5 -3z" />
<glyph unicode="&#x3c0;" horiz-adv-x="915" d="M23 610q12 18 64 50t140 32h539q29 6 54.5 11.5t53.5 7.5l5 -2q-4 -35 -17.5 -74t-30.5 -51l-10 -9q-10 4 -29.5 16.5t-39.5 22.5h-43v-514q6 -12 36.5 -24.5t96.5 -16.5l-8 -34q-23 -18 -56 -30.5t-82 -12.5q-57 0 -87.5 26.5t-30.5 69.5v536h-252v-358 q0 -104 -7.5 -156.5t-17.5 -68.5q-23 -23 -76 -36t-106 -15l-17 24q18 23 49 49.5t48 40.5q6 18 9 51t3 101v368h-43q-41 0 -80 -12t-59 -18z" />
<glyph unicode="&#x765;" horiz-adv-x="694" d="M29 0v43h28q18 2 44 5t32 26q2 10 2 20v21v465v20t-2 21q-2 27 -31 26q-18 4 -35.5 4h-37.5v43h579l13 -245h-41q-10 68 -26.5 108.5t-44.5 61t-71 26.5t-108 6h-33.5t-34.5 -4q-2 0 -10 -4q-12 -6 -12 -20.5v-26.5v-215q80 -4 117.5 21.5t43.5 109.5h43v-315h-43v12 q-4 41 -19 78t-60 47q-18 4 -37 4h-39h-6v-258q0 -10 2 -12t8 -13q10 -6 20.5 -7t22.5 -1q16 -4 30.5 -4h30.5h39t39 4q78 8 109.5 55.5t48.5 116.5q2 8 3 17.5t5 19.5h39l-19 -256h-589z" />
<glyph unicode="&#xe00;" horiz-adv-x="110" />
<glyph unicode="&#xe01;" horiz-adv-x="829" d="M82 553q0 2 3 22.5t14.5 51t33 65.5t56 63.5t87 48t125.5 19.5q86 0 146.5 -23.5t97.5 -61.5t54.5 -88t17.5 -103v-461l-76 -86h-47v555q0 82 -45 136t-148 57q-68 2 -109.5 -18.5t-65 -45.5t-31 -45.5t-7.5 -22.5l185 -14v-59q-43 0 -76 -27q-23 -20 -27 -50t-4 -44 v-422h-123v422q0 16 4.5 36.5t18.5 41.5q20 29 42.5 38t24.5 9z" />
<glyph unicode="&#xe02;" horiz-adv-x="755" d="M14 629q0 84 57.5 138t151.5 56q88 0 150.5 -49t64.5 -156q2 -59 -27.5 -115.5t-70.5 -109.5q-29 -35 -39 -64.5t-10 -78.5v-174h182q14 0 22.5 6t18.5 18t11 23.5t1 28.5v579l72 88h51v-661q0 -31 -4 -55.5t-22 -49.5q-41 -53 -121 -53h-344l10 74v188q0 47 16.5 82 t38.5 70q20 27 40 48t36 44.5t26.5 50.5t12.5 68q2 45 -17.5 82.5t-72.5 48.5q-35 8 -57.5 -3.5t-26.5 -13.5q8 0 30.5 -7t41.5 -34q12 -18 18 -42.5t3 -49t-18.5 -47t-45.5 -37.5q-39 -18 -72 -13t-56.5 22.5t-37 44t-13.5 53.5zM80 625.5q0 -21.5 14.5 -39t42.5 -17.5 q29 0 43.5 17.5t14.5 39t-14.5 40t-43.5 18.5t-43 -18.5t-14 -40z" />
<glyph unicode="&#xe03;" horiz-adv-x="759" d="M6 637q4 49 19.5 84t34 57.5t38 32.5t31.5 10q25 2 36 -9t25 -21l11.5 -11.5t11.5 -13.5q6 -8 10 -16q6 6 13 14q12 16 20 24q12 12 26.5 21.5t30.5 11.5t40 -6t46.5 -31.5t40 -62.5t19.5 -96q2 -66 -21.5 -111t-64.5 -96q-29 -39 -45.5 -67.5t-16.5 -76.5v-198h158 q14 0 22.5 6t18.5 18t11 23.5t1 28.5v579l72 88h51v-661q0 -31 -4 -55.5t-23 -49.5q-41 -53 -120 -53h-324l14 74v188q0 47 14.5 82t41.5 70q23 31 43 53t35.5 45t24.5 49.5t11 63.5q0 35 -7 58.5t-16 36.5t-19.5 19t-14.5 6q-8 0 -19.5 -7t-21.5 -17l-27 -27q-6 -8 -10 -12 q-6 4 -14 12l-13.5 13.5t-15.5 13.5q-10 8 -21.5 16t-21.5 8q-16 0 -43 -45q-10 -16 -13 -37.5t-3 -25.5l12 6q6 2 15.5 4t21.5 2q35 0 62.5 -19.5t33.5 -54.5q10 -43 -12.5 -80.5t-75.5 -41.5q-41 -4 -66.5 12t-40 44t-19.5 61.5t-3 66.5zM78 549.5q0 -17.5 11 -32.5 t36 -15t36 15t11 32.5t-11 33t-36 15.5t-36 -15.5t-11 -33z" />
<glyph unicode="&#xe04;" horiz-adv-x="880" d="M90 524q4 135 91 216t257 83q90 0 153.5 -22.5t103.5 -61.5t58.5 -89t18.5 -103v-461l-76 -86h-47v555q0 82 -48 138.5t-167 54.5q-66 -2 -109.5 -21.5t-69.5 -51.5t-37 -73t-11 -84q0 -53 8 -100t18 -82q11 -41 27 -74q4 33 10 70q4 31 11.5 65.5t17.5 67.5q18 57 53 91 t101 32q49 -2 77.5 -33t32.5 -76q4 -55 -27.5 -89t-84.5 -38q-23 -2 -38.5 2t-25.5 8q-10 6 -18 15q-2 -6 -16.5 -59.5t-24.5 -116.5q-6 -33 -10.5 -68t-6.5 -64.5t-3 -48t-1 -20.5h-123q0 8 -2 43t-6 86q-2 45 -16.5 92t-30.5 96.5t-28.5 100.5t-10.5 106zM381 470.5 q0 -21.5 15.5 -40t43.5 -18.5q29 0 43.5 18.5t14.5 40t-14.5 39.5t-43.5 18t-44 -18t-15 -39.5z" />
<glyph unicode="&#xe05;" horiz-adv-x="866" d="M80 524q4 100 43 159.5t84 90.5t83 40t40 9l106 -98l107 98q29 -2 78 -20.5t84 -63.5q16 -20 26 -38.5t16.5 -41t9.5 -49t3 -63.5v-461l-76 -86h-47v555q0 41 -2 65.5t-19 59.5q-10 20 -21 31.5t-22 17.5q-12 8 -24 8l-115 -96l-112 98q-2 -2 -20.5 -9t-41 -30.5 t-42 -66.5t-23.5 -117q-4 -41 6 -90t20 -92q13 -52 31 -101q4 37 12 74q6 31 13.5 66t13.5 61q14 53 50 91t103 34q49 -2 77 -31.5t34 -76.5q6 -55 -26.5 -89t-86.5 -38q-23 -2 -38 2t-25 8q-10 6 -19 14q-2 -6 -16 -59t-25 -117q-12 -66 -14 -117t-2 -55h-121q0 6 -3 63.5 t-25 143.5q-12 43 -25.5 79t-25 71.5t-18.5 75.5t-5 91zM377 439.5q0 -21.5 15.5 -40t43.5 -18.5q29 0 43.5 18.5t14.5 40t-14.5 40t-43.5 18.5t-44 -18.5t-15 -40z" />
<glyph unicode="&#xe06;" horiz-adv-x="878" d="M66 639q4 49 20 85t35.5 57.5t38 31.5t28.5 10q25 2 39.5 -9t24.5 -23q12 -18 22 -29q6 -6 9 -10q6 6 12 14q12 16 20 25q12 12 26.5 22t31.5 10q10 0 33.5 -6t48 -25.5t44 -55.5t19.5 -95t-17.5 -99t-58.5 -87q-20 -25 -42.5 -48.5t-22.5 -50.5v-24q16 -8 39 -19 q41 -20 92 -59q33 -25 56.5 -48.5t38.5 -39.5t24.5 -24.5t15.5 -4.5q12 6 10 19.5t-2 27.5v547l72 88h51v-665q0 -35 -6 -66t-27 -51q-20 -20 -36.5 -29.5t-42.5 -9.5q-18 0 -34 12.5t-33 32.5t-38.5 47t-48.5 55q-55 57 -88 75t-43 24v-131q0 -33 -16.5 -58.5t-38.5 -38.5 q-59 -33 -125 -15.5t-88 89.5q-8 27 -10.5 57.5t2.5 61.5t21.5 58.5t45.5 49.5q29 23 55.5 26t28.5 3l2 21q2 29 29.5 53t54.5 53q25 27 39 45.5t23.5 34.5t12.5 33.5t5 40.5q4 66 -20.5 93.5t-37.5 27.5q-8 0 -19 -7.5t-22 -17.5q-14 -14 -26 -31q-8 -8 -12 -14 q-4 8 -13 16q-6 6 -13 14.5t-15 14.5q-10 8 -19.5 16.5t-23.5 8.5t-24.5 -12.5t-20.5 -33.5q-8 -16 -11.5 -37.5t-3.5 -25.5q6 2 15 6q8 4 17 6t21 2q35 0 62 -19.5t35 -53.5q10 -43 -14.5 -82t-77.5 -43q-41 -2 -67 14t-41 43t-20.5 60.5t-0.5 66.5zM139 554 q0 -17 11.5 -32.5t35.5 -15.5q25 0 36 15.5t11 32.5t-11 32.5t-36 15.5t-36 -15.5t-11 -32.5zM172 156.5q0 -17.5 4 -32.5t13.5 -27.5t25.5 -14.5q20 -4 29.5 5t9.5 24v153q-33 -4 -51.5 -17.5t-28.5 -60.5q-2 -12 -2 -29.5z" />
<glyph unicode="&#xe07;" horiz-adv-x="638" d="M6 453v73q2 0 26.5 -15t61.5 -41t80 -60.5t84 -75.5q35 -35 62.5 -71t48.5 -64q23 -35 41 -66v436q-12 -4 -49 -7t-74 20q-23 12 -37 36.5t-18.5 52t3 56.5t29.5 51q20 20 47 30.5t53.5 11.5t51 -4t41.5 -13q49 -29 62 -68t13 -76v-659h-165l-5 16q-4 17 -18 47.5 t-44 76.5t-81 110q-92 111 -151.5 157t-61.5 46zM301 690.5q0 -22.5 15.5 -42t45.5 -19.5q31 0 46.5 19.5t15.5 42t-15.5 42t-46.5 19.5t-46 -19.5t-15 -42z" />
<glyph unicode="&#xe08;" horiz-adv-x="751" d="M37 690q2 2 21.5 23.5t58.5 46t97 44t138 19.5q86 0 148.5 -24.5t101.5 -62.5t55.5 -88t12.5 -101l-49 -547h-228q-2 27 -8 57q-4 27 -10 62t-15 74q-14 70 -29.5 107.5t-17.5 43.5q-4 -2 -26.5 -15.5t-63.5 -9.5q-63 6 -88.5 45t-21.5 87q4 53 39.5 86.5t93.5 29.5 q37 -2 63.5 -18.5t45 -42t31.5 -60t24 -71.5q18 -61 29.5 -115.5t19.5 -95.5q8 -49 14 -88l39 -2l35 481q4 82 -43 135t-152 58q-72 2 -124 -20.5t-85.5 -51.5t-51 -52.5t-17.5 -25.5zM178 442.5q0 -22.5 14.5 -41t45.5 -18.5t45 18.5t14 41t-14 41t-45 18.5t-45.5 -18.5 t-14.5 -41z" />
<glyph unicode="&#xe09;" horiz-adv-x="851" d="M68.5 413q-0.5 56 37.5 95q33 33 84.5 38t98.5 -22q51 -29 63.5 -80t7.5 -110l-12 -193q4 4 25.5 29t68.5 51q29 16 53.5 25.5t47.5 13.5q23 6 47 8l35 27v260q0 86 -48.5 137t-164.5 56q-82 2 -140.5 -18.5t-95.5 -46.5t-54 -49l-18 -24l-32 95q47 47 130 82.5t199 35.5 q166 2 256.5 -67.5t90.5 -204.5v-260l-56 -43q14 0 27 -6q10 -4 23.5 -13.5t25.5 -23.5q31 -37 29 -88t-33 -86q-18 -23 -47 -32t-58.5 -8t-57.5 14t-42 36q-16 25 -20 47.5t-2 42t8 34.5t12 25q-47 -10 -77.5 -27.5t-67.5 -51.5q-41 -37 -54.5 -72t-13.5 -39h-117l13 295 q-2 0 -15.5 -3t-33 -3t-42 7t-43.5 26q-37 35 -37.5 91zM135 413.5q0 -22.5 15.5 -42t46.5 -19.5t46 19.5t15 42t-15 42t-46 19.5t-46.5 -19.5t-15.5 -42zM604 118.5q0 -24.5 16.5 -44t47.5 -19.5t47 19.5t16 44t-16 44t-47 19.5t-47.5 -19.5t-16.5 -44z" />
<glyph unicode="&#xe0a;" horiz-adv-x="770" d="M18 629q0 84 57.5 138t151.5 56q88 0 150.5 -49t64.5 -156q2 -59 -27.5 -114t-70.5 -109q-23 -29 -36 -55.5t-13 -65.5v-198h194q14 0 22.5 6t18.5 18t11.5 23.5t1.5 28.5v325q0 41 -21 74q-31 43 -82 45v47q14 4 54.5 27.5t72.5 64.5q25 31 34 58.5t13 68.5h136 q-8 -35 -28 -74.5t-52 -74.5q-35 -37 -74 -59.5t-43 -24.5q6 -2 35.5 -15.5t48.5 -44.5q16 -29 22.5 -56.5t6.5 -61.5v-293q0 -31 -4.5 -55.5t-22.5 -49.5q-41 -53 -121 -53h-360l14 74v188q0 47 16.5 82t38.5 70q20 27 40 48t36 44.5t26.5 50.5t12.5 68q2 45 -17.5 81.5 t-72.5 49.5q-35 8 -57.5 -3.5t-26.5 -13.5q8 0 30.5 -7t41.5 -34q12 -18 18 -42.5t2 -51t-19.5 -48t-43.5 -34.5q-37 -16 -70 -11t-57.5 22.5t-38 43t-13.5 52.5zM84 625.5q0 -21.5 14.5 -39t42.5 -17.5q29 0 43.5 17.5t14.5 39t-14.5 40t-43.5 18.5t-43 -18.5t-14 -40z" />
<glyph unicode="&#xe0b;" horiz-adv-x="804" d="M23 637q4 49 20 85t35.5 57.5t38 31.5t28.5 10q25 2 39.5 -9t24.5 -24q12 -18 22 -28q6 -6 9 -10q6 6 12 14q12 16 20 24q12 12 26.5 22.5t31.5 10.5q10 0 31.5 -7t45 -28.5t43 -60.5t25.5 -100q4 -59 -20.5 -107.5t-65.5 -99.5q-29 -39 -45 -67.5t-16 -76.5v-198h194 q14 0 22.5 6t18.5 18t11 23.5t1 28.5v325q0 41 -20 74q-31 43 -82 45v47q14 4 54 27.5t73 64.5q25 31 34 58.5t13 68.5h135q-8 -35 -27.5 -74.5t-52.5 -74.5q-35 -37 -73.5 -59.5t-42.5 -24.5q6 -2 35.5 -15.5t48.5 -44.5q16 -29 22 -56.5t6 -61.5v-293q0 -31 -4 -55.5 t-22 -49.5q-41 -53 -121 -53h-361l15 74v188q0 47 14 82t41 70q23 31 43.5 53t35.5 45t24.5 49.5t11.5 63.5q2 70 -22 95t-36 25q-8 0 -19 -7t-22 -17q-14 -14 -26 -31q-8 -8 -12 -14q-4 8 -13 16q-6 6 -13 14.5t-15 14.5q-10 8 -19.5 16t-23.5 8t-24.5 -12t-20.5 -33 q-8 -16 -11.5 -37.5t-3.5 -25.5q6 2 15 6q8 4 17 6t21 2q35 0 63 -19.5t34 -53.5q10 -43 -14.5 -82t-77.5 -43q-41 -4 -67 12t-41 44t-20.5 61.5t-0.5 66.5zM96 552q0 -17 11.5 -32.5t35.5 -15.5q25 0 36 15.5t11 32.5t-11 32.5t-36 15.5t-36 -15.5t-11 -32.5z" />
<glyph unicode="&#xe0c;" horiz-adv-x="1097" d="M57 557q0 2 3 21.5t13.5 49t30 62.5t53 62.5t82 49t117.5 21.5q86 2 148.5 -20.5t103.5 -62.5t60.5 -90t19.5 -103v-252q0 -2 28.5 -11.5t57.5 -25.5q41 -23 68 -45q14 -12 26 -25v531l76 100h47v-819h-112q-4 20 -15.5 51t-52.5 80q-20 25 -41.5 40t-39 24.5t-29 12.5 t-13.5 3v-100q0 -53 -28.5 -81t-61.5 -34q-109 -18 -147 76q-18 45 -12.5 99t40.5 89q27 29 56.5 33t29.5 6v256q0 82 -51 138.5t-158 54.5q-59 -2 -97 -21.5t-59.5 -43.5t-28.5 -42t-7 -20l184 -15v-59q-43 0 -76 -27q-23 -20 -26.5 -50t-3.5 -44v-188q14 0 36.5 -1 t51.5 -24q37 -29 43 -79t-21 -91q-16 -29 -60 -44t-97 5q-27 10 -42.5 26.5t-22.5 37t-9 41t-2 38.5v279q0 16 4 36.5t18 41.5q20 29 43 38t25 9zM188 116.5q0 -22.5 15.5 -42t46.5 -19.5t46 19.5t15 42t-15 42t-46 19.5t-46.5 -19.5t-15.5 -42zM504 156q-2 -29 4 -53.5 t29 -26.5q29 -2 28 30v123l-9 -1t-20.5 -8t-20.5 -22t-11 -42z" />
<glyph unicode="&#xe0d;" horiz-adv-x="1118" d="M63 553q0 4 7.5 46t38 92t93 91t171.5 41q80 0 137 -23.5t93 -61.5t53.5 -88t17.5 -103v-424v-19.5t8 -17.5q10 -10 33 -10h104q35 0 55 30q10 16 11.5 34t1.5 40v543l84 96h39v-645q0 -23 -5.5 -60.5t-27.5 -64.5q-16 -20 -42 -34.5t-50 -14.5h-254q-39 0 -62 27 q-16 16 -17 35.5t-1 43.5v449q0 82 -38 137.5t-140 55.5q-68 0 -109 -19.5t-61.5 -44.5t-26.5 -45.5t-6 -22.5l184 -14v-59q-43 0 -75 -27q-23 -20 -27 -50t-4 -44v-178q12 4 49 7t74 -20q23 -12 37 -36.5t18 -52t-4 -56.5t-29 -51q-20 -23 -47 -32t-53.5 -10t-51 4 t-40.5 13q-49 29 -62.5 68t-13.5 76v268q0 16 4 36.5t18 41.5q20 29 43 38t25 9zM233 122.5q0 -22.5 15.5 -42t46.5 -19.5t46 19.5t15 42t-15 42t-46 19.5t-46.5 -19.5t-15.5 -42zM539 -145.5q2 24.5 13 44t30.5 31t50.5 11.5q51 -2 67.5 -41t-4.5 -72q-14 -23 -37.5 -24 t-27.5 -1q2 -6 6 -14t13 -17.5t25.5 -18.5t45.5 -13q47 -6 85 7t62 48q8 14 13.5 32.5t6.5 37t0 33t-3 20.5l123 31q10 -104 -51.5 -182t-172.5 -89q-92 -8 -159.5 31t-81.5 98q-6 23 -4 47.5z" />
<glyph unicode="&#xe0e;" horiz-adv-x="915" d="M57 144.5q4 27.5 18.5 52t37.5 36.5q37 23 73.5 20t49.5 -7v176q0 16 4 36.5t18 41.5q20 29 43 38t25 9l-152 6q0 2 3 22.5t14.5 51t33 65.5t56 63.5t87 48t126.5 19.5q86 0 146 -23.5t97 -61.5t54.5 -88t17.5 -103v-924h-152q-6 12 -14 25q-8 10 -18.5 24.5t-26.5 30.5 q-35 31 -55.5 43t-22.5 12q-8 -31 -22.5 -52t-36.5 -42q-41 -37 -105.5 -44t-111.5 24q-29 18 -39 46.5t-7 58.5t20.5 57.5t45.5 43.5q35 20 66.5 25.5t60.5 3.5q31 -2 62 -12l4 67l104 31q0 -4 -2 -26.5t-4 -44.5q-4 -33 -6 -48q-2 -8 -4 -14q2 0 25.5 -14.5t47.5 -34.5 q10 -8 21.5 -20.5t22.5 -22.5q12 -12 24 -27v842q0 82 -45 136t-147 57q-68 2 -110 -18.5t-65.5 -45.5t-30.5 -45.5t-7 -22.5l184 -14v-59q-43 0 -76 -27q-23 -20 -27 -47t-4 -59v-254q0 -37 -13 -76t-62 -68q-16 -8 -41 -13t-51.5 -4t-53 10t-47.5 32q-23 23 -30 51.5 t-3 56zM127 124.5q0 -22.5 15 -42t46 -19.5t46.5 19.5t15.5 42t-15.5 42t-46.5 19.5t-46 -19.5t-15 -42zM284 -238.5q-10 -23.5 7 -50.5q14 -23 46 -19.5t54 21.5q31 25 37 54.5t6 31.5q-2 0 -12 5.5t-26.5 7.5t-37.5 -0.5t-41 -14.5q-23 -12 -33 -35.5z" />
<glyph unicode="&#xe0f;" horiz-adv-x="915" d="M57 144.5q4 27.5 18.5 52t37.5 36.5q37 23 73.5 20t49.5 -7v176q0 16 4 36.5t18 41.5q20 29 43 38t25 9l-152 6q0 2 3 22.5t14.5 51t33 65.5t56 63.5t87 48t126.5 19.5q86 0 146 -23.5t97 -61.5t54.5 -88t17.5 -103v-918h-133l-86 113l-82 -113h-49q-2 8 -4 17 q-4 8 -7.5 17t-7.5 20q-10 18 -18 31.5t-8 15.5q-8 -12 -17 -25q-8 -10 -18 -21.5t-27 -19.5q-51 -29 -104 -24.5t-88 49.5q-14 18 -20.5 42.5t-3.5 50t15.5 48.5t36.5 37q35 20 71 20t64.5 -7t48 -18.5t21.5 -15.5q0 4 2 16.5t4 31.5q0 10 1 16t1 12v12l88 23q0 -4 -1 -35 t-7 -63q-4 -16 -8 -28.5t-8 -23.5q-6 -10 -8 -18l32 -55l101 114l96 -122v829q0 82 -45 136t-147 57q-68 2 -110 -18.5t-65.5 -45.5t-30.5 -45.5t-7 -22.5l184 -14v-59q-43 0 -76 -27q-23 -20 -27 -47t-4 -59v-254q0 -37 -13 -76t-62 -68q-16 -8 -41 -13t-51.5 -4t-53 10 t-47.5 32q-23 23 -30 51.5t-3 56zM127 124.5q0 -22.5 15 -42t46 -19.5t46.5 19.5t15.5 42t-15.5 42t-46.5 19.5t-46 -19.5t-15 -42zM211 -240q2 -23 20.5 -36t44.5 -11q23 2 39.5 13.5t25.5 23.5t13 24l4 11q0 2 -6 8t-16 13.5t-25 12.5t-35 3q-70 -6 -65 -62z" />
<glyph unicode="&#xe10;" horiz-adv-x="755" d="M-3 -217.5q5 24.5 19.5 45t36.5 31.5q41 18 85 11t67 -34q0 4 2 10l6 19q2 4 3 10t5 10q2 6 6 9h80q-10 -16 -15 -26.5t-13 -29.5q-4 -8 -7.5 -16t-5.5 -17q-4 -8 -4 -18l35 -53l47 55l92 -94h47q8 0 19 8q8 6 8 21l-2 24q-25 -2 -44.5 5t-35.5 30q-23 33 -16.5 76 t41.5 65q35 20 67.5 17.5t54.5 -19.5q33 -23 37 -52.5t4 -45.5v-78q0 -43 -22 -74q-12 -16 -30.5 -25t-41.5 -9h-106l-68 69l-59 -72l-58 89q-2 -6 -8 -15q-4 -6 -12 -14t-18 -19q-18 -14 -42 -21t-48.5 -6t-47 11t-37.5 29q-16 18 -21 43.5t0 50zM47 594q0 2 5 29.5 t22.5 63.5t52.5 72t94 54q49 14 94 9t85 -16t76 -21.5t65 -6.5q41 6 58 25.5t22 21.5l43 -88q-2 0 -28 -20.5t-81 -24.5q-37 -4 -66.5 5.5t-57.5 20.5t-57.5 21.5t-66.5 8.5q-35 -2 -56.5 -14.5t-34.5 -28t-18 -28.5l-5 -13q2 0 24.5 -1t55 -4.5t70.5 -8.5t75 -13 q45 -10 88 -25.5t74.5 -38t49 -55.5t11.5 -78l-55 -440h-219q0 2 -2.5 34t-18.5 109q-14 70 -27.5 97.5t-15.5 33.5q-4 -2 -26.5 -15t-63.5 -9q-61 6 -89 44t-24 87q4 53 41 87t101 30q37 -4 61.5 -20.5t41.5 -43t29.5 -59.5t24.5 -70q10 -39 20.5 -79t16.5 -74 q8 -39 15 -76h32l33 348q2 35 -11 60.5t-38 43t-57.5 27.5t-67.5 16q-49 8 -100.5 13.5t-94.5 7.5t-70.5 2h-29.5zM66 -237.5q0 -14.5 6 -26.5t19 -19.5t34 -3.5q33 6 43 33t10 35q0 4 -12 12t-28.5 12.5t-35 2t-30.5 -20.5q-6 -10 -6 -24.5zM168 372.5q0 -22.5 14.5 -41 t44.5 -18.5q31 0 45.5 18.5t14.5 41t-14.5 41t-45.5 18.5t-45 -18.5t-14 -41zM463 -157.5q0 -18.5 12 -34t37 -15.5t37 15.5t12 34t-12 33.5t-37 15t-37 -15t-12 -33.5z" />
<glyph unicode="&#xe11;" horiz-adv-x="935" d="M23 637q2 55 18 92t37.5 57.5t42 27.5t33.5 7q20 -2 32.5 -9t28.5 -24q8 -8 21 -24q6 -8 12 -14q4 6 10 14q12 16 21 24q23 23 35 29t26 6q8 0 31.5 -5t47 -26.5t41 -60.5t15.5 -106q0 -35 -14.5 -71t-30.5 -69.5t-29.5 -62.5t-13.5 -51v-117l-12 -107l26 105 q23 51 45 104q20 45 43 96.5t46 98.5q27 55 52 107.5t52 90t53.5 58t55.5 14.5q43 -10 64.5 -62t21.5 -134v-535l-74 -90h-49v614v11.5t-1 19.5t-4.5 18.5t-9.5 10.5q-20 6 -60 -81t-104 -237q-23 -53 -48 -115.5t-46.5 -114.5t-36 -88t-14.5 -38h-123v303q0 59 17.5 100 t52.5 95q39 61 41 97t2 58q0 59 -20.5 75.5t-30.5 16.5q-20 0 -41 -24q-6 -8 -13.5 -16.5t-11.5 -14.5q-8 -8 -12 -16q-6 10 -15 18q-6 8 -14 15.5t-14 13.5q-10 10 -19.5 17t-23.5 7t-24.5 -13t-20.5 -32q-8 -16 -11.5 -37.5t-3.5 -25.5q8 4 17 8q14 6 45 6 q35 -2 60.5 -21.5t31.5 -54.5q10 -47 -16.5 -84.5t-79.5 -37.5q-41 0 -69 14t-43 39.5t-21.5 59.5t-3.5 71zM109 552q0 -17 11 -32.5t36 -15.5t36 15.5t11 32.5t-11 32.5t-36 15.5t-36 -15.5t-11 -32.5z" />
<glyph unicode="&#xe12;" horiz-adv-x="1185" d="M88 524q4 106 44 167t86 89.5t84 35.5t40 7l107 -98l106 98q29 -2 78 -20.5t84 -63.5q16 -20 26.5 -38.5t15.5 -41t7 -49t2 -63.5v-252q0 -2 28.5 -11.5t57.5 -25.5q41 -23 68 -45q14 -12 26 -25v531l76 100h47v-819h-113q-4 20 -15 51t-52 80q-20 25 -42 40t-39 24.5 t-28.5 12.5t-13.5 3v-100q0 -53 -28.5 -81t-61.5 -34q-113 -18 -152 76q-18 45 -10 99t39 89q14 18 30.5 25.5t30 10.5t21.5 3h8v256q0 41 -1 65.5t-15 59.5q-10 20 -22.5 31.5t-22.5 17.5q-12 8 -27 8l-111 -96l-108 98q-4 -2 -24.5 -9t-44 -29.5t-43 -65.5t-19.5 -117 q0 -68 17.5 -118t45.5 -115q35 -76 39 -113t4 -39q2 6 17.5 43t44.5 82q16 27 36.5 56.5t22.5 33.5q-4 0 -24.5 1t-49.5 18q-35 23 -45 60.5t7 78.5q16 43 50 61.5t77 14.5q66 -6 89 -47t23 -82q0 -29 -14.5 -62t-34.5 -66.5t-43 -67.5t-41 -64q-18 -33 -34.5 -67t-29 -61.5 t-19.5 -46.5l-7 -18h-133q0 6 -6 63.5t-29 143.5q-12 43 -26.5 79t-28 70.5t-21.5 74.5t-6 93zM377 461.5q0 -21.5 15.5 -40t43.5 -18.5q29 0 43.5 18.5t14.5 40t-14.5 40t-43.5 18.5t-44 -18.5t-15 -40zM584 156q-2 -29 4 -53.5t28 -26.5q29 -2 29 30v123l-9 -1t-20.5 -8 t-20.5 -22t-11 -42z" />
<glyph unicode="&#xe13;" horiz-adv-x="1120" d="M80 555q0 2 8 45t39 92t91.5 90t164.5 41q88 0 147.5 -22.5t96.5 -61.5t52 -89t15 -103v-363q4 2 23.5 19.5t56.5 36.5q33 14 60 22q12 4 24 6l31 31v432l72 88h51v-516q0 -4 -9.5 -9t-17.5 -13q-4 -4 -7 -8.5t-7 -8.5t-6 -8q2 0 24.5 -8t42.5 -31q31 -35 33 -85t-31 -93 q-18 -25 -44.5 -36t-56.5 -11t-56.5 11t-45.5 34q-18 20 -23 42.5t-4 42t5 33t4 15.5q-47 -16 -78 -53q-23 -27 -34 -53.5t-13 -63.5h-117v555q0 82 -42 136t-146 57q-59 0 -98 -19.5t-60.5 -43t-30 -44t-8.5 -23.5l185 -14v-59q-43 0 -76 -27q-23 -20 -27 -50t-4 -44v-178 q12 4 49 7t74 -20q23 -12 37 -36.5t18 -52t-4 -56.5t-28 -51q-20 -23 -47 -32t-53.5 -10t-51.5 4t-41 13q-49 29 -62.5 68t-13.5 76v268q0 16 4.5 36.5t18.5 41.5q20 29 42.5 38t24.5 9zM250 124.5q0 -22.5 15 -42t46 -19.5t46.5 19.5t15.5 42t-15.5 42t-46.5 19.5 t-46 -19.5t-15 -42zM866 121.5q0 -23.5 16.5 -44t49.5 -20.5t48 20.5t15 44t-15 44t-48 20.5t-49.5 -20.5t-16.5 -44z" />
<glyph unicode="&#xe14;" horiz-adv-x="878" d="M84 524q0 55 21.5 109.5t64.5 96.5t108.5 67.5t155.5 25.5q94 0 157.5 -23.5t102.5 -62.5t56.5 -88t17.5 -102v-461l-76 -86h-47v555q0 82 -48 137.5t-167 55.5q-59 0 -102 -19.5t-72 -52.5t-42 -74t-11 -84q4 -68 19.5 -118t43.5 -115q35 -76 40 -113t5 -39q2 6 18.5 45 t41.5 80q8 14 18 32.5t19.5 34t16.5 26.5t7 14h-24.5t-49.5 18q-31 20 -43 59t4 80q14 41 49 60.5t78 15.5q66 -6 89.5 -47t23.5 -82q0 -31 -15.5 -65.5t-37 -68.5t-43 -66.5t-33.5 -59.5q-16 -33 -33.5 -70t-32 -67.5t-22.5 -51.5l-8 -20h-133q0 6 -6.5 63.5t-28.5 143.5 q-12 43 -26.5 82t-27 76.5t-20.5 76.5t-8 82zM375 478.5q0 -21.5 15.5 -40t43.5 -18.5q29 0 43.5 18.5t14.5 40t-14.5 40t-43.5 18.5t-44 -18.5t-15 -40z" />
<glyph unicode="&#xe15;" horiz-adv-x="878" d="M86 522q0 106 39 167t85 90.5t85 36.5t41 7l106 -98l107 98q29 -2 78 -20.5t84 -63.5q16 -20 26.5 -38.5t16.5 -41t9 -49t3 -63.5v-461l-76 -86h-47v555q0 41 -2 65.5t-18 59.5q-10 20 -22.5 31.5t-22.5 17.5q-12 8 -27 8l-109 -96l-114 100q-2 -2 -22.5 -9t-43 -30.5 t-42 -66.5t-19.5 -117q0 -68 17.5 -118t45.5 -115q35 -76 39 -113t4 -39q2 6 17.5 43t44.5 82q16 27 36.5 56.5t22.5 33.5h-24.5t-49.5 19q-31 20 -43 59t4 80q14 41 49 60.5t78 15.5q66 -6 90.5 -45t22.5 -84q0 -29 -14.5 -62t-35 -66.5t-43 -67.5t-40.5 -64 q-18 -33 -34.5 -67t-29 -61.5t-19.5 -46.5l-7 -18h-133q0 6 -6.5 63.5t-28.5 143.5q-12 43 -25.5 76.5t-26 68.5t-19.5 75t-7 95zM371 461.5q0 -21.5 15 -40t44 -18.5t43 18.5t14 40t-14 40t-43 18.5t-44 -18.5t-15 -40z" />
<glyph unicode="&#xe16;" horiz-adv-x="829" d="M88 553q0 2 3 22.5t14.5 51t33 65.5t56 63.5t87 48t126.5 19.5q86 0 146 -23.5t97 -61.5t54.5 -88t17.5 -103v-461l-76 -86h-47v555q0 82 -45 136t-147 57q-68 2 -110 -18.5t-65.5 -45.5t-30.5 -45.5t-7 -22.5l184 -14v-59q-43 0 -76 -27q-23 -20 -27 -50t-4 -44v-178 q12 4 49 7t74 -20q23 -12 37 -36.5t18.5 -52t-4 -56.5t-28.5 -51q-20 -23 -47 -32t-53.5 -10t-51 4t-41.5 13q-49 29 -62 68t-13 76v268q0 16 4 36.5t18 41.5q20 29 43 38t25 9zM258 122.5q0 -22.5 15 -42t46 -19.5t46.5 19.5t15.5 42t-15.5 42t-46.5 19.5t-46 -19.5 t-15 -42z" />
<glyph unicode="&#xe17;" horiz-adv-x="899" d="M53 670.5q-4 27.5 3 56.5t30 51q20 20 47 30.5t53.5 11.5t51 -4t41.5 -13q49 -29 62 -68t13 -76v-251l-8 -107l23 105q8 29 18 61q10 29 23.5 64.5t31.5 76.5q47 104 90 158.5t117 54.5q39 0 67.5 -17.5t47 -45t28 -62t9.5 -71.5v-535l-74 -90h-49v643q0 25 -10.5 48.5 t-32.5 27.5q-29 6 -55.5 -25.5t-49 -84t-44 -115t-40.5 -115.5q-20 -55 -36.5 -117.5t-28.5 -117t-19.5 -94.5t-7.5 -50h-123v569q-12 -4 -49 -7t-73 20q-23 12 -37.5 36.5t-18.5 52zM123 690.5q0 -22.5 15.5 -42t45.5 -19.5q31 0 46.5 19.5t15.5 42t-15.5 42t-46.5 19.5 t-46 -19.5t-15 -42z" />
<glyph unicode="&#xe18;" horiz-adv-x="741" d="M70 582q-2 16 1 50t19 73q29 66 76 91t119 27q39 0 70.5 -6t62.5 -14t59.5 -15.5t61.5 -5.5q43 2 61 20.5t23 20.5l57 -88q-2 0 -22.5 -13t-53.5 -22q-35 -10 -77 -0.5t-85 22.5t-86 22.5t-82 0.5q-27 -6 -42 -18t-23 -27.5t-12 -29t-7 -19.5q55 -6 113 -14 q49 -10 109.5 -24.5t115.5 -37.5q59 -25 86 -62.5t27 -98.5v-262q0 -31 -9 -54.5t-30 -46.5q-23 -27 -50.5 -39t-53.5 -12h-279q-49 0 -78 37q-12 16 -15 36.5t-3 37.5v340l123 41v-349q0 -14 1 -26.5t9 -22.5q14 -18 41 -18h137q29 0 53 18q31 23 31 72v258 q0 51 -31.5 75.5t-72.5 35.5q-63 18 -124 28t-109 14.5t-78.5 4.5h-32.5z" />
<glyph unicode="&#xe19;" horiz-adv-x="903" d="M59 670.5q-4 27.5 3.5 56.5t29.5 51q20 20 47 30.5t53.5 11.5t51 -4t41.5 -13q49 -29 62 -68t13 -76v-528q2 4 38 37t94 61q25 12 49 20.5t43 12.5q23 6 43 8l30 25v436l72 88h51v-520q-4 -2 -10 -6q-4 -4 -10 -7t-10 -7q-12 -12 -19 -17q-6 -4 -10 -8q2 0 24.5 -7 t42.5 -30q33 -35 34 -91t-36 -95q-23 -25 -52 -33t-57 -6t-52.5 14t-38.5 31q-23 27 -27 54.5t0 50t11.5 37t9.5 16.5q-35 -10 -59.5 -22.5t-59.5 -41.5t-58.5 -58.5t-42.5 -72.5h-122v569q-12 -4 -49 -7t-74 20q-23 12 -37.5 36.5t-18.5 52zM129 690.5q0 -22.5 15.5 -42 t45.5 -19.5q31 0 46.5 19.5t15.5 42t-15.5 42t-46.5 19.5t-46 -19.5t-15 -42zM625 121.5q0 -23.5 16 -44t49 -20.5t48.5 20.5t15.5 44t-15.5 44t-48.5 20.5t-49 -20.5t-16 -44z" />
<glyph unicode="&#xe1a;" horiz-adv-x="917" d="M59 670.5q-4 27.5 3.5 56.5t29.5 51q20 20 47 30.5t53.5 11.5t51 -4t41.5 -13q49 -29 62 -68t13 -76v-520q0 -16 2.5 -27.5t12.5 -21.5t21.5 -12t27.5 -2h211q23 0 41 20q10 12 11 23.5t1 27.5v584l72 88h51v-665q0 -31 -4 -55.5t-23 -49.5q-23 -29 -52.5 -39t-67.5 -10 h-328q-47 0 -76 33q-16 18 -19 37.5t-3 44.5v454q-12 -4 -49 -7t-74 20q-23 12 -37.5 36.5t-18.5 52zM129 690.5q0 -22.5 15.5 -42t45.5 -19.5q31 0 46.5 19.5t15.5 42t-15.5 42t-46.5 19.5t-46 -19.5t-15 -42z" />
<glyph unicode="&#xe1b;" horiz-adv-x="919" d="M59 670.5q-4 27.5 3.5 56.5t29.5 51q20 20 47 30.5t53.5 11.5t51 -4t41.5 -13q49 -29 62 -68t13 -76v-520q0 -16 2.5 -27.5t12.5 -21.5t21.5 -12t27.5 -2h211q23 0 41 20q10 12 11 23.5t1 27.5v998l72 88h51v-1079q0 -31 -4 -55.5t-23 -49.5q-23 -29 -52.5 -39t-67.5 -10 h-328q-47 0 -76 33q-16 18 -19 37.5t-3 44.5v454q-12 -4 -49 -7t-74 20q-23 12 -37.5 36.5t-18.5 52zM129 690.5q0 -22.5 15.5 -42t45.5 -19.5q31 0 46.5 19.5t15.5 42t-15.5 42t-46.5 19.5t-46 -19.5t-15 -42z" />
<glyph unicode="&#xe1c;" horiz-adv-x="880" d="M119 -2v659q0 14 3 34t11 40.5t23.5 40t40.5 33.5q16 8 40.5 13t51 3t52.5 -12t46 -31q20 -23 28.5 -51.5t4.5 -56t-18.5 -52t-36.5 -36.5q-37 -23 -74 -20t-49 7v-452l204 346l207 -346v616l74 86h49v-819h-139l-186 324l-193 -326h-139zM225 690.5q0 -22.5 15.5 -42 t46.5 -19.5t46 19.5t15 42t-15 42t-46 19.5t-46.5 -19.5t-15.5 -42z" />
<glyph unicode="&#xe1d;" horiz-adv-x="870" d="M119 -2v659q0 14 3 34t11 40.5t23.5 40t40.5 33.5q16 8 40.5 13t51 3t52.5 -12t46 -31q20 -23 28.5 -51.5t4.5 -56t-18.5 -52t-36.5 -36.5q-37 -23 -74 -20t-49 7v-452l204 346l207 -346v1028l74 86h49v-1231h-139l-191 328l-188 -330h-139zM225 690.5q0 -22.5 15.5 -42 t46.5 -19.5t46 19.5t15 42t-15 42t-46 19.5t-46.5 -19.5t-15.5 -42z" />
<glyph unicode="&#xe1e;" horiz-adv-x="1013" d="M61.5 670.5q-4.5 27.5 3 56.5t29.5 51q20 20 47 30.5t53.5 11.5t51 -4t41.5 -13q49 -29 62 -69t13 -77v-378l-4 -113l23 110l149 543h78l156 -545l24 -106l-6 108v457l74 86h49v-819h-151l-183 647l-180 -647h-151v569q-12 -4 -49 -7t-74 20q-23 12 -37 36.5t-18.5 52z M131 690.5q0 -22.5 15.5 -42t46.5 -19.5t46 19.5t15 42t-15 42t-46 19.5t-46.5 -19.5t-15.5 -42z" />
<glyph unicode="&#xe1f;" horiz-adv-x="1013" d="M61.5 670.5q-4.5 27.5 3 56.5t29.5 51q20 20 47 30.5t53.5 11.5t51 -4t41.5 -13q49 -29 62 -69t13 -77v-378l-4 -113l23 110l149 543h78l156 -545l24 -106l-6 108v869l74 86h49v-1231h-151l-183 647l-180 -647h-151v569q-12 -4 -49 -7t-74 20q-23 12 -37 36.5t-18.5 52z M131 690.5q0 -22.5 15.5 -42t46.5 -19.5t46 19.5t15 42t-15 42t-46 19.5t-46.5 -19.5t-15.5 -42z" />
<glyph unicode="&#xe20;" horiz-adv-x="909" d="M55 144.5q4 27.5 18.5 52t37.5 36.5q37 23 73.5 20t48.5 -7v176q0 16 4.5 36.5t18.5 41.5q20 29 43 38t25 9l-152 6q0 2 3 22.5t14.5 51t33 65.5t56 63.5t87 48t126.5 19.5q86 0 146 -23.5t97 -61.5t54.5 -88t17.5 -103v-461l-76 -86h-47v555q0 82 -45 136t-147 57 q-68 2 -110 -18.5t-65.5 -45.5t-30.5 -45.5t-7 -22.5l184 -14v-59q-43 0 -76 -27q-23 -20 -27 -47t-4 -59v-254q0 -37 -13 -76t-62 -68q-16 -8 -41 -13t-51.5 -4t-53 10t-47.5 32q-23 23 -30 51.5t-3 56zM125 124.5q0 -22.5 15 -42t46 -19.5t46.5 19.5t15.5 42t-15.5 42 t-46.5 19.5t-46 -19.5t-15 -42z" />
<glyph unicode="&#xe21;" horiz-adv-x="899" d="M84 670.5q-4 27.5 3 56.5t30 51q20 20 46.5 30.5t53.5 11.5t51.5 -4t40.5 -13q49 -29 62.5 -68t13.5 -76v-327q16 -8 39 -19q41 -20 92 -59q33 -25 56.5 -48.5t39 -39.5t24.5 -24.5t15 -4.5q12 6 10 19.5t-2 27.5v547l72 88h51v-665q0 -35 -6 -66t-26 -51t-37 -29.5 t-43 -9.5q-18 0 -33.5 12.5t-33 32.5t-39 47t-48.5 55q-55 57 -88 75t-43 24v-131q0 -33 -16.5 -58.5t-38.5 -38.5q-59 -33 -125 -15.5t-88 89.5q-16 55 -7 120.5t70 106.5q29 16 55.5 19.5t26.5 5.5v227q-12 -4 -49 -7t-74 20q-23 12 -37 36.5t-18 52zM154 690.5 q0 -22.5 15 -42t46 -19.5t46 19.5t15 42t-15 42t-46 19.5t-46 -19.5t-15 -42zM180 156.5q0 -17.5 4 -32.5t13.5 -27.5t25.5 -14.5q20 -4 29.5 5t9.5 24v153q-33 -4 -51.5 -17.5t-28.5 -60.5q-2 -12 -2 -29.5z" />
<glyph unicode="&#xe22;" horiz-adv-x="792" d="M74 610q-4 92 48 150.5t144 62.5q49 2 85 -14t56.5 -42t24.5 -57.5t-8 -60.5q-12 -31 -37 -48t-53.5 -22.5t-58 2t-54.5 27.5q-20 16 -24 42t-4 32q-2 -4 -7.5 -15.5t-8.5 -27.5t-2 -40t13 -52q16 -37 54.5 -53.5t83.5 -16.5h104v-65h-59q-10 0 -42 -7.5t-55 -29.5 q-29 -31 -37 -59.5t-8 -67.5v-109q0 -16 2 -27.5t13 -21.5q10 -10 21 -12t28 -2h211q23 0 41 20q10 12 11 23.5t1 27.5v584l72 88h51v-665q0 -31 -4 -55.5t-23 -49.5q-23 -29 -52.5 -39t-68.5 -10h-327q-47 0 -76 33q-16 18 -19.5 37.5t-3.5 44.5v127q0 41 9.5 71.5 t31.5 59.5q23 29 45.5 41t45.5 16q-70 10 -115 47t-49 133zM250 693.5q0 -23.5 14.5 -42t44.5 -18.5q31 0 45.5 18.5t14.5 42t-14.5 42t-45.5 18.5t-45 -18.5t-14 -42z" />
<glyph unicode="&#xe23;" horiz-adv-x="686" d="M49 586q0 16 8.5 50t30.5 73q35 57 84 83.5t115 30.5q37 2 62.5 -4t47 -14t43 -15.5t49.5 -7.5q43 0 63.5 19.5t25.5 21.5l53 -82q-2 0 -25.5 -19.5t-64.5 -19.5q-37 0 -69 9.5t-61.5 19.5t-61.5 16.5t-70 -2.5q-27 -6 -43.5 -18t-26.5 -27.5t-16.5 -29t-8.5 -19.5 q47 -6 99 -14q43 -8 95 -23.5t105 -38.5q66 -29 81.5 -64.5t15.5 -96.5v-258q0 -37 -13.5 -76t-62.5 -68q-16 -8 -41 -13t-51.5 -4t-53 10t-47.5 32q-23 23 -30 51.5t-2.5 56t18.5 52t37 36.5q37 23 73.5 20t49.5 -7v176q0 53 -21.5 75.5t-68.5 39.5q-47 16 -100.5 26 t-101.5 15.5t-81 6.5t-35 1zM348 124.5q0 -22.5 15.5 -42t46.5 -19.5t46 19.5t15 42t-15.5 42t-45.5 19.5q-31 0 -46.5 -19.5t-15.5 -42z" />
<glyph unicode="&#xe24;" horiz-adv-x="829" d="M74 553q0 2 3 22.5t14 51t32.5 65.5t56.5 63.5t87 48t126 19.5q86 0 146.5 -23.5t97.5 -61.5t54.5 -88t17.5 -103v-740l-76 -86h-47v834q0 82 -45 136t-148 57q-68 2 -109.5 -18.5t-65 -45.5t-31 -45.5t-7.5 -22.5l185 -14v-59q-43 0 -76 -27q-23 -20 -27 -50t-4 -44 v-178q12 4 49 7t74 -20q23 -12 37 -36.5t18 -52t-4 -56.5t-29 -51q-20 -23 -46.5 -32t-53.5 -10t-51.5 4t-40.5 13q-49 29 -62.5 68t-13.5 76v268q0 16 4 36.5t19 41.5q20 29 42.5 38t24.5 9zM244 122.5q0 -22.5 15 -42t46 -19.5t46.5 19.5t15.5 42t-15.5 42t-46.5 19.5 t-46 -19.5t-15 -42z" />
<glyph unicode="&#xe25;" horiz-adv-x="806" d="M74 694q2 2 18.5 22.5t53 45t95 43t142.5 18.5q164 0 241.5 -75.5t77.5 -217.5v-440l-75 -90h-47v162q0 18 -5.5 47t-15.5 62.5t-26.5 68.5t-38.5 63q-29 37 -58.5 64t-77.5 29q-43 0 -66.5 -20.5t-33.5 -55.5q-8 -25 -11 -54.5t-3 -56t2 -46t2 -21.5q12 4 47 9t80 -20 q23 -12 37 -35.5t18 -51t-4 -57.5t-29 -52q-18 -20 -44.5 -29.5t-54.5 -10.5t-53.5 7t-43.5 21q-53 39 -68.5 102t-13.5 135q0 27 2 59.5t7 65.5t16.5 64.5t33.5 58.5q29 35 62.5 51t65.5 20.5t61.5 -1t52.5 -13.5q25 -8 51.5 -27.5t49 -42t37.5 -46t22 -41.5v135 q0 43 -7.5 79.5t-30 64.5t-62.5 44.5t-103 18.5q-68 2 -118 -18.5t-83 -47.5t-49 -51.5t-18 -28.5zM238 122.5q0 -22.5 15 -42t46 -19.5t46 19.5t15 42t-15 42t-46 19.5t-46 -19.5t-15 -42z" />
<glyph unicode="&#xe26;" horiz-adv-x="923" d="M47 144.5q4 27.5 18.5 52t36.5 36.5q37 23 74 20t49 -7v176q0 16 4 36.5t19 41.5q20 29 42.5 38t24.5 9l-151 6q0 2 3 22.5t14.5 51t33 65.5t56 63.5t87 48t125.5 19.5q86 0 146.5 -23.5t97.5 -61.5t54.5 -88t17.5 -103v-740l-76 -86h-47v834q0 82 -45 136t-148 57 q-68 2 -109.5 -18.5t-65 -45.5t-31 -45.5t-7.5 -22.5l185 -14v-59q-43 0 -76 -27q-23 -20 -27 -47t-4 -59v-254q0 -37 -13 -76t-63 -68q-16 -8 -40.5 -13t-51 -4t-53.5 10t-47 32q-23 23 -30 51.5t-3 56zM117 124.5q0 -22.5 15 -42t46 -19.5t46.5 19.5t15.5 42t-15.5 42 t-46.5 19.5t-46 -19.5t-15 -42z" />
<glyph unicode="&#xe27;" horiz-adv-x="692" d="M4 694q23 35 62 64q35 25 88 44t139 21q139 0 220 -65.5t81 -188.5v-415q0 -37 -13.5 -76t-62.5 -68q-16 -8 -40.5 -13t-51.5 -4t-53.5 10t-46.5 32q-23 23 -30 51.5t-3 56t18.5 52t36.5 36.5q37 23 74 20t49 -7v338q0 12 -4 38.5t-21.5 54t-53.5 48t-99 25.5 q-90 4 -152.5 -33t-87.5 -103zM362 122.5q0 -22.5 15.5 -42t46.5 -19.5t46 19.5t15 42t-15 42t-46 19.5t-46.5 -19.5t-15.5 -42z" />
<glyph unicode="&#xe28;" horiz-adv-x="886" d="M96 524q4 135 94.5 215t253.5 84q51 0 90 -7t65 -16t39 -16l13 -8q2 4 10.5 16.5t16.5 36.5q4 18 8 33t4 33h135q-6 -51 -41 -100q-20 -29 -41.5 -48.5t-23.5 -19.5q0 -2 18.5 -23.5t28.5 -52.5q10 -33 11 -51t1 -53v-461l-76 -86h-47v555v32t-4 36q-4 14 -7 23t-7 16 q-4 8 -8 10q-2 0 -8.5 -5t-16.5 -10q-4 -4 -9 -5t-9 -3q-6 -2 -8 -4l-33 29q4 2 10 4q8 2 18 12q4 4 8.5 7t8.5 8l6 6l-12 6q-11 6 -30 13t-48 13.5t-66 4.5q-66 -2 -109.5 -21.5t-69 -51.5t-37 -73t-11.5 -84q0 -53 8 -100t19 -82q10 -41 26 -74q4 31 10 66q10 63 29 135 q12 53 46 92t102 37q53 -2 82.5 -36t33.5 -77q4 -55 -27.5 -90t-84.5 -39q-41 -2 -64 12q-10 6 -18 15q-2 -6 -16.5 -59.5t-24.5 -116.5q-6 -33 -10.5 -68t-6.5 -64.5t-3 -48t-1 -20.5h-123q0 8 -2 43t-6 86q-2 45 -16 92t-30.5 96.5t-29 100.5t-10.5 106zM387 470.5 q0 -21.5 15.5 -40t43.5 -18.5q29 0 43.5 18.5t14.5 40t-14.5 39.5t-43.5 18t-44 -18t-15 -39.5z" />
<glyph unicode="&#xe29;" horiz-adv-x="925" d="M59 670.5q-4 27.5 3.5 56.5t29.5 51q20 20 47 30.5t53.5 11.5t51 -4t41.5 -13q49 -29 62 -68t13 -76v-520q0 -16 2.5 -27.5t12.5 -21.5t21.5 -12t27.5 -2h211q23 0 41 20q10 12 11 23.5t1 27.5v187q-31 -6 -61 -12q-29 -4 -60.5 -6.5t-62.5 6.5q-63 16 -87 52t-20 85 q4 47 35 75.5t84 30.5q59 2 92 -33.5t33 -87.5q0 -16 -3 -26t-7 -17q-4 -8 -8 -12q4 0 10 2q4 2 11 3t13 3t11.5 4t9.5 5q6 2 10 4v321l72 88h51v-362q6 2 12 8q4 4 10.5 10t12.5 14q4 8 10 15.5t10 15.5q6 8 8 17l35 -88q-2 -4 -17 -19.5t-32 -26.5q-8 -4 -15 -10t-16 -10 q-8 -6 -18 -10v-219q0 -31 -4 -55.5t-23 -49.5q-23 -29 -52.5 -39t-67.5 -10h-328q-47 0 -76 33q-16 18 -19 37.5t-3 44.5v454q-12 -4 -49 -7t-74 20q-23 12 -37.5 36.5t-18.5 52zM129 690.5q0 -22.5 15.5 -42t45.5 -19.5q31 0 46.5 19.5t15.5 42t-15.5 42t-46.5 19.5 t-46 -19.5t-15 -42zM461 447.5q0 -21.5 14 -39t43 -17.5t43 17.5t14 39t-14 40t-43 18.5t-43 -18.5t-14 -40z" />
<glyph unicode="&#xe2a;" horiz-adv-x="806" d="M78 694q2 2 19.5 22.5t53 45t92 43t140.5 18.5q55 0 93 -7t62.5 -15t36 -16.5t13.5 -8.5q4 2 16 15.5t25 39.5q10 25 13 41.5t3 30.5h133q-4 -33 -16 -57.5t-31 -50.5q-23 -31 -46 -47.5t-36 -22.5l17 -16q6 -8 14 -20.5t12 -29.5q14 -51 12 -75.5t-2 -53.5v-440l-75 -90 h-47v162q0 18 -5.5 47t-15.5 62.5t-26.5 68.5t-38.5 63q-29 37 -58.5 64t-77.5 29q-43 0 -66.5 -20.5t-33.5 -55.5q-8 -25 -11 -54.5t-3 -56t2 -46t2 -21.5q12 4 47 9t80 -20q23 -12 37 -35.5t18 -51t-4 -57.5t-29 -52q-18 -20 -44.5 -29.5t-54.5 -10.5t-53.5 7t-43.5 21 q-53 39 -68.5 102t-13.5 135q0 27 2 59.5t7 65.5t16.5 64.5t33.5 58.5q29 35 62.5 51t65.5 20.5t61.5 -1t52.5 -13.5q25 -8 51.5 -27.5t49 -42t37.5 -46t22 -41.5v135q0 20 -1 34.5t-1 34.5q-2 29 -12.5 41.5t-12.5 16.5l-8 -4q-4 -2 -9.5 -4.5t-9.5 -6.5q-4 -2 -8 -3t-8 -3 q-6 -2 -10 -2l-27 27q4 2 10 4q4 2 8.5 4t8.5 6l20 17l-9 7t-29.5 15t-52.5 14.5t-79 6.5q-61 -2 -104 -22.5t-73 -46.5t-44 -48.5t-16 -26.5zM238 122.5q0 -22.5 15 -42t46 -19.5t46 19.5t15 42t-15 42t-46 19.5t-46 -19.5t-15 -42z" />
<glyph unicode="&#xe2b;" horiz-adv-x="929" d="M61.5 670.5q-4.5 27.5 3 56.5t29.5 51q20 20 47 30.5t53.5 11.5t51 -4t41.5 -13q49 -29 62 -68t13 -76v-389q0 -2 28 55.5t85 139.5q31 43 54.5 67.5t41 38t29.5 20.5t23 13q-2 0 -22.5 14.5t-27.5 53.5q-10 57 27 104t107 47q59 0 94 -42t28 -101q-2 -25 -11 -41 t-21.5 -27.5t-23.5 -16.5t-17 -7q27 -16 39 -41q14 -25 16 -45.5t2 -40.5v-375l-76 -86h-47v469q0 16 -2 23.5t-6 17.5q-10 20 -29 27q-2 0 -41 -31t-98 -127q-59 -98 -97 -187.5t-55 -191.5h-122v569q-12 -4 -49 -7t-74 20q-23 12 -37 36.5t-18.5 52zM131 690.5 q0 -22.5 15.5 -42t46.5 -19.5t46 19.5t15 42t-15 42t-46 19.5t-46.5 -19.5t-15.5 -42zM643 697.5q0 -23.5 14.5 -42t44.5 -18.5q31 0 45.5 18.5t14.5 42t-14.5 42t-45.5 18.5t-45 -18.5t-14 -42z" />
<glyph unicode="&#xe2c;" horiz-adv-x="1019" d="M57 670.5q-4 27.5 3.5 56.5t29.5 51q20 20 47 30.5t53.5 11.5t51 -4t41.5 -13q49 -29 62 -69t13 -77v-530l172 369h70l178 -371v487q-16 -8 -23 -11t-36 -5q-51 -2 -93 24.5t-46 77.5q-4 53 36.5 89t106.5 34q63 -2 84.5 -17.5t23.5 -15.5q0 4 5.5 17.5t7.5 48.5 q0 25 1 43t1 21l123 14q2 -31 -3 -72t-20 -82q-14 -41 -33.5 -64.5t-19.5 -25.5q0 -4 2 -10q4 -12 4 -21q2 -10 2 -18v-14v-625h-151l-183 391l-180 -391h-151v569q-12 -4 -49 -7t-74 20q-23 12 -37.5 36.5t-18.5 52zM127 690.5q0 -22.5 15.5 -42t45.5 -19.5q31 0 46.5 19.5 t15.5 42t-15.5 42t-46.5 19.5t-46 -19.5t-15 -42zM653 711q0 -25 20.5 -38.5t46 -13.5t47 12.5t21.5 39.5t-20 39t-46 12t-47.5 -12t-21.5 -39z" />
<glyph unicode="&#xe2d;" horiz-adv-x="829" d="M98 698q2 2 19.5 22.5t53.5 44t93.5 42t138.5 16.5q164 -4 242 -77.5t78 -215.5v-372q0 -29 -9 -63t-38 -56q-45 -39 -117 -39h-330q-39 0 -61 29q-18 25 -18 61v303q0 8 1 28.5t8 44t23.5 46.5t44.5 37q41 20 95.5 19t95.5 -44q20 -23 28.5 -51.5t4 -56t-18.5 -52 t-37 -36.5q-37 -23 -73.5 -20t-49.5 7v-180v-21.5t4 -19.5q10 -18 33 -18h219q18 0 32.5 4t27.5 18q14 16 13 37t-1 31v377q0 43 -7 79.5t-29.5 64.5t-62.5 45.5t-104 17.5q-66 2 -115 -18.5t-81.5 -45t-50 -48.5t-19.5 -28zM256 436.5q0 -22.5 15.5 -42t45.5 -19.5 q31 0 46.5 19.5t15.5 42t-15.5 42t-46.5 19.5t-46 -19.5t-15 -42z" />
<glyph unicode="&#xe2e;" horiz-adv-x="825" d="M98 705q2 33 23.5 54t56.5 35.5t78 20.5t90 8q55 2 99 -4t75 -15t48.5 -17.5t21.5 -10.5q6 4 14 12q14 14 27 39q12 23 14 37q2 8 4 17h125q-4 -16 -12 -33q-6 -14 -15.5 -31.5t-21.5 -34.5q-16 -23 -30.5 -35t-37.5 -26q8 -12 17 -25q14 -25 22 -53q10 -35 12.5 -61.5 t2.5 -51.5v-372q0 -29 -9.5 -63t-37.5 -56q-45 -39 -117 -39h-330q-39 0 -61 29q-18 25 -19 61v252q0 14 3 35.5t12.5 43t25 41t39.5 32.5q41 20 94.5 20t94.5 -43q20 -23 28 -51.5t4 -56t-18 -52t-37 -37.5q-37 -23 -74 -19.5t-49 7.5v-127v-21.5t4 -19.5q10 -18 33 -18 h219q18 0 32.5 4t26.5 18q14 16 13.5 31.5t-0.5 36.5v377q0 18 -1 31.5t-5 31.5t-11 37l-8 16q-8 -6 -22.5 -18t-39 -24.5t-62.5 -21.5t-93 -11q-111 -4 -180.5 28.5t-67.5 92.5zM195 702q-4 -16 12 -27t40.5 -18.5t55.5 -9.5t55 2q53 6 85 16.5t48.5 20.5t22.5 17.5t8 9.5 l-8 7t-26.5 14t-51.5 14.5t-82 7.5q-23 0 -49 -2t-50 -8.5t-41 -16.5t-19 -27zM244 383q0 -23 15 -42t46 -19t46.5 19t15.5 42t-15.5 42t-46.5 19t-46 -19t-15 -42z" />
<glyph unicode="&#xe2f;" horiz-adv-x="833" d="M94 655q-10 55 15.5 104.5t91.5 57.5q63 6 98 -19.5t49 -72.5q6 -23 5 -41t-6 -32.5t-11 -21.5t-6 -9h11t23.5 5t32 16t35.5 36q20 27 34.5 53.5t30 46t36 31.5t53.5 12q61 0 94 -52t33 -114v-567l-72 -88h-51v639q0 27 -6 52.5t-27 25.5q-12 0 -23.5 -19.5t-32 -46 t-53 -55.5t-86.5 -47q-35 -12 -77.5 -12t-82.5 12t-70 38.5t-38 67.5zM158 691.5q0 -23.5 16 -44t49 -20.5t48.5 20.5t15.5 44t-15.5 44t-48.5 20.5t-49 -20.5t-16 -44z" />
<glyph unicode="&#xe30;" horiz-adv-x="673" d="M68 645q0 49 29.5 86t84.5 41q63 4 99 -35t32 -92q-2 -57 -55 -88q100 -25 176 41q35 31 49.5 70t12.5 82h108q-4 -111 -82 -186t-221 -81q-49 -2 -91 10.5t-74 34t-50 51t-18 66.5zM70 207q0 49 29.5 86t84.5 41q63 4 99 -35t32 -92q-2 -57 -55 -88q100 -25 176 41 q35 31 49.5 69.5t12.5 81.5h108q-4 -111 -82 -185.5t-221 -80.5q-49 -2 -91 10.5t-74 34t-50 51t-18 66.5zM133 655.5q0 -22.5 14.5 -41t45.5 -18.5t45 18.5t14 41t-14 41t-45 18.5t-45.5 -18.5t-14.5 -41zM135 217.5q0 -22.5 14.5 -41t45.5 -18.5t45 18.5t14 41t-14 40.5 t-45 18t-45.5 -18t-14.5 -40.5z" />
<glyph unicode="&#xe31;" d="M-502 1169q-2 53 34 98.5t108 49.5q66 2 107.5 -36t43.5 -103q0 -29 -6 -48.5t-14.5 -32t-15.5 -17.5l-7 -5h18.5t41 4t55 17.5t63.5 42.5q20 16 33.5 39.5t22 48t11.5 47t3 39.5h115q-2 -49 -20.5 -101.5t-58.5 -97.5t-103.5 -76.5t-151.5 -38.5q-55 -4 -105.5 4.5 t-88.5 30t-61.5 55t-23.5 80.5zM-428 1178.5q0 -27.5 19.5 -51t56.5 -23.5t55 23.5t18 51t-19 51t-56 23.5t-55.5 -23.5t-18.5 -51z" />
<glyph unicode="&#xe32;" horiz-adv-x="610" d="M4 731q18 25 49 45q27 16 69 30.5t103 16.5q82 0 136.5 -21.5t86 -56t45 -76.5t13.5 -79v-504l-76 -86h-47v575q0 70 -37 121.5t-139 51.5q-57 0 -93 -18.5t-57.5 -41t-30 -41t-8.5 -20.5z" />
<glyph unicode="&#xe33;" horiz-adv-x="610" d="M-313 1155q0 37 15 67.5t46 51t78 20.5t77.5 -20.5t46 -51t15.5 -67.5t-15.5 -67.5t-46 -51t-77.5 -20.5t-78 20.5t-46 51t-15 67.5zM-244 1155q0 -27 17.5 -48.5t52.5 -21.5t52.5 21.5t17.5 48.5t-17.5 48.5t-52.5 21.5t-52.5 -21.5t-17.5 -48.5zM8 731q18 25 49 45 q27 16 69 30.5t103 16.5q82 0 136.5 -21.5t86 -56t45 -76.5t13.5 -79v-504l-76 -86h-47v575q0 70 -37 121.5t-139 51.5q-57 0 -93 -18.5t-57.5 -41t-29.5 -41t-8 -20.5z" />
<glyph unicode="&#xe34;" d="M-731 997q0 4 10 42t40 83t86 81t149 36q82 0 145 -38t106 -88t67 -101t24 -78q-29 10 -115 34.5t-213 35.5q-106 8 -185 2.5t-114 -9.5zM-592 1063q8 0 57.5 2t120.5 -4q39 -4 75 -10.5t63.5 -12.5t45 -10t19.5 -4l-15 24q-14 23 -41.5 50.5t-69.5 51.5t-99 24 q-53 0 -83 -17.5t-46 -38.5q-20 -25 -27 -55z" />
<glyph unicode="&#xe35;" d="M-735 997q0 4 10 42t40 83t86 81t148 36q55 0 96.5 -14.5t68 -32.5t41 -33.5t14.5 -17.5v131l79 53h43v-391q-29 10 -114.5 34.5t-212.5 35.5q-106 8 -185 2.5t-114 -9.5zM-596 1063q8 0 57.5 2t120.5 -4q39 -4 75 -10.5t63.5 -12.5t45 -10t19.5 -4l-15 24 q-14 23 -41.5 50.5t-69.5 51.5t-99 24q-53 0 -83 -17.5t-46 -38.5q-20 -25 -27 -55z" />
<glyph unicode="&#xe36;" d="M-748 997q0 4 9.5 39t35 77t72.5 79t123 45q45 4 79 0t56.5 -12t33.5 -15.5t15 -9.5v18q0 19 11.5 40.5t36 40t73.5 18.5q39 0 63.5 -17.5t37 -42t12.5 -52t-8 -50.5q-14 -35 -42 -51.5t-50 -18.5q4 -4 19 -23.5t30 -53.5q14 -31 17 -50.5t3 -23.5q-47 16 -100 31 q-47 12 -105.5 23t-122.5 16q-106 8 -185 2.5t-114 -9.5zM-608 1063q8 0 57 2t121 -4q39 -4 75 -10.5t63.5 -12.5t45 -10t19.5 -4l-15 24q-14 23 -41.5 50.5t-70 51.5t-99.5 24q-53 0 -82.5 -17.5t-46.5 -38.5q-20 -25 -26 -55zM-266 1200.5q0 -22.5 14 -41t45 -18.5 t45.5 18.5t14.5 41t-14.5 41t-45.5 18.5t-45 -18.5t-14 -41z" />
<glyph unicode="&#xe37;" d="M-741 997q0 4 4 27t16 53.5t37 63.5t68 57q37 20 74.5 27.5t68.5 7.5q37 0 70 -8v65l59 35h47v-133q8 -4 16 -10q6 -4 14.5 -11.5t14.5 -11.5q12 -10 20.5 -22.5t10.5 -16.5v158l63 47h43v-391q-29 10 -114.5 34.5t-212.5 35.5q-106 8 -185.5 2.5t-113.5 -9.5zM-602 1063 q8 0 57 2t121 -4q39 -4 76 -10.5t64.5 -13.5t45 -12t19.5 -5l-15 24q-14 23 -41.5 51.5t-70.5 52.5t-100 26q-53 0 -83 -16.5t-46 -39.5q-20 -25 -27 -55z" />
<glyph unicode="&#xe38;" d="M-356.5 -222q-1.5 42 22.5 79q14 20 37 31.5t48.5 14.5t49 -1t39.5 -15q47 -31 56.5 -68.5t9.5 -90.5v-201h-123v143q-6 0 -18.5 -1t-29 2t-32.5 10.5t-29 21.5q-29 33 -30.5 75zM-295 -215.5q0 -22.5 15.5 -40.5t46.5 -18q29 0 43 19t14 40.5t-14.5 40t-45.5 18.5 t-45 -18.5t-14 -41z" />
<glyph unicode="&#xe39;" d="M-598 -210q0 44 29 77t77 35t82 -19q35 -23 43.5 -54.5t8.5 -72.5v-98q0 -23 22.5 -34t44.5 -11q29 2 48.5 11t19.5 32v186l61 58h47v-256q0 -33 -14 -54.5t-49 -38.5q-18 -10 -49 -15t-64 -5t-64.5 4t-52.5 14q-29 12 -44 27.5t-15 56.5v54q-23 -4 -50.5 1t-49.5 27 q-31 31 -31 75zM-539 -205.5q0 -19.5 13.5 -36t40.5 -16.5t39 16.5t12 36t-12 35.5t-39 16t-40.5 -16t-13.5 -35.5z" />
<glyph unicode="&#xe3a;" d="M-309 -197.5q0 35.5 23.5 64.5t70.5 29t70.5 -29t23.5 -64.5t-23.5 -64.5t-70.5 -29t-70.5 29t-23.5 64.5z" />
<glyph unicode="&#xe3f;" horiz-adv-x="858" d="M178 0v819h211v115h82v-115q63 -2 117 -24q45 -18 83 -58.5t42 -113.5q2 -55 -10.5 -93t-35 -62t-55 -36t-71.5 -18q72 -10 120 -51t52 -134q2 -90 -35 -136t-83 -66.5t-85 -22.5t-39 -4v-111h-82v111h-211zM299 102h90v263h-90v-263zM299 459h90v266h-90v-266zM471 100 q0 -2 19.5 0t42 14.5t42 41t19.5 82.5q0 41 -19.5 65.5t-42 37.5t-42.5 16l-19 3v-260zM471 463l21 2q20 2 44.5 15.5t45 42t18.5 79.5q0 47 -20.5 72.5t-45 36t-44.5 11.5l-19 1v-260z" />
<glyph unicode="&#xe40;" horiz-adv-x="446" d="M121 156v575l72 88h51v-573q12 4 49 7t74 -20q23 -12 37 -36.5t18 -52t-4 -56.5t-29 -51q-20 -23 -47 -32t-53.5 -10t-51 4t-40.5 13q-49 29 -62.5 68t-13.5 76zM229 124.5q0 -22.5 15.5 -42t46.5 -19.5t46 19.5t15 42t-15 42t-46 19.5t-46.5 -19.5t-15.5 -42z" />
<glyph unicode="&#xe41;" horiz-adv-x="827" d="M113 156v575l71 88h52v-573q12 4 49 7t73 -20q23 -12 37.5 -36.5t18.5 -52t-4.5 -56.5t-28.5 -51q-20 -23 -47 -32t-53.5 -10t-51 4t-41.5 13q-49 29 -62 68t-13 76zM221 124.5q0 -22.5 15.5 -42t46.5 -19.5t46 19.5t15 42t-15.5 42t-45.5 19.5q-31 0 -46.5 -19.5 t-15.5 -42zM502 156v575l71 88h52v-573q12 4 49 7t74 -20q23 -12 37 -36.5t18 -52t-4 -56.5t-29 -51q-20 -23 -47 -32t-53.5 -10t-51 4t-40.5 13q-49 29 -62.5 68t-13.5 76zM610 124.5q0 -22.5 15.5 -42t46.5 -19.5t46 19.5t15 42t-15.5 42t-45.5 19.5q-31 0 -46.5 -19.5 t-15.5 -42z" />
<glyph unicode="&#xe42;" horiz-adv-x="526" d="M-68 1163l4 23q5 22 17 52t35.5 62.5t60.5 55.5q49 29 98.5 27.5t95.5 -13.5t86 -26.5t70 -10.5q20 2 37 7.5t27 11.5q12 8 22 16l43 -86q-12 -8 -26 -16q-12 -6 -30.5 -11.5t-41.5 -3.5q-39 2 -82 14.5t-84 23.5t-80 16.5t-67 -9.5q-16 -8 -26.5 -21t-16.5 -27.5 t-8 -25.5l-3 -10q45 -6 87 -14q35 -8 72.5 -19.5t66.5 -29.5q25 -16 31 -39t6 -47v-817q12 4 49 7t74 -20q23 -12 37 -36.5t18 -52t-4 -56.5t-29 -51q-20 -23 -47 -32t-53.5 -10t-51 4t-40.5 13q-49 29 -62.5 68t-13.5 76v915q0 29 -20.5 43.5t-55.5 22.5q-29 6 -62.5 11 t-62.5 8t-48.5 5t-21.5 2zM311 124.5q0 -22.5 15.5 -42t46.5 -19.5t46 19.5t15 42t-15.5 42t-45.5 19.5q-31 0 -46.5 -19.5t-15.5 -42z" />
<glyph unicode="&#xe43;" horiz-adv-x="587" d="M-54 1199q3 36 15 67q25 59 76 89.5t137 30.5q90 0 148.5 -35.5t76.5 -99.5q8 -35 6 -60.5t-8 -47t-12 -41t-6 -39.5v-817q12 4 49 7t74 -20q23 -12 37 -36.5t18 -52t-4 -56.5t-29 -51q-20 -23 -46.5 -32t-53.5 -10t-51.5 4t-40.5 13q-49 29 -62.5 68t-13.5 76v858 q0 20 8 43.5t17.5 49.5t15.5 55.5t0 64.5q-10 61 -44 79.5t-73 18.5q-47 0 -71 -14q-12 -8 -23 -17q53 0 90 -38.5t31 -104.5q-4 -51 -45 -80t-92 -24q-49 6 -77 28.5t-39 55t-8 68.5zM18 1169.5q0 -22.5 15.5 -41t46.5 -18.5t45 18.5t14 41t-15 41t-46 18.5t-45.5 -18.5 t-14.5 -41zM365 124.5q0 -22.5 15 -42t46 -19.5t46 19.5t15 42t-15 42t-46 19.5t-46 -19.5t-15 -42z" />
<glyph unicode="&#xe44;" horiz-adv-x="571" d="M-55 1321l41 104q14 -10 26 -20l23.5 -23.5t25.5 -27.5q31 -39 38 -70t12 -29q2 2 15 22.5t33.5 44.5t47 43t57.5 21q35 2 58.5 -11t38 -34.5t21.5 -49t7 -54.5q0 -35 -3 -60.5t-7 -45t-8 -35t-4 -33.5v-817q12 4 49 7t73 -20q23 -12 37.5 -36.5t18.5 -52t-4.5 -56.5 t-28.5 -51q-20 -23 -47 -32t-53.5 -10t-51 4t-41.5 13q-49 29 -62 68t-13 76v915q0 37 14 60.5t18 62.5q4 53 -7 75.5t-29 22.5t-40 -26.5t-38.5 -59t-25.5 -60.5t-5 -30h-47q0 8 -10.5 47t-34.5 76q-33 49 -62.5 65.5t-31.5 16.5zM352 124.5q0 -22.5 15.5 -42t46.5 -19.5 t46 19.5t15 42t-15.5 42t-45.5 19.5q-31 0 -46.5 -19.5t-15.5 -42z" />
<glyph unicode="&#xe45;" horiz-adv-x="604" d="M0 731q18 25 49 45q27 16 69 30.5t103 16.5q82 0 136.5 -21.5t86 -56t45 -76.5t13.5 -79v-783l-76 -86h-47v854q0 70 -37 121.5t-139 51.5q-57 0 -93 -18.5t-57.5 -41t-30 -41t-8.5 -20.5z" />
<glyph unicode="&#xe46;" horiz-adv-x="1044" d="M321 640q5 46 23 84t49 64.5t76 30.5q31 2 55.5 -9t43 -26.5t28.5 -30t12 -16.5l8 13q9 14 25 29.5t39.5 27.5t52.5 12q86 0 131 -76q29 -47 34 -89t5 -95v-727l-76 -90h-47v879q0 41 -14 78.5t-55 37.5q-14 0 -31.5 -14t-33 -31.5t-27 -33t-11.5 -17.5q0 2 -13 20.5 t-33.5 37t-45 32.5t-45.5 12q-20 -4 -31.5 -15t-17.5 -24.5t-8 -25.5t-2 -16q12 4 28 4q14 0 30.5 -3.5t35.5 -13.5q18 -10 28.5 -29.5t13.5 -42t-2 -45t-22 -40.5q-25 -27 -56.5 -32t-61 5t-52 32.5t-28.5 53.5q-10 43 -5 89zM389 560.5q0 -19.5 13.5 -36t39.5 -16.5 q27 0 39.5 16.5t12.5 36t-12.5 35.5t-39.5 16t-40 -16t-13 -35.5z" />
<glyph unicode="&#xe47;" d="M-698 1141q8 72 49 102.5t94 39.5t111.5 6t103.5 3q43 4 64.5 23.5t30.5 41t9 39.5v17l109 23q0 -27 -8 -71t-49 -81q-31 -27 -64 -39t-69.5 -17t-76.5 -4t-83 3q-59 4 -92 -23.5t-37 -81.5q-2 -25 2 -40t8 -22t9 -10t5 -6q0 2 20.5 28t67.5 28q29 2 52.5 -12.5t46 -31 t45 -30.5t51.5 -14q25 0 36 6t15 14t4 12l-2 11q-29 6 -44 26.5t-5 53.5q6 20 20.5 30.5t31 12.5t32.5 -1t29 -12q18 -12 25 -32.5t7 -44t-8 -47t-20 -42.5q-20 -27 -44 -39t-48.5 -14t-47 2t-40.5 13q-18 8 -35 19t-32 21.5t-30.5 16.5t-36.5 4q-18 -2 -35.5 -13.5 t-30.5 -24.5t-21.5 -24.5t-8.5 -13.5l-20 6q-21 6 -43.5 26.5t-39 58.5t-7.5 104z" />
<glyph unicode="&#xe48;" d="M-244 1675h160l-33 -311h-90z" />
<glyph unicode="&#xe49;" d="M-366.5 1617q4.5 50 42.5 79q20 14 45 19t49.5 1t45 -15t32.5 -30q27 -43 24 -85t-16.5 -75.5t-31.5 -54.5l-17 -20q29 8 56 24q23 12 49.5 34t48.5 54q16 25 26.5 51.5t15.5 49t7 38t2 19.5h99q0 -4 -4.5 -25.5t-16.5 -54.5t-35.5 -71.5t-62.5 -73.5q-51 -47 -104.5 -71 t-97.5 -34t-71.5 -11t-29.5 -1v57q2 0 19.5 4.5t33.5 20.5t21.5 31.5t5.5 17.5q-20 -4 -41 0q-16 4 -37 12.5t-35 26.5q-27 33 -22.5 83zM-310 1603.5q1 -22.5 16 -40t46 -17.5t45.5 19.5t13.5 42t-16.5 40t-46.5 17.5t-45 -19.5t-13 -42z" />
<glyph unicode="&#xe4a;" d="M-410 1501q0 51 16.5 84t38 51.5t39 25.5t19.5 7l70 -70l67 70l12 -2q13 -2 28.5 -9t31.5 -20.5t27 -33.5q14 -27 16 -53.5t-1 -48t-9 -36t-6 -16.5q14 6 26 20q10 12 23.5 35t25.5 62q14 43 13.5 71.5t-0.5 34.5l86 17q0 -29 -7 -58q-4 -25 -12 -54.5t-24 -57.5 q-29 -53 -65 -84t-68.5 -47.5t-54.5 -21.5l-23 -5v37q12 10 20 24q16 27 15 84q-2 25 -9.5 40.5t-17.5 25.5t-25 16l-69 -59l-70 57q-4 -2 -24.5 -21.5t-20.5 -64.5q0 -35 10 -53t22.5 -26.5t17.5 -9.5l18 -3l-6 7q-5 7 -7 16.5t0 20.5t19 22q23 14 44 0.5t25 -33.5 q8 -35 -10 -55.5t-51 -24.5q-39 -4 -66.5 8t-46 31.5t-28 46.5t-9.5 53z" />
<glyph unicode="&#xe4b;" d="M-354 1485v76h127v118h114v-118h127v-76h-127v-119h-114v119h-127z" />
<glyph unicode="&#xe4c;" d="M-338 1366q10 51 43 72.5t74 31t82 17.5t69 33q16 14 23.5 36.5t10.5 45t2 38.5l-1 17l88 -60q0 -2 -1 -14t-6 -30.5t-17.5 -39t-34.5 -34.5q-45 -31 -92.5 -45.5t-53.5 -14.5q12 -8 21 -18q8 -10 15 -24.5t7 -37.5q2 -49 -29.5 -80.5t-78.5 -31.5q-59 0 -96 39t-25 100z M-283 1334.5q0 -23.5 14.5 -42t45.5 -18.5t45 18.5t14 42t-14 42t-45 18.5t-45.5 -18.5t-14.5 -42z" />
<glyph unicode="&#xe4d;" d="M-309 1139q0 37 15 67.5t46 51t78 20.5t78 -20.5t46 -51t15 -67.5t-15 -68t-46 -51.5t-78 -20.5t-78 20.5t-46 51.5t-15 68zM-240 1138.5q0 -26.5 17.5 -48t52.5 -21.5t52.5 21.5t17.5 48t-17.5 48t-52.5 21.5t-52.5 -21.5t-17.5 -48z" />
<glyph unicode="&#xe4e;" d="M-324 1028q0 70 49.5 109t131.5 49q-35 14 -61.5 35.5t-26.5 50.5q6 80 75.5 110t188.5 7l-17 -29q-76 12 -113.5 -18.5t-37.5 -84.5q0 -33 23.5 -41t66.5 -10l-21 -47q-156 -14 -155 -119q2 -33 40 -37t109 5l-18 -60q-106 -16 -169 4.5t-65 75.5z" />
<glyph unicode="&#xe4f;" horiz-adv-x="1044" d="M123 409.5q0 106.5 45 197.5t136 151.5t228 60.5t228.5 -60.5t136.5 -151.5t45 -197.5t-45 -197.5t-136 -151.5t-229 -60.5q-137 0 -228 60.5t-136 151.5t-45 197.5zM178 409.5q0 -92.5 39 -171t117.5 -131t197.5 -52.5t198 52.5t118 131t39 171t-39 171t-118 131 t-198 52.5t-197.5 -52.5t-117.5 -131t-39 -171zM299 409.5q0 61.5 25.5 112.5t77.5 86t130 35t130.5 -35t78 -86t25.5 -112.5t-25.5 -112.5t-78 -86t-130.5 -35t-130 35t-77.5 86t-25.5 112.5zM354 409.5q0 -47.5 19.5 -86t59.5 -65.5t99 -27t99.5 27t60 65.5t19.5 86 t-19.5 86.5t-59.5 65.5t-100 26.5q-59 0 -99 -26.5t-59.5 -65.5t-19.5 -86.5z" />
<glyph unicode="&#xe50;" horiz-adv-x="897" d="M92 340q6 135 94.5 212t262.5 79q84 0 147 -21.5t106 -60.5t66 -92.5t23 -116.5q2 -70 -15.5 -131.5t-57.5 -107.5t-105.5 -73.5t-163.5 -27.5q-96 0 -165 25.5t-113 71.5t-63.5 108.5t-15.5 134.5zM217 340q-4 -51 8.5 -97t40 -82t73.5 -57.5t110 -21.5q63 0 106 21.5 t68.5 58.5t35 83t7.5 95q-4 45 -15.5 84t-36 68.5t-64.5 47t-97 17.5q-61 0 -104.5 -16.5t-71 -45t-42 -68.5t-18.5 -87z" />
<glyph unicode="&#xe51;" horiz-adv-x="927" d="M88 287q0 53 17.5 113.5t59.5 111.5t113.5 86t178.5 35q84 0 146.5 -17.5t105.5 -48t68.5 -69.5t37.5 -82q16 -57 15 -113.5t-15 -108t-37.5 -95.5t-52.5 -74q-37 -43 -77 -73t-73.5 -48.5t-55 -26.5t-23.5 -8l-56 35q2 0 43 21.5t89.5 68.5t89 118.5t43.5 174.5 q0 43 -10.5 92t-38 90t-74.5 68.5t-121 25.5q-119 -4 -182.5 -68.5t-69.5 -164.5q-4 -47 3 -91t23.5 -79t43 -57.5t61.5 -28.5q39 -6 61.5 2t35 21.5t16.5 25.5l4 12q-4 0 -36 -2t-65 27q-41 35 -36.5 91t53.5 91q18 12 42.5 17.5t49 0t48.5 -20.5t38 -42q14 -31 16 -70 t-8 -76.5t-33.5 -71.5t-58.5 -52q-74 -41 -142.5 -32t-120.5 50t-84 105.5t-32 136.5zM385 243.5q0 -20.5 13.5 -38t41.5 -17.5q27 0 41.5 17.5t14.5 38t-14.5 38t-41.5 17.5q-29 0 -42 -17.5t-13 -38z" />
<glyph unicode="&#xe52;" horiz-adv-x="1007" d="M37 819l96 76q12 -6 27 -16q12 -10 27.5 -23.5t31.5 -30.5q35 -41 48.5 -86t13.5 -102v-430q0 -29 2 -50.5t18 -43.5q27 -37 82 -37h262q33 0 57.5 6t47.5 29q18 18 23 37.5t5 44.5v249q0 35 -9 68t-44 37q-20 2 -35.5 -9.5t-28 -24.5t-19.5 -24.5t-11 -11.5t-12.5 11.5 t-20.5 25.5t-29.5 24.5t-40.5 8.5q-25 -2 -40 -26.5t-19 -57.5q-2 -8 -1 -17.5t1 -19.5t2 -20q4 4 17.5 14t54.5 8q31 0 52 -15.5t32.5 -39t11.5 -52t-14 -57.5q-12 -25 -36 -37t-51.5 -15t-54 4t-45.5 22q-45 39 -56 96t-7 125q4 61 39 114.5t100 55.5q47 0 72.5 -19.5 t44.5 -54.5q18 35 50 53.5t73 20.5q61 4 104 -43t43 -121v-279q0 -29 -9 -60.5t-32 -59.5q-25 -31 -59.5 -48.5t-65.5 -17.5h-381q-47 0 -86 10t-65 39q-45 51 -45 139v445q0 23 -5.5 57.5t-27.5 63.5q-27 35 -54.5 49t-33.5 16zM481 317.5q0 -18.5 12.5 -34t36.5 -15.5 q25 0 37.5 15.5t12.5 34t-12.5 34t-37.5 15.5t-37 -15.5t-12 -34z" />
<glyph unicode="&#xe53;" horiz-adv-x="1021" d="M95 256q-3 47 1 94t15 84q23 84 80 138.5t145 58.5q74 4 124 -29t79 -80q27 47 60.5 78t92.5 33q61 2 105.5 -28t72 -80t39 -114.5t6.5 -127.5q-4 -51 -15 -96.5t-24.5 -82t-27.5 -63.5t-27 -41h-121q23 27 54.5 102.5t40.5 180.5q2 33 -1 78t-16.5 84.5t-38 68.5 t-63.5 27q-37 0 -61.5 -23.5t-39.5 -56.5q12 -53 16.5 -94t4.5 -97q-2 -80 -21.5 -153.5t-35.5 -114.5l-90 -2q6 10 15 38t17 64.5t15.5 81.5t7.5 90q0 43 -7.5 93.5t-24.5 91.5t-47 65.5t-75 20.5q-72 -8 -102.5 -71.5t-34.5 -141.5q-4 -49 3 -83t9 -42q4 2 25.5 9t62.5 -3 q23 -6 40.5 -22.5t26.5 -40t8 -49t-15 -50.5q-23 -37 -55.5 -49t-67.5 -5t-66.5 30.5t-50.5 60.5q-16 31 -25.5 76t-12.5 92zM225 108.5q0 -20.5 13.5 -37t40.5 -16.5t40 16.5t13 37t-13 37t-40 16.5t-40.5 -16.5t-13.5 -37z" />
<glyph unicode="&#xe54;" horiz-adv-x="901" d="M105 301q-1 59 11.5 118.5t47.5 106.5q49 68 117.5 86.5t141.5 20.5t140.5 1t112.5 23q43 25 64.5 64t31.5 76t11 64.5t1 29.5l103 -74q0 -2 -4 -25.5t-18.5 -56.5t-39 -69.5t-65.5 -63.5q-53 -35 -109.5 -43t-111 -8t-105.5 1t-90 -15q-72 -29 -95.5 -92.5t-21.5 -141.5 q0 -31 4.5 -65.5t16.5 -66.5t33.5 -55.5t56.5 -29.5q25 -4 53.5 1t53 13.5t41.5 16.5l16 8q-25 27 -39 59.5t-19 75.5q-4 59 19.5 108.5t75.5 71.5q20 8 47.5 11.5t53.5 -2t47.5 -19.5t33.5 -39q23 -51 4.5 -101t-66.5 -65q-31 -8 -52 -7t-36.5 6t-23.5 12l-8 6v-16.5t9 -35 t30.5 -44t62.5 -44.5q25 -12 50.5 -16t48 -4t38 1t17.5 1l16 -86q-2 0 -43 -2t-100 10q-27 6 -50.5 14.5t-45 14.5t-43 8t-46.5 -6q-57 -23 -106 -36t-90 -8t-77 32.5t-67 87.5q-14 29 -25.5 79t-12.5 109zM557 334.5q0 -21.5 14.5 -38.5t42.5 -17q29 0 43.5 17t14.5 38.5 t-14.5 39t-43.5 17.5t-43 -17.5t-14 -39z" />
<glyph unicode="&#xe55;" horiz-adv-x="901" d="M102 286.5q-2 53.5 9.5 111t42.5 110.5q31 51 76.5 76.5t91 35t77 8.5t33.5 -1q-14 12 -22 26q-8 12 -13.5 30.5t-1.5 45.5q10 47 44 72.5t83 23.5q43 0 75 -23.5t42 -64.5q10 -49 -2 -69.5t-16 -24.5q2 0 15 1t33.5 9.5t42 25.5t38.5 48q12 25 19 52.5t10 52t3 42v19.5 l101 -76q0 -2 -4.5 -27.5t-18.5 -59.5t-38.5 -67.5t-67.5 -52.5q-45 -20 -87 -27.5t-75 -7.5t-52.5 3.5t-21.5 3.5t-26.5 -12.5t-108.5 -20.5q-20 -2 -48 -11.5t-52.5 -35t-42 -71.5t-15.5 -124q0 -31 4 -66.5t15.5 -67.5t33 -56.5t56.5 -30.5q25 -4 53.5 1t53 13.5 t41.5 16.5l16 8q-25 27 -39.5 59.5t-18.5 75.5q-4 59 19.5 108.5t75.5 71.5q20 8 47.5 11.5t53.5 -2t47.5 -19.5t33.5 -39q23 -51 4 -101t-66 -65q-31 -8 -52 -7t-36.5 6t-23.5 12l-8 6v-16.5t9 -35t30.5 -44t62.5 -44.5q25 -12 50.5 -16t48 -4t37.5 1t18 1l16 -86 q-2 0 -43 -2t-100 10q-27 6 -50.5 14.5t-45 14.5t-43 8t-46.5 -6q-57 -23 -106 -36t-90 -8t-77 32.5t-67 87.5q-14 29 -24.5 74.5t-12.5 99zM461 706.5q0 -22.5 14 -41t45 -18.5t45.5 18.5t14.5 41t-14.5 41t-45.5 18.5t-45 -18.5t-14 -41zM553 334.5q0 -21.5 14.5 -38.5 t42.5 -17q29 0 43.5 17t14.5 38.5t-14.5 39t-43.5 17.5t-43 -17.5t-14 -39z" />
<glyph unicode="&#xe56;" horiz-adv-x="878" d="M4 815l92 70q10 -8 42 -39t55 -109q18 -66 19 -112.5t1 -51.5q4 2 18.5 12.5t44 20.5t73.5 18.5t108 6.5q143 -4 223 -82t84 -205q4 -162 -78 -255t-258 -93q-123 0 -204 52t-87 163q-2 53 33 98t111 41q41 -4 67.5 -24.5t38.5 -50t9 -60.5t-21 -55q-31 -39 -78 -45 q4 -4 13 -11.5t27.5 -15.5t47.5 -12t72 0q98 8 141 74.5t39 189.5q-4 109 -61.5 165t-178.5 48q-66 -4 -109.5 -20.5t-70.5 -35t-39 -33.5t-12 -18l-1 23t-5 57.5t-14.5 77.5t-28.5 86q-16 35 -33.5 58.5t-35 38t-30 20.5t-14.5 8zM214 229.5q-1 -20.5 12.5 -38t41.5 -17.5 q27 0 41.5 17.5t15.5 38t-13.5 38t-41.5 17.5q-29 0 -42 -17.5t-14 -38z" />
<glyph unicode="&#xe57;" horiz-adv-x="1161" d="M127 275.5q-4 48.5 0 93.5q4 49 18.5 96t40 84t61.5 59.5t85 22.5q59 0 100 -39t57 -84q6 20 19.5 42.5t32 40t43 29t53.5 11.5q45 0 78 -22.5t54.5 -57.5t31.5 -82t10 -96q0 -86 -18.5 -162t-53.5 -123q27 16 52.5 32.5t50 40t47 57.5t41.5 83q35 88 38 183.5t-12 172.5 q-12 76 -39.5 120t-27.5 46l88 56q18 -25 39 -58q16 -29 32.5 -68.5t26.5 -93.5q16 -96 10 -201.5t-65 -209.5q-135 -236 -414 -250l10 20q9 19 21 56t25.5 91t19.5 128q2 33 2 74t-5 77.5t-16.5 63.5t-31.5 33q-25 8 -51.5 -26t-47 -78t-33 -82t-12.5 -40l-10 37 q-10 37 -29.5 80t-46 79t-59.5 36q-27 0 -43 -18.5t-26.5 -44t-15.5 -57.5t-7 -60q-4 -49 -2 -84t18 -82q20 16 39 24t51 4q59 -8 85 -58t5 -101q-14 -35 -41.5 -52.5t-60.5 -20.5t-66.5 8t-58.5 34q-27 25 -46 62.5t-30.5 81.5t-15.5 92.5zM291 114.5q0 -18.5 13 -35 t38 -16.5t38 16.5t13 35t-13 35t-38 16.5t-38 -16.5t-13 -35z" />
<glyph unicode="&#xe58;" horiz-adv-x="956" d="M124 305q-1 53 10 107.5t38 99.5t59.5 68.5t71.5 35t86 13.5t100 2q45 0 87 3t79 15.5t67 36t50 64.5q10 20 15.5 45.5t9.5 50.5q4 27 4 57l92 -84q0 -2 -1 -25.5t-9.5 -55t-28.5 -68.5t-59 -64q-49 -35 -108.5 -43t-119 -6t-116 2t-101.5 -20q-27 -12 -45 -36 t-30.5 -55.5t-18.5 -68.5t-6 -74q0 -76 16.5 -120t38.5 -66q23 -27 55 -39q0 2 4.5 41t26.5 86q25 49 53.5 69.5t30.5 20.5l5 -19q5 -20 19.5 -48.5t39 -61.5t61.5 -62q29 -20 51.5 -25t38 -2t20.5 6l13 9q-2 0 -12.5 2t-25.5 8.5t-30.5 20.5t-27.5 39q-8 18 -8.5 41.5t7 47 t25 42t43.5 27.5q37 10 68 3.5t52.5 -24.5t33.5 -43t14 -51q8 -92 -37 -144.5t-112 -62.5q-61 -8 -109.5 15.5t-81.5 55t-49 60.5t-16 31q0 -2 -9.5 -23.5t-11.5 -54.5q-2 -31 3 -55.5t5 -26.5q-33 -2 -70.5 0t-74.5 14.5t-71.5 37t-59.5 67.5q-20 33 -31.5 82t-12.5 102z M684 208.5q0 -20.5 13.5 -37.5t41.5 -17q27 0 41.5 17t14.5 37.5t-14.5 38t-41.5 17.5q-29 0 -42 -17.5t-13 -38z" />
<glyph unicode="&#xe59;" horiz-adv-x="1017" d="M125 303q-2 55 11.5 112.5t43 103.5t76.5 77t113 35q53 2 93 -11.5t69.5 -37t49 -51t31.5 -54.5q0 4 3 35t14 53q10 23 24.5 45.5t34.5 24.5q16 2 34.5 -15.5t35 -39t32 -40t25.5 -18.5q12 0 22.5 15.5t18.5 39t12 51t9 52.5q4 31 4 65.5t-2 65.5q-4 35 -9 70l103 -62 q4 -23 4 -78t-12 -131q-6 -35 -18.5 -71.5t-29 -67.5t-36 -50.5t-39.5 -19.5q-18 0 -37 16.5t-34 37t-29.5 37t-26.5 14.5t-18.5 -18.5t-9.5 -42t-2 -56.5t5 -59q10 -66 30.5 -117t42 -86t38 -53.5t18.5 -18.5l-86 -55l-13 14q-13 15 -32.5 46.5t-45.5 82t-50 121.5 q-16 49 -33.5 101.5t-41 95.5t-56.5 69.5t-78 26.5q-37 0 -64.5 -25.5t-44 -63.5t-23.5 -82t-7 -83q0 -59 11 -97t23.5 -59.5t23.5 -30t11 -10.5q0 2 1 16.5t7.5 34t21.5 38t46 28.5q59 18 105.5 -12.5t50.5 -83.5q4 -61 -34 -94t-99 -35q-72 -2 -125.5 22.5t-88 66.5 t-53 98.5t-20.5 117.5zM375 116.5q0 -20.5 13 -37t40 -16.5t40 16.5t13 37t-13 37t-40 16.5t-40 -16.5t-13 -37z" />
<glyph unicode="&#xe5a;" horiz-adv-x="1122" d="M94 655q-10 55 15.5 104.5t91.5 57.5q63 6 98 -19.5t49 -72.5q6 -23 5 -41t-6 -32.5t-11 -21.5t-6 -9h11t23.5 5t32 16t35.5 36q20 27 34.5 53.5t30 46t36 31.5t53.5 12q59 0 91 -47t36 -106q6 6 8 10q20 27 34.5 53.5t30 46t35.5 31.5t53 12q61 0 94 -52t33 -114v-567 l-71 -88h-51v639q0 27 -6.5 52.5t-26.5 25.5q-10 0 -19.5 -13.5t-24 -35t-36 -46t-53.5 -44.5v-490l-72 -88h-51v639q0 27 -6 52.5t-27 25.5q-12 0 -23.5 -19.5t-32 -46t-53 -55.5t-86.5 -47q-35 -12 -77.5 -12t-82.5 12t-70 38.5t-38 67.5zM158 691.5q0 -23.5 16 -44 t49 -20.5t48.5 20.5t15.5 44t-15.5 44t-48.5 20.5t-49 -20.5t-16 -44z" />
<glyph unicode="&#xe5b;" horiz-adv-x="1546" d="M158 375q0 154 61 237q66 84 180 84q94 0 146 -57q53 -57 53 -154q0 -98 -43 -159q-41 -61 -117 -62q-43 0 -78 35q-33 31 -32 78q0 45 30 80q33 33 80 32q53 0 88 -40v22q0 66 -24 113q-23 49 -96 49q-86 0 -130 -74q-45 -70 -45 -194q0 -119 56 -183q59 -66 145 -65 q123 0 186 88t64 250q0 61 -6 96q113 -20 153 -217q18 57 19 115q0 37 -17 98q84 -25 150 -178q4 23 7 41t3 34q0 12 -3 31t-7 45q88 -25 131 -172q20 27 21 72q0 25 -7 55q23 8 39 -20q20 -31 54 -51.5t71 -23.5t68 13.5t45 57.5q8 -8 8 -23t-10 -31q-16 -25 -45 -40 t-64 -15q-31 -2 -63.5 11.5t-61.5 41.5q-12 -98 -57 -112q-8 0 -20 24q-6 12 -12.5 25.5t-14.5 29.5q-6 16 -12.5 30t-12.5 28q-10 27 -12 31q0 -188 -55 -189q-4 0 -17 25q-4 14 -10 27.5t-12 29.5l-23 62q-10 27 -16 34q-12 -201 -78 -200q-4 0 -16 28l-25 68l-24 67 q-10 33 -13 37q0 -391 -305 -391q-129 0 -203 88q-72 90 -71 238zM381 377q0 -57 57 -58q58 1 58 58t-58 57q-57 0 -57 -57z" />
<glyph unicode="&#x1ea0;" horiz-adv-x="1019" d="M-12 0v63q59 2 93 30t54 81l342 868h55l375 -917q10 -25 22.5 -37t27 -17t33 -6.5t42.5 -1.5v-63h-432v63q29 2 59.5 2.5t59.5 6.5q10 2 19.5 11t9.5 19q0 12 -7 25l-82 205h-383q-10 -29 -20 -56.5t-20 -58.5q-8 -23 -13.5 -37t-5.5 -37q0 -29 14.5 -45t37 -23t47 -9.5 t46.5 -2.5v-63h-374zM303 403h328l-166 416zM418 -199q0 39 27.5 69t64.5 30q41 0 67.5 -27.5t26.5 -64.5q0 -41 -27.5 -72t-66.5 -31q-37 0 -64.5 29t-27.5 67z" />
<glyph unicode="&#x1ea1;" horiz-adv-x="786" d="M61 147q0 70 50.5 116t121 76t146.5 44t129 23q4 25 2 49t-2 51q-4 66 -49 86t-103 20q-29 0 -63.5 -4t-56.5 -24q-12 -10 -10.5 -19.5t10.5 -21.5q6 -12 13 -26.5t7 -31.5q0 -37 -22.5 -53t-57.5 -16q-39 0 -56.5 26.5t-17.5 61.5q0 47 32 83t71 54q47 20 85 28.5 t87 8.5q35 0 69.5 -5t65.5 -16q43 -16 67.5 -36.5t38 -47t16.5 -59.5t3 -74l-4 -243v-30.5t2 -31.5q0 -14 6 -31.5t23 -25.5q18 -16 45 -8q18 8 41 14q18 -2 18 -21q-12 -35 -51 -55t-76 -20q-53 0 -82 26.5t-43 77.5q-47 -57 -114.5 -84.5t-139.5 -27.5q-82 0 -141.5 38.5 t-59.5 128.5zM201 160q0 -51 35.5 -81t82.5 -30q45 0 87.5 22.5t68.5 57.5q29 39 31 76t2 82v61q-41 -8 -94.5 -17t-100.5 -27.5t-79.5 -52.5t-32.5 -91zM302 -199q0 39 27.5 69t64.5 30q41 0 67.5 -27.5t26.5 -64.5q0 -41 -27.5 -72t-66.5 -31q-37 0 -64.5 29t-27.5 67z " />
<glyph unicode="&#x1ea2;" horiz-adv-x="1019" d="M-12 0v63q59 2 93 30t54 81l342 868h55l375 -917q10 -25 22.5 -37t27 -17t33 -6.5t42.5 -1.5v-63h-432v63q29 2 59.5 2.5t59.5 6.5q10 2 19.5 11t9.5 19q0 12 -7 25l-82 205h-383q-10 -29 -20 -56.5t-20 -58.5q-8 -23 -13.5 -37t-5.5 -37q0 -29 14.5 -45t37 -23t47 -9.5 t46.5 -2.5v-63h-374zM303 403h328l-166 416zM413 1405v52h84q92 0 143.5 -38t51.5 -104q0 -51 -42 -104t-130 -105h-43q43 35 71.5 79t28.5 108q0 25 -7 45t-26 37q-18 14 -51 22t-80 8z" />
<glyph unicode="&#x1ea3;" horiz-adv-x="786" d="M61 147q0 70 50.5 116t121 76t146.5 44t129 23q4 25 2 49t-2 51q-4 66 -49 86t-103 20q-29 0 -63.5 -4t-56.5 -24q-12 -10 -10.5 -19.5t10.5 -21.5q6 -12 13 -26.5t7 -31.5q0 -37 -22.5 -53t-57.5 -16q-39 0 -56.5 26.5t-17.5 61.5q0 47 32 83t71 54q47 20 85 28.5 t87 8.5q35 0 69.5 -5t65.5 -16q43 -16 67.5 -36.5t38 -47t16.5 -59.5t3 -74l-4 -243v-30.5t2 -31.5q0 -14 6 -31.5t23 -25.5q18 -16 45 -8q18 8 41 14q18 -2 18 -21q-12 -35 -51 -55t-76 -20q-53 0 -82 26.5t-43 77.5q-47 -57 -114.5 -84.5t-139.5 -27.5q-82 0 -141.5 38.5 t-59.5 128.5zM201 160q0 -51 35.5 -81t82.5 -30q45 0 87.5 22.5t68.5 57.5q29 39 31 76t2 82v61q-41 -8 -94.5 -17t-100.5 -27.5t-79.5 -52.5t-32.5 -91zM282 1040v52h84q92 0 143.5 -38t51.5 -104q0 -51 -42 -104t-130 -105h-43q43 35 71.5 79t28.5 108q0 25 -7 45t-26 37 q-18 14 -51 22t-80 8z" />
<glyph unicode="&#x1ea4;" horiz-adv-x="1019" d="M-12 0v63q59 2 93 30t54 81l342 868h55l375 -917q10 -25 22.5 -37t27 -17t33 -6.5t42.5 -1.5v-63h-432v63q29 2 59.5 2.5t59.5 6.5q10 2 19.5 11t9.5 19q0 12 -7 25l-82 205h-383q-10 -29 -20 -56.5t-20 -58.5q-8 -23 -13.5 -37t-5.5 -37q0 -29 14.5 -45t37 -23t47 -9.5 t46.5 -2.5v-63h-374zM270 1115l172 251q12 18 23.5 25.5t42.5 7.5q29 0 40 -7t21 -24l172 -253l-35 -23l-200 197l-201 -197zM303 403h328l-166 416zM647 1337q66 96 91.5 136.5t53.5 87.5q25 37 45.5 50t46.5 13q27 0 44.5 -17.5t17.5 -37.5q0 -29 -13.5 -46.5t-37.5 -35.5 q-37 -29 -95.5 -74t-126.5 -98z" />
<glyph unicode="&#x1ea5;" horiz-adv-x="786" d="M135 147q0 70 50.5 116t121 76t146.5 44t129 23q4 25 2 49t-2 51q-4 66 -49 86t-103 20q-29 0 -63.5 -4t-56.5 -24q-12 -10 -10.5 -19.5t10.5 -21.5q6 -12 13 -26.5t7 -31.5q0 -37 -22.5 -53t-57.5 -16q-39 0 -56.5 26.5t-17.5 61.5q0 47 32 83t71 54q47 20 85 28.5 t87 8.5q35 0 69.5 -5t65.5 -16q43 -16 67.5 -36.5t38 -47t16.5 -59.5t3 -74l-4 -243v-30.5t2 -31.5q0 -14 6 -31.5t23 -25.5q18 -16 45 -8q18 8 41 14q18 -2 18 -21q-12 -35 -51 -55t-76 -20q-53 0 -82 26.5t-43 77.5q-47 -57 -114.5 -84.5t-139.5 -27.5q-82 0 -141.5 38.5 t-59.5 128.5zM207 781l172 251q12 18 23.5 25.5t42.5 7.5q29 0 40 -7t21 -24l172 -253l-35 -23l-200 197l-201 -197zM275 160q0 -51 35.5 -81t82.5 -30q45 0 87.5 22.5t68.5 57.5q29 39 31 76t2 82v61q-41 -8 -94.5 -17t-100.5 -27.5t-79.5 -52.5t-32.5 -91zM635 944 q66 96 91.5 136.5t53.5 87.5q25 37 45.5 50t46.5 13q27 0 44.5 -17.5t17.5 -37.5q0 -29 -13.5 -46.5t-37.5 -35.5q-37 -29 -95.5 -74t-126.5 -98z" />
<glyph unicode="&#x1ea6;" horiz-adv-x="1019" d="M-12 0v63q59 2 93 30t54 81l342 868h55l375 -917q10 -25 22.5 -37t27 -17t33 -6.5t42.5 -1.5v-63h-432v63q29 2 59.5 2.5t59.5 6.5q10 2 19.5 11t9.5 19q0 12 -7 25l-82 205h-383q-10 -29 -20 -56.5t-20 -58.5q-8 -23 -13.5 -37t-5.5 -37q0 -29 14.5 -45t37 -23t47 -9.5 t46.5 -2.5v-63h-374zM270 1115l172 251q12 18 23.5 25.5t42.5 7.5q29 0 40 -7t21 -24l172 -253l-35 -23l-200 197l-201 -197zM303 403h328l-166 416zM455 1571q0 20 16 37.5t43 17.5q29 0 49.5 -12t42.5 -51q25 -39 59 -90.5t89 -133.5l-29 -22q-74 59 -133.5 103t-85.5 69 q-29 23 -40 37t-11 45z" />
<glyph unicode="&#x1ea7;" horiz-adv-x="786" d="M135 147q0 70 50.5 116t121 76t146.5 44t129 23q4 25 2 49t-2 51q-4 66 -49 86t-103 20q-29 0 -63.5 -4t-56.5 -24q-12 -10 -10.5 -19.5t10.5 -21.5q6 -12 13 -26.5t7 -31.5q0 -37 -22.5 -53t-57.5 -16q-39 0 -56.5 26.5t-17.5 61.5q0 47 32 83t71 54q47 20 85 28.5 t87 8.5q35 0 69.5 -5t65.5 -16q43 -16 67.5 -36.5t38 -47t16.5 -59.5t3 -74l-4 -243v-30.5t2 -31.5q0 -14 6 -31.5t23 -25.5q18 -16 45 -8q18 8 41 14q18 -2 18 -21q-12 -35 -51 -55t-76 -20q-53 0 -82 26.5t-43 77.5q-47 -57 -114.5 -84.5t-139.5 -27.5q-82 0 -141.5 38.5 t-59.5 128.5zM207 781l172 251q12 18 23.5 25.5t42.5 7.5q29 0 40 -7t21 -24l172 -253l-35 -23l-200 197l-201 -197zM275 160q0 -51 35.5 -81t82.5 -30q45 0 87.5 22.5t68.5 57.5q29 39 31 76t2 82v61q-41 -8 -94.5 -17t-100.5 -27.5t-79.5 -52.5t-32.5 -91zM463 1182 q0 20 16 37.5t43 17.5q29 0 49.5 -12t42.5 -51q25 -39 59 -90.5t89 -133.5l-29 -22q-74 59 -133.5 103t-85.5 69q-29 23 -40 37t-11 45z" />
<glyph unicode="&#x1ea8;" horiz-adv-x="1019" d="M-12 0v63q59 2 93 30t54 81l342 868h55l375 -917q10 -25 22.5 -37t27 -17t33 -6.5t42.5 -1.5v-63h-432v63q29 2 59.5 2.5t59.5 6.5q10 2 19.5 11t9.5 19q0 12 -7 25l-82 205h-383q-10 -29 -20 -56.5t-20 -58.5q-8 -23 -13.5 -37t-5.5 -37q0 -29 14.5 -45t37 -23t47 -9.5 t46.5 -2.5v-63h-374zM270 1115l172 251q12 18 23.5 25.5t42.5 7.5q29 0 40 -7t21 -24l172 -253l-35 -23l-200 197l-201 -197zM303 403h328l-166 416zM641 1556v52h84q92 0 143.5 -38t51.5 -104q0 -51 -42 -104t-130 -105h-43q43 35 71.5 79t28.5 108q0 25 -7 45t-26 37 q-18 14 -51 22t-80 8z" />
<glyph unicode="&#x1ea9;" horiz-adv-x="786" d="M135 147q0 70 50.5 116t121 76t146.5 44t129 23q4 25 2 49t-2 51q-4 66 -49 86t-103 20q-29 0 -63.5 -4t-56.5 -24q-12 -10 -10.5 -19.5t10.5 -21.5q6 -12 13 -26.5t7 -31.5q0 -37 -22.5 -53t-57.5 -16q-39 0 -56.5 26.5t-17.5 61.5q0 47 32 83t71 54q47 20 85 28.5 t87 8.5q35 0 69.5 -5t65.5 -16q43 -16 67.5 -36.5t38 -47t16.5 -59.5t3 -74l-4 -243v-30.5t2 -31.5q0 -14 6 -31.5t23 -25.5q18 -16 45 -8q18 8 41 14q18 -2 18 -21q-12 -35 -51 -55t-76 -20q-53 0 -82 26.5t-43 77.5q-47 -57 -114.5 -84.5t-139.5 -27.5q-82 0 -141.5 38.5 t-59.5 128.5zM207 781l172 251q12 18 23.5 25.5t42.5 7.5q29 0 40 -7t21 -24l172 -253l-35 -23l-200 197l-201 -197zM275 160q0 -51 35.5 -81t82.5 -30q45 0 87.5 22.5t68.5 57.5q29 39 31 76t2 82v61q-41 -8 -94.5 -17t-100.5 -27.5t-79.5 -52.5t-32.5 -91zM571 1212v52h84 q92 0 143.5 -38t51.5 -104q0 -51 -42 -104t-130 -105h-43q43 35 71.5 79t28.5 108q0 25 -7 45t-26 37q-18 14 -51 22t-80 8z" />
<glyph unicode="&#x1eaa;" horiz-adv-x="1019" d="M-12 0v63q59 2 93 30t54 81l342 868h55l375 -917q10 -25 22.5 -37t27 -17t33 -6.5t42.5 -1.5v-63h-432v63q29 2 59.5 2.5t59.5 6.5q10 2 19.5 11t9.5 19q0 12 -7 25l-82 205h-383q-10 -29 -20 -56.5t-20 -58.5q-8 -23 -13.5 -37t-5.5 -37q0 -29 14.5 -45t37 -23t47 -9.5 t46.5 -2.5v-63h-374zM233 1448q6 23 23.5 55.5t40.5 56.5q20 27 52 45.5t64 18.5q41 0 71 -12.5t54 -26.5q27 -14 46.5 -25.5t46.5 -11.5q29 0 46 7t27 20q12 14 20.5 29.5t18.5 39.5l43 -14q-6 -29 -20.5 -57.5t-38.5 -57.5q-29 -29 -56.5 -46t-68.5 -17t-72 12t-53 25 q-27 14 -49.5 26.5t-48.5 12.5q-25 0 -35 -6.5t-25 -18.5q-10 -14 -22.5 -35.5t-22.5 -40.5zM270 1115l172 251q12 18 23.5 25.5t42.5 7.5q29 0 40 -7t21 -24l172 -253l-35 -23l-200 197l-201 -197zM303 403h328l-166 416z" />
<glyph unicode="&#x1eab;" horiz-adv-x="786" d="M135 147q0 70 50.5 116t121 76t146.5 44t129 23q4 25 2 49t-2 51q-4 66 -49 86t-103 20q-29 0 -63.5 -4t-56.5 -24q-12 -10 -10.5 -19.5t10.5 -21.5q6 -12 13 -26.5t7 -31.5q0 -37 -22.5 -53t-57.5 -16q-39 0 -56.5 26.5t-17.5 61.5q0 47 32 83t71 54q47 20 85 28.5 t87 8.5q35 0 69.5 -5t65.5 -16q43 -16 67.5 -36.5t38 -47t16.5 -59.5t3 -74l-4 -243v-30.5t2 -31.5q0 -14 6 -31.5t23 -25.5q18 -16 45 -8q18 8 41 14q18 -2 18 -21q-12 -35 -51 -55t-76 -20q-53 0 -82 26.5t-43 77.5q-47 -57 -114.5 -84.5t-139.5 -27.5q-82 0 -141.5 38.5 t-59.5 128.5zM157 1129q6 23 23.5 55.5t40.5 56.5q20 27 52 45.5t64 18.5q41 0 71 -12.5t54 -26.5q27 -14 46.5 -25.5t46.5 -11.5q29 0 46 7t27 20q12 14 20.5 29.5t18.5 39.5l43 -14q-6 -29 -20.5 -57.5t-38.5 -57.5q-29 -29 -56.5 -46t-68.5 -17t-72 12t-53 25 q-27 14 -49.5 26.5t-48.5 12.5q-25 0 -35 -6.5t-25 -18.5q-10 -14 -22.5 -35.5t-22.5 -40.5zM207 781l172 251q12 18 23.5 25.5t42.5 7.5q29 0 40 -7t21 -24l172 -253l-35 -23l-200 197l-201 -197zM275 160q0 -51 35.5 -81t82.5 -30q45 0 87.5 22.5t68.5 57.5q29 39 31 76 t2 82v61q-41 -8 -94.5 -17t-100.5 -27.5t-79.5 -52.5t-32.5 -91z" />
<glyph unicode="&#x1eac;" horiz-adv-x="1019" d="M-12 0v63q59 2 93 30t54 81l342 868h55l375 -917q10 -25 22.5 -37t27 -17t33 -6.5t42.5 -1.5v-63h-432v63q29 2 59.5 2.5t59.5 6.5q10 2 19.5 11t9.5 19q0 12 -7 25l-82 205h-383q-10 -29 -20 -56.5t-20 -58.5q-8 -23 -13.5 -37t-5.5 -37q0 -29 14.5 -45t37 -23t47 -9.5 t46.5 -2.5v-63h-374zM270 1115l172 251q12 18 23.5 25.5t42.5 7.5q29 0 40 -7t21 -24l172 -253l-35 -23l-200 197l-201 -197zM303 403h328l-166 416zM412 -199q0 39 27.5 69t64.5 30q41 0 67.5 -27.5t26.5 -64.5q0 -41 -27.5 -72t-66.5 -31q-37 0 -64.5 29t-27.5 67z" />
<glyph unicode="&#x1ead;" horiz-adv-x="786" d="M135 147q0 70 50.5 116t121 76t146.5 44t129 23q4 25 2 49t-2 51q-4 66 -49 86t-103 20q-29 0 -63.5 -4t-56.5 -24q-12 -10 -10.5 -19.5t10.5 -21.5q6 -12 13 -26.5t7 -31.5q0 -37 -22.5 -53t-57.5 -16q-39 0 -56.5 26.5t-17.5 61.5q0 47 32 83t71 54q47 20 85 28.5 t87 8.5q35 0 69.5 -5t65.5 -16q43 -16 67.5 -36.5t38 -47t16.5 -59.5t3 -74l-4 -243v-30.5t2 -31.5q0 -14 6 -31.5t23 -25.5q18 -16 45 -8q18 8 41 14q18 -2 18 -21q-12 -35 -51 -55t-76 -20q-53 0 -82 26.5t-43 77.5q-47 -57 -114.5 -84.5t-139.5 -27.5q-82 0 -141.5 38.5 t-59.5 128.5zM207 781l172 251q12 18 23.5 25.5t42.5 7.5q29 0 40 -7t21 -24l172 -253l-35 -23l-200 197l-201 -197zM275 160q0 -51 35.5 -81t82.5 -30q45 0 87.5 22.5t68.5 57.5q29 39 31 76t2 82v61q-41 -8 -94.5 -17t-100.5 -27.5t-79.5 -52.5t-32.5 -91zM351 -199 q0 39 27.5 69t64.5 30q41 0 67.5 -27.5t26.5 -64.5q0 -41 -27.5 -72t-66.5 -31q-37 0 -64.5 29t-27.5 67z" />
<glyph unicode="&#x1eae;" horiz-adv-x="1019" d="M-12 0v63q59 2 93 30t54 81l342 868h55l375 -917q10 -25 22.5 -37t27 -17t33 -6.5t42.5 -1.5v-63h-432v63q29 2 59.5 2.5t59.5 6.5q10 2 19.5 11t9.5 19q0 12 -7 25l-82 205h-383q-10 -29 -20 -56.5t-20 -58.5q-8 -23 -13.5 -37t-5.5 -37q0 -29 14.5 -45t37 -23t47 -9.5 t46.5 -2.5v-63h-374zM290 1394l41 11q10 -35 24.5 -67t35.5 -52q20 -25 50 -37t77 -12q45 0 75.5 12t51.5 35q20 23 34.5 53.5t24.5 67.5l41 -11q-20 -137 -76.5 -201.5t-150.5 -64.5q-96 0 -152.5 68.5t-75.5 197.5zM303 403h328l-166 416zM490 1337q66 96 91.5 136.5 t53.5 87.5q25 37 45.5 50t46.5 13q27 0 44.5 -17.5t17.5 -37.5q0 -29 -13.5 -46.5t-37.5 -35.5q-37 -29 -95.5 -74t-126.5 -98z" />
<glyph unicode="&#x1eaf;" horiz-adv-x="786" d="M135 147q0 70 50.5 116t121 76t146.5 44t129 23q4 25 2 49t-2 51q-4 66 -49 86t-103 20q-29 0 -63.5 -4t-56.5 -24q-12 -10 -10.5 -19.5t10.5 -21.5q6 -12 13 -26.5t7 -31.5q0 -37 -22.5 -53t-57.5 -16q-39 0 -56.5 26.5t-17.5 61.5q0 47 32 83t71 54q47 20 85 28.5 t87 8.5q35 0 69.5 -5t65.5 -16q43 -16 67.5 -36.5t38 -47t16.5 -59.5t3 -74l-4 -243v-30.5t2 -31.5q0 -14 6 -31.5t23 -25.5q18 -16 45 -8q18 8 41 14q18 -2 18 -21q-12 -35 -51 -55t-76 -20q-53 0 -82 26.5t-43 77.5q-47 -57 -114.5 -84.5t-139.5 -27.5q-82 0 -141.5 38.5 t-59.5 128.5zM213 1022l41 11q10 -35 24.5 -67t35.5 -52q20 -25 50 -37t77 -12q45 0 75.5 12t51.5 35q20 23 34.5 53.5t24.5 67.5l41 -11q-20 -137 -76.5 -201.5t-150.5 -64.5q-96 0 -152.5 68.5t-75.5 197.5zM275 160q0 -51 35.5 -81t82.5 -30q45 0 87.5 22.5t68.5 57.5 q29 39 31 76t2 82v61q-41 -8 -94.5 -17t-100.5 -27.5t-79.5 -52.5t-32.5 -91zM414 979q66 96 91.5 136.5t53.5 87.5q25 37 45.5 50t46.5 13q27 0 44.5 -17.5t17.5 -37.5q0 -29 -13.5 -46.5t-37.5 -35.5q-37 -29 -95.5 -74t-126.5 -98z" />
<glyph unicode="&#x1eb0;" horiz-adv-x="1019" d="M-12 0v63q59 2 93 30t54 81l342 868h55l375 -917q10 -25 22.5 -37t27 -17t33 -6.5t42.5 -1.5v-63h-432v63q29 2 59.5 2.5t59.5 6.5q10 2 19.5 11t9.5 19q0 12 -7 25l-82 205h-383q-10 -29 -20 -56.5t-20 -58.5q-8 -23 -13.5 -37t-5.5 -37q0 -29 14.5 -45t37 -23t47 -9.5 t46.5 -2.5v-63h-374zM228 1571q0 20 16 37.5t43 17.5q29 0 49.5 -12t42.5 -51q25 -39 59 -90.5t89 -133.5l-29 -22q-74 59 -133.5 103t-85.5 69q-29 23 -40 37t-11 45zM254 1394l41 11q10 -35 24.5 -67t35.5 -52q20 -25 50 -37t77 -12q45 0 75.5 12t51.5 35q20 23 34.5 53.5 t24.5 67.5l41 -11q-20 -137 -76.5 -201.5t-150.5 -64.5q-96 0 -152.5 68.5t-75.5 197.5zM303 403h328l-166 416z" />
<glyph unicode="&#x1eb1;" horiz-adv-x="786" d="M135 147q0 70 50.5 116t121 76t146.5 44t129 23q4 25 2 49t-2 51q-4 66 -49 86t-103 20q-29 0 -63.5 -4t-56.5 -24q-12 -10 -10.5 -19.5t10.5 -21.5q6 -12 13 -26.5t7 -31.5q0 -37 -22.5 -53t-57.5 -16q-39 0 -56.5 26.5t-17.5 61.5q0 47 32 83t71 54q47 20 85 28.5 t87 8.5q35 0 69.5 -5t65.5 -16q43 -16 67.5 -36.5t38 -47t16.5 -59.5t3 -74l-4 -243v-30.5t2 -31.5q0 -14 6 -31.5t23 -25.5q18 -16 45 -8q18 8 41 14q18 -2 18 -21q-12 -35 -51 -55t-76 -20q-53 0 -82 26.5t-43 77.5q-47 -57 -114.5 -84.5t-139.5 -27.5q-82 0 -141.5 38.5 t-59.5 128.5zM183 1233q0 20 16 37.5t43 17.5q29 0 49.5 -12t42.5 -51q25 -39 59 -90.5t89 -133.5l-29 -22q-74 59 -133.5 103t-85.5 69q-29 23 -40 37t-11 45zM213 1022l41 11q10 -35 24.5 -67t35.5 -52q20 -25 50 -37t77 -12q45 0 75.5 12t51.5 35q20 23 34.5 53.5 t24.5 67.5l41 -11q-20 -137 -76.5 -201.5t-150.5 -64.5q-96 0 -152.5 68.5t-75.5 197.5zM275 160q0 -51 35.5 -81t82.5 -30q45 0 87.5 22.5t68.5 57.5q29 39 31 76t2 82v61q-41 -8 -94.5 -17t-100.5 -27.5t-79.5 -52.5t-32.5 -91z" />
<glyph unicode="&#x1eb2;" horiz-adv-x="1019" d="M-12 0v63q59 2 93 30t54 81l342 868h55l375 -917q10 -25 22.5 -37t27 -17t33 -6.5t42.5 -1.5v-63h-432v63q29 2 59.5 2.5t59.5 6.5q10 2 19.5 11t9.5 19q0 12 -7 25l-82 205h-383q-10 -29 -20 -56.5t-20 -58.5q-8 -23 -13.5 -37t-5.5 -37q0 -29 14.5 -45t37 -23t47 -9.5 t46.5 -2.5v-63h-374zM254 1394l41 11q10 -35 24.5 -67t35.5 -52q20 -25 50 -37t77 -12q45 0 75.5 12t51.5 35q20 23 34.5 53.5t24.5 67.5l41 -11q-20 -137 -76.5 -201.5t-150.5 -64.5q-96 0 -152.5 68.5t-75.5 197.5zM303 403h328l-166 416zM366 1616v52h84q92 0 143.5 -38 t51.5 -104q0 -51 -42 -104t-130 -105h-43q43 35 71.5 79t28.5 108q0 25 -7 45t-26 37q-18 14 -51 22t-80 8z" />
<glyph unicode="&#x1eb3;" horiz-adv-x="786" d="M135 147q0 70 50.5 116t121 76t146.5 44t129 23q4 25 2 49t-2 51q-4 66 -49 86t-103 20q-29 0 -63.5 -4t-56.5 -24q-12 -10 -10.5 -19.5t10.5 -21.5q6 -12 13 -26.5t7 -31.5q0 -37 -22.5 -53t-57.5 -16q-39 0 -56.5 26.5t-17.5 61.5q0 47 32 83t71 54q47 20 85 28.5 t87 8.5q35 0 69.5 -5t65.5 -16q43 -16 67.5 -36.5t38 -47t16.5 -59.5t3 -74l-4 -243v-30.5t2 -31.5q0 -14 6 -31.5t23 -25.5q18 -16 45 -8q18 8 41 14q18 -2 18 -21q-12 -35 -51 -55t-76 -20q-53 0 -82 26.5t-43 77.5q-47 -57 -114.5 -84.5t-139.5 -27.5q-82 0 -141.5 38.5 t-59.5 128.5zM213 1022l41 11q10 -35 24.5 -67t35.5 -52q20 -25 50 -37t77 -12q45 0 75.5 12t51.5 35q20 23 34.5 53.5t24.5 67.5l41 -11q-20 -137 -76.5 -201.5t-150.5 -64.5q-96 0 -152.5 68.5t-75.5 197.5zM275 160q0 -51 35.5 -81t82.5 -30q45 0 87.5 22.5t68.5 57.5 q29 39 31 76t2 82v61q-41 -8 -94.5 -17t-100.5 -27.5t-79.5 -52.5t-32.5 -91zM325 1247v52h84q92 0 143.5 -38t51.5 -104q0 -51 -42 -104t-130 -105h-43q43 35 71.5 79t28.5 108q0 25 -7 45t-26 37q-18 14 -51 22t-80 8z" />
<glyph unicode="&#x1eb4;" horiz-adv-x="1019" d="M-12 0v63q59 2 93 30t54 81l342 868h55l375 -917q10 -25 22.5 -37t27 -17t33 -6.5t42.5 -1.5v-63h-432v63q29 2 59.5 2.5t59.5 6.5q10 2 19.5 11t9.5 19q0 12 -7 25l-82 205h-383q-10 -29 -20 -56.5t-20 -58.5q-8 -23 -13.5 -37t-5.5 -37q0 -29 14.5 -45t37 -23t47 -9.5 t46.5 -2.5v-63h-374zM229 1448q6 23 23.5 55.5t40.5 56.5q20 27 52 45.5t64 18.5q41 0 71 -12.5t54 -26.5q27 -14 46.5 -25.5t46.5 -11.5q29 0 46 7t27 20q12 14 20.5 29.5t18.5 39.5l43 -14q-6 -29 -20.5 -57.5t-38.5 -57.5q-29 -29 -56.5 -46t-68.5 -17t-72 12t-53 25 q-27 14 -49.5 26.5t-48.5 12.5q-25 0 -35 -6.5t-25 -18.5q-10 -14 -22.5 -35.5t-22.5 -40.5zM254 1394l41 11q10 -35 24.5 -67t35.5 -52q20 -25 50 -37t77 -12q45 0 75.5 12t51.5 35q20 23 34.5 53.5t24.5 67.5l41 -11q-20 -137 -76.5 -201.5t-150.5 -64.5 q-96 0 -152.5 68.5t-75.5 197.5zM303 403h328l-166 416z" />
</font>
</defs>
</svg>
